<svg xmlns="http://www.w3.org/2000/svg" xmlns:xlink="http://www.w3.org/1999/xlink" width="694.929" height="507.995" viewBox="0 0 694.929 507.995"><defs><clipPath id="a"><rect width="76.964" height="47.678" fill="#12263f"/></clipPath><clipPath id="b"><rect width="115.572" height="115.572" fill="#cce951"/></clipPath><clipPath id="c"><rect width="114.031" height="115.498" fill="#cce951"/></clipPath><clipPath id="d"><rect width="115.497" height="114.031" fill="#cce951"/></clipPath><clipPath id="e"><rect width="113.955" height="113.955" fill="#cce951"/></clipPath><clipPath id="f"><rect width="246.216" height="63.91" fill="#1dd1ff"/></clipPath><clipPath id="g"><path d="M163.5,311.228a10.842,10.842,0,1,0,10.842-10.843A10.841,10.841,0,0,0,163.5,311.228" transform="translate(-163.5 -300.385)" fill="none"/></clipPath><linearGradient id="h" x1="-8.605" y1="5.705" x2="-8.553" y2="5.705" gradientUnits="objectBoundingBox"><stop offset="0" stop-color="#d5e3ed"/><stop offset="0.794" stop-color="#f8fafc"/><stop offset="0.924" stop-color="#fff"/><stop offset="1" stop-color="#fff"/></linearGradient><clipPath id="i"><rect width="246.216" height="64.481" fill="#1dd1ff"/></clipPath><clipPath id="k"><path d="M218.5,149.228a10.842,10.842,0,1,0,10.842-10.843A10.841,10.841,0,0,0,218.5,149.228" transform="translate(-218.5 -138.385)" fill="none"/></clipPath><linearGradient id="l" x1="-11.5" y1="14.232" x2="-11.447" y2="14.232" xlink:href="#h"/><clipPath id="m"><path d="M163.5,96.228a10.842,10.842,0,1,0,10.842-10.843A10.842,10.842,0,0,0,163.5,96.228" transform="translate(-163.5 -85.385)" fill="none"/></clipPath><linearGradient id="n" x1="-8.605" y1="17.02" x2="-8.553" y2="17.02" xlink:href="#h"/><clipPath id="q"><path d="M218.5,258.228a10.842,10.842,0,1,0,10.842-10.843A10.842,10.842,0,0,0,218.5,258.228" transform="translate(-218.5 -247.385)" fill="none"/></clipPath><linearGradient id="r" x1="-11.5" y1="8.494" x2="-11.447" y2="8.494" xlink:href="#h"/></defs><g transform="translate(-495.071 -5038.675)"><g transform="translate(594 5243.896)"><g transform="translate(0 0)" clip-path="url(#a)"><path d="M24.328,24.377H23.8a4.6,4.6,0,0,1-4.6-4.6,1.206,1.206,0,1,1,2.412,0A2.188,2.188,0,0,0,23.8,21.963h.525a2.188,2.188,0,0,0,2.185-2.185,1.942,1.942,0,0,0-1.94-1.94H23.56a4.359,4.359,0,0,1-4.354-4.356,4.6,4.6,0,0,1,4.6-4.6h.525a4.6,4.6,0,0,1,4.6,4.6,1.207,1.207,0,1,1-2.414,0A2.188,2.188,0,0,0,24.328,11.3H23.8a2.188,2.188,0,0,0-2.185,2.185,1.944,1.944,0,0,0,1.941,1.941h1.014a4.359,4.359,0,0,1,4.354,4.354,4.605,4.605,0,0,1-4.6,4.6" transform="translate(14.416 6.67)" fill="#12263f"/><path d="M22.5,12.369a1.206,1.206,0,0,1-1.206-1.206v-2.5a1.206,1.206,0,0,1,2.412,0v2.5A1.206,1.206,0,0,1,22.5,12.369" transform="translate(15.983 5.599)" fill="#12263f"/><path d="M28.562,35.236A15.346,15.346,0,1,1,43.908,19.89,15.363,15.363,0,0,1,28.562,35.236m0-28.279A12.933,12.933,0,1,0,41.5,19.89,12.948,12.948,0,0,0,28.562,6.956" transform="translate(9.92 3.411)" fill="#12263f"/><path d="M22.5,21.266a1.206,1.206,0,0,1-1.206-1.206v-2.5a1.206,1.206,0,1,1,2.412,0v2.5A1.206,1.206,0,0,1,22.5,21.266" transform="translate(15.983 12.278)" fill="#12263f"/><path d="M7,14A7,7,0,1,1,9,13.707,7.01,7.01,0,0,1,7,14M7,2.412A4.624,4.624,0,0,0,5.691,2.6,4.585,4.585,0,1,0,7,2.412" transform="translate(0 0)" fill="#12263f"/><path d="M42.971,14a7,7,0,1,1,1.994-.291A7.012,7.012,0,0,1,42.971,14M42.965,2.412a4.624,4.624,0,0,0-1.306.191,4.585,4.585,0,1,0,1.306-.191" transform="translate(26.996 0)" fill="#12263f"/><path d="M11.656,41.032a1.209,1.209,0,0,1-1.2-1.089c-.005-.056-.011-.128-.011-.175l-.079-24.622a3.809,3.809,0,0,0-3.337-3.867,3.616,3.616,0,0,0-2.79.958A3.66,3.66,0,0,0,3.069,14.93l.079,24.892a1.207,1.207,0,0,1-2.414.007L.655,14.941a6.062,6.062,0,0,1,6.57-6.068,6.234,6.234,0,0,1,5.553,6.262l.079,24.57a1.218,1.218,0,0,1-1.143,1.325c-.019,0-.039,0-.058,0" transform="translate(0.492 6.646)" fill="#12263f"/><path d="M37.656,41.032A1.211,1.211,0,0,1,36.45,39.8a.836.836,0,0,1,.005-.089l.079-24.573a6.234,6.234,0,0,1,5.553-6.262,6.062,6.062,0,0,1,6.57,6.069l-.079,24.887a1.207,1.207,0,0,1-2.414-.007l.079-24.888a3.657,3.657,0,0,0-1.171-2.7,3.619,3.619,0,0,0-2.789-.958,3.809,3.809,0,0,0-3.337,3.867l-.079,24.626a1.275,1.275,0,0,1-.011.158,1.2,1.2,0,0,1-1.2,1.1" transform="translate(27.36 6.646)" fill="#12263f"/><path d="M30.651,6.956H11.639a1.206,1.206,0,1,1,0-2.412H30.651a1.206,1.206,0,0,1,0,2.412" transform="translate(7.831 3.411)" fill="#12263f"/><path d="M14.918,10.578a1.2,1.2,0,0,1-.737-.252L10.9,7.791a1.209,1.209,0,0,1,0-1.91l3.281-2.535a1.207,1.207,0,0,1,1.476,1.91L13.612,6.837l2.045,1.579a1.207,1.207,0,0,1-.739,2.162" transform="translate(7.831 2.324)" fill="#12263f"/><path d="M34.949,3.738H19.34a1.206,1.206,0,0,1,0-2.412H34.949a1.206,1.206,0,0,1,0,2.412" transform="translate(13.612 0.995)" fill="#12263f"/><path d="M41.419,23.111H22.407a1.207,1.207,0,0,1,0-2.414H41.419a1.207,1.207,0,0,1,0,2.414" transform="translate(15.914 15.536)" fill="#12263f"/><path d="M31.395,26.732a1.207,1.207,0,0,1-.739-2.162L32.7,22.991l-2.045-1.581a1.207,1.207,0,1,1,1.476-1.91l3.279,2.535a1.206,1.206,0,0,1,0,1.91L32.132,26.48a1.2,1.2,0,0,1-.737.252" transform="translate(22.659 14.449)" fill="#12263f"/><path d="M32.258,26.33H16.649a1.207,1.207,0,0,1,0-2.414H32.258a1.207,1.207,0,0,1,0,2.414" transform="translate(11.592 17.952)" fill="#12263f"/></g></g><g transform="translate(511.548 5176.001)" opacity="0.8"><g clip-path="url(#b)"><path d="M130.073,112.34V96.385A121.093,121.093,0,0,0,14.5,211.959H30.453a105.166,105.166,0,0,1,99.62-99.619" transform="translate(-14.5 -96.386)" fill="#cce951"/></g></g><g transform="translate(639.463 5176.075)" opacity="0.8"><g clip-path="url(#c)"><path d="M224.659,211.949h15.955a121.1,121.1,0,0,0-114.031-115.5v16a105.15,105.15,0,0,1,98.076,99.5" transform="translate(-126.583 -96.451)" fill="#cce951"/></g></g><g transform="translate(511.623 5303.916)" opacity="0.8"><g clip-path="url(#d)"><path d="M30.562,208.469h-16A121.1,121.1,0,0,0,130.063,322.5V306.545a105.149,105.149,0,0,1-99.5-98.076" transform="translate(-14.566 -208.469)" fill="#cce951"/></g></g><g transform="translate(639.463 5303.916)" opacity="0.8"><g clip-path="url(#e)"><path d="M126.583,306.427v16A121.1,121.1,0,0,0,240.538,208.469h-16a105.134,105.134,0,0,1-97.959,97.958" transform="translate(-126.583 -208.469)" fill="#cce951"/></g></g><path d="M123.448,355.492a136.962,136.962,0,0,1,0-272.487" transform="translate(495.071 5077.725)" fill="none" stroke="#fe9a2a" stroke-miterlimit="10" stroke-width="1"/><path d="M121.572,82.39a136.951,136.951,0,0,1,0,273.891" transform="translate(512.172 5077.638)" fill="none" stroke="#fe9a2a" stroke-miterlimit="10" stroke-width="1"/><path d="M121.754,83.861a1.287,1.287,0,1,1,1.319-1.254,1.287,1.287,0,0,1-1.319,1.254" transform="translate(512.021 5077.482)" fill="#fe9a2a"/><path d="M121.754,321.229a1.288,1.288,0,1,0,1.319,1.255,1.288,1.288,0,0,0-1.319-1.255" transform="translate(512.021 5111.375)" fill="#fe9a2a"/><path d="M113.47,0A113.47,113.47,0,1,1,0,113.47,113.47,113.47,0,0,1,113.47,0Z" transform="translate(519.5 5183.503)" fill="none" stroke="#006682" stroke-width="3"/><g transform="translate(695.025 5471)" opacity="0.8"><g clip-path="url(#f)"><path d="M447.261,405.8H233v-63.91H447.261a31.955,31.955,0,0,1,0,63.91" transform="translate(-233 -341.885)" fill="#1dd1ff"/></g></g><g transform="translate(681.595 5408.815)"><g clip-path="url(#g)"><rect width="21.684" height="21.684" fill="url(#h)"/></g></g><path d="M10.842,0A10.842,10.842,0,1,1,0,10.842,10.842,10.842,0,0,1,10.842,0Z" transform="translate(681.595 5408.816)" fill="none" stroke="#fff" stroke-width="0.285"/><g transform="translate(858.784 5142)" opacity="0.8"><g clip-path="url(#i)"><path d="M533.019,183.867H318.758V119.386H533.019a31.955,31.955,0,0,1,31.955,31.955v.571a31.955,31.955,0,0,1-31.955,31.955" transform="translate(-318.758 -119.386)" fill="#1dd1ff"/></g></g><g transform="translate(943.784 5255)" opacity="0.8"><g clip-path="url(#i)"><path d="M533.019,183.867H318.758V119.386H533.019a31.955,31.955,0,0,1,31.955,31.955v.571a31.955,31.955,0,0,1-31.955,31.955" transform="translate(-318.758 -119.386)" fill="#1dd1ff"/></g></g><g transform="translate(744.364 5223.932)"><g clip-path="url(#k)"><rect width="21.684" height="21.684" transform="translate(0 0)" fill="url(#l)"/></g></g><path d="M10.842,0A10.842,10.842,0,1,1,0,10.842,10.842,10.842,0,0,1,10.842,0Z" transform="translate(744.364 5223.933)" fill="none" stroke="#fff" stroke-width="0.285"/><g transform="translate(681.595 5163.446)"><g clip-path="url(#m)"><rect width="21.684" height="21.685" transform="translate(0 0)" fill="url(#n)"/></g></g><path d="M10.842,0A10.842,10.842,0,1,1,0,10.842,10.842,10.842,0,0,1,10.842,0Z" transform="translate(681.595 5163.447)" fill="none" stroke="#fff" stroke-width="0.285"/><g transform="translate(858.784 5363)"><g clip-path="url(#i)"><g opacity="0.8"><g clip-path="url(#i)"><path d="M533.019,293.117H318.758V228.636H533.019a31.955,31.955,0,0,1,31.955,31.955v.571a31.955,31.955,0,0,1-31.955,31.955" transform="translate(-318.758 -228.636)" fill="#1dd1ff"/></g></g></g></g><g transform="translate(744.364 5348.329)"><g clip-path="url(#q)"><rect width="21.684" height="21.685" transform="translate(0 0)" fill="url(#r)"/></g></g><path d="M10.842,0A10.842,10.842,0,1,1,0,10.842,10.842,10.842,0,0,1,10.842,0Z" transform="translate(744.364 5348.33)" fill="none" stroke="#fff" stroke-width="0.285"/><path d="M356.139,151.774a37.274,37.274,0,1,0-37.274,37.274,37.275,37.275,0,0,0,37.274-37.274" transform="translate(534.41 5021.5)" fill="#fff"/><path d="M356.139,151.774a37.274,37.274,0,1,0-37.274,37.274,37.275,37.275,0,0,0,37.274-37.274" transform="translate(619.775 5134.885)" fill="#fff"/><path d="M37.274,0A37.274,37.274,0,1,1,0,37.274,37.274,37.274,0,0,1,37.274,0Z" transform="translate(810.876 5142.914) rotate(-9.217)" fill="none" stroke="#006682" stroke-width="1"/><path d="M37.274,0A37.274,37.274,0,1,1,0,37.274,37.274,37.274,0,0,1,37.274,0Z" transform="translate(895.5 5255.441) rotate(-9.217)" fill="none" stroke="#006682" stroke-width="1"/><path d="M344.614,175.512a37.288,37.288,0,0,0-41.853-58.64" transform="translate(537.766 5021.962)" fill="none" stroke="#387db8" stroke-miterlimit="10" stroke-width="5"/><path d="M344.614,175.512a37.288,37.288,0,0,0-41.853-58.64" transform="translate(622.766 5134.885)" fill="none" stroke="#387db8" stroke-miterlimit="10" stroke-width="5"/><path d="M278.181,134.674a43.9,43.9,0,0,0,48.956,57.487" transform="translate(533.96 5024.812)" fill="none" stroke="#fe9a2a" stroke-miterlimit="10" stroke-width="5"/><path d="M278.181,134.674a43.9,43.9,0,0,0,48.956,57.487" transform="translate(618.96 5137.734)" fill="none" stroke="#fe9a2a" stroke-miterlimit="10" stroke-width="5"/><path d="M354.423,258.2a35.7,35.7,0,1,0-35.7,35.7,35.7,35.7,0,0,0,35.7-35.7" transform="translate(534.979 5133.687)" fill="#fff"/><path d="M354.423,258.2a35.7,35.7,0,1,0-35.7,35.7A35.7,35.7,0,0,0,354.423,258.2Z" transform="translate(535.468 5133.999)" fill="none" stroke="#006682" stroke-miterlimit="10" stroke-width="1"/><path d="M343.387,280.928a35.709,35.709,0,0,0-40.081-56.157" transform="translate(537.843 5133.687)" fill="none" stroke="#387db8" stroke-miterlimit="10" stroke-width="5"/><path d="M279.767,241.819a42.043,42.043,0,0,0,46.884,55.052" transform="translate(534.198 5136.415)" fill="none" stroke="#fe9a2a" stroke-miterlimit="10" stroke-width="5"/><path d="M273.948,374.083a35.486,35.486,0,1,0-35.485,35.485,35.485,35.485,0,0,0,35.485-35.485" transform="translate(457.785 5128.325)" fill="#fff"/><path d="M273.948,374.083a35.486,35.486,0,1,0-35.485,35.485A35.485,35.485,0,0,0,273.948,374.083Z" transform="translate(457.523 5127.902)" fill="none" stroke="#006682" stroke-miterlimit="10" stroke-width="1"/><path d="M262.976,396.682a35.5,35.5,0,0,0-39.843-55.826" transform="translate(460.632 5128.325)" fill="none" stroke="#387db8" stroke-miterlimit="10" stroke-width="5"/><path d="M199.732,357.8a41.795,41.795,0,0,0,46.608,54.728" transform="translate(457.008 5131.038)" fill="none" stroke="#fe9a2a" stroke-miterlimit="10" stroke-width="5"/><path d="M173.5,321.6v29.375c0,5.579,5.686,10.1,12.7,10.1h27.535" transform="translate(445.019 5118.402)" fill="none" stroke="#fe9a2a" stroke-linecap="round" stroke-linejoin="round" stroke-width="2" stroke-dasharray="0 7"/><path d="M0,13,44,0" transform="translate(766.5 5193.5)" fill="none" stroke="#fe9a2a" stroke-linecap="round" stroke-width="2" stroke-dasharray="0 7"/><path d="M0,0,119.351.8" transform="translate(770.5 5291.5)" fill="none" stroke="#fe9a2a" stroke-linecap="round" stroke-width="2" stroke-dasharray="0 7"/><path d="M0,0,40,21" transform="translate(770.5 5385.5)" fill="none" stroke="#fe9a2a" stroke-linecap="round" stroke-width="2" stroke-dasharray="0 7"/><path d="M24.628,15.6a1.268,1.268,0,0,0-.479-1.055,5.954,5.954,0,0,0-1.683-.782,16.147,16.147,0,0,1-1.969-.782Q18.01,11.758,18.01,9.622a3.011,3.011,0,0,1,.62-1.876A4.008,4.008,0,0,1,20.383,6.48a6.823,6.823,0,0,1,2.549-.453,5.969,5.969,0,0,1,2.474.492,3.917,3.917,0,0,1,1.7,1.4A3.661,3.661,0,0,1,27.713,10H24.637a1.547,1.547,0,0,0-.479-1.213,1.867,1.867,0,0,0-1.3-.431,2.106,2.106,0,0,0-1.305.365,1.074,1.074,0,0,0,.048,1.819,6.65,6.65,0,0,0,1.854.826,11.36,11.36,0,0,1,2.18.918,3.663,3.663,0,0,1,2.074,3.3,3.125,3.125,0,0,1-1.266,2.637,5.629,5.629,0,0,1-3.472.958,6.888,6.888,0,0,1-2.817-.558,4.247,4.247,0,0,1-1.9-1.529,3.985,3.985,0,0,1-.637-2.237h3.094a1.963,1.963,0,0,0,.532,1.516,2.513,2.513,0,0,0,1.727.488,1.985,1.985,0,0,0,1.208-.33A1.088,1.088,0,0,0,24.628,15.6ZM32.283,19H29.313V9.49h2.971ZM29.137,7.038A1.322,1.322,0,0,1,29.594,6a1.943,1.943,0,0,1,2.373,0,1.322,1.322,0,0,1,.457,1.037,1.322,1.322,0,0,1-.457,1.037,1.943,1.943,0,0,1-2.373,0A1.322,1.322,0,0,1,29.137,7.038Zm9.949,9.29a.684.684,0,0,0-.4-.606,6.016,6.016,0,0,0-1.5-.475,6.853,6.853,0,0,1-1.828-.646,3.062,3.062,0,0,1-1.1-.971,2.319,2.319,0,0,1-.378-1.31,2.628,2.628,0,0,1,1.081-2.158,4.453,4.453,0,0,1,2.83-.848,4.934,4.934,0,0,1,3.023.853,2.666,2.666,0,0,1,1.143,2.241H38.989q0-1.143-1.2-1.143a1.194,1.194,0,0,0-.782.259.8.8,0,0,0-.316.646.737.737,0,0,0,.387.642,3.654,3.654,0,0,0,1.235.4,10.671,10.671,0,0,1,1.49.378,2.706,2.706,0,0,1,2.145,2.646,2.491,2.491,0,0,1-1.156,2.118,5.068,5.068,0,0,1-2.993.817,5.172,5.172,0,0,1-2.18-.439,3.645,3.645,0,0,1-1.494-1.2,2.707,2.707,0,0,1-.536-1.591h2.769a1.145,1.145,0,0,0,.439.962,1.808,1.808,0,0,0,1.081.3,1.422,1.422,0,0,0,.91-.246A.787.787,0,0,0,39.086,16.328Zm7.69-9.2V9.49h1.564v2.057H46.776V15.9a1.111,1.111,0,0,0,.193.747,1.037,1.037,0,0,0,.765.211,4.345,4.345,0,0,0,.738-.053v2.118a5.466,5.466,0,0,1-1.67.255,3.1,3.1,0,0,1-2.259-.721,2.954,2.954,0,0,1-.729-2.188v-4.72H42.6V9.49h1.213V7.126Zm7.33,12.05a4.889,4.889,0,0,1-3.542-1.305,4.507,4.507,0,0,1-1.354-3.4v-.246a5.84,5.84,0,0,1,.541-2.575,3.955,3.955,0,0,1,1.578-1.727,4.763,4.763,0,0,1,2.461-.611,4.117,4.117,0,0,1,3.164,1.244,4.887,4.887,0,0,1,1.16,3.467v1.151H52.226a2.135,2.135,0,0,0,.694,1.257,2.066,2.066,0,0,0,1.389.457,2.662,2.662,0,0,0,2.2-.984l1.354,1.6a3.784,3.784,0,0,1-1.569,1.217A5.3,5.3,0,0,1,54.106,19.176ZM53.772,11.6q-1.3,0-1.547,1.723h2.988v-.229a1.467,1.467,0,0,0-.36-1.1A1.434,1.434,0,0,0,53.772,11.6ZM62.1,9.49l.1,1.116a3.27,3.27,0,0,1,2.716-1.292,2.407,2.407,0,0,1,2.435,1.433,3.165,3.165,0,0,1,2.795-1.433q2.892,0,2.971,3.5V19H70.146V13a1.813,1.813,0,0,0-.246-1.063A1.048,1.048,0,0,0,69,11.6a1.4,1.4,0,0,0-1.31.782l.009.123V19H64.732V13.015a1.906,1.906,0,0,0-.237-1.081,1.045,1.045,0,0,0-.905-.334,1.42,1.42,0,0,0-1.3.782V19H59.327V9.49ZM80.166,19a3.344,3.344,0,0,1-.281-.853A2.754,2.754,0,0,1,77.6,19.176a3.374,3.374,0,0,1-2.285-.813,2.588,2.588,0,0,1-.94-2.043,2.66,2.66,0,0,1,1.143-2.338,5.821,5.821,0,0,1,3.322-.791h.914v-.5q0-1.316-1.134-1.316a.927.927,0,0,0-1.055,1.042H74.6a2.655,2.655,0,0,1,1.173-2.239,4.931,4.931,0,0,1,2.993-.86,4.323,4.323,0,0,1,2.874.888,3.086,3.086,0,0,1,1.081,2.435v4.21a4.311,4.311,0,0,0,.4,2V19Zm-1.854-1.934a1.652,1.652,0,0,0,.918-.237,1.487,1.487,0,0,0,.523-.536V14.772h-.861q-1.547,0-1.547,1.389a.848.848,0,0,0,.272.655A.986.986,0,0,0,78.312,17.066Zm10.16-2.892a5.809,5.809,0,0,1,.976-3.56,3.211,3.211,0,0,1,2.725-1.3,2.731,2.731,0,0,1,2.145,1V5.5h2.971V19H94.624l-.149-1.02a2.8,2.8,0,0,1-2.32,1.2,3.205,3.205,0,0,1-2.689-1.3A5.993,5.993,0,0,1,88.472,14.175Zm2.962.185q0,2.531,1.477,2.531a1.458,1.458,0,0,0,1.406-.826V12.443a1.419,1.419,0,0,0-1.389-.844q-1.371,0-1.485,2.215Zm12.138,4.816a4.889,4.889,0,0,1-3.542-1.305,4.507,4.507,0,0,1-1.354-3.4v-.246a5.84,5.84,0,0,1,.541-2.575,3.955,3.955,0,0,1,1.578-1.727,4.763,4.763,0,0,1,2.461-.611,4.117,4.117,0,0,1,3.164,1.244,4.887,4.887,0,0,1,1.16,3.467v1.151H101.69a2.135,2.135,0,0,0,.694,1.257,2.066,2.066,0,0,0,1.389.457,2.662,2.662,0,0,0,2.2-.984l1.354,1.6a3.784,3.784,0,0,1-1.569,1.217A5.3,5.3,0,0,1,103.571,19.176Zm-.334-7.576q-1.3,0-1.547,1.723h2.988v-.229a1.467,1.467,0,0,0-.36-1.1A1.434,1.434,0,0,0,103.237,11.6ZM40.391,41.891a1.317,1.317,0,0,0,.967-.338,1.241,1.241,0,0,0,.334-.945h2.777a3.288,3.288,0,0,1-1.121,2.566,4.168,4.168,0,0,1-2.887,1,4.22,4.22,0,0,1-3.27-1.3,5.125,5.125,0,0,1-1.2-3.6v-.123a5.792,5.792,0,0,1,.532-2.544,3.872,3.872,0,0,1,1.534-1.7,4.573,4.573,0,0,1,2.373-.593,4.116,4.116,0,0,1,2.944,1.028,3.647,3.647,0,0,1,1.09,2.786H41.692A1.626,1.626,0,0,0,41.332,37a1.244,1.244,0,0,0-.967-.4q-1.151,0-1.345,1.468a10.357,10.357,0,0,0-.062,1.283,4.068,4.068,0,0,0,.343,1.986A1.187,1.187,0,0,0,40.391,41.891Zm4.957-2.733a5.613,5.613,0,0,1,.554-2.536,3.96,3.96,0,0,1,1.591-1.709,4.791,4.791,0,0,1,2.435-.6,4.373,4.373,0,0,1,3.366,1.323,5.076,5.076,0,0,1,1.23,3.6v.105a4.925,4.925,0,0,1-1.235,3.529,4.384,4.384,0,0,1-3.344,1.305,4.434,4.434,0,0,1-3.261-1.217,4.761,4.761,0,0,1-1.327-3.3Zm2.962.185a3.538,3.538,0,0,0,.413,1.934,1.376,1.376,0,0,0,1.222.615q1.582,0,1.617-2.435v-.3q0-2.558-1.635-2.558-1.485,0-1.608,2.206Zm12.5,1.986a.684.684,0,0,0-.4-.606,6.016,6.016,0,0,0-1.5-.475,6.853,6.853,0,0,1-1.828-.646,3.062,3.062,0,0,1-1.1-.971,2.319,2.319,0,0,1-.378-1.31,2.628,2.628,0,0,1,1.081-2.158,4.453,4.453,0,0,1,2.83-.848,4.934,4.934,0,0,1,3.023.853,2.666,2.666,0,0,1,1.143,2.241H60.711q0-1.143-1.2-1.143a1.194,1.194,0,0,0-.782.259.8.8,0,0,0-.316.646.737.737,0,0,0,.387.642,3.654,3.654,0,0,0,1.235.4,10.671,10.671,0,0,1,1.49.378,2.706,2.706,0,0,1,2.145,2.646,2.491,2.491,0,0,1-1.156,2.118,5.068,5.068,0,0,1-2.993.817,5.172,5.172,0,0,1-2.18-.439,3.645,3.645,0,0,1-1.494-1.2,2.707,2.707,0,0,1-.536-1.591h2.769a1.145,1.145,0,0,0,.439.962,1.808,1.808,0,0,0,1.081.3,1.422,1.422,0,0,0,.91-.246A.787.787,0,0,0,60.808,41.328Zm7.69-9.2V34.49h1.564v2.057H68.5V40.9a1.111,1.111,0,0,0,.193.747,1.037,1.037,0,0,0,.765.211,4.345,4.345,0,0,0,.738-.053v2.118a5.466,5.466,0,0,1-1.67.255,3.1,3.1,0,0,1-2.259-.721,2.954,2.954,0,0,1-.729-2.188v-4.72H64.324V34.49h1.213V32.126Zm2.092,7.031a5.613,5.613,0,0,1,.554-2.536,3.96,3.96,0,0,1,1.591-1.709,4.791,4.791,0,0,1,2.435-.6,4.373,4.373,0,0,1,3.366,1.323,5.076,5.076,0,0,1,1.23,3.6v.105a4.925,4.925,0,0,1-1.235,3.529,4.384,4.384,0,0,1-3.344,1.305,4.434,4.434,0,0,1-3.261-1.217,4.761,4.761,0,0,1-1.327-3.3Zm2.962.185a3.538,3.538,0,0,0,.413,1.934,1.376,1.376,0,0,0,1.222.615q1.582,0,1.617-2.435v-.3q0-2.558-1.635-2.558-1.485,0-1.608,2.206Zm12.5,1.986a.684.684,0,0,0-.4-.606,6.016,6.016,0,0,0-1.5-.475,6.853,6.853,0,0,1-1.828-.646,3.062,3.062,0,0,1-1.1-.971,2.319,2.319,0,0,1-.378-1.31,2.628,2.628,0,0,1,1.081-2.158,4.453,4.453,0,0,1,2.83-.848,4.934,4.934,0,0,1,3.023.853,2.666,2.666,0,0,1,1.143,2.241H85.954q0-1.143-1.2-1.143a1.194,1.194,0,0,0-.782.259.8.8,0,0,0-.316.646.737.737,0,0,0,.387.642,3.654,3.654,0,0,0,1.235.4,10.671,10.671,0,0,1,1.49.378,2.706,2.706,0,0,1,2.145,2.646,2.491,2.491,0,0,1-1.156,2.118,5.068,5.068,0,0,1-2.993.817,5.172,5.172,0,0,1-2.18-.439,3.645,3.645,0,0,1-1.494-1.2,2.707,2.707,0,0,1-.536-1.591h2.769a1.145,1.145,0,0,0,.439.962,1.808,1.808,0,0,0,1.081.3,1.422,1.422,0,0,0,.91-.246A.787.787,0,0,0,86.05,41.328Z" transform="translate(570 5309)" fill="#12263f"/><g transform="translate(690.655 5053)" opacity="0.8"><g clip-path="url(#f)"><path d="M447.261,70.8H233V6.886H447.261a31.955,31.955,0,0,1,0,63.91" transform="translate(-233 -6.886)" fill="#1dd1ff"/></g></g><path d="M273.815,37.153a34.653,34.653,0,1,0-34.653,34.653,34.653,34.653,0,0,0,34.653-34.653" transform="translate(453.491 5045.5)" fill="#fff"/><path d="M34.653,0A34.653,34.653,0,1,1,0,34.653,34.653,34.653,0,0,1,34.653,0Z" transform="translate(649.584 5059.382) rotate(-16.845)" fill="none" stroke="#006682" stroke-width="1"/><path d="M263.1,59.221A34.665,34.665,0,0,0,224.191,4.7" transform="translate(456.411 5045.353)" fill="none" stroke="#387db8" stroke-miterlimit="10" stroke-width="5"/><path d="M201.339,21.255A40.817,40.817,0,0,0,246.854,74.7" transform="translate(452.872 5048.002)" fill="none" stroke="#fe9a2a" stroke-miterlimit="10" stroke-width="5"/><path d="M173.831,105.855v-36.4c0-7.419,5.068-13.433,11.321-13.433H209.7" transform="translate(444.688 5052.913)" fill="none" stroke="#fe9a2a" stroke-linecap="round" stroke-linejoin="round" stroke-width="2" stroke-dasharray="0 7"/><path d="M14.445,13.211A4.025,4.025,0,0,1,13.09,16.1a4.76,4.76,0,0,1-3.223,1.055,4.28,4.28,0,0,1-3.441-1.473,6.038,6.038,0,0,1-1.254-4.043v-.7A6.819,6.819,0,0,1,5.75,8.055,4.332,4.332,0,0,1,7.4,6.137a4.629,4.629,0,0,1,2.5-.668A4.637,4.637,0,0,1,13.07,6.523a4.326,4.326,0,0,1,1.391,2.961H12.117a2.376,2.376,0,0,0-.613-1.6,2.271,2.271,0,0,0-1.605-.5,1.991,1.991,0,0,0-1.754.84,4.707,4.707,0,0,0-.6,2.605V11.7a5.038,5.038,0,0,0,.559,2.7,1.954,1.954,0,0,0,1.762.852,2.314,2.314,0,0,0,1.621-.5,2.241,2.241,0,0,0,.613-1.535Zm1.039-.516a5.013,5.013,0,0,1,.484-2.242A3.546,3.546,0,0,1,17.363,8.93a4.069,4.069,0,0,1,2.113-.539A3.849,3.849,0,0,1,22.27,9.438a4.2,4.2,0,0,1,1.207,2.844l.016.578a4.418,4.418,0,0,1-1.086,3.121,3.775,3.775,0,0,1-2.914,1.176,3.793,3.793,0,0,1-2.918-1.172,4.5,4.5,0,0,1-1.09-3.187Zm2.258.16A3.16,3.16,0,0,0,18.2,14.7a1.628,1.628,0,0,0,2.578.008,3.457,3.457,0,0,0,.461-2.015,3.128,3.128,0,0,0-.461-1.831,1.5,1.5,0,0,0-1.3-.649,1.474,1.474,0,0,0-1.281.646A3.516,3.516,0,0,0,17.742,12.856Zm11.719,1.808a.727.727,0,0,0-.41-.652,4.659,4.659,0,0,0-1.316-.426q-3.016-.633-3.016-2.562a2.323,2.323,0,0,1,.934-1.879,3.766,3.766,0,0,1,2.441-.754,4.053,4.053,0,0,1,2.574.758,2.388,2.388,0,0,1,.965,1.969H29.375a1.092,1.092,0,0,0-.312-.8A1.322,1.322,0,0,0,28.086,10a1.351,1.351,0,0,0-.883.258.814.814,0,0,0-.312.656.7.7,0,0,0,.355.605,3.657,3.657,0,0,0,1.2.4,9.8,9.8,0,0,1,1.422.379,2.336,2.336,0,0,1,1.789,2.273,2.2,2.2,0,0,1-.992,1.871,4.28,4.28,0,0,1-2.562.715,4.47,4.47,0,0,1-1.887-.379,3.166,3.166,0,0,1-1.293-1.039,2.414,2.414,0,0,1-.469-1.426h2.141a1.179,1.179,0,0,0,.445.922,1.766,1.766,0,0,0,1.109.32,1.635,1.635,0,0,0,.98-.246A.766.766,0,0,0,29.461,14.664Zm6.352-8.2V8.547h1.445V10.2H35.813v4.219a1.007,1.007,0,0,0,.18.672.9.9,0,0,0,.688.2,3.6,3.6,0,0,0,.664-.055v1.711a4.648,4.648,0,0,1-1.367.2,2.156,2.156,0,0,1-2.422-2.4V10.2H32.32V8.547h1.234V6.469ZM37.93,12.7a5.013,5.013,0,0,1,.484-2.242A3.546,3.546,0,0,1,39.809,8.93a4.069,4.069,0,0,1,2.113-.539,3.849,3.849,0,0,1,2.793,1.047,4.2,4.2,0,0,1,1.207,2.844l.016.578a4.418,4.418,0,0,1-1.086,3.121,4.209,4.209,0,0,1-5.832,0A4.5,4.5,0,0,1,37.93,12.8Zm2.258.16a3.16,3.16,0,0,0,.453,1.843,1.628,1.628,0,0,0,2.578.008,3.457,3.457,0,0,0,.461-2.015,3.128,3.128,0,0,0-.461-1.831,1.5,1.5,0,0,0-1.3-.649,1.474,1.474,0,0,0-1.281.646A3.516,3.516,0,0,0,40.188,12.856Zm11.719,1.808a.727.727,0,0,0-.41-.652,4.659,4.659,0,0,0-1.316-.426q-3.016-.633-3.016-2.562A2.323,2.323,0,0,1,48.1,9.145a3.766,3.766,0,0,1,2.441-.754,4.053,4.053,0,0,1,2.574.758,2.388,2.388,0,0,1,.965,1.969H51.82a1.092,1.092,0,0,0-.312-.8A1.322,1.322,0,0,0,50.531,10a1.351,1.351,0,0,0-.883.258.814.814,0,0,0-.312.656.7.7,0,0,0,.355.605,3.657,3.657,0,0,0,1.2.4,9.8,9.8,0,0,1,1.422.379A2.336,2.336,0,0,1,54.1,14.57a2.2,2.2,0,0,1-.992,1.871,4.28,4.28,0,0,1-2.562.715,4.47,4.47,0,0,1-1.887-.379,3.166,3.166,0,0,1-1.293-1.039,2.414,2.414,0,0,1-.469-1.426h2.141a1.179,1.179,0,0,0,.445.922,1.766,1.766,0,0,0,1.109.32,1.635,1.635,0,0,0,.98-.246A.766.766,0,0,0,51.906,14.664ZM61.922,17H59.656V8.547h2.266Zm-2.4-10.641a1.112,1.112,0,0,1,.34-.836,1.465,1.465,0,0,1,1.848,0,1.105,1.105,0,0,1,.344.836,1.108,1.108,0,0,1-.348.844,1.448,1.448,0,0,1-1.836,0A1.108,1.108,0,0,1,59.523,6.359Zm6.336,2.188.07.977a2.951,2.951,0,0,1,2.43-1.133,2.453,2.453,0,0,1,2,.789,3.682,3.682,0,0,1,.672,2.359V17H68.773V11.594a1.465,1.465,0,0,0-.312-1.043,1.4,1.4,0,0,0-1.039-.324,1.553,1.553,0,0,0-1.43.813V17H63.734V8.547Zm6.531,4.164a5.094,5.094,0,0,1,.887-3.148A2.877,2.877,0,0,1,75.7,8.391a2.589,2.589,0,0,1,2.039.922V5h2.266V17H77.969l-.109-.9a2.657,2.657,0,0,1-2.172,1.055,2.869,2.869,0,0,1-2.395-1.176A5.258,5.258,0,0,1,72.391,12.711Zm2.258.168a3.337,3.337,0,0,0,.414,1.823,1.349,1.349,0,0,0,1.2.634,1.511,1.511,0,0,0,1.477-.884V11.111a1.489,1.489,0,0,0-1.461-.884Q74.648,10.227,74.648,12.879ZM84.141,17H81.875V8.547h2.266Zm-2.4-10.641a1.112,1.112,0,0,1,.34-.836,1.465,1.465,0,0,1,1.848,0,1.105,1.105,0,0,1,.344.836,1.108,1.108,0,0,1-.348.844,1.448,1.448,0,0,1-1.836,0A1.108,1.108,0,0,1,81.742,6.359Zm7.422,7.883,1.57-5.7h2.359L90.242,17H88.086L85.234,8.547h2.359ZM96.469,17H94.2V8.547h2.266ZM94.07,6.359a1.112,1.112,0,0,1,.34-.836,1.465,1.465,0,0,1,1.848,0,1.105,1.105,0,0,1,.344.836,1.108,1.108,0,0,1-.348.844,1.448,1.448,0,0,1-1.836,0A1.108,1.108,0,0,1,94.07,6.359Zm3.906,6.352a5.094,5.094,0,0,1,.887-3.148,2.877,2.877,0,0,1,2.426-1.172,2.589,2.589,0,0,1,2.039.922V5h2.266V17h-2.039l-.109-.9a2.657,2.657,0,0,1-2.172,1.055,2.869,2.869,0,0,1-2.395-1.176A5.258,5.258,0,0,1,97.977,12.711Zm2.258.168a3.337,3.337,0,0,0,.414,1.823,1.349,1.349,0,0,0,1.2.634,1.511,1.511,0,0,0,1.477-.884V11.111a1.489,1.489,0,0,0-1.461-.884Q100.234,10.227,100.234,12.879Zm12.172,3.262a2.831,2.831,0,0,1-2.312,1.016,2.67,2.67,0,0,1-2.074-.781,3.335,3.335,0,0,1-.73-2.289V8.547h2.258v5.467q0,1.322,1.2,1.322a1.63,1.63,0,0,0,1.578-.8V8.547h2.266V17h-2.125ZM121.2,17a2.507,2.507,0,0,1-.227-.758,2.732,2.732,0,0,1-2.133.914,3,3,0,0,1-2.059-.719,2.312,2.312,0,0,1-.816-1.812,2.389,2.389,0,0,1,1-2.062,4.915,4.915,0,0,1,2.879-.727h1.039v-.484a1.393,1.393,0,0,0-.3-.937,1.183,1.183,0,0,0-.949-.352,1.345,1.345,0,0,0-.895.273.929.929,0,0,0-.324.75h-2.258a2.268,2.268,0,0,1,.453-1.359,3,3,0,0,1,1.281-.98,4.669,4.669,0,0,1,1.859-.355,3.689,3.689,0,0,1,2.48.785,2.747,2.747,0,0,1,.918,2.207v3.664a4.041,4.041,0,0,0,.336,1.82V17Zm-1.867-1.57a1.945,1.945,0,0,0,.922-.223,1.462,1.462,0,0,0,.625-.6V13.156h-.844q-1.7,0-1.8,1.172l-.008.133a.9.9,0,0,0,.3.7A1.153,1.153,0,0,0,119.328,15.43Zm7.93,1.57h-2.266V5h2.266Zm4.242,0h-2.266V8.547H131.5ZM129.1,6.359a1.112,1.112,0,0,1,.34-.836,1.465,1.465,0,0,1,1.848,0,1.105,1.105,0,0,1,.344.836,1.109,1.109,0,0,1-.348.844,1.448,1.448,0,0,1-1.836,0A1.109,1.109,0,0,1,129.1,6.359Zm6.852,8.82h4.133V17H133.07V15.625l3.977-5.258h-3.859V8.547h6.773v1.33ZM146.4,17a2.507,2.507,0,0,1-.227-.758,2.732,2.732,0,0,1-2.133.914,3,3,0,0,1-2.059-.719,2.312,2.312,0,0,1-.816-1.812,2.389,2.389,0,0,1,1-2.062,4.915,4.915,0,0,1,2.879-.727h1.039v-.484a1.393,1.393,0,0,0-.3-.937,1.183,1.183,0,0,0-.949-.352,1.345,1.345,0,0,0-.895.273.929.929,0,0,0-.324.75h-2.258a2.268,2.268,0,0,1,.453-1.359,3,3,0,0,1,1.281-.98,4.669,4.669,0,0,1,1.859-.355,3.689,3.689,0,0,1,2.48.785,2.747,2.747,0,0,1,.918,2.207v3.664a4.041,4.041,0,0,0,.336,1.82V17Zm-1.867-1.57a1.945,1.945,0,0,0,.922-.223,1.462,1.462,0,0,0,.625-.6V13.156h-.844q-1.7,0-1.8,1.172l-.008.133a.9.9,0,0,0,.3.7A1.153,1.153,0,0,0,144.531,15.43Zm5.2-2.719a5.094,5.094,0,0,1,.887-3.148,2.877,2.877,0,0,1,2.426-1.172,2.589,2.589,0,0,1,2.039.922V5h2.266V17H155.3l-.109-.9a2.657,2.657,0,0,1-2.172,1.055,2.869,2.869,0,0,1-2.395-1.176A5.258,5.258,0,0,1,149.727,12.711Zm2.258.168A3.337,3.337,0,0,0,152.4,14.7a1.349,1.349,0,0,0,1.2.634,1.511,1.511,0,0,0,1.477-.884V11.111a1.489,1.489,0,0,0-1.461-.884Q151.984,10.227,151.984,12.879Zm6.758-.184a5.013,5.013,0,0,1,.484-2.242,3.546,3.546,0,0,1,1.395-1.523,4.069,4.069,0,0,1,2.113-.539,3.849,3.849,0,0,1,2.793,1.047,4.2,4.2,0,0,1,1.207,2.844l.016.578a4.418,4.418,0,0,1-1.086,3.121,4.209,4.209,0,0,1-5.832,0,4.5,4.5,0,0,1-1.09-3.187Zm2.258.16a3.16,3.16,0,0,0,.453,1.843,1.628,1.628,0,0,0,2.578.008,3.457,3.457,0,0,0,.461-2.015,3.128,3.128,0,0,0-.461-1.831,1.5,1.5,0,0,0-1.3-.649,1.474,1.474,0,0,0-1.281.646A3.516,3.516,0,0,0,161,12.856Zm11.719,1.808a.727.727,0,0,0-.41-.652,4.659,4.659,0,0,0-1.316-.426q-3.016-.633-3.016-2.562a2.323,2.323,0,0,1,.934-1.879,3.766,3.766,0,0,1,2.441-.754,4.053,4.053,0,0,1,2.574.758,2.388,2.388,0,0,1,.965,1.969h-2.258a1.092,1.092,0,0,0-.312-.8,1.322,1.322,0,0,0-.977-.316,1.351,1.351,0,0,0-.883.258.814.814,0,0,0-.312.656.7.7,0,0,0,.355.605,3.657,3.657,0,0,0,1.2.4,9.8,9.8,0,0,1,1.422.379,2.336,2.336,0,0,1,1.789,2.273,2.205,2.205,0,0,1-.992,1.871,4.28,4.28,0,0,1-2.562.715,4.47,4.47,0,0,1-1.887-.379,3.166,3.166,0,0,1-1.293-1.039,2.414,2.414,0,0,1-.469-1.426h2.141a1.179,1.179,0,0,0,.445.922,1.766,1.766,0,0,0,1.109.32,1.635,1.635,0,0,0,.98-.246A.766.766,0,0,0,172.719,14.664Z" transform="translate(739.743 5072)" fill="#12263f"/><path d="M11.536,14.667a4.673,4.673,0,0,1-.721,2.36,4.35,4.35,0,0,1-1.85,1.586,6.3,6.3,0,0,1-2.72.563,5.025,5.025,0,0,1-3.973-1.644,6.786,6.786,0,0,1-1.45-4.641v-.633a7.746,7.746,0,0,1,.655-3.292,4.961,4.961,0,0,1,1.885-2.18,5.26,5.26,0,0,1,2.848-.769A5.516,5.516,0,0,1,9.954,7.245a4.844,4.844,0,0,1,1.608,3.379H8.486A2.292,2.292,0,0,0,7.9,8.945a2.422,2.422,0,0,0-1.687-.51A1.843,1.843,0,0,0,4.522,9.3a5.536,5.536,0,0,0-.562,2.751v.905a6.125,6.125,0,0,0,.514,2.927,1.882,1.882,0,0,0,1.771.879,2.369,2.369,0,0,0,1.626-.5,2.126,2.126,0,0,0,.6-1.591Zm.949-.51a5.613,5.613,0,0,1,.554-2.536,3.96,3.96,0,0,1,1.591-1.709,4.791,4.791,0,0,1,2.435-.6,4.373,4.373,0,0,1,3.366,1.323,5.076,5.076,0,0,1,1.23,3.6v.105a4.925,4.925,0,0,1-1.235,3.529,4.384,4.384,0,0,1-3.344,1.305,4.434,4.434,0,0,1-3.261-1.217,4.761,4.761,0,0,1-1.327-3.3Zm2.962.185a3.538,3.538,0,0,0,.413,1.934,1.376,1.376,0,0,0,1.222.615q1.582,0,1.617-2.435v-.3q0-2.558-1.635-2.558-1.485,0-1.608,2.206Zm12.5,1.986a.684.684,0,0,0-.4-.606,6.016,6.016,0,0,0-1.5-.475,6.853,6.853,0,0,1-1.828-.646,3.062,3.062,0,0,1-1.1-.971,2.319,2.319,0,0,1-.378-1.31,2.628,2.628,0,0,1,1.081-2.158,4.453,4.453,0,0,1,2.83-.848,4.934,4.934,0,0,1,3.023.853,2.666,2.666,0,0,1,1.143,2.241H27.848q0-1.143-1.2-1.143a1.194,1.194,0,0,0-.782.259.8.8,0,0,0-.316.646.737.737,0,0,0,.387.642,3.654,3.654,0,0,0,1.235.4,10.671,10.671,0,0,1,1.49.378A2.706,2.706,0,0,1,30.8,16.24a2.491,2.491,0,0,1-1.156,2.118,5.068,5.068,0,0,1-2.993.817,5.172,5.172,0,0,1-2.18-.439,3.645,3.645,0,0,1-1.494-1.2,2.707,2.707,0,0,1-.536-1.591h2.769a1.145,1.145,0,0,0,.439.962,1.808,1.808,0,0,0,1.081.3,1.422,1.422,0,0,0,.91-.246A.787.787,0,0,0,27.945,16.328Zm7.69-9.2V9.49H37.2v2.057H35.635V15.9a1.111,1.111,0,0,0,.193.747,1.037,1.037,0,0,0,.765.211,4.345,4.345,0,0,0,.738-.053v2.118a5.466,5.466,0,0,1-1.67.255,3.1,3.1,0,0,1-2.259-.721,2.954,2.954,0,0,1-.729-2.188v-4.72H31.46V9.49h1.213V7.126Zm2.092,7.031a5.613,5.613,0,0,1,.554-2.536,3.96,3.96,0,0,1,1.591-1.709,4.791,4.791,0,0,1,2.435-.6,4.373,4.373,0,0,1,3.366,1.323,5.076,5.076,0,0,1,1.23,3.6v.105a4.925,4.925,0,0,1-1.235,3.529,4.384,4.384,0,0,1-3.344,1.305,4.434,4.434,0,0,1-3.261-1.217,4.761,4.761,0,0,1-1.327-3.3Zm2.962.185a3.538,3.538,0,0,0,.413,1.934,1.376,1.376,0,0,0,1.222.615q1.582,0,1.617-2.435v-.3q0-2.558-1.635-2.558-1.485,0-1.608,2.206Zm15.794,1.134,1.5-5.985h3.12L58,19H54.98l-3.1-9.51h3.129ZM67.214,19a3.344,3.344,0,0,1-.281-.853,2.754,2.754,0,0,1-2.285,1.028,3.374,3.374,0,0,1-2.285-.813,2.588,2.588,0,0,1-.94-2.043,2.66,2.66,0,0,1,1.143-2.338,5.821,5.821,0,0,1,3.322-.791H66.8v-.5q0-1.316-1.134-1.316a.927.927,0,0,0-1.055,1.042H61.651a2.655,2.655,0,0,1,1.173-2.239,4.931,4.931,0,0,1,2.993-.86,4.323,4.323,0,0,1,2.874.888,3.086,3.086,0,0,1,1.081,2.435v4.21a4.311,4.311,0,0,0,.4,2V19ZM65.36,17.066a1.652,1.652,0,0,0,.918-.237,1.487,1.487,0,0,0,.523-.536V14.772H65.94q-1.547,0-1.547,1.389a.848.848,0,0,0,.272.655A.986.986,0,0,0,65.36,17.066Zm11.8-4.9-.976-.07a1.752,1.752,0,0,0-1.793.879V19H71.433V9.49H74.21l.1,1.222a2.294,2.294,0,0,1,2.083-1.4,2.888,2.888,0,0,1,.826.105ZM81.356,19H78.385V9.49h2.971ZM78.209,7.038A1.322,1.322,0,0,1,78.667,6,1.943,1.943,0,0,1,81.04,6,1.322,1.322,0,0,1,81.5,7.038a1.322,1.322,0,0,1-.457,1.037,1.943,1.943,0,0,1-2.373,0A1.322,1.322,0,0,1,78.209,7.038ZM88.537,19a3.344,3.344,0,0,1-.281-.853,2.754,2.754,0,0,1-2.285,1.028,3.374,3.374,0,0,1-2.285-.813,2.588,2.588,0,0,1-.94-2.043,2.66,2.66,0,0,1,1.143-2.338,5.821,5.821,0,0,1,3.322-.791h.914v-.5q0-1.316-1.134-1.316a.927.927,0,0,0-1.055,1.042H82.973a2.655,2.655,0,0,1,1.173-2.239,4.931,4.931,0,0,1,2.993-.86,4.323,4.323,0,0,1,2.874.888,3.086,3.086,0,0,1,1.081,2.435v4.21a4.311,4.311,0,0,0,.4,2V19Zm-1.854-1.934a1.652,1.652,0,0,0,.918-.237,1.487,1.487,0,0,0,.523-.536V14.772h-.861q-1.547,0-1.547,1.389a.848.848,0,0,0,.272.655A.986.986,0,0,0,86.682,17.066Zm14.88-2.742a5.8,5.8,0,0,1-.967,3.595,3.238,3.238,0,0,1-2.725,1.257,2.81,2.81,0,0,1-2.338-1.151L95.41,19H92.755V5.5h2.962v4.755a2.711,2.711,0,0,1,2.136-.94,3.239,3.239,0,0,1,2.742,1.274,5.826,5.826,0,0,1,.967,3.586Zm-2.971-.189a3.866,3.866,0,0,0-.365-1.952,1.229,1.229,0,0,0-1.121-.584,1.418,1.418,0,0,0-1.389.763v3.773a1.426,1.426,0,0,0,1.406.755,1.258,1.258,0,0,0,1.327-1.018A7.309,7.309,0,0,0,98.591,14.135Zm7.4,4.865h-2.971V5.5h2.971Zm6.425.176a4.889,4.889,0,0,1-3.542-1.305,4.507,4.507,0,0,1-1.354-3.4v-.246a5.84,5.84,0,0,1,.541-2.575,3.955,3.955,0,0,1,1.578-1.727,4.763,4.763,0,0,1,2.461-.611,4.117,4.117,0,0,1,3.164,1.244,4.887,4.887,0,0,1,1.16,3.467v1.151h-5.889a2.135,2.135,0,0,0,.694,1.257,2.066,2.066,0,0,0,1.389.457,2.662,2.662,0,0,0,2.2-.984l1.354,1.6a3.784,3.784,0,0,1-1.569,1.217A5.3,5.3,0,0,1,112.417,19.176Zm-.334-7.576q-1.3,0-1.547,1.723h2.988v-.229a1.467,1.467,0,0,0-.36-1.1A1.434,1.434,0,0,0,112.083,11.6Z" transform="translate(931.5 5162)" fill="#12263f"/><path d="M24.108,14.667a4.673,4.673,0,0,1-.721,2.36,4.35,4.35,0,0,1-1.85,1.586,6.3,6.3,0,0,1-2.72.563,5.025,5.025,0,0,1-3.973-1.644,6.786,6.786,0,0,1-1.45-4.641v-.633a7.746,7.746,0,0,1,.655-3.292,4.961,4.961,0,0,1,1.885-2.18,5.26,5.26,0,0,1,2.848-.769,5.516,5.516,0,0,1,3.744,1.226,4.844,4.844,0,0,1,1.608,3.379H21.059a2.292,2.292,0,0,0-.589-1.679,2.422,2.422,0,0,0-1.687-.51,1.843,1.843,0,0,0-1.687.861,5.536,5.536,0,0,0-.562,2.751v.905a6.126,6.126,0,0,0,.514,2.927,1.882,1.882,0,0,0,1.771.879,2.369,2.369,0,0,0,1.626-.5,2.126,2.126,0,0,0,.6-1.591Zm.949-.51a5.613,5.613,0,0,1,.554-2.536A3.96,3.96,0,0,1,27.2,9.912a4.791,4.791,0,0,1,2.435-.6A4.373,4.373,0,0,1,33,10.637a5.076,5.076,0,0,1,1.23,3.6v.105A4.925,4.925,0,0,1,33,17.871a4.384,4.384,0,0,1-3.344,1.305,4.434,4.434,0,0,1-3.261-1.217,4.761,4.761,0,0,1-1.327-3.3Zm2.962.185a3.538,3.538,0,0,0,.413,1.934,1.376,1.376,0,0,0,1.222.615q1.582,0,1.617-2.435v-.3q0-2.558-1.635-2.558-1.485,0-1.608,2.206Zm12.5,1.986a.684.684,0,0,0-.4-.606,6.016,6.016,0,0,0-1.5-.475,6.853,6.853,0,0,1-1.828-.646,3.062,3.062,0,0,1-1.1-.971,2.319,2.319,0,0,1-.378-1.31A2.628,2.628,0,0,1,36.4,10.163a4.453,4.453,0,0,1,2.83-.848,4.934,4.934,0,0,1,3.023.853,2.666,2.666,0,0,1,1.143,2.241H40.421q0-1.143-1.2-1.143a1.194,1.194,0,0,0-.782.259.8.8,0,0,0-.316.646.737.737,0,0,0,.387.642,3.654,3.654,0,0,0,1.235.4,10.671,10.671,0,0,1,1.49.378,2.706,2.706,0,0,1,2.145,2.646,2.491,2.491,0,0,1-1.156,2.118,5.068,5.068,0,0,1-2.993.817,5.172,5.172,0,0,1-2.18-.439,3.645,3.645,0,0,1-1.494-1.2,2.707,2.707,0,0,1-.536-1.591h2.769a1.145,1.145,0,0,0,.439.962,1.808,1.808,0,0,0,1.081.3,1.422,1.422,0,0,0,.91-.246A.787.787,0,0,0,40.518,16.328Zm7.69-9.2V9.49h1.564v2.057H48.208V15.9a1.111,1.111,0,0,0,.193.747,1.037,1.037,0,0,0,.765.211A4.345,4.345,0,0,0,49.9,16.8v2.118a5.466,5.466,0,0,1-1.67.255,3.1,3.1,0,0,1-2.259-.721,2.954,2.954,0,0,1-.729-2.188v-4.72H44.033V9.49h1.213V7.126ZM50.3,14.157a5.613,5.613,0,0,1,.554-2.536,3.96,3.96,0,0,1,1.591-1.709,4.791,4.791,0,0,1,2.435-.6,4.373,4.373,0,0,1,3.366,1.323,5.076,5.076,0,0,1,1.23,3.6v.105a4.925,4.925,0,0,1-1.235,3.529A4.384,4.384,0,0,1,54.9,19.176a4.434,4.434,0,0,1-3.261-1.217,4.761,4.761,0,0,1-1.327-3.3Zm2.962.185a3.538,3.538,0,0,0,.413,1.934,1.376,1.376,0,0,0,1.222.615q1.582,0,1.617-2.435v-.3q0-2.558-1.635-2.558-1.485,0-1.608,2.206ZM74.918,8.585H71.077V19H67.992V8.585H64.222V6.2h10.7Zm-1.037,5.572a5.613,5.613,0,0,1,.554-2.536,3.96,3.96,0,0,1,1.591-1.709,4.791,4.791,0,0,1,2.435-.6,4.373,4.373,0,0,1,3.366,1.323,5.076,5.076,0,0,1,1.23,3.6v.105a4.925,4.925,0,0,1-1.235,3.529,4.384,4.384,0,0,1-3.344,1.305,4.434,4.434,0,0,1-3.261-1.217,4.761,4.761,0,0,1-1.327-3.3Zm2.962.185a3.538,3.538,0,0,0,.413,1.934,1.376,1.376,0,0,0,1.222.615q1.582,0,1.617-2.435v-.3q0-2.558-1.635-2.558-1.485,0-1.608,2.206ZM87.812,7.126V9.49h1.564v2.057H87.812V15.9a1.111,1.111,0,0,0,.193.747,1.037,1.037,0,0,0,.765.211,4.345,4.345,0,0,0,.738-.053v2.118a5.466,5.466,0,0,1-1.67.255,3.1,3.1,0,0,1-2.259-.721,2.954,2.954,0,0,1-.729-2.188v-4.72H83.637V9.49H84.85V7.126ZM95.9,19a3.344,3.344,0,0,1-.281-.853,2.754,2.754,0,0,1-2.285,1.028,3.374,3.374,0,0,1-2.285-.813,2.588,2.588,0,0,1-.94-2.043,2.66,2.66,0,0,1,1.143-2.338,5.821,5.821,0,0,1,3.322-.791h.914v-.5q0-1.316-1.134-1.316A.927.927,0,0,0,93.3,12.413H90.334a2.655,2.655,0,0,1,1.173-2.239,4.931,4.931,0,0,1,2.993-.86,4.323,4.323,0,0,1,2.874.888,3.086,3.086,0,0,1,1.081,2.435v4.21a4.311,4.311,0,0,0,.4,2V19Zm-1.854-1.934a1.652,1.652,0,0,0,.918-.237,1.487,1.487,0,0,0,.523-.536V14.772h-.861q-1.547,0-1.547,1.389a.848.848,0,0,0,.272.655A.986.986,0,0,0,94.043,17.066ZM103.219,19h-2.971V5.5h2.971Z" transform="translate(1016.5 5275)" fill="#12263f"/><path d="M28.065,15.6a1.268,1.268,0,0,0-.479-1.055,5.954,5.954,0,0,0-1.683-.782,16.147,16.147,0,0,1-1.969-.782q-2.487-1.222-2.487-3.357a3.011,3.011,0,0,1,.62-1.876A4.008,4.008,0,0,1,23.82,6.48a6.823,6.823,0,0,1,2.549-.453,5.969,5.969,0,0,1,2.474.492,3.917,3.917,0,0,1,1.7,1.4A3.661,3.661,0,0,1,31.15,10H28.074A1.547,1.547,0,0,0,27.6,8.787a1.867,1.867,0,0,0-1.3-.431,2.106,2.106,0,0,0-1.305.365,1.074,1.074,0,0,0,.048,1.819,6.65,6.65,0,0,0,1.854.826,11.36,11.36,0,0,1,2.18.918,3.663,3.663,0,0,1,2.074,3.3,3.125,3.125,0,0,1-1.266,2.637,5.629,5.629,0,0,1-3.472.958,6.888,6.888,0,0,1-2.817-.558,4.247,4.247,0,0,1-1.9-1.529,3.985,3.985,0,0,1-.637-2.237h3.094a1.963,1.963,0,0,0,.532,1.516,2.513,2.513,0,0,0,1.727.488,1.985,1.985,0,0,0,1.208-.33A1.088,1.088,0,0,0,28.065,15.6Zm10.2,2.373a3.054,3.054,0,0,1-2.54,1.2,3,3,0,0,1-2.369-.91,3.826,3.826,0,0,1-.8-2.615V9.49H35.51v6.179A1.065,1.065,0,0,0,36.7,16.891a1.548,1.548,0,0,0,1.45-.729V9.49h2.979V19H38.349Zm13.315-3.647a5.8,5.8,0,0,1-.967,3.595,3.238,3.238,0,0,1-2.725,1.257,2.81,2.81,0,0,1-2.338-1.151L45.424,19H42.77V5.5h2.962v4.755a2.711,2.711,0,0,1,2.136-.94,3.239,3.239,0,0,1,2.742,1.274,5.826,5.826,0,0,1,.967,3.586Zm-2.971-.189a3.866,3.866,0,0,0-.365-1.952A1.229,1.229,0,0,0,47.12,11.6a1.418,1.418,0,0,0-1.389.763v3.773a1.426,1.426,0,0,0,1.406.755,1.258,1.258,0,0,0,1.327-1.018A7.309,7.309,0,0,0,48.605,14.135Zm9.255,2.193a.684.684,0,0,0-.4-.606,6.016,6.016,0,0,0-1.5-.475,6.853,6.853,0,0,1-1.828-.646,3.062,3.062,0,0,1-1.1-.971,2.319,2.319,0,0,1-.378-1.31,2.628,2.628,0,0,1,1.081-2.158,4.453,4.453,0,0,1,2.83-.848,4.934,4.934,0,0,1,3.023.853,2.666,2.666,0,0,1,1.143,2.241H57.764q0-1.143-1.2-1.143a1.194,1.194,0,0,0-.782.259.8.8,0,0,0-.316.646.737.737,0,0,0,.387.642,3.654,3.654,0,0,0,1.235.4,10.671,10.671,0,0,1,1.49.378,2.706,2.706,0,0,1,2.145,2.646,2.491,2.491,0,0,1-1.156,2.118,5.068,5.068,0,0,1-2.993.817,5.172,5.172,0,0,1-2.18-.439,3.645,3.645,0,0,1-1.494-1.2,2.707,2.707,0,0,1-.536-1.591h2.769a1.145,1.145,0,0,0,.439.962,1.808,1.808,0,0,0,1.081.3,1.422,1.422,0,0,0,.91-.246A.787.787,0,0,0,57.86,16.328ZM65.226,19H62.255V9.49h2.971ZM62.079,7.038A1.322,1.322,0,0,1,62.536,6a1.943,1.943,0,0,1,2.373,0,1.322,1.322,0,0,1,.457,1.037,1.322,1.322,0,0,1-.457,1.037,1.943,1.943,0,0,1-2.373,0A1.322,1.322,0,0,1,62.079,7.038Zm9.949,9.29a.684.684,0,0,0-.4-.606,6.016,6.016,0,0,0-1.5-.475A6.853,6.853,0,0,1,68.3,14.6a3.062,3.062,0,0,1-1.1-.971,2.319,2.319,0,0,1-.378-1.31,2.628,2.628,0,0,1,1.081-2.158,4.453,4.453,0,0,1,2.83-.848,4.934,4.934,0,0,1,3.023.853A2.666,2.666,0,0,1,74.9,12.408H71.932q0-1.143-1.2-1.143a1.194,1.194,0,0,0-.782.259.8.8,0,0,0-.316.646.737.737,0,0,0,.387.642,3.654,3.654,0,0,0,1.235.4,10.671,10.671,0,0,1,1.49.378,2.706,2.706,0,0,1,2.145,2.646,2.491,2.491,0,0,1-1.156,2.118,5.068,5.068,0,0,1-2.993.817,5.172,5.172,0,0,1-2.18-.439,3.645,3.645,0,0,1-1.494-1.2,2.707,2.707,0,0,1-.536-1.591h2.769a1.145,1.145,0,0,0,.439.962,1.808,1.808,0,0,0,1.081.3,1.422,1.422,0,0,0,.91-.246A.787.787,0,0,0,72.028,16.328Zm7.69-9.2V9.49h1.564v2.057H79.719V15.9a1.111,1.111,0,0,0,.193.747,1.037,1.037,0,0,0,.765.211,4.345,4.345,0,0,0,.738-.053v2.118a5.466,5.466,0,0,1-1.67.255,3.1,3.1,0,0,1-2.259-.721,2.954,2.954,0,0,1-.729-2.188v-4.72H75.544V9.49h1.213V7.126Zm7.33,12.05a4.889,4.889,0,0,1-3.542-1.305,4.507,4.507,0,0,1-1.354-3.4v-.246a5.84,5.84,0,0,1,.541-2.575,3.955,3.955,0,0,1,1.578-1.727,4.763,4.763,0,0,1,2.461-.611A4.117,4.117,0,0,1,89.9,10.558a4.887,4.887,0,0,1,1.16,3.467v1.151H85.168a2.135,2.135,0,0,0,.694,1.257,2.066,2.066,0,0,0,1.389.457,2.662,2.662,0,0,0,2.2-.984l1.354,1.6a3.784,3.784,0,0,1-1.569,1.217A5.3,5.3,0,0,1,87.049,19.176ZM86.715,11.6q-1.3,0-1.547,1.723h2.988v-.229a1.467,1.467,0,0,0-.36-1.1A1.434,1.434,0,0,0,86.715,11.6ZM95.047,9.49l.1,1.116a3.27,3.27,0,0,1,2.716-1.292,2.407,2.407,0,0,1,2.435,1.433,3.165,3.165,0,0,1,2.795-1.433q2.892,0,2.971,3.5V19h-2.971V13a1.813,1.813,0,0,0-.246-1.063,1.048,1.048,0,0,0-.9-.334,1.4,1.4,0,0,0-1.31.782l.009.123V19H97.675V13.015a1.906,1.906,0,0,0-.237-1.081,1.045,1.045,0,0,0-.905-.334,1.42,1.42,0,0,0-1.3.782V19H92.27V9.49ZM113.108,19a3.344,3.344,0,0,1-.281-.853,2.754,2.754,0,0,1-2.285,1.028,3.374,3.374,0,0,1-2.285-.813,2.588,2.588,0,0,1-.94-2.043,2.66,2.66,0,0,1,1.143-2.338,5.821,5.821,0,0,1,3.322-.791h.914v-.5q0-1.316-1.134-1.316a.927.927,0,0,0-1.055,1.042h-2.962a2.655,2.655,0,0,1,1.173-2.239,4.931,4.931,0,0,1,2.993-.86,4.323,4.323,0,0,1,2.874.888,3.086,3.086,0,0,1,1.081,2.435v4.21a4.311,4.311,0,0,0,.4,2V19Zm-1.854-1.934a1.652,1.652,0,0,0,.918-.237,1.487,1.487,0,0,0,.523-.536V14.772h-.861q-1.547,0-1.547,1.389a.848.848,0,0,0,.272.655A.986.986,0,0,0,111.254,17.066Zm11.03-.738a.684.684,0,0,0-.4-.606,6.016,6.016,0,0,0-1.5-.475,6.853,6.853,0,0,1-1.828-.646,3.062,3.062,0,0,1-1.1-.971,2.319,2.319,0,0,1-.378-1.31,2.628,2.628,0,0,1,1.081-2.158,4.453,4.453,0,0,1,2.83-.848,4.934,4.934,0,0,1,3.023.853,2.666,2.666,0,0,1,1.143,2.241h-2.971q0-1.143-1.2-1.143a1.194,1.194,0,0,0-.782.259.8.8,0,0,0-.316.646.737.737,0,0,0,.387.642,3.654,3.654,0,0,0,1.235.4,10.671,10.671,0,0,1,1.49.378,2.706,2.706,0,0,1,2.145,2.646,2.491,2.491,0,0,1-1.156,2.118,5.068,5.068,0,0,1-2.993.817,5.172,5.172,0,0,1-2.18-.439,3.645,3.645,0,0,1-1.494-1.2,2.707,2.707,0,0,1-.536-1.591h2.769a1.145,1.145,0,0,0,.439.962,1.808,1.808,0,0,0,1.081.3,1.422,1.422,0,0,0,.91-.246A.787.787,0,0,0,122.284,16.328Zm12.524-1.477,1.582-5.361h3.173l-3.876,11.1-.167.4a2.944,2.944,0,0,1-2.918,1.846,4.642,4.642,0,0,1-1.222-.175v-2.11h.387a2.026,2.026,0,0,0,.954-.18,1.094,1.094,0,0,0,.488-.647l.237-.633-3.3-9.605h3.164ZM44.233,35.171l-.976-.07a1.752,1.752,0,0,0-1.793.879V42H38.5V32.49H41.28l.1,1.222a2.294,2.294,0,0,1,2.083-1.4,2.888,2.888,0,0,1,.826.105Zm5.669,7a4.889,4.889,0,0,1-3.542-1.305,4.507,4.507,0,0,1-1.354-3.4v-.246a5.84,5.84,0,0,1,.541-2.575,3.955,3.955,0,0,1,1.578-1.727,4.763,4.763,0,0,1,2.461-.611,4.117,4.117,0,0,1,3.164,1.244,4.887,4.887,0,0,1,1.16,3.467v1.151H48.021a2.135,2.135,0,0,0,.694,1.257,2.066,2.066,0,0,0,1.389.457,2.662,2.662,0,0,0,2.2-.984l1.354,1.6a3.784,3.784,0,0,1-1.569,1.217A5.3,5.3,0,0,1,49.9,42.176ZM49.568,34.6q-1.3,0-1.547,1.723h2.988v-.229a1.467,1.467,0,0,0-.36-1.1A1.434,1.434,0,0,0,49.568,34.6ZM58.225,42H55.254V28.5h2.971Zm7.181,0a3.344,3.344,0,0,1-.281-.853,2.754,2.754,0,0,1-2.285,1.028,3.374,3.374,0,0,1-2.285-.813,2.588,2.588,0,0,1-.94-2.043,2.66,2.66,0,0,1,1.143-2.338,5.821,5.821,0,0,1,3.322-.791h.914v-.5q0-1.316-1.134-1.316A.927.927,0,0,0,62.8,35.413H59.842a2.655,2.655,0,0,1,1.173-2.239,4.931,4.931,0,0,1,2.993-.86,4.323,4.323,0,0,1,2.874.888,3.086,3.086,0,0,1,1.081,2.435v4.21a4.311,4.311,0,0,0,.4,2V42Zm-1.854-1.934a1.652,1.652,0,0,0,.918-.237,1.487,1.487,0,0,0,.523-.536V37.772h-.861q-1.547,0-1.547,1.389a.848.848,0,0,0,.272.655A.986.986,0,0,0,63.551,40.066Zm10.072-.176a1.317,1.317,0,0,0,.967-.338,1.241,1.241,0,0,0,.334-.945H77.7a3.288,3.288,0,0,1-1.121,2.566,4.168,4.168,0,0,1-2.887,1,4.22,4.22,0,0,1-3.27-1.3,5.125,5.125,0,0,1-1.2-3.6v-.123a5.792,5.792,0,0,1,.532-2.544,3.872,3.872,0,0,1,1.534-1.7,4.573,4.573,0,0,1,2.373-.593,4.116,4.116,0,0,1,2.944,1.028,3.647,3.647,0,0,1,1.09,2.786H74.924A1.626,1.626,0,0,0,74.564,35a1.244,1.244,0,0,0-.967-.4q-1.151,0-1.345,1.468a10.357,10.357,0,0,0-.062,1.283,4.068,4.068,0,0,0,.343,1.986A1.187,1.187,0,0,0,73.624,39.891ZM82.079,42H79.108V32.49h2.971ZM78.932,30.038A1.322,1.322,0,0,1,79.389,29a1.943,1.943,0,0,1,2.373,0,1.405,1.405,0,0,1,0,2.074,1.943,1.943,0,0,1-2.373,0A1.322,1.322,0,0,1,78.932,30.038Zm4.6,7.119a5.613,5.613,0,0,1,.554-2.536,3.96,3.96,0,0,1,1.591-1.709,4.791,4.791,0,0,1,2.435-.6,4.373,4.373,0,0,1,3.366,1.323,5.076,5.076,0,0,1,1.23,3.6v.105a4.925,4.925,0,0,1-1.235,3.529,4.384,4.384,0,0,1-3.344,1.305,4.434,4.434,0,0,1-3.261-1.217,4.761,4.761,0,0,1-1.327-3.3Zm2.962.185a3.538,3.538,0,0,0,.413,1.934,1.376,1.376,0,0,0,1.222.615q1.582,0,1.617-2.435v-.3q0-2.558-1.635-2.558-1.485,0-1.608,2.206ZM96.73,32.49l.1,1.116a3.225,3.225,0,0,1,2.716-1.292,2.713,2.713,0,0,1,2.219.888,4.226,4.226,0,0,1,.76,2.672V42H99.551V36a1.6,1.6,0,0,0-.29-1.059,1.342,1.342,0,0,0-1.055-.338,1.413,1.413,0,0,0-1.292.686V42H93.953V32.49Zm12.032,9.686a4.889,4.889,0,0,1-3.542-1.305,4.507,4.507,0,0,1-1.354-3.4v-.246a5.84,5.84,0,0,1,.541-2.575,3.955,3.955,0,0,1,1.578-1.727,4.763,4.763,0,0,1,2.461-.611,4.117,4.117,0,0,1,3.164,1.244,4.887,4.887,0,0,1,1.16,3.467v1.151h-5.889a2.135,2.135,0,0,0,.694,1.257,2.066,2.066,0,0,0,1.389.457,2.662,2.662,0,0,0,2.2-.984l1.354,1.6a3.784,3.784,0,0,1-1.569,1.217A5.3,5.3,0,0,1,108.762,42.176Zm-.334-7.576q-1.3,0-1.547,1.723h2.988v-.229a1.467,1.467,0,0,0-.36-1.1A1.434,1.434,0,0,0,108.428,34.6Zm10.512,4.729a.684.684,0,0,0-.4-.606,6.016,6.016,0,0,0-1.5-.475,6.853,6.853,0,0,1-1.828-.646,3.062,3.062,0,0,1-1.1-.971,2.319,2.319,0,0,1-.378-1.31,2.628,2.628,0,0,1,1.081-2.158,4.453,4.453,0,0,1,2.83-.848,4.934,4.934,0,0,1,3.023.853,2.666,2.666,0,0,1,1.143,2.241h-2.971q0-1.143-1.2-1.143a1.194,1.194,0,0,0-.782.259.8.8,0,0,0-.316.646.737.737,0,0,0,.387.642,3.654,3.654,0,0,0,1.235.4,10.671,10.671,0,0,1,1.49.378A2.706,2.706,0,0,1,121.8,39.24a2.491,2.491,0,0,1-1.156,2.118,5.068,5.068,0,0,1-2.993.817,5.172,5.172,0,0,1-2.18-.439,3.645,3.645,0,0,1-1.494-1.2,2.707,2.707,0,0,1-.536-1.591h2.769a1.145,1.145,0,0,0,.439.962,1.808,1.808,0,0,0,1.081.3,1.422,1.422,0,0,0,.91-.246A.787.787,0,0,0,118.94,39.328Z" transform="translate(915 5372)" fill="#12263f"/><path d="M3.916,0H-1.531V-17.338l-5.35,1.563V-19.9l10.3-3.561h.5Z" transform="translate(693 5096)" fill="#12263f"/><path d="M8.25,0H-8.121V-3.545L-.58-11.473q2.788-3.174,2.788-5.043a3.508,3.508,0,0,0-.661-2.3,2.359,2.359,0,0,0-1.917-.79,2.388,2.388,0,0,0-2.014,1.055,4.338,4.338,0,0,0-.773,2.635H-8.6a7.7,7.7,0,0,1,1.08-3.988,7.571,7.571,0,0,1,3-2.86A8.9,8.9,0,0,1-.242-23.8a8.758,8.758,0,0,1,5.857,1.756A6.27,6.27,0,0,1,7.67-17a7.324,7.324,0,0,1-.516,2.7,11.836,11.836,0,0,1-1.6,2.755,40.387,40.387,0,0,1-3.5,3.859l-3.029,3.5H8.25Z" transform="translate(854 5187)" fill="#12263f"/><path d="M-3.158-14H-.6q3.045,0,3.045-2.981a2.578,2.578,0,0,0-.725-1.893A2.75,2.75,0,0,0-.322-19.61a2.944,2.944,0,0,0-1.877.628A1.917,1.917,0,0,0-3-17.418h-5.43a5.559,5.559,0,0,1,1.031-3.3,6.81,6.81,0,0,1,2.86-2.264A9.779,9.779,0,0,1-.516-23.8,9.608,9.608,0,0,1,5.64-22.011,5.946,5.946,0,0,1,7.879-17.1a4.956,4.956,0,0,1-.927,2.86,6.6,6.6,0,0,1-2.7,2.183A6.308,6.308,0,0,1,7.187-10,5.41,5.41,0,0,1,8.25-6.59,6.054,6.054,0,0,1,5.833-1.563,10.033,10.033,0,0,1-.516.322,10.4,10.4,0,0,1-4.794-.556,6.7,6.7,0,0,1-7.783-2.989,6.326,6.326,0,0,1-8.8-6.526h5.462a2.445,2.445,0,0,0,.87,1.869,3.072,3.072,0,0,0,2.143.79,3.218,3.218,0,0,0,2.288-.8A2.666,2.666,0,0,0,2.82-6.7a3.117,3.117,0,0,0-.886-2.514A3.7,3.7,0,0,0-.516-9.958H-3.158Z" transform="translate(939 5300)" fill="#12263f"/><path d="M6.22-9.168H8.6v4.189H6.22V0H.79V-4.979H-8.282L-8.6-8.3.79-23.413v-.048H6.22Zm-9.652,0H.79v-7.219l-.338.548Z" transform="translate(854 5405)" fill="#12263f"/><path d="M-7.8-11.46l1.434-12H7.348v4.222h-9.3l-.532,4.661a6.4,6.4,0,0,1,1.523-.6,6.947,6.947,0,0,1,1.845-.259A6.883,6.883,0,0,1,6.26-13.366,8.34,8.34,0,0,1,8.137-7.557,8.326,8.326,0,0,1,7.13-3.472,6.922,6.922,0,0,1,4.3-.661,8.928,8.928,0,0,1,0,.322a9.607,9.607,0,0,1-4.141-.91,7.429,7.429,0,0,1-3.029-2.5A6.064,6.064,0,0,1-8.25-6.665H-2.8a3.08,3.08,0,0,0,.822,2.042,2.608,2.608,0,0,0,1.95.756q2.739,0,2.739-4.052,0-3.747-3.352-3.747A3.344,3.344,0,0,0-3.48-10.444Z" transform="translate(696 5515)" fill="#12263f"/><path d="M10.621,17H8.277L3.715,9.516V17H1.371V5.625H3.715l4.57,7.5v-7.5h2.336ZM14.9,17H12.637V8.547H14.9ZM12.5,6.359a1.112,1.112,0,0,1,.34-.836,1.465,1.465,0,0,1,1.848,0,1.105,1.105,0,0,1,.344.836,1.108,1.108,0,0,1-.348.844,1.448,1.448,0,0,1-1.836,0A1.108,1.108,0,0,1,12.5,6.359Zm7.422,7.883,1.57-5.7h2.359L21,17H18.848L16,8.547h2.359Zm8.813,2.914a4.15,4.15,0,0,1-3.027-1.141,4.054,4.054,0,0,1-1.168-3.039v-.219a5.106,5.106,0,0,1,.492-2.277A3.612,3.612,0,0,1,26.43,8.934a3.914,3.914,0,0,1,2.059-.543,3.508,3.508,0,0,1,2.73,1.094,4.444,4.444,0,0,1,1,3.1v.922H26.832a2.1,2.1,0,0,0,.66,1.328,2,2,0,0,0,1.395.5,2.437,2.437,0,0,0,2.039-.945l1.109,1.242a3.389,3.389,0,0,1-1.375,1.121A4.511,4.511,0,0,1,28.738,17.156Zm-.258-6.945a1.411,1.411,0,0,0-1.09.455,2.357,2.357,0,0,0-.535,1.3H30v-.181a1.681,1.681,0,0,0-.406-1.165A1.456,1.456,0,0,0,28.48,10.211ZM35.879,17H33.613V5h2.266Zm5.492-4.289a5.094,5.094,0,0,1,.887-3.148,2.877,2.877,0,0,1,2.426-1.172,2.589,2.589,0,0,1,2.039.922V5h2.266V17H46.949l-.109-.9a2.657,2.657,0,0,1-2.172,1.055,2.869,2.869,0,0,1-2.395-1.176A5.258,5.258,0,0,1,41.371,12.711Zm2.258.168a3.337,3.337,0,0,0,.414,1.823,1.349,1.349,0,0,0,1.2.634,1.511,1.511,0,0,0,1.477-.884V11.111a1.489,1.489,0,0,0-1.461-.884Q43.629,10.227,43.629,12.879Zm11,4.277A4.15,4.15,0,0,1,51.6,16.016a4.054,4.054,0,0,1-1.168-3.039v-.219a5.106,5.106,0,0,1,.492-2.277A3.612,3.612,0,0,1,52.32,8.934a3.914,3.914,0,0,1,2.059-.543,3.508,3.508,0,0,1,2.73,1.094,4.444,4.444,0,0,1,1,3.1v.922H52.723a2.1,2.1,0,0,0,.66,1.328,2,2,0,0,0,1.395.5,2.437,2.437,0,0,0,2.039-.945l1.109,1.242a3.389,3.389,0,0,1-1.375,1.121A4.511,4.511,0,0,1,54.629,17.156Zm-.258-6.945a1.411,1.411,0,0,0-1.09.455,2.357,2.357,0,0,0-.535,1.3h3.141v-.181a1.681,1.681,0,0,0-.406-1.165A1.456,1.456,0,0,0,54.371,10.211Zm18.078,3A4.025,4.025,0,0,1,71.094,16.1a4.76,4.76,0,0,1-3.223,1.055,4.28,4.28,0,0,1-3.441-1.473,6.038,6.038,0,0,1-1.254-4.043v-.7a6.819,6.819,0,0,1,.578-2.891,4.332,4.332,0,0,1,1.652-1.918,5.164,5.164,0,0,1,5.668.387,4.326,4.326,0,0,1,1.391,2.961H70.121a2.376,2.376,0,0,0-.613-1.6,2.271,2.271,0,0,0-1.605-.5,1.991,1.991,0,0,0-1.754.84,4.707,4.707,0,0,0-.6,2.605V11.7a5.038,5.038,0,0,0,.559,2.7,1.954,1.954,0,0,0,1.762.852,2.314,2.314,0,0,0,1.621-.5,2.241,2.241,0,0,0,.613-1.535ZM78.738,17a2.507,2.507,0,0,1-.227-.758,2.732,2.732,0,0,1-2.133.914,3,3,0,0,1-2.059-.719,2.312,2.312,0,0,1-.816-1.812,2.389,2.389,0,0,1,1-2.062,4.915,4.915,0,0,1,2.879-.727h1.039v-.484a1.393,1.393,0,0,0-.3-.937,1.183,1.183,0,0,0-.949-.352,1.345,1.345,0,0,0-.895.273.929.929,0,0,0-.324.75H73.691a2.268,2.268,0,0,1,.453-1.359,3,3,0,0,1,1.281-.98,4.669,4.669,0,0,1,1.859-.355,3.689,3.689,0,0,1,2.48.785,2.747,2.747,0,0,1,.918,2.207v3.664a4.041,4.041,0,0,0,.336,1.82V17Zm-1.867-1.57a1.945,1.945,0,0,0,.922-.223,1.462,1.462,0,0,0,.625-.6V13.156h-.844q-1.7,0-1.8,1.172l-.008.133a.9.9,0,0,0,.3.7A1.153,1.153,0,0,0,76.871,15.43ZM84.8,17H82.535V5H84.8Zm4.242,0H86.777V8.547h2.266Zm-2.4-10.641a1.112,1.112,0,0,1,.34-.836,1.465,1.465,0,0,1,1.848,0,1.105,1.105,0,0,1,.344.836,1.108,1.108,0,0,1-.348.844,1.448,1.448,0,0,1-1.836,0A1.108,1.108,0,0,1,86.645,6.359Zm3.906,6.352a5.094,5.094,0,0,1,.887-3.148,2.877,2.877,0,0,1,2.426-1.172,2.589,2.589,0,0,1,2.039.922V5h2.266V17H96.129l-.109-.9a2.657,2.657,0,0,1-2.172,1.055,2.869,2.869,0,0,1-2.395-1.176A5.258,5.258,0,0,1,90.551,12.711Zm2.258.168a3.337,3.337,0,0,0,.414,1.823,1.349,1.349,0,0,0,1.2.634,1.511,1.511,0,0,0,1.477-.884V11.111a1.489,1.489,0,0,0-1.461-.884Q92.809,10.227,92.809,12.879ZM104.816,17a2.507,2.507,0,0,1-.227-.758,2.732,2.732,0,0,1-2.133.914,3,3,0,0,1-2.059-.719,2.312,2.312,0,0,1-.816-1.812,2.389,2.389,0,0,1,1-2.062,4.915,4.915,0,0,1,2.879-.727H104.5v-.484a1.393,1.393,0,0,0-.3-.937,1.183,1.183,0,0,0-.949-.352,1.345,1.345,0,0,0-.895.273.929.929,0,0,0-.324.75H99.77a2.268,2.268,0,0,1,.453-1.359,3,3,0,0,1,1.281-.98,4.669,4.669,0,0,1,1.859-.355,3.689,3.689,0,0,1,2.48.785,2.747,2.747,0,0,1,.918,2.207v3.664a4.041,4.041,0,0,0,.336,1.82V17Zm-1.867-1.57a1.945,1.945,0,0,0,.922-.223,1.462,1.462,0,0,0,.625-.6V13.156h-.844q-1.7,0-1.8,1.172l-.008.133a.9.9,0,0,0,.3.7A1.153,1.153,0,0,0,102.949,15.43Zm5.2-2.719a5.094,5.094,0,0,1,.887-3.148,2.877,2.877,0,0,1,2.426-1.172,2.589,2.589,0,0,1,2.039.922V5h2.266V17h-2.039l-.109-.9a2.657,2.657,0,0,1-2.172,1.055,2.869,2.869,0,0,1-2.395-1.176A5.258,5.258,0,0,1,108.145,12.711Zm2.258.168a3.337,3.337,0,0,0,.414,1.823,1.349,1.349,0,0,0,1.2.634,1.511,1.511,0,0,0,1.477-.884V11.111a1.489,1.489,0,0,0-1.461-.884Q110.4,10.227,110.4,12.879Z" transform="translate(770.512 5490)" fill="#12263f"/><path d="M2.454,20.355.893,18.795a1.681,1.681,0,0,1,0-2.384L14.555,2.742a1.681,1.681,0,0,1,2.384,0L30.6,16.4a1.681,1.681,0,0,1,0,2.384l-1.561,1.561a1.689,1.689,0,0,1-2.412-.028l-8.065-8.466V32.063a1.683,1.683,0,0,1-1.687,1.688h-2.25a1.683,1.683,0,0,1-1.687-1.687V11.855L4.866,20.327a1.677,1.677,0,0,1-2.412.028Z" transform="translate(604 5126.979)" fill="#fe9a2a"/><path d="M2.454,20.355.893,18.795a1.681,1.681,0,0,1,0-2.384L14.555,2.742a1.681,1.681,0,0,1,2.384,0L30.6,16.4a1.681,1.681,0,0,1,0,2.384l-1.561,1.561a1.689,1.689,0,0,1-2.412-.028l-8.065-8.466V32.063a1.683,1.683,0,0,1-1.687,1.688h-2.25a1.683,1.683,0,0,1-1.687-1.687V11.855L4.866,20.327a1.677,1.677,0,0,1-2.412.028Z" transform="translate(769.428 5189.596) rotate(70)" fill="#fe9a2a"/><path d="M2.454,20.355.893,18.795a1.681,1.681,0,0,1,0-2.384L14.555,2.742a1.681,1.681,0,0,1,2.384,0L30.6,16.4a1.681,1.681,0,0,1,0,2.384l-1.561,1.561a1.689,1.689,0,0,1-2.412-.028l-8.065-8.466V32.063a1.683,1.683,0,0,1-1.687,1.688h-2.25a1.683,1.683,0,0,1-1.687-1.687V11.855L4.866,20.327a1.677,1.677,0,0,1-2.412.028Z" transform="matrix(0.017, 1, -1, 0.017, 802.216, 5275.802)" fill="#fe9a2a"/><path d="M2.454,20.355.893,18.795a1.681,1.681,0,0,1,0-2.384L14.555,2.742a1.681,1.681,0,0,1,2.384,0L30.6,16.4a1.681,1.681,0,0,1,0,2.384l-1.561,1.561a1.689,1.689,0,0,1-2.412-.028l-8.065-8.466V32.063a1.683,1.683,0,0,1-1.687,1.688h-2.25a1.683,1.683,0,0,1-1.687-1.687V11.855L4.866,20.327a1.677,1.677,0,0,1-2.412.028Z" transform="matrix(-0.469, 0.883, -0.883, -0.469, 784.665, 5372.78)" fill="#fe9a2a"/><path d="M2.454,20.355.893,18.795a1.681,1.681,0,0,1,0-2.384L14.555,2.742a1.681,1.681,0,0,1,2.384,0L30.6,16.4a1.681,1.681,0,0,1,0,2.384l-1.561,1.561a1.689,1.689,0,0,1-2.412-.028l-8.065-8.466V32.063a1.683,1.683,0,0,1-1.687,1.688h-2.25a1.683,1.683,0,0,1-1.687-1.687V11.855L4.866,20.327a1.677,1.677,0,0,1-2.412.028Z" transform="matrix(-1, -0.017, 0.017, -1, 634.903, 5466.89)" fill="#fe9a2a"/></g></svg>