<svg xmlns="http://www.w3.org/2000/svg" xmlns:xlink="http://www.w3.org/1999/xlink" width="44" height="65.217" viewBox="0 0 44 65.217">
  <defs>
    <clipPath id="clip-path">
      <rect id="Rectángulo_34049" data-name="Rectángulo 34049" width="44" height="65.217" fill="#12263f"/>
    </clipPath>
  </defs>
  <g id="Grupo_81032" data-name="Grupo 81032" transform="translate(0 0)">
    <g id="Grupo_80925" data-name="Grupo 80925" transform="translate(0 0)" clip-path="url(#clip-path)">
      <path id="Trazado_115295" data-name="Trazado 115295" d="M26.55,15.429a3.874,3.874,0,0,1-1.787-.443,4.143,4.143,0,0,1-1.834-5.379,3.818,3.818,0,0,1,2.241-2.031L32.749,5a3.976,3.976,0,0,1,5,2.564,4.085,4.085,0,0,1-.152,3.053,3.812,3.812,0,0,1-2.241,2.029l-7.578,2.583a3.819,3.819,0,0,1-1.226.2m7.42-8.737a1.9,1.9,0,0,0-.609.1L25.783,9.375a1.934,1.934,0,0,0-1.131,1.032,2.241,2.241,0,0,0,.986,2.893,1.936,1.936,0,0,0,1.525.127l7.578-2.583a1.928,1.928,0,0,0,1.131-1.03,2.2,2.2,0,0,0,.077-1.642,2.133,2.133,0,0,0-1.979-1.48" transform="translate(5.751 1.222)" fill="#12263f"/>
      <path id="Trazado_115296" data-name="Trazado 115296" d="M26.635,20.575a4.026,4.026,0,0,1-3.773-2.755,3.972,3.972,0,0,1,2.4-5.071l7.578-2.582a3.82,3.82,0,0,1,3.011.233,4.068,4.068,0,0,1,1.984,2.318,3.972,3.972,0,0,1-2.4,5.07l-7.578,2.583a3.778,3.778,0,0,1-1.222.2m7.43-8.712a1.92,1.92,0,0,0-.615.1l-7.578,2.583a2.13,2.13,0,0,0,1.372,4.026l7.578-2.582a2.072,2.072,0,0,0,1.212-2.661,2.176,2.176,0,0,0-1.058-1.242,1.973,1.973,0,0,0-.911-.226" transform="translate(5.773 2.54)" fill="#12263f"/>
      <path id="Trazado_115297" data-name="Trazado 115297" d="M26.693,25.694a3.861,3.861,0,0,1-1.771-.434A4.081,4.081,0,0,1,23.1,19.917,3.828,3.828,0,0,1,25.342,17.9L32.92,15.32a3.817,3.817,0,0,1,3.006.227,4.081,4.081,0,0,1,1.821,5.342,3.827,3.827,0,0,1-2.241,2.016l-7.578,2.583a3.845,3.845,0,0,1-1.235.206m7.46-8.68a1.918,1.918,0,0,0-.62.1L25.955,19.7a1.945,1.945,0,0,0-1.136,1.027,2.183,2.183,0,0,0,.969,2.843,1.936,1.936,0,0,0,1.526.12l7.579-2.583a1.945,1.945,0,0,0,1.136-1.027,2.183,2.183,0,0,0-.97-2.843,1.977,1.977,0,0,0-.906-.223" transform="translate(5.793 3.853)" fill="#12263f"/>
      <path id="Trazado_115298" data-name="Trazado 115298" d="M26.723,30.739a3.878,3.878,0,0,1-1.741-.415,3.954,3.954,0,0,1,.447-7.263l7.578-2.583a3.946,3.946,0,0,1,2.545,7.47L27.974,30.53a3.877,3.877,0,0,1-1.251.208m7.53-8.568a1.957,1.957,0,0,0-.634.105l-7.578,2.583A2.028,2.028,0,0,0,24.8,27.442a2.055,2.055,0,0,0,1.028,1.183,1.979,1.979,0,0,0,1.53.107l7.578-2.583a2.052,2.052,0,0,0-.686-3.978" transform="translate(5.812 5.169)" fill="#12263f"/>
      <path id="Trazado_115299" data-name="Trazado 115299" d="M29.242,6.3H6.433a.95.95,0,0,1,0-1.9H29.242a.95.95,0,0,1,0,1.9" transform="translate(1.398 1.123)" fill="#12263f"/>
      <path id="Trazado_115300" data-name="Trazado 115300" d="M28.5,33.086H6.434a.95.95,0,1,1,0-1.9H28.5a.95.95,0,1,1,0,1.9" transform="translate(1.398 7.952)" fill="#12263f"/>
      <path id="Trazado_115301" data-name="Trazado 115301" d="M14.437,19.089a5.4,5.4,0,1,1,5.4-5.4,5.4,5.4,0,0,1-5.4,5.4m0-8.9a3.5,3.5,0,1,0,3.5,3.5,3.5,3.5,0,0,0-3.5-3.5" transform="translate(2.305 2.115)" fill="#12263f"/>
      <path id="Trazado_115302" data-name="Trazado 115302" d="M14.437,31a5.4,5.4,0,1,1,5.4-5.4,5.4,5.4,0,0,1-5.4,5.4m0-8.9a3.5,3.5,0,1,0,3.5,3.5,3.5,3.5,0,0,0-3.5-3.5" transform="translate(2.305 5.153)" fill="#12263f"/>
      <path id="Trazado_115303" data-name="Trazado 115303" d="M20.04,12.24h-.609a.95.95,0,1,1,0-1.9h.609a.95.95,0,0,1,0,1.9" transform="translate(4.712 2.636)" fill="#12263f"/>
      <path id="Trazado_115304" data-name="Trazado 115304" d="M21.494,15.235H19.431a.95.95,0,1,1,0-1.9h2.063a.95.95,0,0,1,0,1.9" transform="translate(4.712 3.4)" fill="#12263f"/>
      <path id="Trazado_115305" data-name="Trazado 115305" d="M21.109,24.155H19.43a.95.95,0,0,1,0-1.9h1.679a.95.95,0,1,1,0,1.9" transform="translate(4.712 5.674)" fill="#12263f"/>
      <path id="Trazado_115306" data-name="Trazado 115306" d="M22.01,27.15H19.431a.95.95,0,1,1,0-1.9H22.01a.95.95,0,1,1,0,1.9" transform="translate(4.712 6.438)" fill="#12263f"/>
      <path id="Trazado_115307" data-name="Trazado 115307" d="M33.872,63.323H8.3a3.975,3.975,0,0,1-.818-7.865,4.827,4.827,0,0,0-1.672-2.9l-1.052-.877A13.622,13.622,0,0,1,0,41.852L.075,11.64a4.354,4.354,0,0,1,8.706.143V14.59a.95.95,0,1,1-1.9,0V11.783a2.455,2.455,0,0,0-4.907-.1L1.9,41.82A11.7,11.7,0,0,0,5.98,50.233l1.043.87a6.735,6.735,0,0,1,2.43,5.187.979.979,0,0,1-.95.983H8.3a2.075,2.075,0,1,0,0,4.15H33.872a2.075,2.075,0,1,0,0-4.15.951.951,0,0,1-.686-1.608V45.183a.95.95,0,0,1,1.9,0V55.562a3.975,3.975,0,0,1-1.214,7.761" transform="translate(0 1.894)" fill="#12263f"/>
      <path id="Trazado_115308" data-name="Trazado 115308" d="M16.456,47.531H6.968a.95.95,0,0,1,0-1.9h9.488a.95.95,0,1,1,0,1.9" transform="translate(1.535 11.635)" fill="#12263f"/>
      <path id="Trazado_115309" data-name="Trazado 115309" d="M29.194,47.531h-9.9a.95.95,0,0,1,0-1.9h9.9a.95.95,0,0,1,0,1.9" transform="translate(4.678 11.635)" fill="#12263f"/>
      <path id="Trazado_115310" data-name="Trazado 115310" d="M32.738,48.029H8.721a3.241,3.241,0,0,1-3.238-3.237V3.238A3.242,3.242,0,0,1,8.721,0H32.738a3.241,3.241,0,0,1,3.237,3.238V4.522a.949.949,0,1,1-1.9,0V3.238A1.339,1.339,0,0,0,32.738,1.9H8.721A1.339,1.339,0,0,0,7.383,3.238V44.792a1.339,1.339,0,0,0,1.338,1.337H32.738a1.339,1.339,0,0,0,1.338-1.337V37.271a.949.949,0,1,1,1.9,0v7.521a3.24,3.24,0,0,1-3.237,3.237" transform="translate(1.398 0)" fill="#12263f"/>
    </g>
  </g>
</svg>
