<svg xmlns="http://www.w3.org/2000/svg" xmlns:xlink="http://www.w3.org/1999/xlink" width="53.647" height="53.647" viewBox="0 0 53.647 53.647">
  <defs>
    <clipPath id="clip-path">
      <rect id="Rectángulo_34048" data-name="Rectángulo 34048" width="53.647" height="53.647" fill="#12263f"/>
    </clipPath>
  </defs>
  <g id="Grupo_80923" data-name="Grupo 80923" clip-path="url(#clip-path)">
    <path id="Trazado_115281" data-name="Trazado 115281" d="M45.586,57.48a2.107,2.107,0,0,1-1.5-.621l-5.545-5.546a1.441,1.441,0,0,1,0-2.04l2.4-2.4a1.476,1.476,0,0,1,2.037,0l2.607,2.608,7.044-7.044a1.476,1.476,0,0,1,2.038,0l2.4,2.4a1.44,1.44,0,0,1,0,2.038l-9.98,9.983a2.105,2.105,0,0,1-1.5.622m-5.418-7.186,5.24,5.241a.219.219,0,0,0,.355,0l9.676-9.679-1.789-1.79-7.4,7.4a.936.936,0,0,1-1.323,0L41.961,48.5Z" transform="translate(-20.281 -22.364)" fill="#12263f"/>
    <path id="Trazado_115282" data-name="Trazado 115282" d="M40.176,55.256A15.081,15.081,0,1,1,55.257,40.175,15.1,15.1,0,0,1,40.176,55.256m0-28.29a13.209,13.209,0,1,0,13.209,13.21,13.225,13.225,0,0,0-13.209-13.21" transform="translate(-13.352 -13.352)" fill="#12263f"/>
    <path id="Trazado_115283" data-name="Trazado 115283" d="M54.577,8.026a.952.952,0,0,1-.439-.109L52.58,7.1l-1.559.82a.96.96,0,0,1-1.158-.227.938.938,0,0,1-.208-.765l.3-1.736L48.693,3.961a.941.941,0,0,1,.522-1.605L50.958,2.1l.78-1.579a.94.94,0,0,1,1.687,0L54.2,2.1l1.743.253a.94.94,0,0,1,.521,1.605L55.206,5.19l.3,1.736a.94.94,0,0,1-.927,1.1M50.345,3.61l.854.832a.7.7,0,0,1,.2.621l-.2,1.175,1.055-.554a.7.7,0,0,1,.654,0l1.054.554-.2-1.175a.7.7,0,0,1,.2-.621l.854-.832-1.18-.171a.7.7,0,0,1-.528-.384L52.58,1.986l-.528,1.069a.7.7,0,0,1-.528.384Z" transform="translate(-25.757 0.001)" fill="#12263f"/>
    <path id="Trazado_115284" data-name="Trazado 115284" d="M52.58,105.524a.935.935,0,0,1-.843-.525l-.78-1.579-1.743-.253a.941.941,0,0,1-.522-1.6l1.262-1.23-.3-1.736a.938.938,0,0,1,.208-.765.956.956,0,0,1,1.158-.226l1.559.819,1.559-.82a.959.959,0,0,1,1.159.228.935.935,0,0,1,.206.765l-.3,1.735,1.261,1.229a.94.94,0,0,1-.521,1.605l-1.743.253L53.424,105a.935.935,0,0,1-.844.525m-2.236-3.612,1.18.171a.7.7,0,0,1,.528.384l.528,1.069.528-1.069a.7.7,0,0,1,.528-.384l1.18-.171-.854-.832a.7.7,0,0,1-.2-.621l.2-1.175-1.054.555a.7.7,0,0,1-.654,0L51.2,99.285l.2,1.175a.7.7,0,0,1-.2.621Z" transform="translate(-25.757 -51.877)" fill="#12263f"/>
    <path id="Trazado_115285" data-name="Trazado 115285" d="M102.23,56.752a.931.931,0,0,1-.672-.285l-1.229-1.262-1.736.3a1.244,1.244,0,0,1-.161.014.944.944,0,0,1-.8-.455.933.933,0,0,1-.027-.924l.819-1.558-.82-1.559a.934.934,0,0,1,.028-.924.946.946,0,0,1,.8-.455,1.231,1.231,0,0,1,.16.014l1.736.3,1.229-1.262a.941.941,0,0,1,1.6.522l.254,1.742,1.579.78a.941.941,0,0,1,0,1.687l-1.578.78-.254,1.742a.935.935,0,0,1-.932.806m-1.656-3a.7.7,0,0,1,.5.212l.832.854.172-1.179a.7.7,0,0,1,.384-.528l1.069-.528-1.069-.528a.7.7,0,0,1-.384-.528l-.172-1.18-.832.854a.7.7,0,0,1-.621.2l-1.175-.2.555,1.055a.7.7,0,0,1,0,.653l-.555,1.055,1.175-.2a.732.732,0,0,1,.119-.01" transform="translate(-51.872 -25.757)" fill="#12263f"/>
    <path id="Trazado_115286" data-name="Trazado 115286" d="M3.29,56.752a.936.936,0,0,1-.933-.805L2.1,54.2l-1.579-.78a.941.941,0,0,1,0-1.688L2.1,50.957l.253-1.743a.941.941,0,0,1,1.605-.522l1.229,1.262,1.736-.3a1.231,1.231,0,0,1,.161-.014.941.941,0,0,1,.832,1.378l-.82,1.56.82,1.558a.941.941,0,0,1-.832,1.379,1.341,1.341,0,0,1-.162-.014l-1.735-.3L3.962,56.468a.931.931,0,0,1-.672.285m-1.3-4.172,1.069.528a.7.7,0,0,1,.384.528l.172,1.179.832-.854a.7.7,0,0,1,.621-.2l1.175.2-.555-1.055a.7.7,0,0,1,0-.653L6.24,51.2l-1.175.2a.7.7,0,0,1-.621-.2l-.832-.854-.172,1.18a.7.7,0,0,1-.384.528Z" transform="translate(0 -25.757)" fill="#12263f"/>
    <path id="Trazado_115287" data-name="Trazado 115287" d="M96.6,30.654a.941.941,0,0,1-.438-.109L94.6,29.726l-1.559.82a.96.96,0,0,1-1.158-.227.938.938,0,0,1-.208-.765l.3-1.736-1.261-1.229a.941.941,0,0,1,.522-1.605l1.743-.253.78-1.579a.94.94,0,0,1,1.687,0l.78,1.579,1.743.253a.941.941,0,0,1,.521,1.605l-1.261,1.229.3,1.736a.94.94,0,0,1-.927,1.1m-4.232-4.415.854.832a.7.7,0,0,1,.2.622l-.2,1.174,1.055-.554a.7.7,0,0,1,.654,0l1.054.554-.2-1.174a.7.7,0,0,1,.2-.622l.854-.832-1.18-.171a.7.7,0,0,1-.528-.384l-.528-1.07-.528,1.07a.7.7,0,0,1-.528.384Z" transform="translate(-48.115 -12.039)" fill="#12263f"/>
    <path id="Trazado_115288" data-name="Trazado 115288" d="M79.316,13.953a.951.951,0,0,1-.437-.108l-1.56-.821-1.559.82a.956.956,0,0,1-1.158-.227.938.938,0,0,1-.208-.765l.3-1.736L73.432,9.887a.941.941,0,0,1,.52-1.605L75.7,8.029l.78-1.579a.94.94,0,0,1,1.687,0l.78,1.579,1.743.253a.941.941,0,0,1,.52,1.606l-1.26,1.228.3,1.736a.942.942,0,0,1-.927,1.1M75.083,9.536l.854.832a.7.7,0,0,1,.2.621l-.2,1.175,1.055-.554a.7.7,0,0,1,.654,0l1.055.554-.2-1.175a.7.7,0,0,1,.2-.621l.854-.832-1.18-.171a.7.7,0,0,1-.528-.384l-.528-1.069-.528,1.069a.7.7,0,0,1-.528.384Z" transform="translate(-38.919 -3.153)" fill="#12263f"/>
    <path id="Trazado_115289" data-name="Trazado 115289" d="M12.555,30.654a.94.94,0,0,1-.438-.109l-1.559-.819L9,30.546a.941.941,0,0,1-1.365-.992l.3-1.736L6.671,26.589a.941.941,0,0,1,.522-1.605l1.743-.253.78-1.579a.94.94,0,0,1,1.687,0l.78,1.579,1.743.253a.941.941,0,0,1,.522,1.6l-1.262,1.23.3,1.736a.941.941,0,0,1-.927,1.1M8.323,26.238l.854.832a.7.7,0,0,1,.2.622l-.2,1.174,1.055-.554a.7.7,0,0,1,.654,0l1.055.554-.2-1.174a.7.7,0,0,1,.2-.622l.854-.832-1.18-.171a.7.7,0,0,1-.528-.384l-.528-1.07-.528,1.07a.7.7,0,0,1-.528.384Z" transform="translate(-3.398 -12.039)" fill="#12263f"/>
    <path id="Trazado_115290" data-name="Trazado 115290" d="M29.838,13.953a.948.948,0,0,1-.438-.109l-1.559-.82-1.559.82a.937.937,0,0,1-1.158-.227.938.938,0,0,1-.208-.765l.3-1.736L23.954,9.887a.941.941,0,0,1,.52-1.605l1.744-.253L27,6.45a.94.94,0,0,1,1.687,0l.78,1.579,1.743.253a.941.941,0,0,1,.521,1.605l-1.261,1.229.3,1.736a.942.942,0,0,1-.927,1.1M25.605,9.536l.854.832a.7.7,0,0,1,.2.621l-.2,1.175,1.055-.554a.7.7,0,0,1,.654,0l1.055.554-.2-1.175a.7.7,0,0,1,.2-.621l.854-.832L28.9,9.365a.7.7,0,0,1-.528-.384l-.528-1.069-.528,1.069a.7.7,0,0,1-.528.384Z" transform="translate(-12.593 -3.153)" fill="#12263f"/>
    <path id="Trazado_115291" data-name="Trazado 115291" d="M94.6,82.9a.935.935,0,0,1-.844-.526l-.779-1.578-1.743-.253a.941.941,0,0,1-.522-1.6l1.262-1.23-.3-1.736a.938.938,0,0,1,.208-.765.956.956,0,0,1,1.158-.226L94.6,75.8l1.558-.82a.96.96,0,0,1,1.159.228.935.935,0,0,1,.206.765l-.3,1.735,1.261,1.229a.941.941,0,0,1-.522,1.605l-1.742.253-.78,1.579a.935.935,0,0,1-.844.525m-2.236-3.611,1.18.171a.7.7,0,0,1,.528.384l.528,1.069.528-1.069a.7.7,0,0,1,.528-.384l1.18-.171-.854-.832a.7.7,0,0,1-.2-.622l.2-1.174-1.054.554a.7.7,0,0,1-.654,0l-1.055-.554.2,1.174a.7.7,0,0,1-.2.622Z" transform="translate(-48.115 -39.837)" fill="#12263f"/>
    <path id="Trazado_115292" data-name="Trazado 115292" d="M77.319,99.6a.935.935,0,0,1-.843-.525l-.78-1.579-1.743-.253a.941.941,0,0,1-.521-1.605l1.261-1.229-.3-1.736a.938.938,0,0,1,.208-.765.957.957,0,0,1,1.158-.226l1.559.819,1.559-.82a.959.959,0,0,1,1.158.227.936.936,0,0,1,.207.765l-.3,1.736,1.261,1.229a.941.941,0,0,1-.52,1.605l-1.744.253-.78,1.579a.935.935,0,0,1-.844.525m-2.236-3.611,1.18.171a.7.7,0,0,1,.528.384l.528,1.07.528-1.07a.7.7,0,0,1,.528-.384l1.18-.171-.854-.832a.7.7,0,0,1-.2-.621l.2-1.175-1.055.554a.7.7,0,0,1-.654,0l-1.055-.554.2,1.175a.7.7,0,0,1-.2.621Z" transform="translate(-38.919 -48.724)" fill="#12263f"/>
    <path id="Trazado_115293" data-name="Trazado 115293" d="M10.558,82.9a.935.935,0,0,1-.843-.525l-.78-1.579-1.743-.253a.941.941,0,0,1-.522-1.6L7.932,77.7l-.3-1.736a.938.938,0,0,1,.208-.765A.956.956,0,0,1,9,74.978l1.559.819,1.559-.82a.96.96,0,0,1,1.158.227.936.936,0,0,1,.207.765l-.3,1.736,1.261,1.229a.941.941,0,0,1-.522,1.605l-1.743.253-.78,1.579a.935.935,0,0,1-.844.525M8.323,79.285l1.18.171a.7.7,0,0,1,.528.384l.528,1.069.528-1.069a.7.7,0,0,1,.528-.384l1.18-.171-.854-.832a.7.7,0,0,1-.2-.622l.2-1.174-1.055.554a.7.7,0,0,1-.654,0l-1.055-.554.2,1.174a.7.7,0,0,1-.2.622Z" transform="translate(-3.398 -39.837)" fill="#12263f"/>
    <path id="Trazado_115294" data-name="Trazado 115294" d="M27.841,99.6A.935.935,0,0,1,27,99.074l-.78-1.579-1.743-.253a.941.941,0,0,1-.521-1.605l1.261-1.229-.3-1.736a.938.938,0,0,1,.208-.765.957.957,0,0,1,1.158-.226l1.559.819,1.559-.82a.959.959,0,0,1,1.159.228.935.935,0,0,1,.206.765l-.3,1.735,1.261,1.229a.941.941,0,0,1-.52,1.605l-1.744.253-.78,1.579a.935.935,0,0,1-.844.525m-2.236-3.611,1.18.171a.7.7,0,0,1,.528.384l.528,1.07.528-1.07a.7.7,0,0,1,.528-.384l1.18-.171-.854-.832a.7.7,0,0,1-.2-.621l.2-1.175-1.054.554a.7.7,0,0,1-.654,0l-1.055-.554.2,1.175a.7.7,0,0,1-.2.621Z" transform="translate(-12.593 -48.724)" fill="#12263f"/>
  </g>
</svg>
