<svg xmlns="http://www.w3.org/2000/svg" xmlns:xlink="http://www.w3.org/1999/xlink" width="61.345" height="66" viewBox="0 0 61.345 66">
  <defs>
    <clipPath id="clip-path">
      <rect id="Rectángulo_34513" data-name="Rectángulo 34513" width="61.345" height="66" fill="none"/>
    </clipPath>
  </defs>
  <g id="Grupo_717723" data-name="Grupo 717723" transform="translate(0 0)">
    <g id="Grupo_717722" data-name="Grupo 717722" transform="translate(0 0)" clip-path="url(#clip-path)">
      <path id="Trazado_468706" data-name="Trazado 468706" d="M14.509,6.583l2.828,43.782s17.12,6.168,24.953-6.875,5.494-22.37,5.494-22.37S41.078,8.825,36.9,6.494s-22.387.089-22.387.089" transform="translate(8.675 3.397)" fill="#d4eafd"/>
      <path id="Trazado_468707" data-name="Trazado 468707" d="M15.455,2.84V8.07s12.512-4.548,22.3,4.342,7.908,21.5,7.908,21.5-5.1,22.309-28.894,18.494l-.01,5.105s19.314,6.278,30.457-13.571-6.606-35.4-6.606-35.4a30.585,30.585,0,0,0-25.158-5.7" transform="translate(9.241 1.353)" fill="#6da7bf"/>
      <path id="Trazado_468708" data-name="Trazado 468708" d="M41.641,27.5h3.675a22.109,22.109,0,0,0-5.481-13.41l-2.6,2.64a1.223,1.223,0,0,1-1.726,0,1.244,1.244,0,0,1,0-1.749l2.6-2.64A21.419,21.419,0,0,0,24.879,6.783v3.725a1.222,1.222,0,1,1-2.445,0V6.767a21.1,21.1,0,0,0-6.328,1.312A1.2,1.2,0,0,1,14.54,7.35a1.405,1.405,0,0,1-.08-.437,1.247,1.247,0,0,1,.8-1.15,24.072,24.072,0,0,1,7.319-1.506c.352,0,.7-.016,1.071-.016a24.491,24.491,0,0,1,0,48.977,23.953,23.953,0,0,1-5.369-.615,1.229,1.229,0,0,1-.911-1.474,1.212,1.212,0,0,1,1.454-.923,22.517,22.517,0,0,0,3.611.486V46.95a1.222,1.222,0,1,1,2.445,0v3.741a21.436,21.436,0,0,0,13.231-5.572L35.5,42.5a1.244,1.244,0,0,1,0-1.749,1.2,1.2,0,0,1,1.726,0l2.6,2.64A22.115,22.115,0,0,0,45.316,29.96H41.641a1.231,1.231,0,0,1,0-2.462" transform="translate(8.646 2.627)"/>
      <path id="Trazado_468709" data-name="Trazado 468709" d="M53.691,57.416a1.231,1.231,0,0,1,0,2.462H1.214a1.231,1.231,0,0,1,0-2.462H5.481V36.183H2.892A2.932,2.932,0,0,1,0,33.251V18.237A8.315,8.315,0,0,1,8.261,9.88h11.9a8.3,8.3,0,0,1,8.245,8.357V33.251a2.922,2.922,0,0,1-2.892,2.932H22.946V57.416H53.691ZM25.982,33.251V18.237a5.857,5.857,0,0,0-5.816-5.9H8.261a5.857,5.857,0,0,0-5.816,5.9V33.251a.44.44,0,0,0,.447.453H5.481V22.351a1.215,1.215,0,1,1,2.429,0V57.416h5.081V38.693a1.215,1.215,0,1,1,2.429,0V57.416h5.1V22.351a1.215,1.215,0,1,1,2.429,0V33.7h2.573a.453.453,0,0,0,.463-.453" transform="translate(0 6.122)"/>
      <path id="Trazado_468710" data-name="Trazado 468710" d="M23.067,1.19a29.268,29.268,0,0,1,29.05,29.429,29.282,29.282,0,0,1-29.05,29.445,27.816,27.816,0,0,1-5.321-.5,1.23,1.23,0,0,1-.975-1.425,1.208,1.208,0,0,1,1.422-.988,27.29,27.29,0,0,0,4.874.453,26.977,26.977,0,0,0,0-53.95c-.384,0-.767.016-1.151.032a25.836,25.836,0,0,0-4.986.68,1.213,1.213,0,0,1-1.47-.907,1.254,1.254,0,0,1,.911-1.49,29.1,29.1,0,0,1,6.7-.777" transform="translate(9.227 0.737)"/>
      <path id="Trazado_468711" data-name="Trazado 468711" d="M29.549,29.026a1.244,1.244,0,0,1,0,1.749,1.2,1.2,0,0,1-1.71,0l-8.022-8.131a1.208,1.208,0,0,1-.368-.875V16.7a1.222,1.222,0,1,1,2.445,0v4.567Z" transform="translate(11.63 9.586)"/>
      <path id="Trazado_468712" data-name="Trazado 468712" d="M25.068,17.3V32.309a.453.453,0,0,1-.463.453H22.032V21.409a1.215,1.215,0,1,0-2.429,0V56.474h-5.1V37.751a1.215,1.215,0,1,0-2.429,0V56.474H6.995V21.409a1.215,1.215,0,1,0-2.429,0V32.763H1.977a.44.44,0,0,1-.447-.453V17.3a5.857,5.857,0,0,1,5.816-5.9h11.9a5.857,5.857,0,0,1,5.816,5.9" transform="translate(0.915 7.064)" fill="#e69787"/>
      <path id="Trazado_468713" data-name="Trazado 468713" d="M18.743,7.272a7.392,7.392,0,0,1-.32,2.154A7.156,7.156,0,0,1,4.41,7.272,7.231,7.231,0,0,1,11.569,0a7.234,7.234,0,0,1,7.175,7.272m-2.429,0a4.738,4.738,0,1,0-4.746,4.81,4.775,4.775,0,0,0,4.746-4.81" transform="translate(2.637)"/>
      <path id="Trazado_468714" data-name="Trazado 468714" d="M10.66,1.53A4.8,4.8,0,1,1,5.93,6.324,4.775,4.775,0,0,1,10.66,1.53" transform="translate(3.546 0.948)" fill="#f8e794"/>
    </g>
  </g>
</svg>
