<svg id="Grupo_717730" data-name="Grupo 717730" xmlns="http://www.w3.org/2000/svg" xmlns:xlink="http://www.w3.org/1999/xlink" width="73.433" height="67.372" viewBox="0 0 73.433 67.372">
  <defs>
    <clipPath id="clip-path">
      <rect id="Rect치ngulo_34517" data-name="Rect치ngulo 34517" width="73.433" height="67.372" fill="none"/>
    </clipPath>
  </defs>
  <rect id="Rect치ngulo_34516" data-name="Rect치ngulo 34516" width="45.753" height="39.706" transform="translate(25.932 1.39)" fill="#d4eafd"/>
  <g id="Grupo_717729" data-name="Grupo 717729">
    <g id="Grupo_717728" data-name="Grupo 717728" clip-path="url(#clip-path)">
      <path id="Trazado_468733" data-name="Trazado 468733" d="M25.893,19.1l-4.5,1.421s1.685,6.492,8.242,4.816,8.888-3.352,8.888-3.352l3.5-8.305s-5.174-.8-5.32,0-1.353,4.3-1.353,4.3l-2.606,2.039Z" transform="translate(15.236 9.49)" fill="#99c23f"/>
      <path id="Trazado_468734" data-name="Trazado 468734" d="M19.635,13.444h6.446l5.684-2.467-.729-5s-7.939.827-11.4,7.467" transform="translate(13.982 4.256)" fill="#99c23f"/>
      <path id="Trazado_468735" data-name="Trazado 468735" d="M73.433,1.3V40.885a1.315,1.315,0,0,1-1.3,1.318H26.469a1.315,1.315,0,0,1-1.3-1.318V27.531H22.48V64.769H49.292a1.3,1.3,0,1,1,0,2.6H1.3a1.3,1.3,0,1,1,0-2.6H5.29V44.464a3.847,3.847,0,0,1-1.335.24A3.942,3.942,0,0,1,0,40.765V24.911a5.612,5.612,0,0,1,5.6-5.6H25.168V1.3a1.3,1.3,0,0,1,1.3-1.3H72.131a1.3,1.3,0,0,1,1.3,1.3m-2.6,38.283V2.6H27.771v16.71H39.635a3.4,3.4,0,0,1,.6.051,4.105,4.105,0,0,1-.6,8.167H27.771V39.584ZM41.142,23.422a1.52,1.52,0,0,0-1.507-1.507H5.6a3,3,0,0,0-3,3V40.765a1.344,1.344,0,0,0,2.688,0V29.174a1.3,1.3,0,0,1,1.3-1.3,1.315,1.315,0,0,1,1.318,1.3V64.769h4.674V47a1.3,1.3,0,1,1,2.6,0V64.769h4.691V26.23a1.3,1.3,0,0,1,1.3-1.3H39.635a1.509,1.509,0,0,0,1.507-1.507" transform="translate(0 0)"/>
      <path id="Trazado_468736" data-name="Trazado 468736" d="M43.018,16.487a1.3,1.3,0,0,1-1.3,1.3h-5.5a1.3,1.3,0,0,1-1.3-1.3,5.593,5.593,0,0,0-5.581-5.581A1.3,1.3,0,0,1,28.02,9.6v-5.5A1.319,1.319,0,0,1,29.338,2.79a13.7,13.7,0,0,1,13.68,13.7m-5.6-1.3h2.928A11.126,11.126,0,0,0,30.64,5.478V8.406a8.2,8.2,0,0,1,6.78,6.78" transform="translate(19.953 1.987)"/>
      <path id="Trazado_468737" data-name="Trazado 468737" d="M39.258,14.068H36.33a8.2,8.2,0,0,0-6.78-6.78V4.36a11.126,11.126,0,0,1,9.708,9.708" transform="translate(21.043 3.105)" fill="#b8e151"/>
      <path id="Trazado_468738" data-name="Trazado 468738" d="M43.123,12.53a1.3,1.3,0,0,1,1.3,1.3A13.691,13.691,0,0,1,20.386,22.8a1.3,1.3,0,0,1,.12-1.849,1.322,1.322,0,0,1,1.849.137,11.075,11.075,0,0,0,19.381-5.958H38.809a8.18,8.18,0,0,1-8.081,6.883,8.072,8.072,0,0,1-3.185-.633,1.316,1.316,0,0,1-.7-1.712,1.293,1.293,0,0,1,1.712-.685,5.607,5.607,0,0,0,7.756-5.153,1.3,1.3,0,0,1,1.3-1.3Z" transform="translate(14.284 8.923)"/>
      <path id="Trazado_468739" data-name="Trazado 468739" d="M32.6,7.824v4.263a1.3,1.3,0,0,1-1.3,1.318A5.592,5.592,0,0,0,27.72,14.69,1.259,1.259,0,0,1,26.9,15a1.331,1.331,0,0,1-.274-.034,1.273,1.273,0,0,1-.736-.445,1.3,1.3,0,0,1,.171-1.832A8.292,8.292,0,0,1,30,10.889V7.978a11.173,11.173,0,0,0-8.321,5.479,1.3,1.3,0,1,1-2.243-1.3A13.735,13.735,0,0,1,31.3,5.29a1.3,1.3,0,0,1,1.3,1.3Z" transform="translate(13.713 3.767)"/>
      <path id="Trazado_468740" data-name="Trazado 468740" d="M38.553,12.8a1.507,1.507,0,1,1,0,3.013H20.1a1.3,1.3,0,0,0-1.3,1.3v38.54H14.1V37.882a1.3,1.3,0,1,0-2.6,0V55.654H6.828V20.059a1.315,1.315,0,0,0-1.318-1.3,1.3,1.3,0,0,0-1.3,1.3V31.65a1.344,1.344,0,0,1-2.688,0V15.8a3,3,0,0,1,3-3Z" transform="translate(1.082 9.115)" fill="#6da7bf"/>
      <path id="Trazado_468741" data-name="Trazado 468741" d="M11.051,1.85A7.071,7.071,0,1,1,3.98,8.921,7.073,7.073,0,0,1,11.051,1.85M15.52,8.921a4.469,4.469,0,1,0-4.469,4.469A4.472,4.472,0,0,0,15.52,8.921" transform="translate(2.834 1.317)"/>
      <path id="Trazado_468742" data-name="Trazado 468742" d="M9.969,3.37A4.469,4.469,0,1,1,5.5,7.839,4.472,4.472,0,0,1,9.969,3.37" transform="translate(3.917 2.4)" fill="#f8e794"/>
    </g>
  </g>
</svg>
