<svg id="Grupo_717738" data-name="Grupo 717738" xmlns="http://www.w3.org/2000/svg" xmlns:xlink="http://www.w3.org/1999/xlink" width="104.433" height="100.45" viewBox="0 0 104.433 100.45">
  <defs>
    <clipPath id="clip-path">
      <rect id="Rectángulo_34525" data-name="Rectángulo 34525" width="104.433" height="100.45" fill="none"/>
    </clipPath>
  </defs>
  <g id="Grupo_717737" data-name="Grupo 717737" clip-path="url(#clip-path)">
    <path id="Trazado_468769" data-name="Trazado 468769" d="M102.552,58.133a1.879,1.879,0,1,1,0,3.758H1.88a1.879,1.879,0,0,1,0-3.758H4.451V30.443a9.808,9.808,0,0,1,9.568-9.963h.025a9.422,9.422,0,0,1,3.931.816,9.484,9.484,0,0,1,3.412,2.67l9,10.779h9.2a5.244,5.244,0,0,1,5.241,5.241A5.81,5.81,0,0,1,44.6,41.47H59.831a4.909,4.909,0,0,1-.247-1.483,5.244,5.244,0,0,1,5.241-5.241h9.222l9-10.779a9.081,9.081,0,0,1,7.367-3.486,9.824,9.824,0,0,1,9.568,9.963v27.69Zm-6.329,0V30.443a6.076,6.076,0,0,0-5.835-6.206,5.46,5.46,0,0,0-2.423.494,5.731,5.731,0,0,0-2.027,1.632L76.371,37.836a1.922,1.922,0,0,1-1.434.668H64.825a1.484,1.484,0,0,0,0,2.967H76.247a2.3,2.3,0,0,0,1.558-.618L88.93,30.765a1.876,1.876,0,0,1,2.645.148,1.852,1.852,0,0,1-.124,2.645l-7,6.354V58.133Zm-15.526,0V43.324l-.371.321A6.036,6.036,0,0,1,76.643,45.2v6.873a1.9,1.9,0,0,1-1.9,1.879H29.669a1.878,1.878,0,0,1-1.879-1.879V45.2a6.164,6.164,0,0,1-3.708-1.558l-.346-.321V58.133ZM72.86,50.172V45.228H31.548v4.945ZM41.066,39.987A1.488,1.488,0,0,0,39.583,38.5H29.5a1.882,1.882,0,0,1-1.434-.668L18.494,26.364a5.954,5.954,0,0,0-2.027-1.632,5.746,5.746,0,0,0-2.423-.494,6.076,6.076,0,0,0-5.835,6.206v27.69H19.953V39.912l-6.972-6.354a1.854,1.854,0,0,1-.148-2.645,1.907,1.907,0,0,1,2.67-.148L26.628,40.852a2.25,2.25,0,0,0,1.558.618h11.4a1.488,1.488,0,0,0,1.483-1.483" transform="translate(0.001 30.153)"/>
    <path id="Trazado_468770" data-name="Trazado 468770" d="M102.552,39.11a1.879,1.879,0,1,1,0,3.758H1.88a1.879,1.879,0,0,1,0-3.758Z" transform="translate(0.001 57.582)"/>
    <path id="Trazado_468771" data-name="Trazado 468771" d="M50.78,21.078A8.962,8.962,0,0,1,42.35,30.5h-.494a8.959,8.959,0,0,1-8.925-8.431,8.734,8.734,0,0,1,.989-4.6,9.023,9.023,0,0,1,7.442-4.821,8.962,8.962,0,0,1,9.419,8.431m-5.068,3.956a5.235,5.235,0,0,0,1.31-3.758,5.2,5.2,0,0,0-5.464-4.87,5.205,5.205,0,0,0-4.87,5.464,5.143,5.143,0,0,0,1.706,3.56,5.2,5.2,0,0,0,7.318-.4" transform="translate(48.461 18.603)"/>
    <path id="Trazado_468772" data-name="Trazado 468772" d="M58.488,28.207V55.9H46.72V37.676l7-6.354a1.852,1.852,0,0,0,.124-2.645,1.876,1.876,0,0,0-2.645-.148L40.069,38.615a2.3,2.3,0,0,1-1.558.618H27.09a1.484,1.484,0,0,1,0-2.967H37.2a1.922,1.922,0,0,0,1.434-.668L48.2,24.128A5.731,5.731,0,0,1,50.23,22.5,5.46,5.46,0,0,1,52.653,22a6.076,6.076,0,0,1,5.835,6.205" transform="translate(37.737 32.389)" fill="#ceb8ef"/>
    <path id="Trazado_468773" data-name="Trazado 468773" d="M44.78,19.035a5.182,5.182,0,0,1-8.628,4.153,5.143,5.143,0,0,1-1.706-3.56,5.205,5.205,0,0,1,4.87-5.464,5.2,5.2,0,0,1,5.464,4.87" transform="translate(50.704 20.843)" fill="#f8e794"/>
    <path id="Trazado_468774" data-name="Trazado 468774" d="M54.738,2.928a1.871,1.871,0,0,1,.445,1.508L51.45,29.183A1.883,1.883,0,0,1,49.6,30.79H46.554v7.689a1.845,1.845,0,0,1-1.211,1.755,1.529,1.529,0,0,1-.668.124,1.95,1.95,0,0,1-1.409-.618l-7.986-8.95H21.51a1.879,1.879,0,1,1,0-3.758H36.121a1.87,1.87,0,0,1,1.409.618L42.8,33.559V28.912a1.878,1.878,0,0,1,1.879-1.879h3.288l3.165-20.99h-20a1.878,1.878,0,0,1-1.879-1.879,1.9,1.9,0,0,1,1.879-1.9h22.2a1.832,1.832,0,0,1,1.409.668" transform="translate(28.903 3.327)"/>
    <path id="Trazado_468775" data-name="Trazado 468775" d="M39.1,5.95a1.879,1.879,0,1,1,0,3.758H24.98a1.879,1.879,0,1,1,0-3.758Z" transform="translate(34.012 8.76)"/>
    <path id="Trazado_468776" data-name="Trazado 468776" d="M39.862,8.69a1.879,1.879,0,1,1,0,3.758H24.46a1.879,1.879,0,1,1,0-3.758Z" transform="translate(33.246 12.794)"/>
    <path id="Trazado_468777" data-name="Trazado 468777" d="M54.073,30.49v4.945H12.761V30.49H54.073Z" transform="translate(18.788 44.891)" fill="#6da7bf"/>
    <path id="Trazado_468778" data-name="Trazado 468778" d="M44.9.618a1.934,1.934,0,0,1,.47,1.459L42.819,26.825a1.855,1.855,0,0,1-1.854,1.681H27.194l-7.986,8.95A1.884,1.884,0,0,1,17.8,38.1a2.12,2.12,0,0,1-.668-.124,1.905,1.905,0,0,1-1.137-1.211,1.928,1.928,0,0,1-.074-.544V28.506H12.9a1.89,1.89,0,0,1-1.879-1.582L7.292,2.151A1.871,1.871,0,0,1,7.737.643,1.809,1.809,0,0,1,9.146,0h34.34A1.909,1.909,0,0,1,44.9.618m-5.637,24.13L41.41,3.758H11.347l3.165,20.99H17.8a1.878,1.878,0,0,1,1.879,1.879v4.648l5.266-5.884a1.809,1.809,0,0,1,1.409-.643Z" transform="translate(10.709 0)"/>
    <path id="Trazado_468779" data-name="Trazado 468779" d="M38.984,1.52,36.833,22.51H23.928a1.809,1.809,0,0,0-1.409.643l-5.266,5.884V24.389a1.878,1.878,0,0,0-1.879-1.879H12.086L8.921,1.52ZM33.842,8.739A1.878,1.878,0,0,0,31.963,6.86H15.843a1.879,1.879,0,0,0,0,3.758H31.963a1.878,1.878,0,0,0,1.879-1.879m0,6.774a1.878,1.878,0,0,0-1.879-1.879H15.843a1.879,1.879,0,0,0,0,3.758H31.963a1.878,1.878,0,0,0,1.879-1.879" transform="translate(13.134 2.238)" fill="#d4eafd"/>
    <path id="Trazado_468780" data-name="Trazado 468780" d="M28.959,3.68a1.879,1.879,0,0,1,0,3.758H12.84a1.879,1.879,0,0,1,0-3.758Z" transform="translate(16.138 5.418)"/>
    <path id="Trazado_468781" data-name="Trazado 468781" d="M28.959,6.42a1.879,1.879,0,0,1,0,3.758H12.84a1.879,1.879,0,0,1,0-3.758Z" transform="translate(16.138 9.452)"/>
    <path id="Trazado_468782" data-name="Trazado 468782" d="M34.695,36.265a1.483,1.483,0,1,1,0,2.967H23.3a2.25,2.25,0,0,1-1.558-.618L10.614,28.527a1.907,1.907,0,0,0-2.67.148,1.854,1.854,0,0,0,.148,2.645l6.972,6.354V55.9H3.321V28.205A6.076,6.076,0,0,1,9.156,22a5.746,5.746,0,0,1,2.423.494,5.954,5.954,0,0,1,2.027,1.632L23.174,35.6a1.882,1.882,0,0,0,1.434.668Z" transform="translate(4.89 32.391)" fill="#ceb8ef"/>
    <path id="Trazado_468783" data-name="Trazado 468783" d="M19.391,18.408a8.69,8.69,0,0,1,.569,3.659,8.985,8.985,0,0,1-8.925,8.455c-.173,0-.321-.025-.494-.025a8.951,8.951,0,0,1-8.431-9.42,8.962,8.962,0,0,1,9.42-8.431,8.924,8.924,0,0,1,6.156,2.967,9.038,9.038,0,0,1,1.706,2.794M16.2,21.869a5.2,5.2,0,0,0-4.9-5.464h-.272a5.142,5.142,0,0,0-5.167,4.87,5.176,5.176,0,0,0,10.334.593" transform="translate(3.085 18.603)"/>
    <path id="Trazado_468784" data-name="Trazado 468784" d="M12.649,15.891a5.172,5.172,0,1,1-9.024,3.14,5.142,5.142,0,0,1,5.167-4.87h.272a5.174,5.174,0,0,1,3.585,1.731" transform="translate(5.327 20.848)" fill="#f8e794"/>
  </g>
</svg>
