<svg xmlns="http://www.w3.org/2000/svg" xmlns:xlink="http://www.w3.org/1999/xlink" width="112.444" height="98.746" viewBox="0 0 112.444 98.746">
  <defs>
    <clipPath id="clip-path">
      <rect id="Rectángulo_34531" data-name="Rectángulo 34531" width="112.444" height="98.746" fill="none"/>
    </clipPath>
  </defs>
  <g id="Grupo_717747" data-name="Grupo 717747" transform="translate(0)">
    <path id="Trazado_468793" data-name="Trazado 468793" d="M16.87,31.64l5.773-17.713H81.9V32.349Z" transform="translate(28.62 23.627)" fill="#99c23f"/>
    <path id="Trazado_468794" data-name="Trazado 468794" d="M19.011,32.195,26.877,3.159H78.264V32.195Z" transform="translate(32.252 5.359)" fill="#b8e151"/>
    <g id="Grupo_717746" data-name="Grupo 717746" transform="translate(0 0)">
      <g id="Grupo_717745" data-name="Grupo 717745" clip-path="url(#clip-path)">
        <path id="Trazado_468795" data-name="Trazado 468795" d="M83.824,17.349V29.322a2.048,2.048,0,0,1-2.049,2.049H18.919a2.048,2.048,0,0,1-2.049-2.049,2.072,2.072,0,0,1,2.049-2.076H79.725v-9.9a2.049,2.049,0,0,1,4.1,0" transform="translate(28.62 25.956)"/>
        <path id="Trazado_468796" data-name="Trazado 468796" d="M80.194,4.449V33.491a2.048,2.048,0,0,1-2.049,2.049H21.059a2.049,2.049,0,1,1,0-4.1H76.095V6.5H28.933a2.049,2.049,0,1,1,0-4.1H78.144a2.048,2.048,0,0,1,2.049,2.049" transform="translate(32.25 4.072)"/>
        <path id="Trazado_468797" data-name="Trazado 468797" d="M51.962,17.349v3.02a2.048,2.048,0,0,1-2.049,2.049,1.146,1.146,0,0,0-.971,1.213,2.048,2.048,0,0,1-2.049,2.049H34.219a2.049,2.049,0,1,1,0-4.1H45.248a5.182,5.182,0,0,1,2.589-2.8V17.349a2.063,2.063,0,0,1,4.126,0" transform="translate(54.576 25.956)"/>
        <path id="Trazado_468798" data-name="Trazado 468798" d="M51.962,9.812V20.976a2.048,2.048,0,0,1-2.049,2.049,1.146,1.146,0,0,0-.971,1.213,2.054,2.054,0,0,1-2.049,2.076H34.219a2.063,2.063,0,0,1,0-4.126H45.248a5.275,5.275,0,0,1,2.589-2.8V11.43A5.236,5.236,0,0,1,45.248,8.6H34.219a2.049,2.049,0,1,1,0-4.1H46.893a2.048,2.048,0,0,1,2.049,2.049,1.127,1.127,0,0,0,.971,1.213,2.048,2.048,0,0,1,2.049,2.049" transform="translate(54.576 7.634)"/>
        <path id="Trazado_468799" data-name="Trazado 468799" d="M88.8,94.647a2.049,2.049,0,0,1,0,4.1H2.049a2.049,2.049,0,0,1,0-4.1H5.824V88.823A3.516,3.516,0,0,1,9.33,85.317h2.211V72.455a19.079,19.079,0,0,1,6.5-14.372,11.656,11.656,0,0,0,0-17.419,19.121,19.121,0,0,1-6.5-14.372V13.429H9.33A3.516,3.516,0,0,1,5.824,9.923V3.505A3.516,3.516,0,0,1,9.33,0H51.988a3.5,3.5,0,0,1,3.505,3.505V9.923a3.5,3.5,0,0,1-3.505,3.505H49.8V26.291a19.173,19.173,0,0,1-6.5,14.372,11.656,11.656,0,0,0,0,17.419,19.173,19.173,0,0,1,6.5,14.372V85.317h2.184a3.5,3.5,0,0,1,3.505,3.505v5.824Zm-37.4,0V89.416H9.95v5.231Zm0-85.317V4.1H9.95V9.33H51.4Zm-5.69,69.354H15.64v6.633H45.706Zm0-4.1v-2.13a15.028,15.028,0,0,0-5.123-11.3,15.729,15.729,0,0,1,.027-23.594,15.04,15.04,0,0,0,5.1-11.271V25.05H15.64v1.24a15.04,15.04,0,0,0,5.1,11.271,15.756,15.756,0,0,1,0,23.594,15.1,15.1,0,0,0-5.1,11.3v2.13Zm0-61.157H15.64v7.523H45.706Z" transform="translate(0 0)"/>
        <path id="Trazado_468800" data-name="Trazado 468800" d="M38.547,17.349v5.177A2.072,2.072,0,0,1,36.5,24.6H27.949A2.072,2.072,0,0,1,25.9,22.527V21.394a2.048,2.048,0,0,1,2.049-2.049,2.023,2.023,0,0,1,1.834,1.133h4.665V17.349a2.049,2.049,0,1,1,4.1,0" transform="translate(43.939 25.956)"/>
        <path id="Trazado_468801" data-name="Trazado 468801" d="M38.547,14.7v7.766A2.048,2.048,0,0,1,36.5,24.514H27.949A2.048,2.048,0,0,1,25.9,22.464V21.3a2.048,2.048,0,0,1,2.049-2.049,2.023,2.023,0,0,1,1.834,1.133h4.665v-3.64h-6.5A2.048,2.048,0,0,1,25.9,14.7V6.959A2.048,2.048,0,0,1,27.949,4.91H36.5a2.048,2.048,0,0,1,2.049,2.049V8.092A2.072,2.072,0,0,1,36.5,10.168a2.047,2.047,0,0,1-1.834-1.159H30v3.64h6.5A2.048,2.048,0,0,1,38.547,14.7" transform="translate(43.939 8.33)"/>
        <path id="Trazado_468802" data-name="Trazado 468802" d="M28.564,4.5a2.049,2.049,0,0,1,0,4.1H23.279a2.049,2.049,0,1,1,0-4.1Z" transform="translate(36.017 7.634)"/>
        <path id="Trazado_468803" data-name="Trazado 468803" d="M31.143,11.06a2.063,2.063,0,0,1,0,4.126H21.759a2.063,2.063,0,0,1,0-4.126Z" transform="translate(33.438 18.763)"/>
        <path id="Trazado_468804" data-name="Trazado 468804" d="M34.21,17.63a2.049,2.049,0,1,1,0,4.1H19.649a2.049,2.049,0,1,1,0-4.1Z" transform="translate(29.858 29.909)"/>
        <path id="Trazado_468805" data-name="Trazado 468805" d="M45.135,33.16v5.231H3.69V33.16H45.135Z" transform="translate(6.26 56.256)" fill="#6da7bf"/>
        <path id="Trazado_468806" data-name="Trazado 468806" d="M45.135,1.52V6.751H3.69V1.52Z" transform="translate(6.26 2.579)" fill="#6da7bf"/>
        <rect id="Rectángulo_34529" data-name="Rectángulo 34529" width="30.066" height="6.633" transform="translate(15.64 78.684)" fill="#ebb830"/>
        <path id="Trazado_468807" data-name="Trazado 468807" d="M35.866,56.694v2.13H5.8v-2.13a15.1,15.1,0,0,1,5.1-11.3,15.685,15.685,0,0,0,5.312-11.784A15.785,15.785,0,0,0,10.9,21.8,15.04,15.04,0,0,1,5.8,10.53V9.29H35.866v1.24A15.04,15.04,0,0,1,30.77,21.8,15.729,15.729,0,0,0,30.743,45.4a15.028,15.028,0,0,1,5.123,11.3" transform="translate(9.84 15.76)" fill="#f8e794"/>
        <rect id="Rectángulo_34530" data-name="Rectángulo 34530" width="30.066" height="7.523" transform="translate(15.64 13.429)" fill="#ebb830"/>
      </g>
    </g>
  </g>
</svg>
