<svg id="Grupo_717732" data-name="Grupo 717732" xmlns="http://www.w3.org/2000/svg" xmlns:xlink="http://www.w3.org/1999/xlink" width="66.714" height="65" viewBox="0 0 66.714 65">
  <defs>
    <clipPath id="clip-path">
      <rect id="Rectángulo_34518" data-name="Rectángulo 34518" width="66.714" height="65" fill="none"/>
    </clipPath>
  </defs>
  <g id="Grupo_717731" data-name="Grupo 717731" clip-path="url(#clip-path)">
    <path id="Trazado_468743" data-name="Trazado 468743" d="M21.1,42.126V11.062L7.629,10.236s-6.5,1.892-6.605,5.9,0,16.741,0,16.741l4.438,1.405L6.422,57.5H20.764Z" transform="translate(0.604 6.315)" fill="#d4eafd"/>
    <path id="Trazado_468744" data-name="Trazado 468744" d="M27.843,43.5V10.747H43.59s4.954,3.087,4.747,6.136.31,16.856.31,16.856h-5.78l-.349,23.45H27.843Z" transform="translate(17.177 6.63)" fill="#d4eafd"/>
    <path id="Trazado_468745" data-name="Trazado 468745" d="M66.714,17.986V32.765a2.891,2.891,0,0,1-2.894,2.894H61.265V56.533h4.22a1.229,1.229,0,0,1,0,2.458H1.229a1.229,1.229,0,0,1,0-2.458H5.465V35.659H2.91A2.905,2.905,0,0,1,0,32.765V17.986A8.263,8.263,0,0,1,8.262,9.74H20.131a8.309,8.309,0,0,1,7.5,4.786,1.243,1.243,0,0,1-.6,1.633,1.233,1.233,0,0,1-1.633-.6A5.825,5.825,0,0,0,20.131,12.2H8.262a5.793,5.793,0,0,0-5.789,5.789V32.765a.435.435,0,0,0,.437.437H5.465V22.029a1.229,1.229,0,1,1,2.458,0v34.5h5.045V38.117a1.229,1.229,0,1,1,2.458,0V56.533H20.47V43.663A1.228,1.228,0,0,1,21.7,42.434a1.3,1.3,0,0,1,.7.21,1.241,1.241,0,0,1,.534,1.019V56.533H43.786V45.344a1.229,1.229,0,0,1,2.458,0V56.533h5.045V38.117a1.229,1.229,0,0,1,2.458,0V56.533h5.045v-34.5a1.237,1.237,0,0,1,2.474,0V33.2h2.555a.435.435,0,0,0,.437-.437V17.986a5.807,5.807,0,0,0-5.8-5.789H46.583a5.75,5.75,0,0,0-4.091,1.7,1.235,1.235,0,1,1-1.746-1.746A8.248,8.248,0,0,1,46.583,9.74H58.451a8.263,8.263,0,0,1,8.262,8.246" transform="translate(0 6.009)"/>
    <path id="Trazado_468746" data-name="Trazado 468746" d="M35.213,0A7.171,7.171,0,1,1,28.05,7.179,7.184,7.184,0,0,1,35.213,0m4.721,7.179a4.713,4.713,0,1,0-4.721,4.705,4.727,4.727,0,0,0,4.721-4.705" transform="translate(17.304 0)"/>
    <path id="Trazado_468747" data-name="Trazado 468747" d="M34.275,1.52A4.713,4.713,0,1,1,29.57,6.241,4.727,4.727,0,0,1,34.275,1.52" transform="translate(18.242 0.938)" fill="#f8e794"/>
    <path id="Trazado_468748" data-name="Trazado 468748" d="M41.668,26.6V33.75a1.228,1.228,0,0,1-1.229,1.229H23.477v2.2a1.238,1.238,0,0,1-.679,1.1,1.306,1.306,0,0,1-.55.129,1.19,1.19,0,0,1-.744-.259l-5.5-4.123-3.816-2.862a1.24,1.24,0,0,1-.5-.986,1.264,1.264,0,0,1,.5-.986L21.5,22.2a1.234,1.234,0,0,1,1.973.986v2.183H40.439A1.228,1.228,0,0,1,41.668,26.6M39.21,32.521V27.848H22.248A1.232,1.232,0,0,1,21.02,26.6v-.954l-6.047,4.527L21.02,34.7V33.75a1.228,1.228,0,0,1,1.229-1.229Z" transform="translate(7.212 13.545)"/>
    <path id="Trazado_468749" data-name="Trazado 468749" d="M41.182,19.5a1.2,1.2,0,0,1,.485.97,1.225,1.225,0,0,1-.485.986l-9.33,7a1.24,1.24,0,0,1-.744.243,1.365,1.365,0,0,1-.55-.129,1.22,1.22,0,0,1-.679-1.1v-2.2H12.919a1.228,1.228,0,0,1-1.229-1.229V16.917a1.228,1.228,0,0,1,1.229-1.229H29.88v-2.2a1.22,1.22,0,0,1,.679-1.1,1.244,1.244,0,0,1,1.294.113l1,.744Zm-8.845,5.514,6.047-4.544-6.047-4.527v.97a1.228,1.228,0,0,1-1.229,1.229H14.164v4.673H31.109a1.228,1.228,0,0,1,1.229,1.229Z" transform="translate(7.212 7.563)"/>
    <path id="Trazado_468750" data-name="Trazado 468750" d="M37.957,26.439v4.673H21a1.228,1.228,0,0,0-1.229,1.229v.954L13.72,28.767l6.047-4.527v.954A1.232,1.232,0,0,0,21,26.439Z" transform="translate(8.464 14.954)" fill="#b8e151"/>
    <path id="Trazado_468751" data-name="Trazado 468751" d="M37.441,19.067l-6.047,4.544v-.97a1.228,1.228,0,0,0-1.229-1.229H13.22V16.739H30.165a1.228,1.228,0,0,0,1.229-1.229v-.97Z" transform="translate(8.156 8.97)" fill="#99c23f"/>
    <path id="Trazado_468752" data-name="Trazado 468752" d="M11.519,0A7.171,7.171,0,1,1,4.34,7.179,7.184,7.184,0,0,1,11.519,0m4.705,7.179a4.705,4.705,0,1,0-4.705,4.705,4.713,4.713,0,0,0,4.705-4.705" transform="translate(2.677 0)"/>
    <path id="Trazado_468753" data-name="Trazado 468753" d="M10.575,1.52A4.713,4.713,0,1,1,5.87,6.241,4.713,4.713,0,0,1,10.575,1.52" transform="translate(3.621 0.938)" fill="#f8e794"/>
  </g>
</svg>
