<svg id="Grupo_717771" data-name="Grupo 717771" xmlns="http://www.w3.org/2000/svg" xmlns:xlink="http://www.w3.org/1999/xlink" width="64.951" height="66.001" viewBox="0 0 64.951 66.001">
  <defs>
    <clipPath id="clip-path">
      <rect id="Rect치ngulo_34548" data-name="Rect치ngulo 34548" width="64.951" height="66.001" fill="none"/>
    </clipPath>
  </defs>
  <g id="Grupo_717770" data-name="Grupo 717770" transform="translate(0 0)" clip-path="url(#clip-path)">
    <path id="Trazado_468825" data-name="Trazado 468825" d="M63.7,63.506A1.247,1.247,0,0,1,63.7,66H7.879a3.005,3.005,0,0,1-3-3V57.449H1.247A1.261,1.261,0,0,1,0,56.185a1.247,1.247,0,0,1,1.247-1.247H4.875V45.845H1.313a1.247,1.247,0,0,1,0-2.495H4.875V34.256h-3.5A1.247,1.247,0,0,1,.131,33.009a1.261,1.261,0,0,1,1.247-1.264h3.5V22.651H1.444a1.247,1.247,0,0,1,0-2.495H4.875V11.063H1.51a1.247,1.247,0,0,1,0-2.495H4.875V3a3.005,3.005,0,0,1,3-3H50.506a3.005,3.005,0,0,1,3,3,1.248,1.248,0,1,1-2.495,0,.511.511,0,0,0-.509-.509H7.879A.511.511,0,0,0,7.37,3V8.568H9.635V8.125a1.247,1.247,0,0,1,2.495,0v3.381a1.247,1.247,0,0,1-2.495,0v-.443H7.37v9.093h2.2v-.443a1.247,1.247,0,0,1,2.495,0v3.381a1.247,1.247,0,1,1-2.495,0v-.443H7.37v9.093H9.5v-.427a1.247,1.247,0,0,1,2.495,0v3.365a1.248,1.248,0,1,1-2.495,0v-.427H7.37V43.35H9.438v-.443a1.247,1.247,0,1,1,2.495,0v3.381a1.247,1.247,0,0,1-2.495,0v-.443H7.37v9.093h2v-.427a1.248,1.248,0,1,1,2.495,0v3.365a1.247,1.247,0,1,1-2.495,0v-.427h-2V63a.511.511,0,0,0,.509.509H48.208l-4.777-9.093V54.38a1.2,1.2,0,0,1-.131-.542V9.52a3.846,3.846,0,0,1,3.841-3.841H55.4A3.849,3.849,0,0,1,59.255,9.52V53.838a1.2,1.2,0,0,1-.131.542c-.016,0,0,.016-.016.033l-4.76,9.093ZM56.76,52.591V20.518H52.525V47.305a1.247,1.247,0,0,1-2.495,0V20.518H45.8V52.591Zm0-36.226H45.8v1.658H56.76Zm0-2.511V9.52A1.356,1.356,0,0,0,55.4,8.174H47.141A1.352,1.352,0,0,0,45.8,9.52v4.333Zm-2.544,44.5,1.723-3.266H46.6l1.723,3.266Zm-2.577,4.924,1.28-2.413H49.636L50.9,63.276a.409.409,0,0,0,.378.23.4.4,0,0,0,.361-.23" transform="translate(0 0)"/>
    <path id="Trazado_468826" data-name="Trazado 468826" d="M38.865,12.5V44.573H27.9V12.5h4.235V39.288a1.247,1.247,0,1,0,2.495,0V12.5Z" transform="translate(17.895 8.018)" fill="#d4eafd"/>
    <rect id="Rect치ngulo_34547" data-name="Rect치ngulo 34547" width="10.965" height="1.658" transform="translate(45.795 16.365)" fill="#6da7bf"/>
    <path id="Trazado_468827" data-name="Trazado 468827" d="M38.865,6.326v4.333H27.9V6.326A1.352,1.352,0,0,1,29.246,4.98H37.5a1.356,1.356,0,0,1,1.362,1.346" transform="translate(17.895 3.194)" fill="#d4eafd"/>
    <path id="Trazado_468828" data-name="Trazado 468828" d="M37.73,33.56l-1.723,3.266H30.113L28.39,33.56Z" transform="translate(18.21 21.526)" fill="#ceb8ef"/>
    <path id="Trazado_468829" data-name="Trazado 468829" d="M33.523,37.08l-1.28,2.413a.4.4,0,0,1-.361.23.409.409,0,0,1-.378-.23L30.24,37.08Z" transform="translate(19.396 23.783)" fill="#ceb8ef"/>
    <path id="Trazado_468830" data-name="Trazado 468830" d="M49.383,3.293V4.7H44.261A3.846,3.846,0,0,0,40.42,8.545V52.863a1.2,1.2,0,0,0,.131.542v.033l4.777,9.093H5a.511.511,0,0,1-.509-.509V56.474h2V56.9a1.247,1.247,0,1,0,2.495,0V53.536a1.248,1.248,0,1,0-2.495,0v.427h-2V44.87H6.558v.443a1.247,1.247,0,0,0,2.495,0V41.931a1.247,1.247,0,1,0-2.495,0v.443H4.49V33.281H6.624v.427a1.248,1.248,0,1,0,2.495,0V30.343a1.247,1.247,0,0,0-2.495,0v.427H4.49V21.676h2.2v.443a1.247,1.247,0,1,0,2.495,0V18.738a1.247,1.247,0,0,0-2.495,0v.443H4.49V10.088H6.755v.443a1.247,1.247,0,0,0,2.495,0V7.15a1.247,1.247,0,0,0-2.495,0v.443H4.49V2.029A.511.511,0,0,1,5,1.52H47.626a.511.511,0,0,1,.509.509,1.261,1.261,0,0,0,1.247,1.264m-13.9,15a1.247,1.247,0,0,0-1.247-1.247H18.261a1.247,1.247,0,0,0,0,2.495H34.232A1.247,1.247,0,0,0,35.48,18.3m0,6.582a1.261,1.261,0,0,0-1.247-1.264H18.261a1.261,1.261,0,0,0-1.247,1.264,1.247,1.247,0,0,0,1.247,1.247H34.232a1.247,1.247,0,0,0,1.247-1.247M33.674,11.73a1.247,1.247,0,0,0-1.247-1.247H18.261a1.247,1.247,0,1,0,0,2.495H32.427a1.247,1.247,0,0,0,1.247-1.247" transform="translate(2.88 0.975)" fill="#f8e794"/>
    <path id="Trazado_468831" data-name="Trazado 468831" d="M29.338,10.98a1.247,1.247,0,0,1,0,2.495H13.367a1.247,1.247,0,0,1,0-2.495Z" transform="translate(7.774 7.043)"/>
    <path id="Trazado_468832" data-name="Trazado 468832" d="M29.338,14.98a1.261,1.261,0,0,1,1.247,1.264,1.247,1.247,0,0,1-1.247,1.247H13.367a1.247,1.247,0,0,1-1.247-1.247,1.261,1.261,0,0,1,1.247-1.264Z" transform="translate(7.774 9.608)"/>
    <path id="Trazado_468833" data-name="Trazado 468833" d="M27.533,6.98a1.247,1.247,0,1,1,0,2.495H13.367a1.247,1.247,0,1,1,0-2.495Z" transform="translate(7.774 4.477)"/>
  </g>
</svg>
