<svg xmlns="http://www.w3.org/2000/svg" xmlns:xlink="http://www.w3.org/1999/xlink" width="64.27" height="64.27" viewBox="0 0 64.27 64.27"><defs><clipPath id="a"><rect width="64.27" height="64.27" fill="none"/></clipPath></defs><g clip-path="url(#a)"><path d="M42.765,17.61a5.173,5.173,0,1,1-5.02,6.337h-5.8a1.163,1.163,0,0,1,0-2.327h5.8a5.166,5.166,0,0,1,5.02-4.01m2.847,5.173a2.839,2.839,0,1,0-2.847,2.847,2.851,2.851,0,0,0,2.847-2.847" transform="translate(16.332 9.344)"/><path d="M39.592,19.13a2.847,2.847,0,1,1-2.832,2.847,2.851,2.851,0,0,1,2.832-2.847" transform="translate(19.505 10.15)" fill="#b8e151"/><path d="M40.178,32.851a5.173,5.173,0,0,1-3.658,8.832,5.118,5.118,0,0,1-3.658-1.515,5.175,5.175,0,0,1-.735-6.4l-4.1-4.1a1.163,1.163,0,0,1,1.653-1.638l4.1,4.1a5.177,5.177,0,0,1,6.4.719m-1.653,5.663a2.839,2.839,0,1,0-4.025,0,2.845,2.845,0,0,0,4.025,0" transform="translate(14.694 14.69)"/><path d="M40.178,6.675a5.152,5.152,0,0,1,1.515,3.658,5.148,5.148,0,0,1-5.173,5.158,5.127,5.127,0,0,1-2.74-.781l-4.1,4.1a1.145,1.145,0,0,1-.827.337,1.17,1.17,0,0,1-.827-.337,1.192,1.192,0,0,1,0-1.653l4.1-4.1a5.171,5.171,0,0,1,8.051-6.383m-.827,3.658A2.839,2.839,0,1,0,34.5,12.339a2.864,2.864,0,0,0,4.025,0,2.826,2.826,0,0,0,.827-2.005" transform="translate(14.694 2.738)"/><path d="M36.452,32.431a2.839,2.839,0,1,1-4.025,0,2.845,2.845,0,0,1,4.025,0" transform="translate(16.767 16.763)" fill="#6da7bf"/><path d="M36.452,7.507a2.864,2.864,0,0,1,0,4.025,2.864,2.864,0,0,1-4.025,0,2.846,2.846,0,0,1,4.025-4.025" transform="translate(16.767 3.544)" fill="#6da7bf"/><path d="M38.6,25.521a13.01,13.01,0,0,1-4.163,9.536,1.443,1.443,0,0,1-.153.153,13.415,13.415,0,0,1-4.255,2.571.746.746,0,0,1-.168.061,12.928,12.928,0,0,1-8.679,0,.64.64,0,0,1-.153-.061,13.086,13.086,0,0,1-4.255-2.571.725.725,0,0,1-.153-.153A13.062,13.062,0,1,1,38.6,25.521m-3.98,5.694a10.745,10.745,0,1,0-18.184,0,9.285,9.285,0,0,1,5.189-6.964,4.712,4.712,0,0,1-.857-2.709,4.76,4.76,0,1,1,9.52,0,4.712,4.712,0,0,1-.857,2.709,9.285,9.285,0,0,1,5.189,6.964M32.4,33.771V32.562a6.9,6.9,0,0,0-5.051-6.628,4.776,4.776,0,0,1-1.821.367,4.854,4.854,0,0,1-1.837-.367,6.92,6.92,0,0,0-5.051,6.628v1.209a11.117,11.117,0,0,0,1.73,1.179V31.965a1.163,1.163,0,1,1,2.327,0v3.918a10.806,10.806,0,0,0,2.832.383,10.69,10.69,0,0,0,2.816-.383V31.965a1.171,1.171,0,0,1,2.342,0V34.95A10.982,10.982,0,0,0,32.4,33.771m-5.709-10.1a2.434,2.434,0,1,0-2.327,0H24.4a2.3,2.3,0,0,0,2.265,0Z" transform="translate(6.611 6.606)"/><path d="M35.47,24.71A10.639,10.639,0,0,1,33.817,30.4a9.285,9.285,0,0,0-5.189-6.964,4.712,4.712,0,0,0,.857-2.709,4.76,4.76,0,1,0-9.52,0,4.712,4.712,0,0,0,.857,2.709A9.285,9.285,0,0,0,15.633,30.4,10.734,10.734,0,1,1,35.47,24.71" transform="translate(7.418 7.418)" fill="#d4eafd"/><path d="M30.26,27.888V29.1a10.983,10.983,0,0,1-1.714,1.179V27.291a1.171,1.171,0,0,0-2.342,0v3.918a10.69,10.69,0,0,1-2.816.383,10.806,10.806,0,0,1-2.832-.383V27.291a1.163,1.163,0,0,0-2.327,0v2.985A11.117,11.117,0,0,1,16.5,29.1V27.888a6.92,6.92,0,0,1,5.051-6.628,4.854,4.854,0,0,0,1.837.367,4.776,4.776,0,0,0,1.821-.367,6.9,6.9,0,0,1,5.051,6.628" transform="translate(8.755 11.281)" fill="#e69787"/><path d="M27.967,5.173a5.166,5.166,0,0,1-4.01,5.02v5.8a1.163,1.163,0,0,1-2.327,0v-5.8a5.164,5.164,0,1,1,6.337-5.02m-2.327,0a2.847,2.847,0,1,0-2.847,2.832A2.851,2.851,0,0,0,25.64,5.173" transform="translate(9.349 0)"/><path d="M23.957,37.734a5.173,5.173,0,1,1-2.327,0v-5.8a1.163,1.163,0,0,1,2.327,0ZM25.64,42.77a2.847,2.847,0,1,0-2.847,2.847A2.851,2.851,0,0,0,25.64,42.77" transform="translate(9.349 16.327)"/><path d="M24.277,19.234a2.454,2.454,0,0,1-1.27,2.128h-.031a2.3,2.3,0,0,1-2.265,0H20.68a2.43,2.43,0,1,1,3.6-2.128" transform="translate(10.299 8.914)" fill="#f8e794"/><path d="M21.987,1.52A2.839,2.839,0,1,1,19.14,4.367,2.851,2.851,0,0,1,21.987,1.52" transform="translate(10.156 0.807)" fill="#b8e151"/><path d="M21.987,36.75A2.847,2.847,0,1,1,19.14,39.6a2.851,2.851,0,0,1,2.847-2.847" transform="translate(10.156 19.5)" fill="#b8e151"/><path d="M18.813,17.16a1.164,1.164,0,0,1,0,1.653A1.11,1.11,0,0,1,18,19.15a1.145,1.145,0,0,1-.827-.337l-4.1-4.1a5.169,5.169,0,1,1,.918-8.036,5.089,5.089,0,0,1,1.515,3.658,5.014,5.014,0,0,1-.8,2.724ZM13.18,10.333a2.848,2.848,0,0,0-2.847-2.847,2.84,2.84,0,1,0,2.005,4.852,2.778,2.778,0,0,0,.842-2.005" transform="translate(2.738 2.738)"/><path d="M18.813,28.029a1.146,1.146,0,0,1,0,1.638l-4.1,4.1a5.173,5.173,0,1,1-1.638-1.638l4.1-4.1a1.146,1.146,0,0,1,1.638,0M12.339,38.514a2.836,2.836,0,1,0-4.01,0,2.818,2.818,0,0,0,4.01,0" transform="translate(2.738 14.69)"/><path d="M16.01,21.62a1.163,1.163,0,1,1,0,2.327h-5.8a5.173,5.173,0,1,1,0-2.327ZM8.02,22.783A2.847,2.847,0,1,0,5.173,25.63,2.851,2.851,0,0,0,8.02,22.783" transform="translate(0 9.344)"/><path d="M11.531,7.507a2.827,2.827,0,0,1,0,4.025A2.841,2.841,0,1,1,9.526,6.68a2.814,2.814,0,0,1,2.005.827" transform="translate(3.546 3.544)" fill="#6da7bf"/><path d="M11.531,32.431a2.836,2.836,0,1,1-4.01,0,2.818,2.818,0,0,1,4.01,0" transform="translate(3.546 16.763)" fill="#6da7bf"/><path d="M4.367,19.13A2.847,2.847,0,1,1,1.52,21.977,2.851,2.851,0,0,1,4.367,19.13" transform="translate(0.807 10.15)" fill="#b8e151"/></g></svg>