<svg xmlns="http://www.w3.org/2000/svg" xmlns:xlink="http://www.w3.org/1999/xlink" width="175.023" height="175.02" viewBox="0 0 175.023 175.02">
  <defs>
    <filter id="Trazado_465597" x="0" y="0" width="175.023" height="175.02" filterUnits="userSpaceOnUse">
      <feOffset dy="3" input="SourceAlpha"/>
      <feGaussianBlur stdDeviation="3" result="blur"/>
      <feFlood flood-opacity="0.161"/>
      <feComposite operator="in" in2="blur"/>
      <feComposite in="SourceGraphic"/>
    </filter>
    <clipPath id="clip-path">
      <rect id="Rectángulo_34550" data-name="Rectángulo 34550" width="61.484" height="64.647" fill="none"/>
    </clipPath>
  </defs>
  <g id="Grupo_717817" data-name="Grupo 717817" transform="translate(-888 -3233.023)">
    <g transform="matrix(1, 0, 0, 1, 888, 3233.02)" filter="url(#Trazado_465597)">
      <path id="Trazado_465597-2" data-name="Trazado 465597" d="M5272.383,6.274V150.745c0,3.466-3.97,6.275-8.869,6.275H5124.229c-4.9,0-8.869-2.809-8.869-6.275V6.274c0-.1,0-.2.01-.3.221-3.326,4.1-5.973,8.859-5.973h139.285C5268.413,0,5272.383,2.809,5272.383,6.274Z" transform="translate(-5106.36 6)" fill="#cce951" opacity="0.25"/>
    </g>
    <path id="Trazado_469007" data-name="Trazado 469007" d="M57.6,14.016A1.2,1.2,0,0,0,57.133,13a6.148,6.148,0,0,0-1.687-.75,11.963,11.963,0,0,1-1.93-.777,3.153,3.153,0,0,1-1.937-2.82A2.747,2.747,0,0,1,52.1,7,3.389,3.389,0,0,1,53.59,5.875a5.616,5.616,0,0,1,2.184-.406,5.112,5.112,0,0,1,2.172.441,3.458,3.458,0,0,1,1.48,1.246,3.261,3.261,0,0,1,.527,1.828H57.609a1.534,1.534,0,0,0-.492-1.215,2.023,2.023,0,0,0-1.383-.434A2.162,2.162,0,0,0,54.4,7.7a1.146,1.146,0,0,0-.477.957,1.1,1.1,0,0,0,.559.93,6.311,6.311,0,0,0,1.645.7,7.106,7.106,0,0,1,2.914,1.492A2.972,2.972,0,0,1,59.953,14a2.737,2.737,0,0,1-1.117,2.316,4.891,4.891,0,0,1-3.008.84,5.808,5.808,0,0,1-2.391-.48,3.783,3.783,0,0,1-1.645-1.316,3.371,3.371,0,0,1-.566-1.937h2.352q0,1.883,2.25,1.883a2.189,2.189,0,0,0,1.3-.34A1.106,1.106,0,0,0,57.6,14.016ZM66.289,17a2.507,2.507,0,0,1-.227-.758,2.732,2.732,0,0,1-2.133.914,3,3,0,0,1-2.059-.719,2.312,2.312,0,0,1-.816-1.812,2.389,2.389,0,0,1,1-2.062,4.915,4.915,0,0,1,2.879-.727h1.039v-.484a1.393,1.393,0,0,0-.3-.937,1.183,1.183,0,0,0-.949-.352,1.345,1.345,0,0,0-.895.273.929.929,0,0,0-.324.75H61.242A2.268,2.268,0,0,1,61.7,9.727a3,3,0,0,1,1.281-.98,4.669,4.669,0,0,1,1.859-.355,3.689,3.689,0,0,1,2.48.785,2.747,2.747,0,0,1,.918,2.207v3.664a4.041,4.041,0,0,0,.336,1.82V17Zm-1.867-1.57a1.945,1.945,0,0,0,.922-.223,1.462,1.462,0,0,0,.625-.6V13.156h-.844q-1.7,0-1.8,1.172l-.008.133a.9.9,0,0,0,.3.7A1.153,1.153,0,0,0,64.422,15.43ZM72.352,17H70.086V5h2.266Zm6.922-.859a2.831,2.831,0,0,1-2.312,1.016,2.67,2.67,0,0,1-2.074-.781,3.335,3.335,0,0,1-.73-2.289V8.547h2.258v5.467q0,1.322,1.2,1.322a1.63,1.63,0,0,0,1.578-.8V8.547h2.266V17H79.336Zm3.539-3.43A5.094,5.094,0,0,1,83.7,9.563a2.877,2.877,0,0,1,2.426-1.172,2.589,2.589,0,0,1,2.039.922V5H90.43V17H88.391l-.109-.9a2.657,2.657,0,0,1-2.172,1.055,2.869,2.869,0,0,1-2.395-1.176A5.258,5.258,0,0,1,82.813,12.711Zm2.258.168a3.337,3.337,0,0,0,.414,1.823,1.349,1.349,0,0,0,1.2.634,1.511,1.511,0,0,0,1.477-.884V11.111a1.489,1.489,0,0,0-1.461-.884Q85.07,10.227,85.07,12.879Z" transform="translate(905 3352.316)" fill="#12263f"/>
    <g id="Grupo_717775" data-name="Grupo 717775" transform="translate(945 3276.157)">
      <g id="Grupo_717774" data-name="Grupo 717774" transform="translate(0 0)" clip-path="url(#clip-path)">
        <path id="Trazado_468846" data-name="Trazado 468846" d="M61.484,15.847V30.165a6.512,6.512,0,0,1-1.019,3.463V57.421a7.24,7.24,0,0,1-7.226,7.226H8.246a7.23,7.23,0,0,1-7.226-7.226V33.628A6.383,6.383,0,0,1,0,30.165V15.847a4.185,4.185,0,0,1,4.183-4.183h7.886V7.226A7.23,7.23,0,0,1,19.3,0H42.189a7.24,7.24,0,0,1,7.226,7.226v4.438H57.3a4.185,4.185,0,0,1,4.183,4.183M59.205,30.165V15.847a1.907,1.907,0,0,0-1.9-1.9H49.415v3.733h.945A1.139,1.139,0,0,1,51.5,18.815,1.152,1.152,0,0,1,50.36,19.97H40.21a1.152,1.152,0,0,1-1.139-1.154,1.139,1.139,0,0,1,1.139-1.139h.9V13.943H20.375v3.733h.885A1.139,1.139,0,0,1,22.4,18.815a1.152,1.152,0,0,1-1.139,1.154H11.124a1.152,1.152,0,0,1-1.139-1.154,1.139,1.139,0,0,1,1.139-1.139h.945V13.943H4.183a1.907,1.907,0,0,0-1.9,1.9V30.165a4.129,4.129,0,0,0,.9,2.564,3.3,3.3,0,0,0,.495.525,1.6,1.6,0,0,0,.24.21,4.234,4.234,0,0,0,.465.315,2.257,2.257,0,0,0,.33.165,2.886,2.886,0,0,0,.54.21,1.752,1.752,0,0,0,.3.09,3.722,3.722,0,0,0,.915.1h15.2V31.664H20.555a1.147,1.147,0,1,1,0-2.294H40.929a1.147,1.147,0,0,1,0,2.294H39.82v2.684h15.2a3.807,3.807,0,0,0,.915-.1,2.277,2.277,0,0,0,.3-.09,3.355,3.355,0,0,0,.54-.21,3.173,3.173,0,0,0,.315-.165,3.3,3.3,0,0,0,.48-.315,3,3,0,0,0,.24-.21,3.3,3.3,0,0,0,.495-.525,4.129,4.129,0,0,0,.9-2.564M58.171,57.421V56.027h-9.85a1.139,1.139,0,1,1,0-2.279h9.85V35.8a4.193,4.193,0,0,1-.45.225c-.09.03-.165.09-.255.12a6,6,0,0,1-1,.315c-.1.015-.21.045-.3.06a7.32,7.32,0,0,1-1.139.1H39.82v.735a4.185,4.185,0,0,1-4.183,4.183h-9.79a4.185,4.185,0,0,1-4.183-4.183v-.735H6.462a7.155,7.155,0,0,1-1.139-.1c-.1-.015-.195-.045-.3-.06a6,6,0,0,1-1-.315c-.09-.03-.165-.09-.255-.12-.15-.075-.315-.135-.465-.225V53.748H42.743a1.14,1.14,0,1,1,0,2.279H3.3v1.394a4.952,4.952,0,0,0,4.948,4.947H53.238a4.949,4.949,0,0,0,4.933-4.947M47.121,17.676V7.226a4.949,4.949,0,0,0-4.933-4.948H19.3a4.952,4.952,0,0,0-4.948,4.948v10.45H18.1V9.505a3.417,3.417,0,0,1,3.418-3.418H39.97a3.417,3.417,0,0,1,3.418,3.418v8.171Zm-6.012-6.012V9.505A1.139,1.139,0,0,0,39.97,8.366H21.514a1.139,1.139,0,0,0-1.139,1.139v2.159Zm-3.568,25.7v-5.7h-13.6v5.7a1.907,1.907,0,0,0,1.9,1.9h9.79a1.907,1.907,0,0,0,1.9-1.9" transform="translate(0 0)"/>
        <path id="Trazado_468847" data-name="Trazado 468847" d="M58.446,11.2V25.522a4.129,4.129,0,0,1-.9,2.564,3.3,3.3,0,0,1-.495.525,3,3,0,0,1-.24.21,3.3,3.3,0,0,1-.48.315,3.173,3.173,0,0,1-.315.165,3.355,3.355,0,0,1-.54.21,2.277,2.277,0,0,1-.3.09,3.807,3.807,0,0,1-.915.1h-15.2V27.021H40.17a1.147,1.147,0,0,0,0-2.294H19.8a1.147,1.147,0,1,0,0,2.294h1.109V29.7H5.7a3.722,3.722,0,0,1-.915-.1,1.752,1.752,0,0,1-.3-.09,2.886,2.886,0,0,1-.54-.21,2.257,2.257,0,0,1-.33-.165,4.234,4.234,0,0,1-.465-.315,1.6,1.6,0,0,1-.24-.21,3.3,3.3,0,0,1-.495-.525,4.129,4.129,0,0,1-.9-2.564V11.2a1.907,1.907,0,0,1,1.9-1.9H11.31v3.733h-.945a1.139,1.139,0,0,0-1.139,1.139,1.152,1.152,0,0,0,1.139,1.154H20.5a1.152,1.152,0,0,0,1.139-1.154A1.139,1.139,0,0,0,20.5,13.033h-.885V9.3H40.35v3.733h-.9a1.139,1.139,0,0,0-1.139,1.139,1.152,1.152,0,0,0,1.139,1.154H49.6a1.152,1.152,0,0,0,1.139-1.154A1.139,1.139,0,0,0,49.6,13.033h-.945V9.3h7.886a1.907,1.907,0,0,1,1.9,1.9" transform="translate(0.759 4.643)" fill="#ebb830"/>
        <path id="Trazado_468848" data-name="Trazado 468848" d="M57.072,37.749v1.394a4.949,4.949,0,0,1-4.933,4.947H7.148A4.952,4.952,0,0,1,2.2,39.144V37.749H41.645A1.152,1.152,0,0,0,42.8,36.61h3.283a1.139,1.139,0,0,0,1.139,1.139Z" transform="translate(1.098 18.277)" fill="#ebb830"/>
        <path id="Trazado_468849" data-name="Trazado 468849" d="M57.072,23.88V41.826h-9.85a1.139,1.139,0,0,0-1.139,1.139H42.8a1.152,1.152,0,0,0-1.154-1.139H2.2V23.88c.15.09.315.15.465.225.09.03.165.09.255.12a6,6,0,0,0,1,.315c.1.015.195.045.3.06a7.155,7.155,0,0,0,1.139.1h15.2v.735a4.185,4.185,0,0,0,4.183,4.183h9.79a4.185,4.185,0,0,0,4.183-4.183V24.7h15.2a7.32,7.32,0,0,0,1.139-.1c.09-.015.195-.045.3-.06a6,6,0,0,0,1-.315c.09-.03.165-.09.255-.12a4.193,4.193,0,0,0,.45-.225" transform="translate(1.098 11.922)" fill="#f8e794"/>
        <path id="Trazado_468850" data-name="Trazado 468850" d="M42.343,12.045v4.873H38.61V8.746a3.417,3.417,0,0,0-3.418-3.418H16.736a3.417,3.417,0,0,0-3.418,3.418v8.171H9.57V6.468A4.952,4.952,0,0,1,14.517,1.52H37.411a4.949,4.949,0,0,1,4.933,4.948Z" transform="translate(4.778 0.759)" fill="#6da7bf"/>
        <path id="Trazado_468851" data-name="Trazado 468851" d="M29.568,24.943v1.874a1.907,1.907,0,0,1-1.9,1.9h-9.79a1.907,1.907,0,0,1-1.9-1.9v-5.7h13.6Z" transform="translate(7.973 10.544)" fill="#6da7bf"/>
      </g>
    </g>
  </g>
</svg>
