<svg id="Grupo_717775" data-name="Grupo 717775" xmlns="http://www.w3.org/2000/svg" xmlns:xlink="http://www.w3.org/1999/xlink" width="61.484" height="64.647" viewBox="0 0 61.484 64.647">
  <defs>
    <clipPath id="clip-path">
      <rect id="Rectángulo_34550" data-name="Rectángulo 34550" width="61.484" height="64.647" fill="none"/>
    </clipPath>
  </defs>
  <g id="Grupo_717774" data-name="Grupo 717774" transform="translate(0 0)" clip-path="url(#clip-path)">
    <path id="Trazado_468846" data-name="Trazado 468846" d="M61.484,15.847V30.165a6.512,6.512,0,0,1-1.019,3.463V57.421a7.24,7.24,0,0,1-7.226,7.226H8.246a7.23,7.23,0,0,1-7.226-7.226V33.628A6.383,6.383,0,0,1,0,30.165V15.847a4.185,4.185,0,0,1,4.183-4.183h7.886V7.226A7.23,7.23,0,0,1,19.3,0H42.189a7.24,7.24,0,0,1,7.226,7.226v4.438H57.3a4.185,4.185,0,0,1,4.183,4.183M59.205,30.165V15.847a1.907,1.907,0,0,0-1.9-1.9H49.415v3.733h.945A1.139,1.139,0,0,1,51.5,18.815,1.152,1.152,0,0,1,50.36,19.97H40.21a1.152,1.152,0,0,1-1.139-1.154,1.139,1.139,0,0,1,1.139-1.139h.9V13.943H20.375v3.733h.885A1.139,1.139,0,0,1,22.4,18.815a1.152,1.152,0,0,1-1.139,1.154H11.124a1.152,1.152,0,0,1-1.139-1.154,1.139,1.139,0,0,1,1.139-1.139h.945V13.943H4.183a1.907,1.907,0,0,0-1.9,1.9V30.165a4.129,4.129,0,0,0,.9,2.564,3.3,3.3,0,0,0,.495.525,1.6,1.6,0,0,0,.24.21,4.234,4.234,0,0,0,.465.315,2.257,2.257,0,0,0,.33.165,2.886,2.886,0,0,0,.54.21,1.752,1.752,0,0,0,.3.09,3.722,3.722,0,0,0,.915.1h15.2V31.664H20.555a1.147,1.147,0,1,1,0-2.294H40.929a1.147,1.147,0,0,1,0,2.294H39.82v2.684h15.2a3.807,3.807,0,0,0,.915-.1,2.277,2.277,0,0,0,.3-.09,3.355,3.355,0,0,0,.54-.21,3.173,3.173,0,0,0,.315-.165,3.3,3.3,0,0,0,.48-.315,3,3,0,0,0,.24-.21,3.3,3.3,0,0,0,.495-.525,4.129,4.129,0,0,0,.9-2.564M58.171,57.421V56.027h-9.85a1.139,1.139,0,1,1,0-2.279h9.85V35.8a4.193,4.193,0,0,1-.45.225c-.09.03-.165.09-.255.12a6,6,0,0,1-1,.315c-.1.015-.21.045-.3.06a7.32,7.32,0,0,1-1.139.1H39.82v.735a4.185,4.185,0,0,1-4.183,4.183h-9.79a4.185,4.185,0,0,1-4.183-4.183v-.735H6.462a7.155,7.155,0,0,1-1.139-.1c-.1-.015-.195-.045-.3-.06a6,6,0,0,1-1-.315c-.09-.03-.165-.09-.255-.12-.15-.075-.315-.135-.465-.225V53.748H42.743a1.14,1.14,0,1,1,0,2.279H3.3v1.394a4.952,4.952,0,0,0,4.948,4.947H53.238a4.949,4.949,0,0,0,4.933-4.947M47.121,17.676V7.226a4.949,4.949,0,0,0-4.933-4.948H19.3a4.952,4.952,0,0,0-4.948,4.948v10.45H18.1V9.505a3.417,3.417,0,0,1,3.418-3.418H39.97a3.417,3.417,0,0,1,3.418,3.418v8.171Zm-6.012-6.012V9.505A1.139,1.139,0,0,0,39.97,8.366H21.514a1.139,1.139,0,0,0-1.139,1.139v2.159Zm-3.568,25.7v-5.7h-13.6v5.7a1.907,1.907,0,0,0,1.9,1.9h9.79a1.907,1.907,0,0,0,1.9-1.9" transform="translate(0 0)"/>
    <path id="Trazado_468847" data-name="Trazado 468847" d="M58.446,11.2V25.522a4.129,4.129,0,0,1-.9,2.564,3.3,3.3,0,0,1-.495.525,3,3,0,0,1-.24.21,3.3,3.3,0,0,1-.48.315,3.173,3.173,0,0,1-.315.165,3.355,3.355,0,0,1-.54.21,2.277,2.277,0,0,1-.3.09,3.807,3.807,0,0,1-.915.1h-15.2V27.021H40.17a1.147,1.147,0,0,0,0-2.294H19.8a1.147,1.147,0,1,0,0,2.294h1.109V29.7H5.7a3.722,3.722,0,0,1-.915-.1,1.752,1.752,0,0,1-.3-.09,2.886,2.886,0,0,1-.54-.21,2.257,2.257,0,0,1-.33-.165,4.234,4.234,0,0,1-.465-.315,1.6,1.6,0,0,1-.24-.21,3.3,3.3,0,0,1-.495-.525,4.129,4.129,0,0,1-.9-2.564V11.2a1.907,1.907,0,0,1,1.9-1.9H11.31v3.733h-.945a1.139,1.139,0,0,0-1.139,1.139,1.152,1.152,0,0,0,1.139,1.154H20.5a1.152,1.152,0,0,0,1.139-1.154A1.139,1.139,0,0,0,20.5,13.033h-.885V9.3H40.35v3.733h-.9a1.139,1.139,0,0,0-1.139,1.139,1.152,1.152,0,0,0,1.139,1.154H49.6a1.152,1.152,0,0,0,1.139-1.154A1.139,1.139,0,0,0,49.6,13.033h-.945V9.3h7.886a1.907,1.907,0,0,1,1.9,1.9" transform="translate(0.759 4.643)" fill="#ebb830"/>
    <path id="Trazado_468848" data-name="Trazado 468848" d="M57.072,37.749v1.394a4.949,4.949,0,0,1-4.933,4.947H7.148A4.952,4.952,0,0,1,2.2,39.144V37.749H41.645A1.152,1.152,0,0,0,42.8,36.61h3.283a1.139,1.139,0,0,0,1.139,1.139Z" transform="translate(1.098 18.277)" fill="#ebb830"/>
    <path id="Trazado_468849" data-name="Trazado 468849" d="M57.072,23.88V41.826h-9.85a1.139,1.139,0,0,0-1.139,1.139H42.8a1.152,1.152,0,0,0-1.154-1.139H2.2V23.88c.15.09.315.15.465.225.09.03.165.09.255.12a6,6,0,0,0,1,.315c.1.015.195.045.3.06a7.155,7.155,0,0,0,1.139.1h15.2v.735a4.185,4.185,0,0,0,4.183,4.183h9.79a4.185,4.185,0,0,0,4.183-4.183V24.7h15.2a7.32,7.32,0,0,0,1.139-.1c.09-.015.195-.045.3-.06a6,6,0,0,0,1-.315c.09-.03.165-.09.255-.12a4.193,4.193,0,0,0,.45-.225" transform="translate(1.098 11.922)" fill="#f8e794"/>
    <path id="Trazado_468850" data-name="Trazado 468850" d="M42.343,12.045v4.873H38.61V8.746a3.417,3.417,0,0,0-3.418-3.418H16.736a3.417,3.417,0,0,0-3.418,3.418v8.171H9.57V6.468A4.952,4.952,0,0,1,14.517,1.52H37.411a4.949,4.949,0,0,1,4.933,4.948Z" transform="translate(4.778 0.759)" fill="#6da7bf"/>
    <path id="Trazado_468851" data-name="Trazado 468851" d="M29.568,24.943v1.874a1.907,1.907,0,0,1-1.9,1.9h-9.79a1.907,1.907,0,0,1-1.9-1.9v-5.7h13.6Z" transform="translate(7.973 10.544)" fill="#6da7bf"/>
  </g>
</svg>
