<svg xmlns="http://www.w3.org/2000/svg" xmlns:xlink="http://www.w3.org/1999/xlink" width="63.458" height="66.001" viewBox="0 0 63.458 66.001">
  <defs>
    <clipPath id="clip-path">
      <rect id="Rectángulo_34528" data-name="Rectángulo 34528" width="63.458" height="66.001" fill="none"/>
    </clipPath>
  </defs>
  <g id="Grupo_717743" data-name="Grupo 717743" clip-path="url(#clip-path)">
    <path id="Trazado_468785" data-name="Trazado 468785" d="M26.135,11.655h33.5l.692,4-3.43,1.759h-17.7l.2,41.366H22.471V17.412l-18.1-.489s-3.141-.879-2.836-2.444a4.781,4.781,0,0,1,1.089-2.347Z" transform="translate(0.804 6.201)" fill="#e69787"/>
    <path id="Trazado_468786" data-name="Trazado 468786" d="M63.458,32.569v2.068a8.664,8.664,0,1,1-17.328,0V32.569A1.164,1.164,0,0,1,47.295,31.4h1.563l2.8-8.855a3.474,3.474,0,0,1-.291-1.379V19.025H40.921V57.878H52.994a1.164,1.164,0,0,1,0,2.329H10.464a1.164,1.164,0,0,1,0-2.329H22.491V19.025h-10.4V21.17a3.474,3.474,0,0,1-.291,1.379L14.6,31.4h1.563a1.164,1.164,0,0,1,1.164,1.164v2.068A8.664,8.664,0,1,1,0,34.637V32.569A1.164,1.164,0,0,1,1.164,31.4H2.727l2.8-8.855A3.474,3.474,0,0,1,5.24,21.17V19.025H5.117a4.068,4.068,0,1,1,0-8.135H25.769a1.164,1.164,0,0,1,1.164,1.164,1.177,1.177,0,0,1-1.164,1.18H5.117a1.731,1.731,0,1,0,0,3.462H23.67a1.164,1.164,0,0,1,1.164,1.164V57.878h5.684V39.325a1.164,1.164,0,0,1,1.164-1.164h.046a1.164,1.164,0,0,1,1.164,1.164V57.878h5.684V17.861A1.164,1.164,0,0,1,39.742,16.7H58.295a1.731,1.731,0,0,0,0-3.462H37.643a1.177,1.177,0,0,1-1.164-1.18,1.164,1.164,0,0,1,1.164-1.164H58.295a4.068,4.068,0,1,1,0,8.135h-.077V21.17a3.474,3.474,0,0,1-.291,1.379l2.8,8.855h1.563a1.164,1.164,0,0,1,1.164,1.164m-2.329,2.068v-.9H48.459v.9a6.335,6.335,0,0,0,12.67,0M58.295,31.4l-2.237-7.047A3.46,3.46,0,0,1,54.8,24.6a3.542,3.542,0,0,1-1.272-.245L51.309,31.4ZM55.889,21.17V19.025H53.7V21.17a1.1,1.1,0,0,0,2.191,0M15,34.637v-.9H2.329v.9a6.335,6.335,0,0,0,12.67,0M12.165,31.4,9.928,24.357a3.46,3.46,0,0,1-1.256.245A3.542,3.542,0,0,1,7.4,24.357L5.178,31.4ZM9.759,21.17V19.025H7.568V21.17a1.1,1.1,0,0,0,2.191,0" transform="translate(0 5.794)"/>
    <path id="Trazado_468787" data-name="Trazado 468787" d="M44.3,25.8v.9a6.335,6.335,0,0,1-12.67,0v-.9Z" transform="translate(16.829 13.727)" fill="#ebb830"/>
    <path id="Trazado_468788" data-name="Trazado 468788" d="M37.241,16.2v2.145a1.1,1.1,0,0,1-2.191,0V16.2Z" transform="translate(18.649 8.619)" fill="#ebb830"/>
    <path id="Trazado_468789" data-name="Trazado 468789" d="M23.154,0A7.124,7.124,0,1,1,16.03,7.124,7.12,7.12,0,0,1,23.154,0m4.8,7.124a4.8,4.8,0,1,0-4.8,4.8,4.793,4.793,0,0,0,4.8-4.8" transform="translate(8.529 0)"/>
    <path id="Trazado_468790" data-name="Trazado 468790" d="M22.345,1.52a4.8,4.8,0,1,1-4.8,4.8,4.793,4.793,0,0,1,4.8-4.8" transform="translate(9.338 0.809)" fill="#f8e794"/>
    <path id="Trazado_468791" data-name="Trazado 468791" d="M14.19,25.8v.9a6.335,6.335,0,0,1-12.67,0v-.9Z" transform="translate(0.809 13.727)" fill="#ebb830"/>
    <path id="Trazado_468792" data-name="Trazado 468792" d="M7.131,16.2v2.145a1.1,1.1,0,0,1-2.191,0V16.2Z" transform="translate(2.628 8.619)" fill="#ebb830"/>
  </g>
</svg>
