<svg xmlns="http://www.w3.org/2000/svg" width="81" height="58.22" viewBox="0 0 81 58.22">
  <g id="Grupo_717785" data-name="Grupo 717785" transform="translate(0 -0.005)">
    <g id="Grupo_717786" data-name="Grupo 717786" transform="translate(0 0.005)">
      <path id="Trazado_468888" data-name="Trazado 468888" d="M49.044,223.177v46.966s-.633,2.162,3.8,2.268,72.536,0,72.536,0a2.442,2.442,0,0,0,1.9-2.5c-.079-2.077,0-47.363,0-47.363l-39.629,4.115Z" transform="translate(-47.462 -215.509)" fill="#d68751"/>
      <path id="Trazado_468889" data-name="Trazado 468889" d="M3.781,249.449a1.251,1.251,0,0,1-1.25-1.25V200.091H1.266A1.266,1.266,0,0,0,0,201.357V248.2a3.785,3.785,0,0,0,3.781,3.781H35.8a24.677,24.677,0,0,0-6.112-2.531Z" transform="translate(0 -193.76)" fill="#2d4356"/>
      <path id="Trazado_468890" data-name="Trazado 468890" d="M1463.079,200.091h-1.266V248.2a1.251,1.251,0,0,1-1.25,1.25h-25.907a24.687,24.687,0,0,0-6.112,2.531h32.019a3.785,3.785,0,0,0,3.781-3.781V201.357a1.266,1.266,0,0,0-1.266-1.266" transform="translate(-1383.345 -193.76)"/>
      <path id="Trazado_468891" data-name="Trazado 468891" d="M227.325.069c-15.681-.88-31.729,7.5-32.47,7.891-4.1-2.133-17.826-8.651-31.312-7.891A3.777,3.777,0,0,0,160,3.86V50.688a1.276,1.276,0,0,0,.43.956,1.3,1.3,0,0,0,1.006.3c.228-.032,23.009-2.968,33.166,5.974a1.3,1.3,0,0,0,.962.3,1.412,1.412,0,0,0,.709-.3c10.144-8.935,32.938-6.005,33.166-5.974a1.29,1.29,0,0,0,1.006-.3,1.276,1.276,0,0,0,.43-.956V3.86a3.782,3.782,0,0,0-3.55-3.791m-33.153,54.34c-6.809-4.537-16.687-5.505-23.882-5.505-3.373,0-6.164.215-7.758.367V3.86a1.25,1.25,0,0,1,1.158-1.266c13.289-.74,27.35,6.221,30.483,7.872V54.409m34.172-5.132c-5.006-.494-21.642-1.538-31.641,5.132V9.859c3.2-1.563,17.2-8,30.483-7.258a1.245,1.245,0,0,1,1.158,1.259V49.277" transform="translate(-154.938 -0.005)"/>
      <path id="Trazado_468892" data-name="Trazado 468892" d="M1351.641,81.5v45.417c-5.005-.494-21.642-1.538-31.641,5.132V87.5c3.2-1.563,17.2-8,30.483-7.258a1.245,1.245,0,0,1,1.158,1.259" transform="translate(-1278.234 -77.645)" fill="#81d9e3"/>
      <path id="Trazado_468893" data-name="Trazado 468893" d="M271.642,88.04v43.942c-6.809-4.537-16.687-5.505-23.882-5.505-3.373,0-6.164.215-7.758.367V81.434a1.25,1.25,0,0,1,1.158-1.266c13.289-.74,27.35,6.221,30.483,7.872" transform="translate(-232.407 -77.579)" fill="#81d9e3"/>
      <path id="Trazado_468894" data-name="Trazado 468894" d="M1498.352,486.378h-3.164v-3.164a3.165,3.165,0,0,0-3.164-3.164h-2.531a3.165,3.165,0,0,0-3.164,3.164v3.164h-3.164a3.165,3.165,0,0,0-3.164,3.164v2.531a3.165,3.165,0,0,0,3.164,3.164h3.164v8.227a3.165,3.165,0,0,0,3.164,3.164h2.531a3.165,3.165,0,0,0,3.164-3.164v-8.227h3.164a3.165,3.165,0,0,0,3.164-3.164v-2.531a3.165,3.165,0,0,0-3.164-3.164m.633,5.7a.635.635,0,0,1-.633.633h-5.062a.635.635,0,0,0-.633.633v10.125a.635.635,0,0,1-.633.633h-2.531a.635.635,0,0,1-.633-.633V493.339a.635.635,0,0,0-.633-.633h-5.062a.635.635,0,0,1-.633-.633v-2.531a.635.635,0,0,1,.633-.633h5.063a.635.635,0,0,0,.633-.633v-5.063a.635.635,0,0,1,.633-.633h2.531a.635.635,0,0,1,.633.633v5.063a.635.635,0,0,0,.633.633h5.063a.635.635,0,0,1,.633.633v2.531" transform="translate(-1433.172 -464.861)" fill="#2d4356"/>
      <path id="Trazado_468895" data-name="Trazado 468895" d="M1576.453,567.01v2.531a.635.635,0,0,1-.633.633h-5.062a.635.635,0,0,0-.633.633v10.125a.635.635,0,0,1-.633.633h-2.531a.635.635,0,0,1-.633-.633V570.807a.635.635,0,0,0-.633-.633h-5.062a.635.635,0,0,1-.633-.633V567.01a.635.635,0,0,1,.633-.633h5.063a.635.635,0,0,0,.633-.633v-5.062a.635.635,0,0,1,.633-.633h2.531a.635.635,0,0,1,.633.633v5.063a.635.635,0,0,0,.633.633h5.063a.635.635,0,0,1,.633.633" transform="translate(-1510.641 -542.329)" fill="#e1ebf4"/>
      <path id="Trazado_468896" data-name="Trazado 468896" d="M342.819,495.315a2.478,2.478,0,0,0-1.354.348A8.327,8.327,0,0,1,330.1,484.241a2.546,2.546,0,0,0-.392-3.075,2.594,2.594,0,0,0-3.076-.392,13.4,13.4,0,1,0,18.288,18.409,2.543,2.543,0,0,0-2.1-3.867m-9.416,7.891a10.867,10.867,0,0,1-5.486-20.25,10.858,10.858,0,0,0,14.865,14.865,10.848,10.848,0,0,1-9.378,5.385" transform="translate(-309.875 -465.236)" fill="#2d4356"/>
      <path id="Trazado_468897" data-name="Trazado 468897" d="M420.25,574.914a10.867,10.867,0,1,1-14.865-14.865,10.858,10.858,0,0,0,14.865,14.865" transform="translate(-387.344 -542.329)" fill="#e1ebf4"/>
      <path id="Trazado_468898" data-name="Trazado 468898" d="M730.3,565.3l-1.69-1.519.259-2.3a1.279,1.279,0,0,0-.582-1.209,1.267,1.267,0,0,0-1.342-.006l-1.886,1.164-1.993-.937a1.265,1.265,0,0,0-1.329.152,1.278,1.278,0,0,0-.449,1.266l.506,2.266-1.519,1.7a1.266,1.266,0,0,0,.835,2.1l2.19.2,1.095,1.993a1.279,1.279,0,0,0,1.177.658,1.256,1.256,0,0,0,1.1-.785l.873-2.114,2.164-.449a1.27,1.27,0,0,0,.589-2.183m-3.923.3a1.252,1.252,0,0,0-.911.753l-.12.285-.146-.266a1.271,1.271,0,0,0-.994-.652l-.373-.032.285-.316a1.274,1.274,0,0,0,.285-1.114l-.082-.38.285.133a1.251,1.251,0,0,0,1.2-.07l.259-.158-.044.373a1.275,1.275,0,0,0,.411,1.076l.316.285Z" transform="translate(-697.175 -542.353)" fill="#2d4356"/>
      <path id="Trazado_468899" data-name="Trazado 468899" d="M845.317,678.983l-.373.082a1.253,1.253,0,0,0-.911.753l-.12.285-.146-.266a1.271,1.271,0,0,0-.994-.652l-.373-.032.285-.316a1.275,1.275,0,0,0,.285-1.114l-.082-.38.285.133a1.25,1.25,0,0,0,1.2-.07l.259-.158-.044.373A1.275,1.275,0,0,0,845,678.7Z" transform="translate(-815.746 -655.821)" fill="#ffdb80"/>
      <path id="Trazado_468900" data-name="Trazado 468900" d="M80,1680.65v1.263a1.246,1.246,0,0,0,.047.338,1.261,1.261,0,0,0,.885.87,1.244,1.244,0,0,0,.291.041h25.933l.175.049q.8.225,1.569.49.875.3,1.706.649a24.758,24.758,0,0,0-5.984-2.454H81.246A1.253,1.253,0,0,1,80,1680.65" transform="translate(-77.468 -1627.473)" fill="#ae6e43"/>
      <path id="Trazado_468901" data-name="Trazado 468901" d="M110.625,1723.009l.11.066h.044l-.154-.066m-1.725-.66q.885.3,1.725.66l-.019-.011q-.829-.349-1.706-.649m-1.745-.54h0l.177.049-.175-.049m-26.224-.041a1.209,1.209,0,0,0,.291.041,1.232,1.232,0,0,1-.291-.041M80,1720.56v0a1.23,1.23,0,0,0,.047.335,1.247,1.247,0,0,1-.047-.338" transform="translate(-77.468 -1666.121)" fill="#494546"/>
      <path id="Trazado_468902" data-name="Trazado 468902" d="M1543.3,1680.65a1.253,1.253,0,0,1-1.246,1.247h-23.376a24.652,24.652,0,0,0-5.984,2.454q.65-.274,1.329-.517c.6-.215,1.212-.412,1.837-.591l.283-.08h25.934a1.244,1.244,0,0,0,.291-.041,1.26,1.26,0,0,0,.885-.87,1.243,1.243,0,0,0,.047-.338Z" transform="translate(-1464.829 -1627.473)" fill="#ae6e43"/>
      <path id="Trazado_468903" data-name="Trazado 468903" d="M1507.356,1684.361l-.156.067h.044l.112-.067m1.347-.527q-.679.243-1.329.517l-.018.01q.657-.279,1.347-.527m2.123-.671h0l-.283.08.286-.08m26.222-.041a1.243,1.243,0,0,1-.291.041,1.225,1.225,0,0,0,.291-.041m.932-2.471h0v1.263a1.243,1.243,0,0,1-.047.338,1.225,1.225,0,0,0,.047-.335v-1.266" transform="translate(-1459.511 -1627.473)" fill="#494546"/>
      <path id="Trazado_468904" data-name="Trazado 468904" d="M243.165,80.113c-.669,0-1.339.018-2.006.055A1.25,1.25,0,0,0,240,81.434V82.7a1.25,1.25,0,0,1,1.158-1.266q1-.056,2.006-.055c12.667,0,25.5,6.358,28.477,7.927V88.04c-2.975-1.569-15.809-7.927-28.477-7.927" transform="translate(-232.407 -77.578)" fill="#a0e3eb"/>
      <path id="Trazado_468905" data-name="Trazado 468905" d="M1348.325,80.182c-12.606,0-25.3,5.839-28.325,7.317v1.266c3.023-1.479,15.718-7.318,28.325-7.317.72,0,1.44.019,2.158.059a1.244,1.244,0,0,1,1.158,1.259V81.5a1.245,1.245,0,0,0-1.158-1.259q-1.077-.06-2.158-.059" transform="translate(-1278.234 -77.645)" fill="#a0e3eb"/>
      <path id="Trazado_468906" data-name="Trazado 468906" d="M247.759,1505.45c-3.373,0-6.164.215-7.758.367v1.266c1.595-.152,4.385-.367,7.758-.367,7.2,0,17.073.968,23.882,5.505v-1.266c-6.809-4.537-16.687-5.505-23.882-5.505" transform="translate(-232.407 -1457.817)" fill="#64b3b9"/>
      <path id="Trazado_468907" data-name="Trazado 468907" d="M1343.865,1505.487c-7.194,0-17.064.968-23.863,5.5v1.266c6.8-4.536,16.669-5.5,23.863-5.5,3.384,0,6.176.214,7.777.372v-1.266c-1.6-.158-4.393-.372-7.777-.372" transform="translate(-1278.235 -1457.853)" fill="#64b3b9"/>
      <path id="Trazado_468908" data-name="Trazado 468908" d="M1763.164,560.049h-2.531a.635.635,0,0,0-.633.633v1.266a.635.635,0,0,1,.633-.633h2.531a.635.635,0,0,1,.633.633v-1.266a.635.635,0,0,0-.633-.633" transform="translate(-1704.313 -542.329)" fill="#f0f5fa"/>
      <path id="Trazado_468909" data-name="Trazado 468909" d="M1560,820.05v1.266a.635.635,0,0,0,.633.633h5.063a.635.635,0,0,1,.633.633v-1.266a.635.635,0,0,0-.633-.633h-5.062a.635.635,0,0,1-.633-.633" transform="translate(-1510.641 -794.103)" fill="#c0c8cf"/>
      <path id="Trazado_468910" data-name="Trazado 468910" d="M1886.328,820.05a.635.635,0,0,1-.633.633h-5.062a.635.635,0,0,0-.633.633v1.266a.635.635,0,0,1,.633-.633h5.063a.635.635,0,0,0,.633-.633Z" transform="translate(-1820.516 -794.103)" fill="#c0c8cf"/>
      <path id="Trazado_468911" data-name="Trazado 468911" d="M1763.8,1180.049a.635.635,0,0,1-.633.633h-2.531a.635.635,0,0,1-.633-.633v1.266a.635.635,0,0,0,.633.633h2.531a.635.635,0,0,0,.633-.633Z" transform="translate(-1704.313 -1142.712)" fill="#c0c8cf"/>
      <path id="Trazado_468912" data-name="Trazado 468912" d="M420.25,860.736a10.93,10.93,0,0,1-1.5.728l-.011.012a10.956,10.956,0,0,0,1.511-.739M400,855.229c0,.007,0,.014,0,.021s0-.014,0-.021m0-.018h0" transform="translate(-387.344 -828.151)" fill="#667480"/>
      <path id="Trazado_468913" data-name="Trazado 468913" d="M400.02,836.649q-.018.294-.019.587h0c0,.006,0,.012,0,.018v.021a10.867,10.867,0,0,0,20.25,5.487,10.955,10.955,0,0,1-1.511.739,10.864,10.864,0,0,1-18.72-6.852" transform="translate(-387.345 -810.177)" fill="#c0c8cf"/>
    </g>
  </g>
</svg>
