<svg id="Grupo_717769" data-name="Grupo 717769" xmlns="http://www.w3.org/2000/svg" xmlns:xlink="http://www.w3.org/1999/xlink" width="72.73" height="64.647" viewBox="0 0 72.73 64.647">
  <defs>
    <clipPath id="clip-path">
      <rect id="Rectángulo_34546" data-name="Rectángulo 34546" width="72.73" height="64.647" fill="none"/>
    </clipPath>
  </defs>
  <g id="Grupo_717768" data-name="Grupo 717768" transform="translate(0 0)" clip-path="url(#clip-path)">
    <path id="Trazado_468812" data-name="Trazado 468812" d="M70.957,42.284H.765s-.6-7.1,7.231-8.113,55.728,0,55.728,0,8.149,1.577,7.233,8.113" transform="translate(0.5 22.363)" fill="#d4eafd"/>
    <rect id="Rectángulo_34544" data-name="Rectángulo 34544" width="64.863" height="38.439" transform="translate(3.873 1.224)" fill="#8f80a4"/>
    <rect id="Rectángulo_34545" data-name="Rectángulo 34545" width="54.671" height="28.819" transform="translate(8.969 6.034)" fill="#ceb8ef"/>
    <path id="Trazado_468813" data-name="Trazado 468813" d="M72.73,51.771a1.272,1.272,0,0,1-2.545,0A5.947,5.947,0,0,0,64.8,45.85l-.05.05c-.183.183-.416.349-.615.532a4.626,4.626,0,0,1-.449.349,4.042,4.042,0,0,1-.582.333,5.577,5.577,0,0,1-.615.333c-.166.067-.349.1-.532.166a6.919,6.919,0,0,1-2.2.383,7.021,7.021,0,0,1-2.212-.383c-.166-.067-.349-.1-.516-.166a5.578,5.578,0,0,1-.615-.333,6.607,6.607,0,0,1-.582-.333c-.15-.1-.283-.233-.432-.349-.216-.183-.432-.349-.632-.532l-.05-.05a5.947,5.947,0,0,0-5.389,5.921,1.264,1.264,0,0,1-2.528,0A5.961,5.961,0,0,0,41.4,45.85l-.05.05a4.864,4.864,0,0,1-.632.532c-.15.116-.266.249-.416.349-.2.133-.416.233-.615.349-.2.1-.383.233-.6.316-.166.067-.366.116-.532.166a6.443,6.443,0,0,1-4.374,0c-.183-.05-.366-.1-.549-.166-.2-.083-.4-.216-.6-.316-.2-.116-.416-.216-.6-.349-.15-.1-.283-.233-.432-.349a6.3,6.3,0,0,1-.632-.532l-.05-.05a5.96,5.96,0,0,0-5.389,5.921,1.264,1.264,0,0,1-2.528,0,5.96,5.96,0,0,0-5.389-5.921c-.017.017-.05.033-.05.05-.2.2-.416.349-.632.532-.15.116-.283.249-.432.349a5.382,5.382,0,0,1-.6.333,4.395,4.395,0,0,1-.615.333c-.166.067-.349.1-.516.166A7.1,7.1,0,0,1,12.956,48a6.765,6.765,0,0,1-2.229-.4,4.086,4.086,0,0,1-.482-.15,4.395,4.395,0,0,1-.615-.333c-.2-.116-.416-.2-.6-.333-.15-.1-.283-.233-.432-.349-.216-.183-.432-.349-.632-.532l-.05-.05a5.96,5.96,0,0,0-5.389,5.921,1.264,1.264,0,0,1-2.528,0,8.484,8.484,0,0,1,6.47-8.216,6.8,6.8,0,0,1-.5-2.545,6.977,6.977,0,0,1,5.838-6.885,8.468,8.468,0,0,1,6.353-7.068,6.8,6.8,0,0,1-.5-2.545,7,7,0,0,1,14,0,7.146,7.146,0,0,1-.5,2.545,8.439,8.439,0,0,1,5.189,3.825,8.519,8.519,0,0,1,5.206-3.825,6.8,6.8,0,0,1-.5-2.545,6.994,6.994,0,1,1,13.987,0,6.8,6.8,0,0,1-.5,2.545A8.424,8.424,0,0,1,60.9,34.125a6.992,6.992,0,0,1,5.854,6.885,6.8,6.8,0,0,1-.5,2.545,8.5,8.5,0,0,1,6.47,8.216M63.117,43.9a4.381,4.381,0,0,0,1.114-2.894,4.466,4.466,0,1,0-8.931,0A4.367,4.367,0,0,0,56.4,43.9a3.7,3.7,0,0,0,.432.449,3.2,3.2,0,0,0,.283.216,2.542,2.542,0,0,0,.5.316,2.9,2.9,0,0,0,.3.183,4.214,4.214,0,0,0,.6.2l.3.1a4.473,4.473,0,0,0,.948.1,4.36,4.36,0,0,0,.948-.1l.3-.1a4.214,4.214,0,0,0,.6-.2c.1-.05.2-.116.316-.183a4.141,4.141,0,0,0,.5-.316,3.035,3.035,0,0,0,.266-.216,3.7,3.7,0,0,0,.432-.449m-4.723-9.763a5.973,5.973,0,0,0-5.289-4.79l-.05.05c-.2.2-.432.366-.649.549-.133.1-.266.233-.416.333-.2.133-.4.233-.615.349-.2.1-.383.233-.582.316a3.45,3.45,0,0,1-.549.166,6.443,6.443,0,0,1-4.374,0,2.83,2.83,0,0,1-.532-.166c-.216-.083-.4-.216-.6-.316-.2-.116-.416-.216-.615-.349-.15-.1-.266-.233-.416-.349a4.864,4.864,0,0,1-.632-.532c-.017-.017-.05-.033-.05-.05a5.973,5.973,0,0,0-5.289,4.79,7.028,7.028,0,0,1,5.621,6.869,6.8,6.8,0,0,1-.5,2.545,8.557,8.557,0,0,1,5.206,3.809,8.477,8.477,0,0,1,5.189-3.809,7.146,7.146,0,0,1-.5-2.545,7.026,7.026,0,0,1,5.638-6.869m-6.969-6.736a4.367,4.367,0,0,0,1.1-2.894,4.466,4.466,0,1,0-7.833,2.894,5.716,5.716,0,0,0,.449.449,3.037,3.037,0,0,0,.266.216,2.763,2.763,0,0,0,.5.316,1.959,1.959,0,0,0,.316.183,3.613,3.613,0,0,0,.6.2c.1.033.183.067.283.1a4.632,4.632,0,0,0,1.913,0c.1-.033.2-.067.283-.1a3.162,3.162,0,0,0,.6-.2,12.017,12.017,0,0,0,.815-.5,1.679,1.679,0,0,0,.266-.216,2.867,2.867,0,0,0,.449-.449M39.733,43.9A4.457,4.457,0,1,0,31.9,41.01,4.4,4.4,0,0,0,33,43.9a2.867,2.867,0,0,0,.449.449,1.679,1.679,0,0,0,.266.216,2.542,2.542,0,0,0,.5.316,1.96,1.96,0,0,0,.316.183,3.432,3.432,0,0,0,.582.2l.3.1a4.632,4.632,0,0,0,1.913,0c.1-.033.183-.067.283-.1a3.614,3.614,0,0,0,.6-.2,1.96,1.96,0,0,0,.316-.183,4.141,4.141,0,0,0,.5-.316,3.036,3.036,0,0,0,.266-.216,5.717,5.717,0,0,0,.449-.449m-4.74-9.763a5.973,5.973,0,0,0-5.289-4.79l-.05.05a6.3,6.3,0,0,1-.632.532c-.15.116-.283.249-.432.349a6.607,6.607,0,0,1-.582.333,5.578,5.578,0,0,1-.615.333c-.166.067-.333.1-.482.15a6.786,6.786,0,0,1-2.245.4,6.919,6.919,0,0,1-2.2-.383,4.978,4.978,0,0,1-.532-.166,4.216,4.216,0,0,1-.6-.333,4.216,4.216,0,0,1-.6-.333,4.408,4.408,0,0,1-.432-.349,4.864,4.864,0,0,1-.632-.532l-.05-.05a5.973,5.973,0,0,0-5.289,4.79,7.011,7.011,0,0,1,5.621,6.869,6.8,6.8,0,0,1-.5,2.545,8.511,8.511,0,0,1,5.206,3.809,8.465,8.465,0,0,1,5.206-3.809,6.8,6.8,0,0,1-.5-2.545,7.011,7.011,0,0,1,5.621-6.869m-6.969-6.736a4.367,4.367,0,0,0,1.1-2.894,4.466,4.466,0,1,0-8.931,0,4.381,4.381,0,0,0,1.114,2.894,3.7,3.7,0,0,0,.432.449,3.037,3.037,0,0,0,.266.216,2.763,2.763,0,0,0,.5.316c.116.067.216.133.316.183a4.213,4.213,0,0,0,.6.2c.1.033.183.067.3.1a4.36,4.36,0,0,0,.948.1,4.473,4.473,0,0,0,.948-.1l.3-.1a4.213,4.213,0,0,0,.6-.2,2.893,2.893,0,0,0,.3-.183,1.951,1.951,0,0,0,.5-.316,3.2,3.2,0,0,0,.283-.216,3.7,3.7,0,0,0,.432-.449M16.332,43.9A4.457,4.457,0,1,0,8.5,41.01,4.367,4.367,0,0,0,9.6,43.9a2.867,2.867,0,0,0,.449.449,1.679,1.679,0,0,0,.266.216,3.15,3.15,0,0,0,.5.316,1.96,1.96,0,0,0,.316.183,3.162,3.162,0,0,0,.6.2c.1.033.183.067.283.1a4.632,4.632,0,0,0,1.913,0c.1-.033.183-.067.283-.1a3.162,3.162,0,0,0,.6-.2,1.96,1.96,0,0,0,.316-.183,4.142,4.142,0,0,0,.5-.316,1.679,1.679,0,0,0,.266-.216,3.817,3.817,0,0,0,.449-.449" transform="translate(0 11.612)"/>
    <path id="Trazado_468814" data-name="Trazado 468814" d="M69.177,1.264v38.4a1.267,1.267,0,0,1-1.264,1.281H61.627a1.25,1.25,0,0,1-1.048-.565,1.3,1.3,0,0,1-.216-.715A1.263,1.263,0,0,1,61.627,38.4h5.023V2.528H4.048V38.4H9.071a1.272,1.272,0,0,1,0,2.545H2.784A1.267,1.267,0,0,1,1.52,39.666V1.264A1.263,1.263,0,0,1,2.784,0H67.913a1.263,1.263,0,0,1,1.264,1.264" transform="translate(1.008 0)"/>
    <path id="Trazado_468815" data-name="Trazado 468815" d="M62.122,4.374V31.517A1.281,1.281,0,0,1,60.841,32.8a1.267,1.267,0,0,1-1.264-1.281V5.638H7.088V31.517a1.264,1.264,0,1,1-2.528,0V4.374A1.263,1.263,0,0,1,5.824,3.11H60.841a1.278,1.278,0,0,1,1.281,1.264" transform="translate(3.024 2.062)"/>
    <path id="Trazado_468816" data-name="Trazado 468816" d="M42.181,33.424a4.381,4.381,0,0,1-1.114,2.894,3.7,3.7,0,0,1-.432.449,3.034,3.034,0,0,1-.266.216,4.141,4.141,0,0,1-.5.316c-.116.067-.216.133-.316.183a4.215,4.215,0,0,1-.6.2l-.3.1a4.36,4.36,0,0,1-.948.1,4.473,4.473,0,0,1-.948-.1l-.3-.1a4.215,4.215,0,0,1-.6-.2,2.9,2.9,0,0,1-.3-.183,2.542,2.542,0,0,1-.5-.316,3.2,3.2,0,0,1-.283-.216,3.7,3.7,0,0,1-.432-.449,4.367,4.367,0,0,1-1.1-2.894,4.466,4.466,0,1,1,8.931,0" transform="translate(22.05 19.198)" fill="#ebb830"/>
    <path id="Trazado_468817" data-name="Trazado 468817" d="M38.058,24.63a5.973,5.973,0,0,1,5.289,4.79,7.026,7.026,0,0,0-5.638,6.869,7.146,7.146,0,0,0,.5,2.545,8.477,8.477,0,0,0-5.189,3.809,8.557,8.557,0,0,0-5.206-3.809,6.8,6.8,0,0,0,.5-2.545A7.028,7.028,0,0,0,22.69,29.42a5.973,5.973,0,0,1,5.289-4.79c0,.017.033.033.05.05a4.864,4.864,0,0,0,.632.532c.15.116.266.249.416.349.2.133.416.233.615.349.2.1.383.233.6.316a2.83,2.83,0,0,0,.532.166,6.443,6.443,0,0,0,4.374,0,3.45,3.45,0,0,0,.549-.166c.2-.083.383-.216.582-.316.216-.116.416-.216.615-.349.15-.1.283-.233.416-.333.216-.183.449-.349.649-.549l.05-.05" transform="translate(15.047 16.334)" fill="#6da7bf"/>
    <path id="Trazado_468818" data-name="Trazado 468818" d="M35.141,23.5a4.367,4.367,0,0,1-1.1,2.894,2.867,2.867,0,0,1-.449.449,1.679,1.679,0,0,1-.266.216,1.951,1.951,0,0,1-.5.316,1.96,1.96,0,0,1-.316.183,3.162,3.162,0,0,1-.6.2c-.083.033-.183.067-.283.1a4.632,4.632,0,0,1-1.913,0c-.1-.033-.183-.067-.283-.1a3.613,3.613,0,0,1-.6-.2,1.959,1.959,0,0,1-.316-.183,2.763,2.763,0,0,1-.5-.316,3.037,3.037,0,0,1-.266-.216,5.716,5.716,0,0,1-.449-.449A4.457,4.457,0,1,1,35.141,23.5" transform="translate(17.381 12.62)" fill="#f8e794"/>
    <path id="Trazado_468819" data-name="Trazado 468819" d="M30.364,14.153a1.278,1.278,0,0,1,.632,1.1,1.3,1.3,0,0,1-.632,1.1l-10.528,6.1a1.284,1.284,0,0,1-1.264,0,1.263,1.263,0,0,1-.632-1.1V9.131a1.218,1.218,0,0,1,.632-1.081,1.231,1.231,0,0,1,1.264,0Zm-9.9,5.006L27.2,15.251l-6.736-3.908Z" transform="translate(11.897 5.222)"/>
    <path id="Trazado_468820" data-name="Trazado 468820" d="M28.111,33.424a4.453,4.453,0,0,1-1.1,2.894,5.717,5.717,0,0,1-.449.449,3.035,3.035,0,0,1-.266.216,4.141,4.141,0,0,1-.5.316,1.961,1.961,0,0,1-.316.183,3.614,3.614,0,0,1-.6.2c-.1.033-.183.067-.283.1a4.632,4.632,0,0,1-1.913,0l-.3-.1a3.433,3.433,0,0,1-.582-.2,1.961,1.961,0,0,1-.316-.183,2.542,2.542,0,0,1-.5-.316,1.679,1.679,0,0,1-.266-.216,2.867,2.867,0,0,1-.449-.449,4.4,4.4,0,0,1-1.1-2.894,4.466,4.466,0,1,1,8.931,0" transform="translate(12.719 19.198)" fill="#ebb830"/>
    <path id="Trazado_468821" data-name="Trazado 468821" d="M26.2,13.868,19.46,17.777V9.96Z" transform="translate(12.905 6.605)" fill="#e69787"/>
    <path id="Trazado_468822" data-name="Trazado 468822" d="M23.988,24.63a5.973,5.973,0,0,1,5.289,4.79,7.011,7.011,0,0,0-5.621,6.869,6.8,6.8,0,0,0,.5,2.545,8.465,8.465,0,0,0-5.206,3.809,8.511,8.511,0,0,0-5.206-3.809,6.8,6.8,0,0,0,.5-2.545A7.011,7.011,0,0,0,8.62,29.42a5.973,5.973,0,0,1,5.289-4.79l.05.05a4.864,4.864,0,0,0,.632.532,4.408,4.408,0,0,0,.432.349,4.216,4.216,0,0,0,.6.333,4.216,4.216,0,0,0,.6.333,4.978,4.978,0,0,0,.532.166,6.919,6.919,0,0,0,2.2.383,6.786,6.786,0,0,0,2.245-.4c.15-.05.316-.083.482-.15a5.578,5.578,0,0,0,.615-.333,6.607,6.607,0,0,0,.582-.333c.15-.1.283-.233.432-.349a6.3,6.3,0,0,0,.632-.532l.05-.05" transform="translate(5.716 16.334)" fill="#6da7bf"/>
    <path id="Trazado_468823" data-name="Trazado 468823" d="M21.071,23.5a4.367,4.367,0,0,1-1.1,2.894,3.7,3.7,0,0,1-.432.449,3.2,3.2,0,0,1-.283.216,1.951,1.951,0,0,1-.5.316,2.893,2.893,0,0,1-.3.183,4.213,4.213,0,0,1-.6.2l-.3.1a4.473,4.473,0,0,1-.948.1,4.36,4.36,0,0,1-.948-.1c-.116-.033-.2-.067-.3-.1a4.213,4.213,0,0,1-.6-.2c-.1-.05-.2-.116-.316-.183a2.763,2.763,0,0,1-.5-.316,3.037,3.037,0,0,1-.266-.216,3.7,3.7,0,0,1-.432-.449A4.381,4.381,0,0,1,12.14,23.5a4.466,4.466,0,1,1,8.931,0" transform="translate(8.051 12.62)" fill="#f8e794"/>
    <path id="Trazado_468824" data-name="Trazado 468824" d="M14.041,33.424a4.453,4.453,0,0,1-1.1,2.894,3.817,3.817,0,0,1-.449.449,1.679,1.679,0,0,1-.266.216,4.142,4.142,0,0,1-.5.316,1.961,1.961,0,0,1-.316.183,3.163,3.163,0,0,1-.6.2c-.1.033-.183.067-.283.1a4.632,4.632,0,0,1-1.913,0c-.1-.033-.183-.067-.283-.1a3.163,3.163,0,0,1-.6-.2,1.961,1.961,0,0,1-.316-.183,3.15,3.15,0,0,1-.5-.316,1.679,1.679,0,0,1-.266-.216,2.867,2.867,0,0,1-.449-.449,4.367,4.367,0,0,1-1.1-2.894,4.466,4.466,0,1,1,8.931,0" transform="translate(3.389 19.198)" fill="#ebb830"/>
  </g>
</svg>
