<svg xmlns="http://www.w3.org/2000/svg" xmlns:xlink="http://www.w3.org/1999/xlink" width="175.023" height="175.02" viewBox="0 0 175.023 175.02">
  <defs>
    <filter id="Trazado_465600" x="0" y="0" width="175.023" height="175.02" filterUnits="userSpaceOnUse">
      <feOffset dy="3" input="SourceAlpha"/>
      <feGaussianBlur stdDeviation="3" result="blur"/>
      <feFlood flood-opacity="0.161"/>
      <feComposite operator="in" in2="blur"/>
      <feComposite in="SourceGraphic"/>
    </filter>
    <clipPath id="clip-path">
      <rect id="Rectángulo_34528" data-name="Rectángulo 34528" width="63.458" height="66.001" fill="none"/>
    </clipPath>
  </defs>
  <g id="Grupo_717818" data-name="Grupo 717818" transform="translate(-1073 -3233)">
    <g transform="matrix(1, 0, 0, 1, 1073, 3233)" filter="url(#Trazado_465600)">
      <path id="Trazado_465600-2" data-name="Trazado 465600" d="M6551.223,6.274V150.745c0,3.466-3.971,6.275-8.87,6.275H6403.068c-4.9,0-8.869-2.809-8.869-6.275V6.274c0-.1,0-.2.01-.3.221-3.326,4.1-5.973,8.857-5.973h139.284c4.9,0,8.87,2.809,8.87,6.274Z" transform="translate(-6385.2 6)" fill="#cce951" opacity="0.25"/>
    </g>
    <path id="Trazado_469008" data-name="Trazado 469008" d="M48.415,5.625h2.344V13.5a3.766,3.766,0,0,1-.48,1.918A3.261,3.261,0,0,1,48.923,16.7a4.234,4.234,0,0,1-1.977.453,4.025,4.025,0,0,1-2.812-.918,3.335,3.335,0,0,1-1.008-2.6h2.359a1.829,1.829,0,0,0,.352,1.234,1.407,1.407,0,0,0,1.109.4,1.343,1.343,0,0,0,1.07-.461,1.948,1.948,0,0,0,.4-1.312Zm9.266,10.516a2.831,2.831,0,0,1-2.312,1.016,2.67,2.67,0,0,1-2.074-.781,3.335,3.335,0,0,1-.73-2.289V8.547h2.258v5.467q0,1.322,1.2,1.322a1.63,1.63,0,0,0,1.578-.8V8.547h2.266V17H57.744Zm3.539-3.43a5.094,5.094,0,0,1,.887-3.148,2.877,2.877,0,0,1,2.426-1.172,2.589,2.589,0,0,1,2.039.922V5h2.266V17H66.8l-.109-.9a2.657,2.657,0,0,1-2.172,1.055,2.869,2.869,0,0,1-2.395-1.176A5.258,5.258,0,0,1,61.22,12.711Zm2.258.168a3.337,3.337,0,0,0,.414,1.823,1.349,1.349,0,0,0,1.2.634,1.511,1.511,0,0,0,1.477-.884V11.111a1.489,1.489,0,0,0-1.461-.884Q63.478,10.227,63.478,12.879ZM72.97,17H70.7V8.547H72.97Zm-2.4-10.641a1.112,1.112,0,0,1,.34-.836,1.465,1.465,0,0,1,1.848,0,1.105,1.105,0,0,1,.344.836,1.108,1.108,0,0,1-.348.844,1.448,1.448,0,0,1-1.836,0A1.108,1.108,0,0,1,70.572,6.359Zm7.773,8.977a1.481,1.481,0,0,0,1.016-.344,1.2,1.2,0,0,0,.406-.914h2.117a2.9,2.9,0,0,1-.469,1.574,3.093,3.093,0,0,1-1.262,1.109,3.949,3.949,0,0,1-1.77.395A3.67,3.67,0,0,1,75.525,16a4.56,4.56,0,0,1-1.047-3.184v-.148a4.508,4.508,0,0,1,1.039-3.117,3.627,3.627,0,0,1,2.852-1.164,3.555,3.555,0,0,1,2.543.9,3.2,3.2,0,0,1,.973,2.4H79.767a1.551,1.551,0,0,0-.406-1.072,1.51,1.51,0,0,0-2.223.163,3.333,3.333,0,0,0-.4,1.866v.235a3.375,3.375,0,0,0,.4,1.878A1.377,1.377,0,0,0,78.345,15.336ZM85.556,17H83.29V8.547h2.266Zm-2.4-10.641a1.112,1.112,0,0,1,.34-.836,1.465,1.465,0,0,1,1.848,0,1.105,1.105,0,0,1,.344.836,1.108,1.108,0,0,1-.348.844,1.448,1.448,0,0,1-1.836,0A1.108,1.108,0,0,1,83.158,6.359ZM92.314,17a2.507,2.507,0,0,1-.227-.758,2.732,2.732,0,0,1-2.133.914,3,3,0,0,1-2.059-.719,2.312,2.312,0,0,1-.816-1.812,2.389,2.389,0,0,1,1-2.062,4.915,4.915,0,0,1,2.879-.727h1.039v-.484a1.393,1.393,0,0,0-.3-.937,1.183,1.183,0,0,0-.949-.352,1.345,1.345,0,0,0-.895.273.929.929,0,0,0-.324.75H87.267a2.268,2.268,0,0,1,.453-1.359A3,3,0,0,1,89,8.746a4.669,4.669,0,0,1,1.859-.355,3.689,3.689,0,0,1,2.48.785,2.747,2.747,0,0,1,.918,2.207v3.664a4.041,4.041,0,0,0,.336,1.82V17Zm-1.867-1.57a1.945,1.945,0,0,0,.922-.223,1.462,1.462,0,0,0,.625-.6V13.156H91.15q-1.7,0-1.8,1.172l-.008.133a.9.9,0,0,0,.3.7A1.153,1.153,0,0,0,90.447,15.43ZM98.376,17H96.111V5h2.266Z" transform="translate(1090 3351.365)" fill="#12263f"/>
    <g id="Grupo_717744" data-name="Grupo 717744" transform="translate(1129 3274.804)">
      <g id="Grupo_717743" data-name="Grupo 717743" clip-path="url(#clip-path)">
        <path id="Trazado_468785" data-name="Trazado 468785" d="M26.135,11.655h33.5l.692,4-3.43,1.759h-17.7l.2,41.366H22.471V17.412l-18.1-.489s-3.141-.879-2.836-2.444a4.781,4.781,0,0,1,1.089-2.347Z" transform="translate(0.804 6.201)" fill="#e69787"/>
        <path id="Trazado_468786" data-name="Trazado 468786" d="M63.458,32.569v2.068a8.664,8.664,0,1,1-17.328,0V32.569A1.164,1.164,0,0,1,47.295,31.4h1.563l2.8-8.855a3.474,3.474,0,0,1-.291-1.379V19.025H40.921V57.878H52.994a1.164,1.164,0,0,1,0,2.329H10.464a1.164,1.164,0,0,1,0-2.329H22.491V19.025h-10.4V21.17a3.474,3.474,0,0,1-.291,1.379L14.6,31.4h1.563a1.164,1.164,0,0,1,1.164,1.164v2.068A8.664,8.664,0,1,1,0,34.637V32.569A1.164,1.164,0,0,1,1.164,31.4H2.727l2.8-8.855A3.474,3.474,0,0,1,5.24,21.17V19.025H5.117a4.068,4.068,0,1,1,0-8.135H25.769a1.164,1.164,0,0,1,1.164,1.164,1.177,1.177,0,0,1-1.164,1.18H5.117a1.731,1.731,0,1,0,0,3.462H23.67a1.164,1.164,0,0,1,1.164,1.164V57.878h5.684V39.325a1.164,1.164,0,0,1,1.164-1.164h.046a1.164,1.164,0,0,1,1.164,1.164V57.878h5.684V17.861A1.164,1.164,0,0,1,39.742,16.7H58.295a1.731,1.731,0,0,0,0-3.462H37.643a1.177,1.177,0,0,1-1.164-1.18,1.164,1.164,0,0,1,1.164-1.164H58.295a4.068,4.068,0,1,1,0,8.135h-.077V21.17a3.474,3.474,0,0,1-.291,1.379l2.8,8.855h1.563a1.164,1.164,0,0,1,1.164,1.164m-2.329,2.068v-.9H48.459v.9a6.335,6.335,0,0,0,12.67,0M58.295,31.4l-2.237-7.047A3.46,3.46,0,0,1,54.8,24.6a3.542,3.542,0,0,1-1.272-.245L51.309,31.4ZM55.889,21.17V19.025H53.7V21.17a1.1,1.1,0,0,0,2.191,0M15,34.637v-.9H2.329v.9a6.335,6.335,0,0,0,12.67,0M12.165,31.4,9.928,24.357a3.46,3.46,0,0,1-1.256.245A3.542,3.542,0,0,1,7.4,24.357L5.178,31.4ZM9.759,21.17V19.025H7.568V21.17a1.1,1.1,0,0,0,2.191,0" transform="translate(0 5.794)"/>
        <path id="Trazado_468787" data-name="Trazado 468787" d="M44.3,25.8v.9a6.335,6.335,0,0,1-12.67,0v-.9Z" transform="translate(16.829 13.727)" fill="#ebb830"/>
        <path id="Trazado_468788" data-name="Trazado 468788" d="M37.241,16.2v2.145a1.1,1.1,0,0,1-2.191,0V16.2Z" transform="translate(18.649 8.619)" fill="#ebb830"/>
        <path id="Trazado_468789" data-name="Trazado 468789" d="M23.154,0A7.124,7.124,0,1,1,16.03,7.124,7.12,7.12,0,0,1,23.154,0m4.8,7.124a4.8,4.8,0,1,0-4.8,4.8,4.793,4.793,0,0,0,4.8-4.8" transform="translate(8.529 0)"/>
        <path id="Trazado_468790" data-name="Trazado 468790" d="M22.345,1.52a4.8,4.8,0,1,1-4.8,4.8,4.793,4.793,0,0,1,4.8-4.8" transform="translate(9.338 0.809)" fill="#f8e794"/>
        <path id="Trazado_468791" data-name="Trazado 468791" d="M14.19,25.8v.9a6.335,6.335,0,0,1-12.67,0v-.9Z" transform="translate(0.809 13.727)" fill="#ebb830"/>
        <path id="Trazado_468792" data-name="Trazado 468792" d="M7.131,16.2v2.145a1.1,1.1,0,0,1-2.191,0V16.2Z" transform="translate(2.628 8.619)" fill="#ebb830"/>
      </g>
    </g>
  </g>
</svg>
