<svg xmlns="http://www.w3.org/2000/svg" xmlns:xlink="http://www.w3.org/1999/xlink" width="190.5" height="170.463" viewBox="0 0 190.5 170.463">
  <defs>
    <clipPath id="clip-path">
      <rect id="Rectángulo_34101" data-name="Rectángulo 34101" width="48.88" height="49.11" fill="none"/>
    </clipPath>
  </defs>
  <g id="Grupo_717814" data-name="Grupo 717814" transform="translate(-495.25 -2605.858)">
    <g id="Grupo_80994" data-name="Grupo 80994">
      <path id="Trazado_115752" data-name="Trazado 115752" d="M1525.017,560.227h-.563a1.351,1.351,0,1,1,0-2.7h.563a1.351,1.351,0,0,1,0,2.7" transform="translate(-941.522 2216.095)" fill="#cce951"/>
      <g id="Grupo_80984" data-name="Grupo 80984" transform="translate(495.25 2605.858)">
        <path id="Trazado_115746" data-name="Trazado 115746" d="M1254.165,82.119h-2.252V37.959a27.255,27.255,0,0,1,27.224-27.224h57.833v2.252h-57.833a25.066,25.066,0,0,0-19.034,8.824,24.685,24.685,0,0,0-5.938,16.148Z" transform="translate(-1250.499 -10.735)" fill="#cce951"/>
        <path id="Trazado_115747" data-name="Trazado 115747" d="M1252.38,237.412a2.54,2.54,0,1,1-2.54-2.54,2.54,2.54,0,0,1,2.54,2.54" transform="translate(-1247.3 -166.155)" fill="#cce951"/>
        <rect id="Rectángulo_34007" data-name="Rectángulo 34007" width="2.252" height="44.16" transform="translate(1.414 98.73)" fill="#cce951"/>
        <path id="Trazado_115748" data-name="Trazado 115748" d="M1252.38,327.438a2.54,2.54,0,1,0-2.54,2.54,2.54,2.54,0,0,0,2.54-2.54" transform="translate(-1247.3 -228.581)" fill="#cce951"/>
        <path id="Trazado_115750" data-name="Trazado 115750" d="M1330.587,527h-1.123a1.351,1.351,0,0,1,0-2.7h1.123a1.351,1.351,0,1,1,0,2.7m-12.353,0h-1.123a1.351,1.351,0,0,1,0-2.7h1.123a1.351,1.351,0,0,1,0,2.7m-12.353,0h-1.123a1.351,1.351,0,1,1,0-2.7h1.123a1.351,1.351,0,0,1,0,2.7m-12.354,0H1292.4a1.351,1.351,0,0,1,0-2.7h1.123a1.351,1.351,0,1,1,0,2.7m-12.342-.214a1.4,1.4,0,0,1-.174-.011c-.387-.05-.78-.109-1.167-.176a1.351,1.351,0,0,1,.459-2.663c.35.06.7.114,1.053.159a1.351,1.351,0,0,1-.171,2.692m-11.428-4.377a1.344,1.344,0,0,1-.766-.239c-.323-.223-.645-.455-.958-.69a1.351,1.351,0,1,1,1.627-2.158c.282.213.573.422.865.623a1.351,1.351,0,0,1-.768,2.464m-8.177-9.1a1.35,1.35,0,0,1-1.19-.708c-.186-.343-.367-.7-.539-1.049a1.351,1.351,0,1,1,2.43-1.183c.155.319.318.637.486.946a1.351,1.351,0,0,1-1.187,1.994" transform="translate(-1255.909 -356.657)" fill="#cce951"/>
        <path id="Trazado_115751" data-name="Trazado 115751" d="M1252.535,475.665a1.351,1.351,0,0,1-1.35-1.323c0-.2-.006-.394-.006-.592a1.351,1.351,0,0,1,2.7,0q0,.268.005.534a1.351,1.351,0,0,1-1.322,1.38h-.029" transform="translate(-1249.99 -330.861)" fill="#cce951"/>
      </g>
    </g>
    <path id="Rectángulo_34091" data-name="Rectángulo 34091" d="M0,0H68A17,17,0,0,1,85,17V149a17,17,0,0,1-17,17H0a0,0,0,0,1,0,0V0A0,0,0,0,1,0,0Z" transform="translate(600.75 2608.858)" fill="#cce951"/>
    <rect id="Rectángulo_34092" data-name="Rectángulo 34092" width="163.5" height="147" rx="10" transform="translate(512 2617.858)" fill="#e8e8e8"/>
    <g id="Grupo_80983" data-name="Grupo 80983" transform="translate(529.485 2641.858)">
      <path id="Trazado_469003" data-name="Trazado 469003" d="M20.616,8.585H16.775V19H13.69V8.585H9.92V6.2h10.7Zm5.766,10.591a4.889,4.889,0,0,1-3.542-1.305,4.507,4.507,0,0,1-1.354-3.4v-.246a5.84,5.84,0,0,1,.541-2.575A3.955,3.955,0,0,1,23.6,9.925a4.763,4.763,0,0,1,2.461-.611,4.117,4.117,0,0,1,3.164,1.244,4.887,4.887,0,0,1,1.16,3.467v1.151H24.5a2.135,2.135,0,0,0,.694,1.257,2.066,2.066,0,0,0,1.389.457,2.662,2.662,0,0,0,2.2-.984l1.354,1.6a3.784,3.784,0,0,1-1.569,1.217A5.3,5.3,0,0,1,26.382,19.176ZM26.048,11.6q-1.3,0-1.547,1.723h2.988v-.229a1.467,1.467,0,0,0-.36-1.1A1.434,1.434,0,0,0,26.048,11.6ZM35.6,16.891a1.317,1.317,0,0,0,.967-.338,1.241,1.241,0,0,0,.334-.945H39.68a3.288,3.288,0,0,1-1.121,2.566,4.168,4.168,0,0,1-2.887,1,4.22,4.22,0,0,1-3.27-1.3,5.125,5.125,0,0,1-1.2-3.6v-.123a5.792,5.792,0,0,1,.532-2.544,3.872,3.872,0,0,1,1.534-1.7,4.573,4.573,0,0,1,2.373-.593,4.116,4.116,0,0,1,2.944,1.028,3.647,3.647,0,0,1,1.09,2.786H36.9A1.626,1.626,0,0,0,36.542,12a1.244,1.244,0,0,0-.967-.4q-1.151,0-1.345,1.468a10.357,10.357,0,0,0-.062,1.283,4.068,4.068,0,0,0,.343,1.986A1.187,1.187,0,0,0,35.6,16.891Zm8.051-7.4.1,1.116a3.225,3.225,0,0,1,2.716-1.292,2.713,2.713,0,0,1,2.219.888,4.226,4.226,0,0,1,.76,2.672V19H46.474V13a1.6,1.6,0,0,0-.29-1.059,1.342,1.342,0,0,0-1.055-.338,1.413,1.413,0,0,0-1.292.686V19H40.875V9.49Zm7.058,4.667a5.613,5.613,0,0,1,.554-2.536,3.96,3.96,0,0,1,1.591-1.709,4.791,4.791,0,0,1,2.435-.6,4.373,4.373,0,0,1,3.366,1.323,5.076,5.076,0,0,1,1.23,3.6v.105a4.925,4.925,0,0,1-1.235,3.529,4.384,4.384,0,0,1-3.344,1.305,4.434,4.434,0,0,1-3.261-1.217,4.761,4.761,0,0,1-1.327-3.3Zm2.962.185a3.538,3.538,0,0,0,.413,1.934,1.376,1.376,0,0,0,1.222.615q1.582,0,1.617-2.435v-.3q0-2.558-1.635-2.558-1.485,0-1.608,2.206ZM64.315,19H61.345V5.5h2.971Zm1.45-4.843a5.613,5.613,0,0,1,.554-2.536A3.96,3.96,0,0,1,67.91,9.912a4.791,4.791,0,0,1,2.435-.6,4.373,4.373,0,0,1,3.366,1.323,5.076,5.076,0,0,1,1.23,3.6v.105a4.925,4.925,0,0,1-1.235,3.529,4.384,4.384,0,0,1-3.344,1.305A4.434,4.434,0,0,1,67.1,17.958a4.761,4.761,0,0,1-1.327-3.3Zm2.962.185a3.538,3.538,0,0,0,.413,1.934,1.376,1.376,0,0,0,1.222.615q1.582,0,1.617-2.435v-.3q0-2.558-1.635-2.558-1.485,0-1.608,2.206ZM70.749,5.5h3.129L71.435,8.26l-2.417,0Zm5.15,8.675a6.421,6.421,0,0,1,.475-2.549,3.821,3.821,0,0,1,1.362-1.709,3.591,3.591,0,0,1,2.065-.6,2.855,2.855,0,0,1,2.32,1l.105-.826h2.689V18.64a4.009,4.009,0,0,1-.584,2.184,3.75,3.75,0,0,1-1.692,1.424,6.219,6.219,0,0,1-2.566.5,5.365,5.365,0,0,1-2.026-.4,3.657,3.657,0,0,1-1.5-1.028l1.239-1.74a2.716,2.716,0,0,0,2.18.976,1.764,1.764,0,0,0,1.969-2.021v-.3a2.781,2.781,0,0,1-2.153.94,3.437,3.437,0,0,1-2.812-1.332A5.517,5.517,0,0,1,75.9,14.28Zm2.971.185a3.383,3.383,0,0,0,.439,1.85,1.387,1.387,0,0,0,1.23.681,1.573,1.573,0,0,0,1.4-.642v-4a1.534,1.534,0,0,0-1.38-.65,1.4,1.4,0,0,0-1.239.708A3.858,3.858,0,0,0,78.87,14.359ZM89.725,19H86.754V9.49h2.971ZM86.578,7.038A1.322,1.322,0,0,1,87.035,6a1.943,1.943,0,0,1,2.373,0,1.322,1.322,0,0,1,.457,1.037,1.322,1.322,0,0,1-.457,1.037,1.943,1.943,0,0,1-2.373,0A1.322,1.322,0,0,1,86.578,7.038Zm8.991,9.853a1.317,1.317,0,0,0,.967-.338,1.241,1.241,0,0,0,.334-.945h2.777a3.288,3.288,0,0,1-1.121,2.566,4.168,4.168,0,0,1-2.887,1,4.22,4.22,0,0,1-3.27-1.3,5.125,5.125,0,0,1-1.2-3.6v-.123a5.792,5.792,0,0,1,.532-2.544,3.872,3.872,0,0,1,1.534-1.7,4.573,4.573,0,0,1,2.373-.593,4.116,4.116,0,0,1,2.944,1.028,3.647,3.647,0,0,1,1.09,2.786H96.87A1.626,1.626,0,0,0,96.51,12a1.244,1.244,0,0,0-.967-.4q-1.151,0-1.345,1.468a10.357,10.357,0,0,0-.062,1.283,4.068,4.068,0,0,0,.343,1.986A1.187,1.187,0,0,0,95.569,16.891Zm4.957-2.733a5.613,5.613,0,0,1,.554-2.536,3.96,3.96,0,0,1,1.591-1.709,4.791,4.791,0,0,1,2.435-.6,4.373,4.373,0,0,1,3.366,1.323,5.076,5.076,0,0,1,1.23,3.6v.105a4.925,4.925,0,0,1-1.235,3.529,4.384,4.384,0,0,1-3.344,1.305,4.434,4.434,0,0,1-3.261-1.217,4.761,4.761,0,0,1-1.327-3.3Zm2.962.185a3.538,3.538,0,0,0,.413,1.934,1.376,1.376,0,0,0,1.222.615q1.582,0,1.617-2.435v-.3q0-2.558-1.635-2.558-1.485,0-1.608,2.206Zm12.5,1.986a.684.684,0,0,0-.4-.606,6.016,6.016,0,0,0-1.5-.475,6.853,6.853,0,0,1-1.828-.646,3.062,3.062,0,0,1-1.1-.971,2.319,2.319,0,0,1-.378-1.31,2.628,2.628,0,0,1,1.081-2.158,4.453,4.453,0,0,1,2.83-.848,4.934,4.934,0,0,1,3.023.853,2.666,2.666,0,0,1,1.143,2.241H115.89q0-1.143-1.2-1.143a1.194,1.194,0,0,0-.782.259.8.8,0,0,0-.316.646.737.737,0,0,0,.387.642,3.654,3.654,0,0,0,1.235.4,10.671,10.671,0,0,1,1.49.378,2.706,2.706,0,0,1,2.145,2.646,2.491,2.491,0,0,1-1.156,2.118,5.068,5.068,0,0,1-2.993.817,5.172,5.172,0,0,1-2.18-.439,3.645,3.645,0,0,1-1.494-1.2,2.707,2.707,0,0,1-.536-1.591h2.769a1.145,1.145,0,0,0,.439.962,1.808,1.808,0,0,0,1.081.3,1.422,1.422,0,0,0,.91-.246A.787.787,0,0,0,115.986,16.328Z" transform="translate(0)" fill="#12263f"/>
    </g>
    <g id="Grupo_81000" data-name="Grupo 81000" transform="translate(569.31 2679)">
      <g id="Grupo_80999" data-name="Grupo 80999" transform="translate(0 0)" clip-path="url(#clip-path)">
        <path id="Trazado_115793" data-name="Trazado 115793" d="M24.439,49.187A24.44,24.44,0,1,1,48.88,24.747a24.467,24.467,0,0,1-24.441,24.44m0-48.072A23.633,23.633,0,1,0,48.072,24.747,23.658,23.658,0,0,0,24.439,1.115" transform="translate(0 -0.117)"/>
        <path id="Trazado_115794" data-name="Trazado 115794" d="M31.606,49.188c-4.2,0-8.123-3.962-10.486-10.6a.4.4,0,0,1,.26-.52,2.092,2.092,0,0,0,.962-3.359,2.089,2.089,0,0,0-1.593-.735,2.04,2.04,0,0,0-.483.054.41.41,0,0,1-.312-.052.4.4,0,0,1-.179-.26,45.093,45.093,0,0,1-.877-8.97,44.2,44.2,0,0,1,.983-9.463.4.4,0,0,1,.179-.255.4.4,0,0,1,.307-.052,2.106,2.106,0,0,0,2.582-1.692,2.223,2.223,0,0,0,.027-.336,2.093,2.093,0,0,0-1.433-1.993.4.4,0,0,1-.251-.525C23.7,4,27.461.308,31.606.308c4.345,0,8.338,4.167,10.68,11.146.143.43.276.86.407,1.306a.407.407,0,0,1,.055.189,43.542,43.542,0,0,1,1.567,11.8,45.046,45.046,0,0,1-.875,8.957.4.4,0,0,1-.494.31,1.935,1.935,0,0,0-.476-.053,2.1,2.1,0,0,0-.626,4.095.4.4,0,0,1,.258.52c-2.367,6.644-6.29,10.612-10.495,10.612m-9.594-10.5c2.253,6.081,5.822,9.7,9.594,9.7s7.346-3.621,9.6-9.71a2.9,2.9,0,0,1,1.261-5.516c.088,0,.173,0,.255.011a44.441,44.441,0,0,0,.783-8.417,42.894,42.894,0,0,0-1.464-11.322,59.2,59.2,0,0,1-10.26.927h-.116a59.149,59.149,0,0,1-8.008-.55,2.892,2.892,0,0,1-3.068,2.03,43.653,43.653,0,0,0-.884,8.915,44.489,44.489,0,0,0,.785,8.43c.084-.007.169-.011.258-.011a2.906,2.906,0,0,1,2.867,3.37,2.946,2.946,0,0,1-1.6,2.146m9.654-25.137a58.289,58.289,0,0,0,10.151-.9c-.1-.317-.193-.627-.3-.937C39.294,5.076,35.588,1.116,31.606,1.116c-3.657,0-7.161,3.444-9.418,9.237a2.9,2.9,0,0,1,1.6,2.6c0,.018,0,.037,0,.055a58.377,58.377,0,0,0,7.881.54" transform="translate(-7.167 -0.117)"/>
        <path id="Trazado_115795" data-name="Trazado 115795" d="M48.476,39.834H.4a.4.4,0,1,1,0-.808H48.476a.4.4,0,0,1,0,.808" transform="translate(0 -14.799)"/>
        <path id="Trazado_115796" data-name="Trazado 115796" d="M39.122,49.188a.4.4,0,0,1-.4-.4V.712a.4.4,0,0,1,.807,0V48.784a.4.4,0,0,1-.4.4" transform="translate(-14.682 -0.117)"/>
        <path id="Trazado_115797" data-name="Trazado 115797" d="M16.5,21.8a2.9,2.9,0,0,1-2.9-2.9c0-.066,0-.131.007-.2-1.989-.466-4-1.039-6-1.7a.4.4,0,1,1,.256-.765c1.961.655,3.945,1.22,5.9,1.68a2.9,2.9,0,0,1,5.63.987c0,.018,0,.036,0,.055a58.981,58.981,0,0,0,27.175-2.721.4.4,0,1,1,.259.764,59.766,59.766,0,0,1-27.562,2.754A2.887,2.887,0,0,1,16.5,21.8m-2.047-3.319a2.063,2.063,0,0,0-.044.422,2.094,2.094,0,0,0,4.16.337h0a2.21,2.21,0,0,0,.027-.336,2.093,2.093,0,0,0-4.142-.429v.007" transform="translate(-2.781 -6.066)"/>
        <path id="Trazado_115798" data-name="Trazado 115798" d="M46.7,59.7a.415.415,0,0,1-.13-.022,63.811,63.811,0,0,0-6.139-1.752.4.4,0,1,1,.181-.787c2.024.466,4.116,1.062,6.218,1.774a.4.4,0,0,1-.13.786m-38.967,0a.4.4,0,0,1-.129-.787c2.085-.7,4.176-1.291,6.217-1.761a.4.4,0,1,1,.181.787c-2.014.463-4.08,1.048-6.14,1.739a.409.409,0,0,1-.129.021m11.086-2.671a.4.4,0,0,1-.058-.8,58.619,58.619,0,0,1,16.91-.012.4.4,0,0,1-.117.8,57.758,57.758,0,0,0-16.676.012.49.49,0,0,1-.059,0" transform="translate(-2.781 -21.088)"/>
        <path id="Trazado_115799" data-name="Trazado 115799" d="M55.093,59.021a2.9,2.9,0,1,1,2.861-2.43,2.908,2.908,0,0,1-2.861,2.43m0-4.994a2.1,2.1,0,1,0,1.592.738,2.1,2.1,0,0,0-1.592-.738" transform="translate(-19.791 -20.182)"/>
        <path id="Trazado_115800" data-name="Trazado 115800" d="M20.105,59.041a2.9,2.9,0,1,1,2.867-2.432,2.908,2.908,0,0,1-2.867,2.432m0-4.994a2.1,2.1,0,1,0,1.592.735,2.1,2.1,0,0,0-1.592-.735" transform="translate(-6.523 -20.19)"/>
        <path id="Trazado_115801" data-name="Trazado 115801" d="M47.283.808H5.342a.4.4,0,0,1,0-.808H47.283a.4.4,0,0,1,0,.808" transform="translate(-1.873 0)"/>
        <path id="Trazado_115802" data-name="Trazado 115802" d="M47.283,78.617H5.342a.4.4,0,0,1,0-.808H47.283a.4.4,0,0,1,0,.808" transform="translate(-1.873 -29.507)"/>
      </g>
    </g>
  </g>
</svg>
