<svg xmlns="http://www.w3.org/2000/svg" xmlns:xlink="http://www.w3.org/1999/xlink" width="190.5" height="170.463" viewBox="0 0 190.5 170.463">
  <defs>
    <clipPath id="clip-path">
      <rect id="Rectángulo_34100" data-name="Rectángulo 34100" width="54.826" height="47.871" fill="none"/>
    </clipPath>
  </defs>
  <g id="Grupo_717815" data-name="Grupo 717815" transform="translate(-705.25 -2605.858)">
    <path id="Trazado_115753" data-name="Trazado 115753" d="M1525.017,560.227h-.563a1.351,1.351,0,1,1,0-2.7h.563a1.351,1.351,0,0,1,0,2.7" transform="translate(-731.522 2216.095)" fill="#387db8"/>
    <g id="Grupo_80986" data-name="Grupo 80986" transform="translate(705.25 2605.858)">
      <path id="Trazado_115746" data-name="Trazado 115746" d="M1254.165,82.119h-2.252V37.959a27.255,27.255,0,0,1,27.224-27.224h57.833v2.252h-57.833a25.066,25.066,0,0,0-19.034,8.824,24.685,24.685,0,0,0-5.938,16.148Z" transform="translate(-1250.499 -10.735)" fill="#387db8"/>
      <path id="Trazado_115747" data-name="Trazado 115747" d="M1252.38,237.412a2.54,2.54,0,1,1-2.54-2.54,2.54,2.54,0,0,1,2.54,2.54" transform="translate(-1247.3 -166.155)" fill="#387db8"/>
      <rect id="Rectángulo_34007" data-name="Rectángulo 34007" width="2.252" height="44.16" transform="translate(1.414 98.73)" fill="#387db8"/>
      <path id="Trazado_115748" data-name="Trazado 115748" d="M1252.38,327.438a2.54,2.54,0,1,0-2.54,2.54,2.54,2.54,0,0,0,2.54-2.54" transform="translate(-1247.3 -228.581)" fill="#387db8"/>
      <path id="Trazado_115750" data-name="Trazado 115750" d="M1330.587,527h-1.123a1.351,1.351,0,0,1,0-2.7h1.123a1.351,1.351,0,1,1,0,2.7m-12.353,0h-1.123a1.351,1.351,0,0,1,0-2.7h1.123a1.351,1.351,0,0,1,0,2.7m-12.353,0h-1.123a1.351,1.351,0,1,1,0-2.7h1.123a1.351,1.351,0,0,1,0,2.7m-12.354,0H1292.4a1.351,1.351,0,0,1,0-2.7h1.123a1.351,1.351,0,1,1,0,2.7m-12.342-.214a1.4,1.4,0,0,1-.174-.011c-.387-.05-.78-.109-1.167-.176a1.351,1.351,0,0,1,.459-2.663c.35.06.7.114,1.053.159a1.351,1.351,0,0,1-.171,2.692m-11.428-4.377a1.344,1.344,0,0,1-.766-.239c-.323-.223-.645-.455-.958-.69a1.351,1.351,0,1,1,1.627-2.158c.282.213.573.422.865.623a1.351,1.351,0,0,1-.768,2.464m-8.177-9.1a1.35,1.35,0,0,1-1.19-.708c-.186-.343-.367-.7-.539-1.049a1.351,1.351,0,1,1,2.43-1.183c.155.319.318.637.486.946a1.351,1.351,0,0,1-1.187,1.994" transform="translate(-1255.909 -356.657)" fill="#387db8"/>
      <path id="Trazado_115751" data-name="Trazado 115751" d="M1252.535,475.665a1.351,1.351,0,0,1-1.35-1.323c0-.2-.006-.394-.006-.592a1.351,1.351,0,0,1,2.7,0q0,.268.005.534a1.351,1.351,0,0,1-1.322,1.38h-.029" transform="translate(-1249.99 -330.861)" fill="#387db8"/>
    </g>
    <path id="Rectángulo_34093" data-name="Rectángulo 34093" d="M0,0H68A17,17,0,0,1,85,17V149a17,17,0,0,1-17,17H0a0,0,0,0,1,0,0V0A0,0,0,0,1,0,0Z" transform="translate(810.75 2608.858)" fill="#387db8"/>
    <rect id="Rectángulo_34094" data-name="Rectángulo 34094" width="163.5" height="147" rx="10" transform="translate(722 2617.858)" fill="#e8e8e8"/>
    <g id="Grupo_80985" data-name="Grupo 80985" transform="translate(739.485 2641.858)">
      <path id="Trazado_469004" data-name="Trazado 469004" d="M24.026,13.568H19.175v3.059h5.73V19H16.09V6.2h8.833V8.585H19.175v2.7h4.852Zm5.854,3.322a1.317,1.317,0,0,0,.967-.338,1.241,1.241,0,0,0,.334-.945h2.777a3.288,3.288,0,0,1-1.121,2.566,4.168,4.168,0,0,1-2.887,1,4.22,4.22,0,0,1-3.27-1.3,5.125,5.125,0,0,1-1.2-3.6v-.123a5.792,5.792,0,0,1,.532-2.544,3.872,3.872,0,0,1,1.534-1.7,4.573,4.573,0,0,1,2.373-.593,4.116,4.116,0,0,1,2.944,1.028,3.647,3.647,0,0,1,1.09,2.786H31.181A1.626,1.626,0,0,0,30.82,12a1.244,1.244,0,0,0-.967-.4q-1.151,0-1.345,1.468a10.357,10.357,0,0,0-.062,1.283,4.068,4.068,0,0,0,.343,1.986A1.187,1.187,0,0,0,29.88,16.891Zm4.957-2.733a5.613,5.613,0,0,1,.554-2.536,3.96,3.96,0,0,1,1.591-1.709,4.791,4.791,0,0,1,2.435-.6,4.373,4.373,0,0,1,3.366,1.323,5.076,5.076,0,0,1,1.23,3.6v.105a4.925,4.925,0,0,1-1.235,3.529,4.384,4.384,0,0,1-3.344,1.305,4.434,4.434,0,0,1-3.261-1.217,4.761,4.761,0,0,1-1.327-3.3Zm2.962.185a3.538,3.538,0,0,0,.413,1.934,1.376,1.376,0,0,0,1.222.615q1.582,0,1.617-2.435v-.3q0-2.558-1.635-2.558-1.485,0-1.608,2.206ZM48.038,9.49l.1,1.116a3.225,3.225,0,0,1,2.716-1.292,2.713,2.713,0,0,1,2.219.888,4.226,4.226,0,0,1,.76,2.672V19H50.859V13a1.6,1.6,0,0,0-.29-1.059,1.342,1.342,0,0,0-1.055-.338,1.413,1.413,0,0,0-1.292.686V19H45.261V9.49ZM55.1,14.157a5.613,5.613,0,0,1,.554-2.536A3.96,3.96,0,0,1,57.24,9.912a4.791,4.791,0,0,1,2.435-.6,4.373,4.373,0,0,1,3.366,1.323,5.076,5.076,0,0,1,1.23,3.6v.105a4.925,4.925,0,0,1-1.235,3.529,4.384,4.384,0,0,1-3.344,1.305,4.434,4.434,0,0,1-3.261-1.217,4.761,4.761,0,0,1-1.327-3.3Zm2.962.185a3.538,3.538,0,0,0,.413,1.934,1.376,1.376,0,0,0,1.222.615q1.582,0,1.617-2.435v-.3q0-2.558-1.635-2.558-1.485,0-1.608,2.206ZM60.079,5.5h3.129L60.765,8.26l-2.417,0Zm8.3,3.99.1,1.116a3.27,3.27,0,0,1,2.716-1.292,2.407,2.407,0,0,1,2.435,1.433,3.165,3.165,0,0,1,2.795-1.433q2.892,0,2.971,3.5V19H76.418V13a1.813,1.813,0,0,0-.246-1.063,1.048,1.048,0,0,0-.9-.334,1.4,1.4,0,0,0-1.31.782l.009.123V19H71V13.015a1.906,1.906,0,0,0-.237-1.081,1.045,1.045,0,0,0-.905-.334,1.42,1.42,0,0,0-1.3.782V19H65.6V9.49ZM84.205,19H81.234V9.49h2.971ZM81.059,7.038A1.322,1.322,0,0,1,81.516,6a1.943,1.943,0,0,1,2.373,0,1.322,1.322,0,0,1,.457,1.037,1.322,1.322,0,0,1-.457,1.037,1.943,1.943,0,0,1-2.373,0A1.322,1.322,0,0,1,81.059,7.038Zm8.991,9.853a1.317,1.317,0,0,0,.967-.338,1.241,1.241,0,0,0,.334-.945h2.777a3.288,3.288,0,0,1-1.121,2.566,4.168,4.168,0,0,1-2.887,1,4.22,4.22,0,0,1-3.27-1.3,5.125,5.125,0,0,1-1.2-3.6v-.123a5.792,5.792,0,0,1,.532-2.544,3.872,3.872,0,0,1,1.534-1.7,4.573,4.573,0,0,1,2.373-.593,4.116,4.116,0,0,1,2.944,1.028,3.647,3.647,0,0,1,1.09,2.786H91.351A1.626,1.626,0,0,0,90.99,12a1.244,1.244,0,0,0-.967-.4q-1.151,0-1.345,1.468a10.357,10.357,0,0,0-.062,1.283,4.068,4.068,0,0,0,.343,1.986A1.187,1.187,0,0,0,90.05,16.891Zm4.957-2.733a5.613,5.613,0,0,1,.554-2.536,3.96,3.96,0,0,1,1.591-1.709,4.791,4.791,0,0,1,2.435-.6,4.373,4.373,0,0,1,3.366,1.323,5.076,5.076,0,0,1,1.23,3.6v.105a4.925,4.925,0,0,1-1.235,3.529A4.384,4.384,0,0,1,99.6,19.176a4.434,4.434,0,0,1-3.261-1.217,4.761,4.761,0,0,1-1.327-3.3Zm2.962.185a3.538,3.538,0,0,0,.413,1.934,1.376,1.376,0,0,0,1.222.615q1.582,0,1.617-2.435v-.3q0-2.558-1.635-2.558-1.485,0-1.608,2.206Zm12.5,1.986a.684.684,0,0,0-.4-.606,6.016,6.016,0,0,0-1.5-.475,6.853,6.853,0,0,1-1.828-.646,3.062,3.062,0,0,1-1.1-.971,2.319,2.319,0,0,1-.378-1.31,2.628,2.628,0,0,1,1.081-2.158,4.453,4.453,0,0,1,2.83-.848,4.934,4.934,0,0,1,3.023.853,2.666,2.666,0,0,1,1.143,2.241H110.37q0-1.143-1.2-1.143a1.194,1.194,0,0,0-.782.259.8.8,0,0,0-.316.646.737.737,0,0,0,.387.642,3.654,3.654,0,0,0,1.235.4,10.671,10.671,0,0,1,1.49.378,2.706,2.706,0,0,1,2.145,2.646,2.491,2.491,0,0,1-1.156,2.118,5.068,5.068,0,0,1-2.993.817,5.172,5.172,0,0,1-2.18-.439,3.645,3.645,0,0,1-1.494-1.2,2.707,2.707,0,0,1-.536-1.591h2.769a1.145,1.145,0,0,0,.439.962,1.808,1.808,0,0,0,1.081.3,1.422,1.422,0,0,0,.91-.246A.787.787,0,0,0,110.467,16.328Z" transform="translate(0)" fill="#12263f"/>
    </g>
    <g id="Grupo_80998" data-name="Grupo 80998" transform="translate(776.572 2679)">
      <g id="Grupo_80997" data-name="Grupo 80997" transform="translate(0 0)" clip-path="url(#clip-path)">
        <path id="Trazado_115767" data-name="Trazado 115767" d="M44.32,49.6a39.258,39.258,0,0,1,8.838,2.084,3.01,3.01,0,0,1,1.909,1.566c.272.722-.211,2.293-1.7,6.344-.395,1.072-.768,2.085-.9,2.57a3.542,3.542,0,0,1-.252.751.992.992,0,0,1-.9.578,1.5,1.5,0,0,1-.658-.176,16.522,16.522,0,0,1-3.882-3.19,20.394,20.394,0,0,0-3.508-3.013c-.159-.1-.323-.187-.481-.276a3.2,3.2,0,0,1-1.675-1.52,1.533,1.533,0,0,1-.087-.541,11.138,11.138,0,0,1,.815-3.119c.063-.177.118-.33.16-.453a2.153,2.153,0,0,1,2.255-1.6Zm9.521,4.083c-.065-.154-.306-.447-1.168-.794A38.123,38.123,0,0,0,44.32,50.9h-.039c-.817.023-.922.332-1.056.723-.045.131-.1.289-.166.472a11.709,11.709,0,0,0-.739,2.682.421.421,0,0,0,.007.091l0,.009c.1.271.578.541,1.087.826.167.093.339.19.515.3a21.29,21.29,0,0,1,3.755,3.205,16.412,16.412,0,0,0,3.449,2.9c.027-.092.053-.194.073-.27.146-.548.511-1.541.934-2.69.407-1.1.868-2.357,1.208-3.417A6.989,6.989,0,0,0,53.841,53.687Zm-3.561.092h0a1.558,1.558,0,0,1,.965.332,1.563,1.563,0,1,1-2.193.258l0,0A1.571,1.571,0,0,1,50.28,53.778Zm0,1.824a.253.253,0,0,0,.2-.1l.005-.007a.262.262,0,0,0,.057-.2.249.249,0,0,0-.093-.169.268.268,0,0,0-.166-.057.276.276,0,0,0-.213.1.254.254,0,0,0-.05.185.263.263,0,0,0,.1.177l.006,0A.246.246,0,0,0,50.276,55.6Z" transform="translate(-12.791 -15.426)"/>
        <path id="Trazado_115768" data-name="Trazado 115768" d="M29.1,49.6h.069a2.145,2.145,0,0,1,2.252,1.6l0,.013c.044.133.1.3.174.5a11.132,11.132,0,0,1,.792,3.072,1.577,1.577,0,0,1-.077.525,3.175,3.175,0,0,1-1.662,1.519c-.164.092-.333.186-.5.285a20.319,20.319,0,0,0-3.514,3.015,16.477,16.477,0,0,1-3.882,3.189,1.481,1.481,0,0,1-.655.176.987.987,0,0,1-.9-.577,3.686,3.686,0,0,1-.254-.746l0-.009c-.129-.493-.511-1.532-.917-2.632-1.479-4.014-1.956-5.566-1.688-6.28l0-.011a3.079,3.079,0,0,1,1.913-1.555A39.237,39.237,0,0,1,29.1,49.6Zm.037,1.3H29.1a38.1,38.1,0,0,0-8.353,1.99c-.8.322-1.084.605-1.175.8A7.133,7.133,0,0,0,20.06,55.7c.336,1.046.794,2.289,1.2,3.385.435,1.18.81,2.2.955,2.753.023.087.049.184.074.269a16.407,16.407,0,0,0,3.444-2.9A21.218,21.218,0,0,1,29.49,56c.18-.109.358-.209.531-.305.479-.268.974-.546,1.067-.807a.6.6,0,0,0,.007-.1,11.493,11.493,0,0,0-.718-2.64c-.071-.2-.132-.376-.18-.52C30.054,51.22,29.946,50.926,29.141,50.9Zm-6,2.875h0A1.567,1.567,0,0,1,24.7,55.532a1.528,1.528,0,0,1-.579,1.029,1.563,1.563,0,0,1-2.192-.242l-.005-.006a1.562,1.562,0,0,1,1.221-2.535Zm0,1.824a.26.26,0,0,0,.164-.059l.007-.005a.235.235,0,0,0,.09-.161.269.269,0,0,0-.058-.2.262.262,0,0,0-.207-.1.257.257,0,0,0-.16.055.263.263,0,0,0,.165.469Z" transform="translate(-5.809 -15.426)"/>
        <path id="Trazado_115769" data-name="Trazado 115769" d="M54.066,42.352a.648.648,0,0,1-.242-.047,38.179,38.179,0,0,0-8.353-1.99h-.051a.65.65,0,0,1-.628-.819c1.077-4.006,2.064-6.647,3.017-8.074a24.516,24.516,0,0,1,8.926-6.87,6.674,6.674,0,0,1,2.366-.52,2.984,2.984,0,0,1,1.583.408,22.671,22.671,0,0,1,3.306-7.523,3.963,3.963,0,0,1,2.8-1.807,2.087,2.087,0,0,1,1.4.546c.621.536.862,1.618.758,3.405a29.283,29.283,0,0,1-.842,5.044c-.777,3.171-2.192,7.254-3.464,8.724a13.313,13.313,0,0,1-4.5,3.327c-2.032,1.044-3.787,1.946-5.481,5.806A.65.65,0,0,1,54.066,42.352Zm-7.812-3.281a46.074,46.074,0,0,1,7.471,1.812A11.036,11.036,0,0,1,59.548,35a12.054,12.054,0,0,0,4.106-3.019c.955-1.1,2.294-4.546,3.186-8.185a28,28,0,0,0,.807-4.81c.112-1.924-.268-2.31-.311-2.347a.807.807,0,0,0-.544-.229A2.751,2.751,0,0,0,65.027,17.7a20.684,20.684,0,0,0-3.278,8.2.65.65,0,0,1-.647.583H61.1a.65.65,0,0,1-.6-.409,1.127,1.127,0,0,0-.406-.466c-.565-.412-1.572-.35-2.881.16a23.262,23.262,0,0,0-8.316,6.381A29.314,29.314,0,0,0,46.254,39.072Z" transform="translate(-13.942 -4.838)"/>
        <path id="Trazado_115770" data-name="Trazado 115770" d="M14.9,42.352a.65.65,0,0,1-.6-.388C12.6,38.1,10.85,37.2,8.818,36.156a13.357,13.357,0,0,1-4.5-3.327C3.05,31.359,1.638,27.277.863,24.106a29.377,29.377,0,0,1-.841-5.044c-.1-1.787.136-2.869.756-3.406a2.087,2.087,0,0,1,1.395-.546,3.969,3.969,0,0,1,2.806,1.811,22.819,22.819,0,0,1,3.305,7.516,2.992,2.992,0,0,1,1.573-.4A9.462,9.462,0,0,1,14.3,25.577a24.914,24.914,0,0,1,6.845,5.846c1.231,1.833,2.263,5.277,3.024,8.073a.65.65,0,0,1-.638.821h-.042a38.122,38.122,0,0,0-8.352,1.99A.648.648,0,0,1,14.9,42.352ZM2.173,16.41a.8.8,0,0,0-.543.228c-.044.038-.422.424-.31,2.349A28.093,28.093,0,0,0,2.126,23.8c.89,3.639,2.225,7.081,3.176,8.184A12.1,12.1,0,0,0,9.412,35a11.05,11.05,0,0,1,5.827,5.883,46,46,0,0,1,7.47-1.812c-.531-1.906-1.539-5.286-2.639-6.925A23.824,23.824,0,0,0,13.651,26.7a8.4,8.4,0,0,0-3.794-1.365,1.647,1.647,0,0,0-.984.269,1.078,1.078,0,0,0-.4.451.65.65,0,0,1-1.252-.164A20.887,20.887,0,0,0,3.94,17.7,2.758,2.758,0,0,0,2.173,16.41Z" transform="translate(-0.2 -4.838)"/>
        <path id="Trazado_115771" data-name="Trazado 115771" d="M57.577,16.5a.65.65,0,0,1,.65.65v4.006a.65.65,0,0,1-.65.65H53.572a.65.65,0,0,1-.65-.65A4.661,4.661,0,0,1,57.577,16.5Zm-.65,4.006V17.86A3.365,3.365,0,0,0,54.285,20.5Z" transform="translate(-16.444 -5.263)"/>
        <path id="Trazado_115772" data-name="Trazado 115772" d="M53.572,0h4.005a.65.65,0,0,1,.65.65v4a.65.65,0,0,1-.65.65A4.66,4.66,0,0,1,52.922.65.65.65,0,0,1,53.572,0Zm3.355,1.3H54.285a3.365,3.365,0,0,0,2.642,2.641Z" transform="translate(-16.444 -0.199)"/>
        <path id="Trazado_115773" data-name="Trazado 115773" d="M39.934,14.247a.65.65,0,0,1-.65-.65v-1.34a.65.65,0,0,1,.829-.625,1.444,1.444,0,0,1,.777.479,1.26,1.26,0,0,1,.275.8,1.281,1.281,0,0,1-.32.866,1.408,1.408,0,0,1-.761.458A.65.65,0,0,1,39.934,14.247Z" transform="translate(-12.258 -3.762)"/>
        <path id="Trazado_115774" data-name="Trazado 115774" d="M39.029,8.289a.65.65,0,0,1,.65.65v1.183a.65.65,0,0,1-.9.6,1.309,1.309,0,0,1-.619-.488,1.213,1.213,0,0,1-.219-.7,1.3,1.3,0,0,1,.226-.73l.019-.026a1.3,1.3,0,0,1,.63-.461A.65.65,0,0,1,39.029,8.289Z" transform="translate(-11.847 -2.744)"/>
        <path id="Trazado_115775" data-name="Trazado 115775" d="M37.543,15a5.233,5.233,0,1,1,5.237-5.237A5.239,5.239,0,0,1,37.543,15Zm0-9.167a3.933,3.933,0,1,0,3.937,3.93A3.935,3.935,0,0,0,37.543,5.829Zm.251,7.639H37.3a.65.65,0,0,1-.65-.65v-.124a2.158,2.158,0,0,1-.764-.479l-.005-.005a2.432,2.432,0,0,1-.65-1.4.65.65,0,0,1,.569-.743l.277-.031a1.885,1.885,0,0,1-.264-.276,2.118,2.118,0,0,1-.454-1.34,2,2,0,0,1,1.319-1.9.65.65,0,0,1,.623-.463h.494a.65.65,0,0,1,.624.468,1.981,1.981,0,0,1,.689.415,2.02,2.02,0,0,1,.605,1.187.65.65,0,0,1-.561.755l-.19.024a1.81,1.81,0,0,1,.455.385,2.033,2.033,0,0,1,.447,1.321,2.19,2.19,0,0,1-.533,1.471l-.013.014a2.256,2.256,0,0,1-.875.584v.138A.65.65,0,0,1,37.794,13.468Zm.151-3.608a.652.652,0,0,1,.005.081V11.37a.65.65,0,0,1-.009.109,1,1,0,0,0,.42-.261.889.889,0,0,0,.2-.606.738.738,0,0,0-.148-.491A1.08,1.08,0,0,0,37.945,9.861Zm-.8-2.127a.689.689,0,0,0-.3.193l0,0a.669.669,0,0,0-.181.488.826.826,0,0,0,.177.538l0,0a.865.865,0,0,0,.308.229q0-.027,0-.054V7.8A.651.651,0,0,1,37.148,7.734Z" transform="translate(-10.118 -1.59)"/>
        <path id="Trazado_115776" data-name="Trazado 115776" d="M19.792,0H23.8a.65.65,0,0,1,.65.65A4.661,4.661,0,0,1,19.792,5.3a.65.65,0,0,1-.65-.65v-4A.65.65,0,0,1,19.792,0Zm3.294,1.3H20.442V3.941A3.366,3.366,0,0,0,23.086,1.3Z" transform="translate(-6.075 -0.199)"/>
        <path id="Trazado_115777" data-name="Trazado 115777" d="M43.2,16.739H23.8a.65.65,0,0,1-.65-.65,3.36,3.36,0,0,0-3.357-3.356.65.65,0,0,1-.65-.65V4.654a.65.65,0,0,1,.65-.65A3.36,3.36,0,0,0,23.149.65.65.65,0,0,1,23.8,0H43.2a.65.65,0,0,1,.65.65A3.359,3.359,0,0,0,47.208,4a.65.65,0,0,1,.65.65v7.429a.65.65,0,0,1-.65.65,3.359,3.359,0,0,0-3.355,3.356A.65.65,0,0,1,43.2,16.739Zm-18.8-1.3H42.6a4.666,4.666,0,0,1,3.96-3.961V5.259A4.666,4.666,0,0,1,42.6,1.3H24.4a4.666,4.666,0,0,1-3.962,3.959v6.219A4.667,4.667,0,0,1,24.4,15.439Zm9.1-1.833a5.234,5.234,0,1,1,5.237-5.237A5.24,5.24,0,0,1,33.5,13.606Zm0-9.168a3.934,3.934,0,1,0,3.937,3.93A3.935,3.935,0,0,0,33.5,4.439Z" transform="translate(-6.075 -0.199)"/>
        <path id="Trazado_115778" data-name="Trazado 115778" d="M19.792,16.5a4.662,4.662,0,0,1,4.657,4.656.65.65,0,0,1-.65.65H19.792a.65.65,0,0,1-.65-.65V17.147A.65.65,0,0,1,19.792,16.5ZM23.086,20.5a3.366,3.366,0,0,0-2.644-2.643V20.5Z" transform="translate(-6.075 -5.263)"/>
        <path id="Trazado_115779" data-name="Trazado 115779" d="M45.419,44.268a.651.651,0,0,1-.628-.819c1.079-4.008,2.065-6.649,3.017-8.074a24.514,24.514,0,0,1,8.926-6.87c1.78-.693,3.165-.693,4.117,0A2.205,2.205,0,0,1,61.32,31.8a8.578,8.578,0,0,1-1.778,1.852,30.105,30.105,0,0,1-3.862,2.55l-.264.153a.65.65,0,1,1-.657-1.122l.273-.158a28.953,28.953,0,0,0,3.69-2.432c1.354-1.1,2-2.053,1.771-2.612l0-.005a1.12,1.12,0,0,0-.405-.464c-.712-.519-1.96-.2-2.881.16A23.26,23.26,0,0,0,48.889,36.1c-1.295,1.94-2.459,6.267-2.842,7.689A.65.65,0,0,1,45.419,44.268Z" transform="translate(-13.942 -8.79)"/>
        <path id="Trazado_115780" data-name="Trazado 115780" d="M57.9,42.352a.65.65,0,0,1-.595-.911A11.223,11.223,0,0,1,63.378,35a12.054,12.054,0,0,0,4.106-3.019c.955-1.1,2.294-4.546,3.186-8.185a28,28,0,0,0,.807-4.81c.112-1.924-.268-2.31-.312-2.348a.791.791,0,0,0-.63-.224A2.973,2.973,0,0,0,68.857,17.7a20.684,20.684,0,0,0-3.278,8.2.65.65,0,0,1-1.293-.134,21.936,21.936,0,0,1,3.532-8.845,4.207,4.207,0,0,1,2.578-1.8,2.087,2.087,0,0,1,1.62.534c.621.536.862,1.619.758,3.406a29.282,29.282,0,0,1-.842,5.044c-.777,3.171-2.192,7.254-3.464,8.725a13.313,13.313,0,0,1-4.5,3.327c-2.032,1.044-3.787,1.946-5.481,5.806A.65.65,0,0,1,57.9,42.352Z" transform="translate(-17.772 -4.838)"/>
        <path id="Trazado_115781" data-name="Trazado 115781" d="M44.321,49.6a39.257,39.257,0,0,1,8.837,2.084,3.008,3.008,0,0,1,1.91,1.567c.27.722-.213,2.293-1.7,6.341-.4,1.073-.768,2.087-.9,2.572a3.542,3.542,0,0,1-.252.751.992.992,0,0,1-.9.578,1.5,1.5,0,0,1-.658-.176,16.517,16.517,0,0,1-3.881-3.19,20.384,20.384,0,0,0-3.509-3.014c-.159-.1-.323-.187-.481-.276a3.2,3.2,0,0,1-1.675-1.52,1.533,1.533,0,0,1-.087-.541,11.117,11.117,0,0,1,.812-3.111c.064-.18.12-.336.162-.46a2.153,2.153,0,0,1,2.256-1.6Zm9.521,4.083c-.065-.154-.306-.447-1.168-.793a38.122,38.122,0,0,0-8.352-1.99h-.039c-.817.023-.923.332-1.056.723-.045.133-.1.294-.169.48a11.687,11.687,0,0,0-.736,2.674.421.421,0,0,0,.007.091l0,.009c.1.271.578.541,1.087.826.167.093.339.19.515.3a21.28,21.28,0,0,1,3.756,3.206,16.406,16.406,0,0,0,3.448,2.9c.027-.092.053-.194.073-.27.146-.548.511-1.541.935-2.691.407-1.1.868-2.357,1.208-3.416A7,7,0,0,0,53.842,53.686Z" transform="translate(-12.791 -15.426)"/>
        <path id="Trazado_115782" data-name="Trazado 115782" d="M53.687,55.628a1.558,1.558,0,0,1,.965.332,1.562,1.562,0,1,1-2.193.258l0,0A1.571,1.571,0,0,1,53.687,55.628Zm0,1.824a.253.253,0,0,0,.2-.1l.005-.007a.262.262,0,0,0,.057-.2.249.249,0,0,0-.093-.169.268.268,0,0,0-.166-.057.276.276,0,0,0-.213.1.254.254,0,0,0-.051.185.263.263,0,0,0,.1.177l.006,0A.246.246,0,0,0,53.684,57.452Z" transform="translate(-16.199 -17.275)"/>
        <path id="Trazado_115783" data-name="Trazado 115783" d="M17.025,36.948a.647.647,0,0,1-.328-.089l-.263-.152a30,30,0,0,1-3.853-2.548A8.585,8.585,0,0,1,10.8,32.306a2.393,2.393,0,0,1-.383-2.259.65.65,0,1,1,1.207.484c-.226.564.42,1.518,1.772,2.619a28.854,28.854,0,0,0,3.682,2.43l.272.158a.65.65,0,0,1-.33,1.211Z" transform="translate(-3.356 -9.297)"/>
        <path id="Trazado_115784" data-name="Trazado 115784" d="M26.742,44.269a.65.65,0,0,1-.627-.479c-.432-1.586-1.579-5.8-2.85-7.69a23.841,23.841,0,0,0-6.418-5.445c-2.221-1.287-3.963-1.687-4.778-1.1a1.08,1.08,0,0,0-.4.452.65.65,0,0,1-1.212-.47,2.333,2.333,0,0,1,.849-1.035c1.3-.945,3.387-.6,6.192,1.026a24.932,24.932,0,0,1,6.845,5.846c1.231,1.834,2.263,5.277,3.024,8.073a.651.651,0,0,1-.628.821Z" transform="translate(-3.396 -8.791)"/>
        <path id="Trazado_115785" data-name="Trazado 115785" d="M14.9,42.352a.65.65,0,0,1-.6-.388C12.6,38.1,10.85,37.2,8.818,36.156a13.356,13.356,0,0,1-4.5-3.327C3.05,31.359,1.638,27.277.863,24.106a29.377,29.377,0,0,1-.841-5.044c-.1-1.787.136-2.869.756-3.406A2.087,2.087,0,0,1,2.4,15.122a4.214,4.214,0,0,1,2.581,1.8,22.135,22.135,0,0,1,3.535,8.83.649.649,0,0,1,0,.07v.008a.65.65,0,0,1-1.3.038A20.921,20.921,0,0,0,3.94,17.7a2.981,2.981,0,0,0-1.681-1.288.789.789,0,0,0-.629.223c-.044.038-.422.424-.31,2.349A28.092,28.092,0,0,0,2.126,23.8c.89,3.639,2.225,7.081,3.176,8.184A12.1,12.1,0,0,0,9.412,35a11.236,11.236,0,0,1,6.082,6.44.65.65,0,0,1-.595.912Z" transform="translate(-0.2 -4.838)"/>
        <path id="Trazado_115786" data-name="Trazado 115786" d="M29.1,49.6h.07a2.145,2.145,0,0,1,2.254,1.6l0,.013c.044.134.1.307.175.507a11.123,11.123,0,0,1,.789,3.066,1.582,1.582,0,0,1-.076.524,3.175,3.175,0,0,1-1.663,1.52c-.164.092-.333.186-.5.285a20.312,20.312,0,0,0-3.513,3.015,16.471,16.471,0,0,1-3.883,3.189,1.478,1.478,0,0,1-.655.176.988.988,0,0,1-.9-.578,3.7,3.7,0,0,1-.254-.747l0-.007c-.129-.493-.512-1.533-.917-2.634-1.478-4.012-1.955-5.564-1.688-6.278l0-.01a3.077,3.077,0,0,1,1.913-1.555A39.254,39.254,0,0,1,29.1,49.6Zm.039,1.3H29.1a38.121,38.121,0,0,0-8.352,1.99c-.8.322-1.084.606-1.175.8A7.127,7.127,0,0,0,20.06,55.7c.336,1.046.793,2.288,1.2,3.384.435,1.18.81,2.2.955,2.755.023.087.049.183.074.269a16.4,16.4,0,0,0,3.445-2.9A21.212,21.212,0,0,1,29.49,56c.18-.109.359-.209.532-.306.478-.268.972-.544,1.067-.806a.635.635,0,0,0,.006-.1,11.483,11.483,0,0,0-.716-2.634c-.072-.2-.134-.38-.182-.526C30.054,51.219,29.947,50.926,29.142,50.9Z" transform="translate(-5.809 -15.426)"/>
        <path id="Trazado_115787" data-name="Trazado 115787" d="M24.606,55.628h0a1.567,1.567,0,0,1,1.556,1.752,1.53,1.53,0,0,1-.579,1.031,1.562,1.562,0,0,1-2.192-.242l0-.006a1.561,1.561,0,0,1,1.22-2.535Zm0,1.824a.258.258,0,0,0,.163-.058l.007-.006a.236.236,0,0,0,.091-.162.267.267,0,0,0-.057-.2.263.263,0,0,0-.208-.1.258.258,0,0,0-.161.056.263.263,0,0,0,.165.469Z" transform="translate(-7.275 -17.275)"/>
        <path id="Línea_142" data-name="Línea 142" d="M0,8.079a.65.65,0,0,1-.65-.65V0A.65.65,0,0,1,0-.65.65.65,0,0,1,.65,0V7.429A.65.65,0,0,1,0,8.079Z" transform="translate(13.717 4.455)"/>
        <path id="Línea_143" data-name="Línea 143" d="M19.4.65H0A.65.65,0,0,1-.65,0,.65.65,0,0,1,0-.65H19.4a.65.65,0,0,1,.65.65A.65.65,0,0,1,19.4.65Z" transform="translate(17.724 15.89)"/>
        <path id="Línea_144" data-name="Línea 144" d="M0,8.079a.65.65,0,0,1-.65-.65V0A.65.65,0,0,1,0-.65.65.65,0,0,1,.65,0V7.429A.65.65,0,0,1,0,8.079Z" transform="translate(41.133 4.455)"/>
        <path id="Línea_145" data-name="Línea 145" d="M19.4.65H0A.65.65,0,0,1-.65,0,.65.65,0,0,1,0-.65H19.4a.65.65,0,0,1,.65.65A.65.65,0,0,1,19.4.65Z" transform="translate(17.724 0.451)"/>
        <path id="Trazado_115788" data-name="Trazado 115788" d="M53.572,0h4.005a.65.65,0,0,1,.65.65v4a.65.65,0,0,1-.65.65A4.66,4.66,0,0,1,52.922.65.65.65,0,0,1,53.572,0Zm3.355,1.3H54.285a3.365,3.365,0,0,0,2.642,2.641Z" transform="translate(-16.444 -0.199)"/>
        <path id="Trazado_115789" data-name="Trazado 115789" d="M19.792,0H23.8a.65.65,0,0,1,.65.65A4.661,4.661,0,0,1,19.792,5.3a.65.65,0,0,1-.65-.65v-4A.65.65,0,0,1,19.792,0Zm3.294,1.3H20.442V3.941A3.366,3.366,0,0,0,23.086,1.3Z" transform="translate(-6.075 -0.199)"/>
        <path id="Trazado_115790" data-name="Trazado 115790" d="M23.8,21.8H19.792a.65.65,0,0,1-.65-.65V17.147a.65.65,0,0,1,.65-.65,4.662,4.662,0,0,1,4.657,4.656A.65.65,0,0,1,23.8,21.8Zm-3.357-1.3h2.644a3.366,3.366,0,0,0-2.644-2.643Z" transform="translate(-6.075 -5.263)"/>
        <path id="Trazado_115791" data-name="Trazado 115791" d="M57.577,21.8H53.572a.65.65,0,0,1-.65-.65A4.661,4.661,0,0,1,57.577,16.5a.65.65,0,0,1,.65.65v4.006A.65.65,0,0,1,57.577,21.8Zm-3.292-1.3h2.642V17.86A3.365,3.365,0,0,0,54.285,20.5Z" transform="translate(-16.444 -5.263)"/>
        <path id="Trazado_115792" data-name="Trazado 115792" d="M37.543,4.529a5.233,5.233,0,1,1-5.23,5.23A5.24,5.24,0,0,1,37.543,4.529Zm0,9.167a3.933,3.933,0,1,0-3.93-3.937A3.941,3.941,0,0,0,37.543,13.7Z" transform="translate(-10.118 -1.59)"/>
      </g>
    </g>
  </g>
</svg>
