<svg xmlns="http://www.w3.org/2000/svg" xmlns:xlink="http://www.w3.org/1999/xlink" width="190.5" height="170.463" viewBox="0 0 190.5 170.463">
  <defs>
    <clipPath id="clip-path">
      <rect id="Rectángulo_34103" data-name="Rectángulo 34103" width="49.521" height="58.508" fill="none"/>
    </clipPath>
  </defs>
  <g id="Grupo_717817" data-name="Grupo 717817" transform="translate(-1124.75 -2605.858)">
    <g id="Grupo_80992" data-name="Grupo 80992">
      <path id="Trazado_115755" data-name="Trazado 115755" d="M1525.017,560.227h-.563a1.351,1.351,0,1,1,0-2.7h.563a1.351,1.351,0,0,1,0,2.7" transform="translate(-312.022 2216.095)" fill="#afafaf"/>
      <g id="Grupo_80990" data-name="Grupo 80990" transform="translate(1124.75 2605.858)">
        <path id="Trazado_115746" data-name="Trazado 115746" d="M1254.165,82.119h-2.252V37.959a27.255,27.255,0,0,1,27.224-27.224h57.833v2.252h-57.833a25.066,25.066,0,0,0-19.034,8.824,24.685,24.685,0,0,0-5.938,16.148Z" transform="translate(-1250.499 -10.735)" fill="#afafaf"/>
        <path id="Trazado_115747" data-name="Trazado 115747" d="M1252.38,237.412a2.54,2.54,0,1,1-2.54-2.54,2.54,2.54,0,0,1,2.54,2.54" transform="translate(-1247.3 -166.155)" fill="#afafaf"/>
        <rect id="Rectángulo_34007" data-name="Rectángulo 34007" width="2.252" height="44.16" transform="translate(1.414 98.73)" fill="#afafaf"/>
        <path id="Trazado_115748" data-name="Trazado 115748" d="M1252.38,327.438a2.54,2.54,0,1,0-2.54,2.54,2.54,2.54,0,0,0,2.54-2.54" transform="translate(-1247.3 -228.581)" fill="#afafaf"/>
        <path id="Trazado_115750" data-name="Trazado 115750" d="M1330.587,527h-1.123a1.351,1.351,0,0,1,0-2.7h1.123a1.351,1.351,0,1,1,0,2.7m-12.353,0h-1.123a1.351,1.351,0,0,1,0-2.7h1.123a1.351,1.351,0,0,1,0,2.7m-12.353,0h-1.123a1.351,1.351,0,1,1,0-2.7h1.123a1.351,1.351,0,0,1,0,2.7m-12.354,0H1292.4a1.351,1.351,0,0,1,0-2.7h1.123a1.351,1.351,0,1,1,0,2.7m-12.342-.214a1.4,1.4,0,0,1-.174-.011c-.387-.05-.78-.109-1.167-.176a1.351,1.351,0,0,1,.459-2.663c.35.06.7.114,1.053.159a1.351,1.351,0,0,1-.171,2.692m-11.428-4.377a1.344,1.344,0,0,1-.766-.239c-.323-.223-.645-.455-.958-.69a1.351,1.351,0,1,1,1.627-2.158c.282.213.573.422.865.623a1.351,1.351,0,0,1-.768,2.464m-8.177-9.1a1.35,1.35,0,0,1-1.19-.708c-.186-.343-.367-.7-.539-1.049a1.351,1.351,0,1,1,2.43-1.183c.155.319.318.637.486.946a1.351,1.351,0,0,1-1.187,1.994" transform="translate(-1255.909 -356.657)" fill="#afafaf"/>
        <path id="Trazado_115751" data-name="Trazado 115751" d="M1252.535,475.665a1.351,1.351,0,0,1-1.35-1.323c0-.2-.006-.394-.006-.592a1.351,1.351,0,0,1,2.7,0q0,.268.005.534a1.351,1.351,0,0,1-1.322,1.38h-.029" transform="translate(-1249.99 -330.861)" fill="#afafaf"/>
      </g>
    </g>
    <path id="Rectángulo_34097" data-name="Rectángulo 34097" d="M0,0H68A17,17,0,0,1,85,17V149a17,17,0,0,1-17,17H0a0,0,0,0,1,0,0V0A0,0,0,0,1,0,0Z" transform="translate(1230.25 2608.858)" fill="#afafaf"/>
    <rect id="Rectángulo_34098" data-name="Rectángulo 34098" width="163.5" height="147" rx="10" transform="translate(1142 2617.858)" fill="#e8e8e8"/>
    <g id="Grupo_80989" data-name="Grupo 80989" transform="translate(1158.985 2627.858)">
      <path id="Trazado_469006" data-name="Trazado 469006" d="M23.495,14.667a4.673,4.673,0,0,1-.721,2.36,4.35,4.35,0,0,1-1.85,1.586,6.3,6.3,0,0,1-2.72.563,5.025,5.025,0,0,1-3.973-1.644,6.786,6.786,0,0,1-1.45-4.641v-.633a7.746,7.746,0,0,1,.655-3.292,4.961,4.961,0,0,1,1.885-2.18,5.26,5.26,0,0,1,2.848-.769,5.516,5.516,0,0,1,3.744,1.226,4.844,4.844,0,0,1,1.608,3.379H20.445a2.292,2.292,0,0,0-.589-1.679,2.422,2.422,0,0,0-1.687-.51,1.843,1.843,0,0,0-1.687.861,5.536,5.536,0,0,0-.562,2.751v.905a6.126,6.126,0,0,0,.514,2.927,1.882,1.882,0,0,0,1.771.879,2.369,2.369,0,0,0,1.626-.5,2.126,2.126,0,0,0,.6-1.591Zm.949-.51A5.613,5.613,0,0,1,25,11.622a3.96,3.96,0,0,1,1.591-1.709,4.791,4.791,0,0,1,2.435-.6,4.373,4.373,0,0,1,3.366,1.323,5.076,5.076,0,0,1,1.23,3.6v.105a4.925,4.925,0,0,1-1.235,3.529,4.384,4.384,0,0,1-3.344,1.305,4.434,4.434,0,0,1-3.261-1.217,4.761,4.761,0,0,1-1.327-3.3Zm2.962.185a3.538,3.538,0,0,0,.413,1.934,1.376,1.376,0,0,0,1.222.615q1.582,0,1.617-2.435v-.3q0-2.558-1.635-2.558-1.485,0-1.608,2.206ZM37.645,9.49l.1,1.116a3.225,3.225,0,0,1,2.716-1.292,2.713,2.713,0,0,1,2.219.888,4.226,4.226,0,0,1,.76,2.672V19H40.466V13a1.6,1.6,0,0,0-.29-1.059,1.342,1.342,0,0,0-1.055-.338,1.413,1.413,0,0,0-1.292.686V19H34.868V9.49ZM48.526,7.126V9.49H50.09v2.057H48.526V15.9a1.111,1.111,0,0,0,.193.747,1.037,1.037,0,0,0,.765.211,4.345,4.345,0,0,0,.738-.053v2.118a5.466,5.466,0,0,1-1.67.255,3.1,3.1,0,0,1-2.259-.721,2.954,2.954,0,0,1-.729-2.188v-4.72H44.351V9.49h1.213V7.126Zm8.481,5.045-.976-.07a1.752,1.752,0,0,0-1.793.879V19H51.277V9.49h2.777l.1,1.222a2.294,2.294,0,0,1,2.083-1.4,2.888,2.888,0,0,1,.826.105ZM63.168,19a3.344,3.344,0,0,1-.281-.853A2.754,2.754,0,0,1,60.6,19.176a3.374,3.374,0,0,1-2.285-.813,2.588,2.588,0,0,1-.94-2.043,2.66,2.66,0,0,1,1.143-2.338,5.821,5.821,0,0,1,3.322-.791h.914v-.5q0-1.316-1.134-1.316a.927.927,0,0,0-1.055,1.042H57.6a2.655,2.655,0,0,1,1.173-2.239,4.931,4.931,0,0,1,2.993-.86,4.323,4.323,0,0,1,2.874.888,3.086,3.086,0,0,1,1.081,2.435v4.21a4.311,4.311,0,0,0,.4,2V19Zm-1.854-1.934a1.652,1.652,0,0,0,.918-.237,1.487,1.487,0,0,0,.523-.536V14.772h-.861q-1.547,0-1.547,1.389a.848.848,0,0,0,.272.655A.986.986,0,0,0,61.314,17.066Zm9.5-9.94V9.49h1.564v2.057H70.815V15.9a1.111,1.111,0,0,0,.193.747,1.037,1.037,0,0,0,.765.211,4.345,4.345,0,0,0,.738-.053v2.118a5.466,5.466,0,0,1-1.67.255,3.1,3.1,0,0,1-2.259-.721,2.954,2.954,0,0,1-.729-2.188v-4.72H66.64V9.49h1.213V7.126ZM78.9,19a3.344,3.344,0,0,1-.281-.853,2.754,2.754,0,0,1-2.285,1.028,3.374,3.374,0,0,1-2.285-.813,2.588,2.588,0,0,1-.94-2.043,2.66,2.66,0,0,1,1.143-2.338,5.821,5.821,0,0,1,3.322-.791h.914v-.5q0-1.316-1.134-1.316A.927.927,0,0,0,76.3,12.413H73.337a2.655,2.655,0,0,1,1.173-2.239,4.931,4.931,0,0,1,2.993-.86,4.323,4.323,0,0,1,2.874.888,3.086,3.086,0,0,1,1.081,2.435v4.21a4.311,4.311,0,0,0,.4,2V19Zm-1.854-1.934a1.652,1.652,0,0,0,.918-.237,1.487,1.487,0,0,0,.523-.536V14.772h-.861q-1.547,0-1.547,1.389a.848.848,0,0,0,.272.655A.986.986,0,0,0,77.046,17.066Zm10.072-.176a1.317,1.317,0,0,0,.967-.338,1.241,1.241,0,0,0,.334-.945H91.2a3.288,3.288,0,0,1-1.121,2.566,4.168,4.168,0,0,1-2.887,1,4.22,4.22,0,0,1-3.27-1.3,5.125,5.125,0,0,1-1.2-3.6v-.123a5.792,5.792,0,0,1,.532-2.544,3.872,3.872,0,0,1,1.534-1.7,4.573,4.573,0,0,1,2.373-.593,4.116,4.116,0,0,1,2.944,1.028,3.647,3.647,0,0,1,1.09,2.786H88.419A1.626,1.626,0,0,0,88.059,12a1.244,1.244,0,0,0-.967-.4q-1.151,0-1.345,1.468a10.357,10.357,0,0,0-.062,1.283,4.068,4.068,0,0,0,.343,1.986A1.187,1.187,0,0,0,87.119,16.891ZM95.574,19H92.6V9.49h2.971ZM92.427,7.038A1.322,1.322,0,0,1,92.884,6a1.943,1.943,0,0,1,2.373,0,1.322,1.322,0,0,1,.457,1.037,1.322,1.322,0,0,1-.457,1.037,1.943,1.943,0,0,1-2.373,0A1.322,1.322,0,0,1,92.427,7.038Zm4.6,7.119a5.613,5.613,0,0,1,.554-2.536,3.96,3.96,0,0,1,1.591-1.709,4.791,4.791,0,0,1,2.435-.6,4.373,4.373,0,0,1,3.366,1.323,5.076,5.076,0,0,1,1.23,3.6v.105a4.925,4.925,0,0,1-1.235,3.529,4.384,4.384,0,0,1-3.344,1.305,4.434,4.434,0,0,1-3.261-1.217,4.761,4.761,0,0,1-1.327-3.3Zm2.962.185a3.538,3.538,0,0,0,.413,1.934,1.376,1.376,0,0,0,1.222.615q1.582,0,1.617-2.435v-.3q0-2.558-1.635-2.558-1.485,0-1.608,2.206ZM102.007,5.5h3.129l-2.443,2.76-2.417,0Zm8.218,3.99.1,1.116a3.225,3.225,0,0,1,2.716-1.292,2.713,2.713,0,0,1,2.219.888,4.226,4.226,0,0,1,.76,2.672V19h-2.971V13a1.6,1.6,0,0,0-.29-1.059A1.342,1.342,0,0,0,111.7,11.6a1.413,1.413,0,0,0-1.292.686V19h-2.962V9.49Z" transform="translate(0)" fill="#12263f"/>
    </g>
    <g id="Grupo_80991" data-name="Grupo 80991" transform="translate(1158.985 2648.028)">
      <path id="Trazado_469007" data-name="Trazado 469007" d="M5.443,10.249a9.814,9.814,0,0,1,.384-2.755,8,8,0,0,1,1.146-2.4A4.874,4.874,0,0,1,8.553,3.571l.241.774a5.056,5.056,0,0,0-1.52,2.171,9.411,9.411,0,0,0-.651,3.269l-.006.54a9.46,9.46,0,0,0,.9,4.253,5.079,5.079,0,0,0,1.282,1.688l-.241.717a5.031,5.031,0,0,1-1.612-1.574A8.823,8.823,0,0,1,5.443,10.249ZM11.207,14H10.032V4.25h1.174Zm4.729.127a3,3,0,0,1-2.272-.917,3.4,3.4,0,0,1-.876-2.453v-.216a4.121,4.121,0,0,1,.39-1.825A3.045,3.045,0,0,1,14.27,7.459,2.745,2.745,0,0,1,15.79,7a2.572,2.572,0,0,1,2.082.882,3.82,3.82,0,0,1,.743,2.526V10.9H13.962a2.441,2.441,0,0,0,.594,1.641A1.866,1.866,0,0,0,16,13.168a2.045,2.045,0,0,0,1.054-.254,2.648,2.648,0,0,0,.755-.673l.717.559A2.884,2.884,0,0,1,15.936,14.127ZM15.79,7.97a1.566,1.566,0,0,0-1.193.517,2.515,2.515,0,0,0-.6,1.45h3.44V9.849a2.237,2.237,0,0,0-.482-1.387A1.475,1.475,0,0,0,15.79,7.97Zm3.9,2.539a4.037,4.037,0,0,1,.743-2.555,2.56,2.56,0,0,1,3.929-.06l.057-.762H25.5v6.7a2.794,2.794,0,0,1-.79,2.1,2.916,2.916,0,0,1-2.123.768,3.532,3.532,0,0,1-1.454-.317,2.5,2.5,0,0,1-1.085-.87l.609-.7a2.3,2.3,0,0,0,1.847.933,1.8,1.8,0,0,0,1.336-.482,1.844,1.844,0,0,0,.479-1.358v-.59a2.414,2.414,0,0,1-1.923.813,2.346,2.346,0,0,1-1.952-.971A4.244,4.244,0,0,1,19.694,10.509Zm1.181.133a3.08,3.08,0,0,0,.476,1.825,1.547,1.547,0,0,0,1.333.663,1.72,1.72,0,0,0,1.631-1.009V8.985A1.74,1.74,0,0,0,22.7,8a1.561,1.561,0,0,0-1.339.667A3.354,3.354,0,0,0,20.874,10.642ZM28.542,14H27.368V7.132h1.174Zm-1.27-8.69a.7.7,0,0,1,.175-.482.655.655,0,0,1,.517-.2.666.666,0,0,1,.521.2.694.694,0,0,1,.178.482.671.671,0,0,1-.178.476.678.678,0,0,1-.521.19.667.667,0,0,1-.517-.19A.678.678,0,0,1,27.273,5.31Zm7.147,6.868a.865.865,0,0,0-.359-.74,3.452,3.452,0,0,0-1.25-.454,5.912,5.912,0,0,1-1.416-.457,2.014,2.014,0,0,1-.774-.635,1.518,1.518,0,0,1-.251-.876,1.782,1.782,0,0,1,.714-1.428A2.789,2.789,0,0,1,32.909,7a2.87,2.87,0,0,1,1.895.6,1.915,1.915,0,0,1,.727,1.542H34.35a1.06,1.06,0,0,0-.409-.832,1.534,1.534,0,0,0-1.031-.349,1.605,1.605,0,0,0-1,.279.879.879,0,0,0-.362.73.712.712,0,0,0,.336.641,4.139,4.139,0,0,0,1.216.413,6.334,6.334,0,0,1,1.425.47,2.079,2.079,0,0,1,.809.657,1.615,1.615,0,0,1,.263.936,1.758,1.758,0,0,1-.736,1.476,3.089,3.089,0,0,1-1.911.555,3.459,3.459,0,0,1-1.46-.292,2.375,2.375,0,0,1-.993-.816,1.966,1.966,0,0,1-.359-1.133H31.31a1.216,1.216,0,0,0,.473.936,1.835,1.835,0,0,0,1.165.346,1.894,1.894,0,0,0,1.07-.27A.829.829,0,0,0,34.42,12.178ZM38.4,14H37.226V4.25H38.4Zm6.119,0a2.467,2.467,0,0,1-.165-.724,2.62,2.62,0,0,1-1.955.851,2.424,2.424,0,0,1-1.666-.574,1.859,1.859,0,0,1-.651-1.457,1.942,1.942,0,0,1,.816-1.666,3.846,3.846,0,0,1,2.295-.594h1.143V9.3a1.319,1.319,0,0,0-.368-.981,1.48,1.48,0,0,0-1.085-.365,1.712,1.712,0,0,0-1.054.317.935.935,0,0,0-.425.768H40.222a1.621,1.621,0,0,1,.365-.993,2.491,2.491,0,0,1,.99-.759A3.331,3.331,0,0,1,42.951,7a2.715,2.715,0,0,1,1.86.594,2.141,2.141,0,0,1,.7,1.635v3.161a3.865,3.865,0,0,0,.241,1.5V14Zm-1.949-.9a2.064,2.064,0,0,0,1.047-.286,1.728,1.728,0,0,0,.717-.743V10.667h-.92q-2.158,0-2.158,1.263a1.069,1.069,0,0,0,.368.863A1.415,1.415,0,0,0,42.571,13.1Zm7.535.063a1.692,1.692,0,0,0,1.1-.381,1.34,1.34,0,0,0,.521-.952h1.111a2.13,2.13,0,0,1-.406,1.124,2.676,2.676,0,0,1-1,.851,2.885,2.885,0,0,1-1.323.317,2.829,2.829,0,0,1-2.231-.936,3.729,3.729,0,0,1-.828-2.561v-.2a4.135,4.135,0,0,1,.368-1.784,2.8,2.8,0,0,1,1.057-1.212A3,3,0,0,1,50.1,7a2.755,2.755,0,0,1,1.92.692,2.473,2.473,0,0,1,.816,1.8H51.724a1.618,1.618,0,0,0-.5-1.095A1.57,1.57,0,0,0,50.1,7.97a1.644,1.644,0,0,0-1.387.644,3.026,3.026,0,0,0-.492,1.863V10.7a2.965,2.965,0,0,0,.489,1.828A1.651,1.651,0,0,0,50.105,13.168ZM55.431,14H54.257V7.132h1.174Zm-1.27-8.69a.7.7,0,0,1,.175-.482.655.655,0,0,1,.517-.2.666.666,0,0,1,.521.2.694.694,0,0,1,.178.482.671.671,0,0,1-.178.476.678.678,0,0,1-.521.19.667.667,0,0,1-.517-.19A.678.678,0,0,1,54.161,5.31ZM57,10.5a4.057,4.057,0,0,1,.4-1.815,2.96,2.96,0,0,1,1.1-1.244A3.007,3.007,0,0,1,60.115,7a2.9,2.9,0,0,1,2.269.971,3.736,3.736,0,0,1,.866,2.583v.083a4.092,4.092,0,0,1-.384,1.8,2.916,2.916,0,0,1-1.1,1.241,3.041,3.041,0,0,1-1.641.444,2.889,2.889,0,0,1-2.263-.971A3.718,3.718,0,0,1,57,10.585Zm1.181.14a2.938,2.938,0,0,0,.53,1.834,1.8,1.8,0,0,0,2.841-.01,3.213,3.213,0,0,0,.527-1.965,2.933,2.933,0,0,0-.536-1.831,1.705,1.705,0,0,0-1.425-.7,1.686,1.686,0,0,0-1.4.692A3.189,3.189,0,0,0,58.179,10.642ZM60.649,4.25h1.422l-1.7,1.866-.946,0Zm5.186,2.882L65.873,8A2.5,2.5,0,0,1,67.929,7q2.177,0,2.2,2.457V14H68.951V9.455a1.581,1.581,0,0,0-.34-1.1A1.361,1.361,0,0,0,67.574,8a1.7,1.7,0,0,0-1,.3,2.069,2.069,0,0,0-.673.8V14H64.724V7.132Zm6.024,8.709-.667-.457a3.063,3.063,0,0,0,.622-1.714V12.61h1.149v.92a2.891,2.891,0,0,1-.314,1.282A3,3,0,0,1,71.859,15.841Zm11.61-5.2a4.113,4.113,0,0,1-.717,2.526,2.3,2.3,0,0,1-1.942.958,2.519,2.519,0,0,1-1.968-.793v3.307H77.667V7.132H78.74l.057.762A2.419,2.419,0,0,1,80.79,7a2.342,2.342,0,0,1,1.958.933,4.157,4.157,0,0,1,.72,2.6Zm-1.174-.133a3.035,3.035,0,0,0-.5-1.834A1.6,1.6,0,0,0,80.441,8a1.726,1.726,0,0,0-1.6.946v3.282a1.73,1.73,0,0,0,1.612.939A1.587,1.587,0,0,0,81.8,12.5,3.313,3.313,0,0,0,82.294,10.509ZM89.2,14a2.467,2.467,0,0,1-.165-.724,2.62,2.62,0,0,1-1.955.851,2.424,2.424,0,0,1-1.666-.574,1.859,1.859,0,0,1-.651-1.457,1.942,1.942,0,0,1,.816-1.666,3.846,3.846,0,0,1,2.295-.594h1.143V9.3a1.319,1.319,0,0,0-.368-.981,1.48,1.48,0,0,0-1.085-.365,1.712,1.712,0,0,0-1.054.317.935.935,0,0,0-.425.768H84.9a1.621,1.621,0,0,1,.365-.993,2.491,2.491,0,0,1,.99-.759A3.331,3.331,0,0,1,87.633,7a2.715,2.715,0,0,1,1.86.594,2.141,2.141,0,0,1,.7,1.635v3.161a3.865,3.865,0,0,0,.241,1.5V14Zm-1.949-.9a2.064,2.064,0,0,0,1.047-.286,1.728,1.728,0,0,0,.717-.743V10.667H88.1q-2.158,0-2.158,1.263a1.069,1.069,0,0,0,.368.863A1.415,1.415,0,0,0,87.252,13.1Zm8.1-4.919a3.519,3.519,0,0,0-.578-.044,1.547,1.547,0,0,0-1.568.984V14H92.031V7.132h1.143l.019.793A1.829,1.829,0,0,1,94.831,7a1.2,1.2,0,0,1,.521.089ZM100.417,14a2.467,2.467,0,0,1-.165-.724,2.62,2.62,0,0,1-1.955.851,2.424,2.424,0,0,1-1.666-.574A1.859,1.859,0,0,1,95.98,12.1a1.942,1.942,0,0,1,.816-1.666,3.846,3.846,0,0,1,2.295-.594h1.143V9.3a1.319,1.319,0,0,0-.368-.981,1.48,1.48,0,0,0-1.085-.365,1.712,1.712,0,0,0-1.054.317.935.935,0,0,0-.425.768H96.119a1.621,1.621,0,0,1,.365-.993,2.491,2.491,0,0,1,.99-.759A3.331,3.331,0,0,1,98.849,7a2.715,2.715,0,0,1,1.86.594,2.141,2.141,0,0,1,.7,1.635v3.161a3.865,3.865,0,0,0,.241,1.5V14Zm-1.949-.9a2.064,2.064,0,0,0,1.047-.286,1.728,1.728,0,0,0,.717-.743V10.667h-.92q-2.158,0-2.158,1.263a1.069,1.069,0,0,0,.368.863A1.415,1.415,0,0,0,98.468,13.1Zm5.173.9V8.04h-1.085V7.132h1.085V6.548a2.386,2.386,0,0,1,.657-1.79,2.548,2.548,0,0,1,1.857-.641,5.591,5.591,0,0,1,1.8.387l-.2.99a4.069,4.069,0,0,0-1.511-.317,1.478,1.478,0,0,0-1.089.34,1.4,1.4,0,0,0-.333,1.019v.6h1.4V8.04h-1.4V14Zm4.894,0h-1.181V7.132h1.181Zm5.91-1.822a.864.864,0,0,0-.359-.74,3.452,3.452,0,0,0-1.25-.454,5.912,5.912,0,0,1-1.416-.457,2.014,2.014,0,0,1-.774-.635,1.518,1.518,0,0,1-.251-.876,1.782,1.782,0,0,1,.714-1.428A2.789,2.789,0,0,1,112.934,7a2.87,2.87,0,0,1,1.895.6,1.915,1.915,0,0,1,.727,1.542h-1.181a1.06,1.06,0,0,0-.409-.832,1.534,1.534,0,0,0-1.031-.349,1.606,1.606,0,0,0-1,.279.879.879,0,0,0-.362.73.712.712,0,0,0,.336.641,4.139,4.139,0,0,0,1.216.413,6.334,6.334,0,0,1,1.425.47,2.079,2.079,0,0,1,.809.657,1.615,1.615,0,0,1,.263.936,1.758,1.758,0,0,1-.736,1.476,3.089,3.089,0,0,1-1.911.555,3.459,3.459,0,0,1-1.46-.292,2.375,2.375,0,0,1-.993-.816,1.966,1.966,0,0,1-.359-1.133h1.174a1.216,1.216,0,0,0,.473.936,1.835,1.835,0,0,0,1.165.346,1.894,1.894,0,0,0,1.07-.27A.829.829,0,0,0,114.445,12.178Zm5.459.99a1.691,1.691,0,0,0,1.1-.381,1.34,1.34,0,0,0,.521-.952h1.111a2.13,2.13,0,0,1-.406,1.124,2.676,2.676,0,0,1-1,.851,2.885,2.885,0,0,1-1.323.317,2.829,2.829,0,0,1-2.231-.936,3.729,3.729,0,0,1-.828-2.561v-.2a4.135,4.135,0,0,1,.368-1.784,2.8,2.8,0,0,1,1.057-1.212A3,3,0,0,1,119.9,7a2.755,2.755,0,0,1,1.92.692,2.473,2.473,0,0,1,.816,1.8h-1.111a1.618,1.618,0,0,0-.5-1.095,1.57,1.57,0,0,0-1.12-.428,1.644,1.644,0,0,0-1.387.644,3.026,3.026,0,0,0-.492,1.863V10.7a2.966,2.966,0,0,0,.489,1.828A1.651,1.651,0,0,0,119.9,13.168Zm8.29.832a2.467,2.467,0,0,1-.165-.724,2.62,2.62,0,0,1-1.955.851,2.424,2.424,0,0,1-1.666-.574,1.859,1.859,0,0,1-.651-1.457,1.942,1.942,0,0,1,.816-1.666,3.846,3.846,0,0,1,2.295-.594h1.143V9.3a1.319,1.319,0,0,0-.368-.981,1.48,1.48,0,0,0-1.085-.365,1.712,1.712,0,0,0-1.054.317.935.935,0,0,0-.425.768H123.9a1.621,1.621,0,0,1,.365-.993,2.491,2.491,0,0,1,.99-.759A3.331,3.331,0,0,1,126.626,7a2.715,2.715,0,0,1,1.86.594,2.141,2.141,0,0,1,.7,1.635v3.161a3.865,3.865,0,0,0,.241,1.5V14Zm-1.949-.9a2.064,2.064,0,0,0,1.047-.286,1.728,1.728,0,0,0,.717-.743V10.667h-.92q-2.158,0-2.158,1.263a1.069,1.069,0,0,0,.368.863A1.415,1.415,0,0,0,126.245,13.1Zm6.056.9h-1.174V4.25H132.3Zm4.729.127a3,3,0,0,1-2.272-.917,3.4,3.4,0,0,1-.876-2.453v-.216a4.121,4.121,0,0,1,.39-1.825,3.045,3.045,0,0,1,1.092-1.257A2.745,2.745,0,0,1,136.884,7a2.572,2.572,0,0,1,2.082.882,3.82,3.82,0,0,1,.743,2.526V10.9h-4.653a2.441,2.441,0,0,0,.594,1.641,1.866,1.866,0,0,0,1.444.625,2.045,2.045,0,0,0,1.054-.254,2.647,2.647,0,0,0,.755-.673l.717.559A2.884,2.884,0,0,1,137.03,14.127Zm-.146-6.157a1.566,1.566,0,0,0-1.193.517,2.515,2.515,0,0,0-.6,1.45h3.44V9.849a2.237,2.237,0,0,0-.482-1.387A1.475,1.475,0,0,0,136.884,7.97Zm8.182,4.208a.865.865,0,0,0-.359-.74,3.452,3.452,0,0,0-1.25-.454,5.912,5.912,0,0,1-1.416-.457,2.014,2.014,0,0,1-.774-.635,1.518,1.518,0,0,1-.251-.876,1.782,1.782,0,0,1,.714-1.428A2.789,2.789,0,0,1,143.555,7a2.87,2.87,0,0,1,1.895.6,1.915,1.915,0,0,1,.727,1.542H145a1.06,1.06,0,0,0-.409-.832,1.534,1.534,0,0,0-1.031-.349,1.605,1.605,0,0,0-1,.279.879.879,0,0,0-.362.73.712.712,0,0,0,.336.641,4.139,4.139,0,0,0,1.216.413,6.334,6.334,0,0,1,1.425.47,2.079,2.079,0,0,1,.809.657,1.615,1.615,0,0,1,.263.936,1.758,1.758,0,0,1-.736,1.476,3.089,3.089,0,0,1-1.911.555,3.459,3.459,0,0,1-1.46-.292,2.375,2.375,0,0,1-.993-.816,1.966,1.966,0,0,1-.359-1.133h1.174a1.216,1.216,0,0,0,.473.936,1.835,1.835,0,0,0,1.165.346,1.894,1.894,0,0,0,1.07-.27A.829.829,0,0,0,145.066,12.178Zm5.415-1.866a9.819,9.819,0,0,1-.371,2.714,8.024,8.024,0,0,1-1.136,2.4,4.978,4.978,0,0,1-1.6,1.562l-.248-.717a5.1,5.1,0,0,0,1.571-2.326,10.065,10.065,0,0,0,.606-3.5v-.2a10.449,10.449,0,0,0-.279-2.479,8.366,8.366,0,0,0-.778-2.053,4.743,4.743,0,0,0-1.12-1.416l.248-.717a4.959,4.959,0,0,1,1.6,1.549A8.041,8.041,0,0,1,150.1,7.513,10.045,10.045,0,0,1,150.481,10.312Z" transform="translate(-13)" fill="#12263f"/>
    </g>
    <g id="Grupo_81004" data-name="Grupo 81004" transform="translate(1199 2673)">
      <g id="Grupo_81003" data-name="Grupo 81003" transform="translate(0 0)" clip-path="url(#clip-path)">
        <path id="Trazado_115820" data-name="Trazado 115820" d="M9.214,9.307a4.653,4.653,0,1,1,4.658-4.65,4.659,4.659,0,0,1-4.658,4.65m0-8.345a3.691,3.691,0,1,0,3.7,3.694A3.7,3.7,0,0,0,9.214.962" transform="translate(-1.187 0)"/>
        <path id="Trazado_115821" data-name="Trazado 115821" d="M14.411,27.291a1.872,1.872,0,0,1-1.873-1.867v-1.68a.481.481,0,0,1,.962,0v1.68a.919.919,0,0,0,.91.9.968.968,0,0,0,.912-.944l0-6.53a3.972,3.972,0,0,0-3.969-3.966H4.932a3.973,3.973,0,0,0-3.97,3.966V25.43a.906.906,0,0,0,.91.9.919.919,0,0,0,.91-.9v-1.68a.481.481,0,0,1,.962,0v1.68A1.872,1.872,0,0,1,0,25.43V18.855a4.935,4.935,0,0,1,4.932-4.927h6.42a4.935,4.935,0,0,1,4.932,4.927V25.43a1.918,1.918,0,0,1-1.872,1.862" transform="translate(0 -3.627)"/>
        <path id="Trazado_115822" data-name="Trazado 115822" d="M14,32.572H4.244a.481.481,0,0,1-.481-.481V24.623a.481.481,0,0,1,.962,0V31.61h8.793V24.623a.481.481,0,1,1,.961,0v7.469a.481.481,0,0,1-.48.481" transform="translate(-0.98 -6.287)"/>
        <path id="Trazado_115823" data-name="Trazado 115823" d="M10.28,23.963a.481.481,0,0,1-.481-.481V17.753H8.7a.481.481,0,1,1,0-.961h3.168a.481.481,0,1,1,0,.961h-1.1v5.729a.481.481,0,0,1-.481.481" transform="translate(-2.14 -4.373)"/>
        <path id="Trazado_115824" data-name="Trazado 115824" d="M46.083,52.876a4.653,4.653,0,1,1,4.658-4.65,4.658,4.658,0,0,1-4.658,4.65m0-8.345a3.691,3.691,0,1,0,3.7,3.694,3.7,3.7,0,0,0-3.7-3.694" transform="translate(-10.788 -11.346)"/>
        <path id="Trazado_115825" data-name="Trazado 115825" d="M43.283,49.279a4.633,4.633,0,0,1-1.5-.248.481.481,0,1,1,.311-.91,3.685,3.685,0,0,0,1.189.2,3.644,3.644,0,0,0,2.957-1.479.481.481,0,0,1,.686-.089,3.789,3.789,0,0,0,3.106.739.481.481,0,0,1,.2.942,4.761,4.761,0,0,1-3.518-.653,4.67,4.67,0,0,1-3.426,1.5" transform="translate(-10.796 -12.147)"/>
        <path id="Trazado_115826" data-name="Trazado 115826" d="M51.273,70.859a1.872,1.872,0,0,1-1.867-1.872V67.313a.481.481,0,0,1,.962,0v1.674a.909.909,0,0,0,.905.91.962.962,0,0,0,.914-.944l0-6.528a3.97,3.97,0,0,0-3.966-3.966H41.794a3.971,3.971,0,0,0-3.965,3.966V69a.907.907,0,0,0,1.815-.011V67.313a.481.481,0,0,1,.962,0v1.674A1.87,1.87,0,0,1,36.867,69V62.424A4.934,4.934,0,0,1,41.794,57.5h6.425a4.933,4.933,0,0,1,4.928,4.927V69a1.923,1.923,0,0,1-1.874,1.861" transform="translate(-9.601 -14.974)"/>
        <path id="Trazado_115827" data-name="Trazado 115827" d="M50.864,76.141H41.1a.481.481,0,0,1-.481-.481V68.19a.481.481,0,0,1,.962,0v6.989h8.8V68.19a.481.481,0,1,1,.961,0v7.47a.481.481,0,0,1-.481.481" transform="translate(-10.579 -17.633)"/>
        <path id="Trazado_115828" data-name="Trazado 115828" d="M47.144,67.533a.481.481,0,0,1-.481-.481V61.324h-1.1a.481.481,0,0,1,0-.962h3.161a.481.481,0,0,1,0,.962h-1.1v5.728a.481.481,0,0,1-.481.481" transform="translate(-11.741 -15.72)"/>
        <path id="Trazado_115829" data-name="Trazado 115829" d="M33.061,32.494a.482.482,0,0,1-.476-.55l.971-6.632H29.269a.481.481,0,0,1-.481-.481V7.247a.481.481,0,0,1,.481-.481H56.537a.481.481,0,0,1,.481.481V24.83a.481.481,0,0,1-.481.481H41.785l-8.416,7.069a.479.479,0,0,1-.308.113M29.75,24.35h4.361a.481.481,0,0,1,.476.55l-.869,5.931L41.3,24.462a.486.486,0,0,1,.309-.112H56.056V7.727H29.75Z" transform="translate(-7.497 -1.762)"/>
        <path id="Trazado_115830" data-name="Trazado 115830" d="M47.889,11.726H35.873a.481.481,0,0,1,0-.962H47.889a.481.481,0,0,1,0,.962" transform="translate(-9.217 -2.803)"/>
        <path id="Trazado_115831" data-name="Trazado 115831" d="M58.477,11.726H55.454a.481.481,0,0,1,0-.962h3.023a.481.481,0,0,1,0,.962" transform="translate(-14.316 -2.803)"/>
        <path id="Trazado_115832" data-name="Trazado 115832" d="M6.5,5.711A4.6,4.6,0,0,1,5,5.462a.481.481,0,1,1,.312-.91,3.648,3.648,0,0,0,1.186.2A3.661,3.661,0,0,0,9.453,3.268a.487.487,0,0,1,.324-.189.472.472,0,0,1,.361.1A3.688,3.688,0,0,0,12.46,4a3.631,3.631,0,0,0,.773-.078.481.481,0,0,1,.2.939,4.576,4.576,0,0,1-.977.1,4.7,4.7,0,0,1-2.537-.751A4.61,4.61,0,0,1,6.5,5.711" transform="translate(-1.217 -0.801)"/>
        <path id="Trazado_115833" data-name="Trazado 115833" d="M25.334,61.889H10.012a.481.481,0,0,1-.481-.481V37.4a.481.481,0,1,1,.963,0V60.927h14.84a.481.481,0,0,1,0,.962" transform="translate(-2.482 -9.614)"/>
        <path id="Trazado_115834" data-name="Trazado 115834" d="M55.309,15.45H43.287a.481.481,0,0,1,0-.962H55.309a.481.481,0,0,1,0,.962" transform="translate(-11.148 -3.773)"/>
        <path id="Trazado_115835" data-name="Trazado 115835" d="M38.9,15.45H35.873a.481.481,0,0,1,0-.962H38.9a.481.481,0,0,1,0,.962" transform="translate(-9.217 -3.773)"/>
        <path id="Trazado_115836" data-name="Trazado 115836" d="M47.889,19.181H35.873a.481.481,0,0,1,0-.962H47.889a.481.481,0,0,1,0,.962" transform="translate(-9.217 -4.745)"/>
        <path id="Trazado_115837" data-name="Trazado 115837" d="M58.477,19.181H55.454a.481.481,0,0,1,0-.962h3.023a.481.481,0,0,1,0,.962" transform="translate(-14.316 -4.745)"/>
        <path id="Trazado_115838" data-name="Trazado 115838" d="M55.309,22.9H43.287a.481.481,0,0,1,0-.962H55.309a.481.481,0,0,1,0,.962" transform="translate(-11.148 -5.714)"/>
        <path id="Trazado_115839" data-name="Trazado 115839" d="M38.9,22.9H35.873a.481.481,0,0,1,0-.962H38.9a.481.481,0,0,1,0,.962" transform="translate(-9.217 -5.714)"/>
        <path id="Trazado_115840" data-name="Trazado 115840" d="M47.889,26.628H35.873a.481.481,0,0,1,0-.962H47.889a.481.481,0,0,1,0,.962" transform="translate(-9.217 -6.684)"/>
        <path id="Trazado_115841" data-name="Trazado 115841" d="M58.477,26.628H55.454a.481.481,0,0,1,0-.962h3.023a.481.481,0,0,1,0,.962" transform="translate(-14.316 -6.684)"/>
      </g>
    </g>
  </g>
</svg>
