<svg xmlns="http://www.w3.org/2000/svg" xmlns:xlink="http://www.w3.org/1999/xlink" width="190.5" height="170.463" viewBox="0 0 190.5 170.463">
  <defs>
    <clipPath id="clip-path">
      <rect id="Rectángulo_34102" data-name="Rectángulo 34102" width="42.891" height="47.87" fill="none"/>
    </clipPath>
  </defs>
  <g id="Grupo_717816" data-name="Grupo 717816" transform="translate(-914.75 -2605.858)">
    <g id="Grupo_80993" data-name="Grupo 80993">
      <path id="Trazado_115754" data-name="Trazado 115754" d="M1525.017,560.227h-.563a1.351,1.351,0,1,1,0-2.7h.563a1.351,1.351,0,0,1,0,2.7" transform="translate(-522.022 2216.095)" fill="#fe9a2a"/>
      <g id="Grupo_80988" data-name="Grupo 80988" transform="translate(914.75 2605.858)">
        <path id="Trazado_115746" data-name="Trazado 115746" d="M1254.165,82.119h-2.252V37.959a27.255,27.255,0,0,1,27.224-27.224h57.833v2.252h-57.833a25.066,25.066,0,0,0-19.034,8.824,24.685,24.685,0,0,0-5.938,16.148Z" transform="translate(-1250.499 -10.735)" fill="#fe9a2a"/>
        <path id="Trazado_115747" data-name="Trazado 115747" d="M1252.38,237.412a2.54,2.54,0,1,1-2.54-2.54,2.54,2.54,0,0,1,2.54,2.54" transform="translate(-1247.3 -166.155)" fill="#fe9a2a"/>
        <rect id="Rectángulo_34007" data-name="Rectángulo 34007" width="2.252" height="44.16" transform="translate(1.414 98.73)" fill="#fe9a2a"/>
        <path id="Trazado_115748" data-name="Trazado 115748" d="M1252.38,327.438a2.54,2.54,0,1,0-2.54,2.54,2.54,2.54,0,0,0,2.54-2.54" transform="translate(-1247.3 -228.581)" fill="#fe9a2a"/>
        <path id="Trazado_115750" data-name="Trazado 115750" d="M1330.587,527h-1.123a1.351,1.351,0,0,1,0-2.7h1.123a1.351,1.351,0,1,1,0,2.7m-12.353,0h-1.123a1.351,1.351,0,0,1,0-2.7h1.123a1.351,1.351,0,0,1,0,2.7m-12.353,0h-1.123a1.351,1.351,0,1,1,0-2.7h1.123a1.351,1.351,0,0,1,0,2.7m-12.354,0H1292.4a1.351,1.351,0,0,1,0-2.7h1.123a1.351,1.351,0,1,1,0,2.7m-12.342-.214a1.4,1.4,0,0,1-.174-.011c-.387-.05-.78-.109-1.167-.176a1.351,1.351,0,0,1,.459-2.663c.35.06.7.114,1.053.159a1.351,1.351,0,0,1-.171,2.692m-11.428-4.377a1.344,1.344,0,0,1-.766-.239c-.323-.223-.645-.455-.958-.69a1.351,1.351,0,1,1,1.627-2.158c.282.213.573.422.865.623a1.351,1.351,0,0,1-.768,2.464m-8.177-9.1a1.35,1.35,0,0,1-1.19-.708c-.186-.343-.367-.7-.539-1.049a1.351,1.351,0,1,1,2.43-1.183c.155.319.318.637.486.946a1.351,1.351,0,0,1-1.187,1.994" transform="translate(-1255.909 -356.657)" fill="#fe9a2a"/>
        <path id="Trazado_115751" data-name="Trazado 115751" d="M1252.535,475.665a1.351,1.351,0,0,1-1.35-1.323c0-.2-.006-.394-.006-.592a1.351,1.351,0,0,1,2.7,0q0,.268.005.534a1.351,1.351,0,0,1-1.322,1.38h-.029" transform="translate(-1249.99 -330.861)" fill="#fe9a2a"/>
      </g>
    </g>
    <path id="Rectángulo_34095" data-name="Rectángulo 34095" d="M0,0H68A17,17,0,0,1,85,17V149a17,17,0,0,1-17,17H0a0,0,0,0,1,0,0V0A0,0,0,0,1,0,0Z" transform="translate(1020.25 2608.858)" fill="#fe9a2a"/>
    <rect id="Rectángulo_34096" data-name="Rectángulo 34096" width="163.5" height="147" rx="10" transform="translate(932 2617.858)" fill="#e8e8e8"/>
    <g id="Grupo_80987" data-name="Grupo 80987" transform="translate(948.985 2641.858)">
      <path id="Trazado_469005" data-name="Trazado 469005" d="M5.47,19V6.2H9.592a6.064,6.064,0,0,1,3.05.769,5.406,5.406,0,0,1,2.114,2.171,6.554,6.554,0,0,1,.769,3.142v.589a6.592,6.592,0,0,1-.743,3.151A5.429,5.429,0,0,1,12.69,18.2a5.93,5.93,0,0,1-3.01.8ZM8.555,8.585v8.042H9.627a2.4,2.4,0,0,0,2.039-.945,4.63,4.63,0,0,0,.712-2.808V12.32a4.592,4.592,0,0,0-.712-2.795,2.442,2.442,0,0,0-2.074-.94ZM16.6,14.157a5.613,5.613,0,0,1,.554-2.536,3.96,3.96,0,0,1,1.591-1.709,4.791,4.791,0,0,1,2.435-.6,4.373,4.373,0,0,1,3.366,1.323,5.076,5.076,0,0,1,1.23,3.6v.105a4.925,4.925,0,0,1-1.235,3.529,4.384,4.384,0,0,1-3.344,1.305,4.434,4.434,0,0,1-3.261-1.217,4.761,4.761,0,0,1-1.327-3.3Zm2.962.185a3.538,3.538,0,0,0,.413,1.934,1.376,1.376,0,0,0,1.222.615q1.582,0,1.617-2.435v-.3q0-2.558-1.635-2.558-1.485,0-1.608,2.206ZM31.1,16.891a1.317,1.317,0,0,0,.967-.338,1.241,1.241,0,0,0,.334-.945h2.777a3.288,3.288,0,0,1-1.121,2.566,4.168,4.168,0,0,1-2.887,1,4.22,4.22,0,0,1-3.27-1.3,5.125,5.125,0,0,1-1.2-3.6v-.123a5.792,5.792,0,0,1,.532-2.544,3.872,3.872,0,0,1,1.534-1.7,4.573,4.573,0,0,1,2.373-.593,4.116,4.116,0,0,1,2.944,1.028,3.647,3.647,0,0,1,1.09,2.786H32.4A1.626,1.626,0,0,0,32.04,12a1.244,1.244,0,0,0-.967-.4q-1.151,0-1.345,1.468a10.357,10.357,0,0,0-.062,1.283,4.068,4.068,0,0,0,.343,1.986A1.187,1.187,0,0,0,31.1,16.891Zm11,1.081a3.054,3.054,0,0,1-2.54,1.2,3,3,0,0,1-2.369-.91,3.826,3.826,0,0,1-.8-2.615V9.49h2.962v6.179a1.065,1.065,0,0,0,1.187,1.222,1.548,1.548,0,0,0,1.45-.729V9.49h2.979V19H42.182ZM49.38,9.49l.1,1.116a3.27,3.27,0,0,1,2.716-1.292,2.407,2.407,0,0,1,2.435,1.433,3.165,3.165,0,0,1,2.795-1.433q2.892,0,2.971,3.5V19H57.422V13a1.813,1.813,0,0,0-.246-1.063,1.048,1.048,0,0,0-.9-.334,1.4,1.4,0,0,0-1.31.782l.009.123V19H52.008V13.015a1.906,1.906,0,0,0-.237-1.081,1.045,1.045,0,0,0-.905-.334,1.42,1.42,0,0,0-1.3.782V19H46.6V9.49Zm17.306,9.686a4.889,4.889,0,0,1-3.542-1.305,4.507,4.507,0,0,1-1.354-3.4v-.246a5.84,5.84,0,0,1,.541-2.575,3.955,3.955,0,0,1,1.578-1.727,4.763,4.763,0,0,1,2.461-.611,4.117,4.117,0,0,1,3.164,1.244,4.887,4.887,0,0,1,1.16,3.467v1.151H64.805a2.135,2.135,0,0,0,.694,1.257,2.066,2.066,0,0,0,1.389.457,2.662,2.662,0,0,0,2.2-.984l1.354,1.6a3.784,3.784,0,0,1-1.569,1.217A5.3,5.3,0,0,1,66.686,19.176ZM66.352,11.6q-1.3,0-1.547,1.723h2.988v-.229a1.467,1.467,0,0,0-.36-1.1A1.434,1.434,0,0,0,66.352,11.6ZM74.6,9.49l.1,1.116a3.225,3.225,0,0,1,2.716-1.292,2.713,2.713,0,0,1,2.219.888,4.226,4.226,0,0,1,.76,2.672V19H77.426V13a1.6,1.6,0,0,0-.29-1.059,1.342,1.342,0,0,0-1.055-.338,1.413,1.413,0,0,0-1.292.686V19H71.828V9.49ZM85.486,7.126V9.49H87.05v2.057H85.486V15.9a1.111,1.111,0,0,0,.193.747,1.037,1.037,0,0,0,.765.211,4.345,4.345,0,0,0,.738-.053v2.118a5.466,5.466,0,0,1-1.67.255,3.1,3.1,0,0,1-2.259-.721,2.954,2.954,0,0,1-.729-2.188v-4.72H81.311V9.49h1.213V7.126ZM93.572,19a3.344,3.344,0,0,1-.281-.853,2.754,2.754,0,0,1-2.285,1.028,3.374,3.374,0,0,1-2.285-.813,2.588,2.588,0,0,1-.94-2.043,2.66,2.66,0,0,1,1.143-2.338,5.821,5.821,0,0,1,3.322-.791h.914v-.5q0-1.316-1.134-1.316a.927.927,0,0,0-1.055,1.042H88.008a2.655,2.655,0,0,1,1.173-2.239,4.931,4.931,0,0,1,2.993-.86,4.323,4.323,0,0,1,2.874.888,3.086,3.086,0,0,1,1.081,2.435v4.21a4.311,4.311,0,0,0,.4,2V19Zm-1.854-1.934a1.652,1.652,0,0,0,.918-.237,1.487,1.487,0,0,0,.523-.536V14.772H92.3q-1.547,0-1.547,1.389a.848.848,0,0,0,.272.655A.986.986,0,0,0,91.717,17.066Zm10.072-.176a1.317,1.317,0,0,0,.967-.338,1.241,1.241,0,0,0,.334-.945h2.777a3.288,3.288,0,0,1-1.121,2.566,4.168,4.168,0,0,1-2.887,1,4.22,4.22,0,0,1-3.27-1.3,5.125,5.125,0,0,1-1.2-3.6v-.123a5.792,5.792,0,0,1,.532-2.544,3.872,3.872,0,0,1,1.534-1.7,4.573,4.573,0,0,1,2.373-.593,4.116,4.116,0,0,1,2.944,1.028,3.647,3.647,0,0,1,1.09,2.786H103.09A1.626,1.626,0,0,0,102.73,12a1.244,1.244,0,0,0-.967-.4q-1.151,0-1.345,1.468a10.357,10.357,0,0,0-.062,1.283,4.068,4.068,0,0,0,.343,1.986A1.187,1.187,0,0,0,101.79,16.891ZM110.245,19h-2.971V9.49h2.971ZM107.1,7.038A1.322,1.322,0,0,1,107.555,6a1.943,1.943,0,0,1,2.373,0,1.322,1.322,0,0,1,.457,1.037,1.322,1.322,0,0,1-.457,1.037,1.943,1.943,0,0,1-2.373,0A1.322,1.322,0,0,1,107.1,7.038Zm4.6,7.119a5.613,5.613,0,0,1,.554-2.536,3.96,3.96,0,0,1,1.591-1.709,4.791,4.791,0,0,1,2.435-.6,4.373,4.373,0,0,1,3.366,1.323,5.076,5.076,0,0,1,1.23,3.6v.105a4.925,4.925,0,0,1-1.235,3.529,4.384,4.384,0,0,1-3.344,1.305,4.434,4.434,0,0,1-3.261-1.217,4.761,4.761,0,0,1-1.327-3.3Zm2.962.185a3.538,3.538,0,0,0,.413,1.934,1.376,1.376,0,0,0,1.222.615q1.582,0,1.617-2.435v-.3q0-2.558-1.635-2.558-1.485,0-1.608,2.206ZM116.678,5.5h3.129l-2.443,2.76-2.417,0ZM124.9,9.49l.1,1.116a3.225,3.225,0,0,1,2.716-1.292,2.713,2.713,0,0,1,2.219.888,4.226,4.226,0,0,1,.76,2.672V19h-2.971V13a1.6,1.6,0,0,0-.29-1.059,1.342,1.342,0,0,0-1.055-.338,1.413,1.413,0,0,0-1.292.686V19h-2.962V9.49Z" transform="translate(0)" fill="#12263f"/>
    </g>
    <g id="Grupo_81002" data-name="Grupo 81002" transform="translate(992 2679)">
      <g id="Grupo_81001" data-name="Grupo 81001" transform="translate(0 0)" clip-path="url(#clip-path)">
        <path id="Trazado_115803" data-name="Trazado 115803" d="M32.426,49.156H.393A.393.393,0,0,1,0,48.763V3.651a.393.393,0,0,1,.393-.393H32.426a.393.393,0,0,1,.393.393V48.763a.393.393,0,0,1-.393.393M.787,48.37H32.033V4.045H.787Z" transform="translate(0 -1.287)"/>
        <path id="Trazado_115804" data-name="Trazado 115804" d="M61.577,56.055a.392.392,0,0,1-.353-.222l-3.583-7.378a.391.391,0,0,1-.04-.172V22.817a.394.394,0,0,1,.394-.393h7.163a.394.394,0,0,1,.394.393V48.283a.391.391,0,0,1-.04.172l-3.581,7.378a.392.392,0,0,1-.354.222m-3.189-7.862,3.189,6.568,3.188-6.568V23.211H58.388Z" transform="translate(-22.746 -8.855)"/>
        <path id="Trazado_115805" data-name="Trazado 115805" d="M63.25,76.048a.394.394,0,0,1-.354-.221l-1.021-2.1a.393.393,0,0,1,.267-.555,5.289,5.289,0,0,1,2.213,0,.393.393,0,0,1,.266.555l-1.018,2.1a.394.394,0,0,1-.354.221m-.435-2.189.434.895.434-.895a4.837,4.837,0,0,0-.868,0" transform="translate(-24.418 -28.848)"/>
        <path id="Trazado_115806" data-name="Trazado 115806" d="M65.243,64.636a.387.387,0,0,1-.2-.055L63.89,63.9l-.732.632a.4.4,0,0,1-.487.021l-1.153-.83-.795.795a.394.394,0,0,1-.278.115h0a.391.391,0,0,1-.278-.116l-.788-.793-1.153.83a.393.393,0,1,1-.46-.638l1.425-1.026a.392.392,0,0,1,.509.042l.746.751.752-.752a.393.393,0,0,1,.508-.041l1.173.844.712-.614a.393.393,0,0,1,.457-.041l1.4.828a.393.393,0,0,1-.2.732" transform="translate(-22.746 -24.804)"/>
        <path id="Trazado_115807" data-name="Trazado 115807" d="M60.647,47.758a.393.393,0,0,1-.393-.393V22.818a.393.393,0,1,1,.787,0V47.365a.393.393,0,0,1-.393.393" transform="translate(-23.794 -8.856)"/>
        <path id="Trazado_115808" data-name="Trazado 115808" d="M63.627,47.876a.393.393,0,0,1-.393-.392l-.113-24.665a.394.394,0,0,1,.392-.4h0a.394.394,0,0,1,.394.392L64.02,47.48a.394.394,0,0,1-.392.4Z" transform="translate(-24.926 -8.855)"/>
        <path id="Trazado_115809" data-name="Trazado 115809" d="M66.792,48.165a.393.393,0,0,1-.393-.393V22.818a.393.393,0,1,1,.787,0V47.771a.393.393,0,0,1-.393.393" transform="translate(-26.22 -8.856)"/>
        <path id="Trazado_115810" data-name="Trazado 115810" d="M65.158,20.786H57.995a.393.393,0,0,1-.394-.393V18.535a2.255,2.255,0,0,1,2.253-2.253H63.3a2.255,2.255,0,0,1,2.253,2.253v1.858a.393.393,0,0,1-.394.393M58.388,20h6.377V18.535A1.467,1.467,0,0,0,63.3,17.069H59.854a1.467,1.467,0,0,0-1.466,1.466Z" transform="translate(-22.746 -6.43)"/>
        <path id="Trazado_115811" data-name="Trazado 115811" d="M30.557,20.421H9.293a.394.394,0,0,1-.394-.393V14.9a.394.394,0,0,1,.394-.393H30.557a.393.393,0,0,1,.393.393v5.131a.393.393,0,0,1-.393.393M9.686,19.634H30.163V15.289H9.686Z" transform="translate(-3.514 -5.727)"/>
        <path id="Trazado_115812" data-name="Trazado 115812" d="M30.42,29.354H9.945a.393.393,0,1,1,0-.787H30.42a.393.393,0,1,1,0,.787" transform="translate(-3.772 -11.281)"/>
        <path id="Trazado_115813" data-name="Trazado 115813" d="M30.42,34.671H9.945a.393.393,0,1,1,0-.787H30.42a.393.393,0,1,1,0,.787" transform="translate(-3.772 -13.381)"/>
        <path id="Trazado_115814" data-name="Trazado 115814" d="M34.584,39.985H20.49a.393.393,0,1,1,0-.787H34.584a.393.393,0,1,1,0,.787" transform="translate(-7.936 -15.479)"/>
        <path id="Trazado_115815" data-name="Trazado 115815" d="M25.294,45.292H9.945a.393.393,0,1,1,0-.787H25.294a.393.393,0,1,1,0,.787" transform="translate(-3.772 -17.575)"/>
        <path id="Trazado_115816" data-name="Trazado 115816" d="M30.42,50.606H9.945a.393.393,0,1,1,0-.787H30.42a.393.393,0,1,1,0,.787" transform="translate(-3.772 -19.673)"/>
        <path id="Trazado_115817" data-name="Trazado 115817" d="M33.224,55.922H17.047a.393.393,0,1,1,0-.787H33.224a.393.393,0,0,1,0,.787" transform="translate(-6.576 -21.772)"/>
        <path id="Trazado_115818" data-name="Trazado 115818" d="M30.42,61.226H9.945a.393.393,0,1,1,0-.787H30.42a.393.393,0,1,1,0,.787" transform="translate(-3.772 -23.867)"/>
        <path id="Trazado_115819" data-name="Trazado 115819" d="M31.268,4.73a.393.393,0,0,1-.393-.393V.393a.394.394,0,0,1,.787,0V4.336a.393.393,0,0,1-.394.393m-4.232,0a.393.393,0,0,1-.393-.393V.393a.394.394,0,0,1,.787,0V4.336a.393.393,0,0,1-.394.393m-4.229,0a.393.393,0,0,1-.393-.393V.393a.393.393,0,0,1,.787,0V4.336a.393.393,0,0,1-.393.393m-4.23,0a.393.393,0,0,1-.394-.393V.393a.394.394,0,0,1,.787,0V4.336a.393.393,0,0,1-.393.393m-4.23,0a.393.393,0,0,1-.393-.393V.393a.394.394,0,0,1,.787,0V4.336a.393.393,0,0,1-.394.393m-4.23,0a.393.393,0,0,1-.393-.393V.393a.394.394,0,0,1,.787,0V4.336a.393.393,0,0,1-.394.393m-4.231,0a.393.393,0,0,1-.393-.393V.393a.393.393,0,0,1,.787,0V4.336a.393.393,0,0,1-.393.393" transform="translate(-2.169 0)"/>
      </g>
    </g>
  </g>
</svg>
