<svg xmlns="http://www.w3.org/2000/svg" xmlns:xlink="http://www.w3.org/1999/xlink" width="1030.5" height="170.463" viewBox="0 0 1030.5 170.463"><defs><clipPath id="a"><rect width="55.624" height="57.082" fill="none"/></clipPath><clipPath id="b"><rect width="54.826" height="47.871" fill="none"/></clipPath><clipPath id="c"><rect width="48.88" height="49.11" fill="none"/></clipPath><clipPath id="d"><rect width="42.891" height="47.87" fill="none"/></clipPath><clipPath id="e"><rect width="49.521" height="58.508" fill="none"/></clipPath></defs><g transform="translate(-284.75 -2605.858)"><path d="M1525.017,560.227h-.563a1.351,1.351,0,1,1,0-2.7h.563a1.351,1.351,0,0,1,0,2.7" transform="translate(-1152.022 2216.095)" fill="#1dd1ff"/><path d="M1525.017,560.227h-.563a1.351,1.351,0,1,1,0-2.7h.563a1.351,1.351,0,0,1,0,2.7" transform="translate(-731.522 2216.095)" fill="#387db8"/><g transform="translate(284.75 2605.858)"><path d="M1254.165,82.119h-2.252V37.959a27.255,27.255,0,0,1,27.224-27.224h57.833v2.252h-57.833a25.066,25.066,0,0,0-19.034,8.824,24.685,24.685,0,0,0-5.938,16.148Z" transform="translate(-1250.499 -10.735)" fill="#1dd1ff"/><path d="M1252.38,237.412a2.54,2.54,0,1,1-2.54-2.54,2.54,2.54,0,0,1,2.54,2.54" transform="translate(-1247.3 -166.155)" fill="#1dd1ff"/><rect width="2.252" height="44.16" transform="translate(1.414 98.73)" fill="#1dd1ff"/><path d="M1252.38,327.438a2.54,2.54,0,1,0-2.54,2.54,2.54,2.54,0,0,0,2.54-2.54" transform="translate(-1247.3 -228.581)" fill="#1dd1ff"/><path d="M1330.587,527h-1.123a1.351,1.351,0,0,1,0-2.7h1.123a1.351,1.351,0,1,1,0,2.7m-12.353,0h-1.123a1.351,1.351,0,0,1,0-2.7h1.123a1.351,1.351,0,0,1,0,2.7m-12.353,0h-1.123a1.351,1.351,0,1,1,0-2.7h1.123a1.351,1.351,0,0,1,0,2.7m-12.354,0H1292.4a1.351,1.351,0,0,1,0-2.7h1.123a1.351,1.351,0,1,1,0,2.7m-12.342-.214a1.4,1.4,0,0,1-.174-.011c-.387-.05-.78-.109-1.167-.176a1.351,1.351,0,0,1,.459-2.663c.35.06.7.114,1.053.159a1.351,1.351,0,0,1-.171,2.692m-11.428-4.377a1.344,1.344,0,0,1-.766-.239c-.323-.223-.645-.455-.958-.69a1.351,1.351,0,1,1,1.627-2.158c.282.213.573.422.865.623a1.351,1.351,0,0,1-.768,2.464m-8.177-9.1a1.35,1.35,0,0,1-1.19-.708c-.186-.343-.367-.7-.539-1.049a1.351,1.351,0,1,1,2.43-1.183c.155.319.318.637.486.946a1.351,1.351,0,0,1-1.187,1.994" transform="translate(-1255.909 -356.657)" fill="#1dd1ff"/><path d="M1252.535,475.665a1.351,1.351,0,0,1-1.35-1.323c0-.2-.006-.394-.006-.592a1.351,1.351,0,0,1,2.7,0q0,.268.005.534a1.351,1.351,0,0,1-1.322,1.38h-.029" transform="translate(-1249.99 -330.861)" fill="#1dd1ff"/></g><path d="M1525.017,560.227h-.563a1.351,1.351,0,1,1,0-2.7h.563a1.351,1.351,0,0,1,0,2.7" transform="translate(-941.522 2216.095)" fill="#cce951"/><g transform="translate(495.25 2605.858)"><path d="M1254.165,82.119h-2.252V37.959a27.255,27.255,0,0,1,27.224-27.224h57.833v2.252h-57.833a25.066,25.066,0,0,0-19.034,8.824,24.685,24.685,0,0,0-5.938,16.148Z" transform="translate(-1250.499 -10.735)" fill="#cce951"/><path d="M1252.38,237.412a2.54,2.54,0,1,1-2.54-2.54,2.54,2.54,0,0,1,2.54,2.54" transform="translate(-1247.3 -166.155)" fill="#cce951"/><rect width="2.252" height="44.16" transform="translate(1.414 98.73)" fill="#cce951"/><path d="M1252.38,327.438a2.54,2.54,0,1,0-2.54,2.54,2.54,2.54,0,0,0,2.54-2.54" transform="translate(-1247.3 -228.581)" fill="#cce951"/><path d="M1330.587,527h-1.123a1.351,1.351,0,0,1,0-2.7h1.123a1.351,1.351,0,1,1,0,2.7m-12.353,0h-1.123a1.351,1.351,0,0,1,0-2.7h1.123a1.351,1.351,0,0,1,0,2.7m-12.353,0h-1.123a1.351,1.351,0,1,1,0-2.7h1.123a1.351,1.351,0,0,1,0,2.7m-12.354,0H1292.4a1.351,1.351,0,0,1,0-2.7h1.123a1.351,1.351,0,1,1,0,2.7m-12.342-.214a1.4,1.4,0,0,1-.174-.011c-.387-.05-.78-.109-1.167-.176a1.351,1.351,0,0,1,.459-2.663c.35.06.7.114,1.053.159a1.351,1.351,0,0,1-.171,2.692m-11.428-4.377a1.344,1.344,0,0,1-.766-.239c-.323-.223-.645-.455-.958-.69a1.351,1.351,0,1,1,1.627-2.158c.282.213.573.422.865.623a1.351,1.351,0,0,1-.768,2.464m-8.177-9.1a1.35,1.35,0,0,1-1.19-.708c-.186-.343-.367-.7-.539-1.049a1.351,1.351,0,1,1,2.43-1.183c.155.319.318.637.486.946a1.351,1.351,0,0,1-1.187,1.994" transform="translate(-1255.909 -356.657)" fill="#cce951"/><path d="M1252.535,475.665a1.351,1.351,0,0,1-1.35-1.323c0-.2-.006-.394-.006-.592a1.351,1.351,0,0,1,2.7,0q0,.268.005.534a1.351,1.351,0,0,1-1.322,1.38h-.029" transform="translate(-1249.99 -330.861)" fill="#cce951"/></g><g transform="translate(705.25 2605.858)"><path d="M1254.165,82.119h-2.252V37.959a27.255,27.255,0,0,1,27.224-27.224h57.833v2.252h-57.833a25.066,25.066,0,0,0-19.034,8.824,24.685,24.685,0,0,0-5.938,16.148Z" transform="translate(-1250.499 -10.735)" fill="#387db8"/><path d="M1252.38,237.412a2.54,2.54,0,1,1-2.54-2.54,2.54,2.54,0,0,1,2.54,2.54" transform="translate(-1247.3 -166.155)" fill="#387db8"/><rect width="2.252" height="44.16" transform="translate(1.414 98.73)" fill="#387db8"/><path d="M1252.38,327.438a2.54,2.54,0,1,0-2.54,2.54,2.54,2.54,0,0,0,2.54-2.54" transform="translate(-1247.3 -228.581)" fill="#387db8"/><path d="M1330.587,527h-1.123a1.351,1.351,0,0,1,0-2.7h1.123a1.351,1.351,0,1,1,0,2.7m-12.353,0h-1.123a1.351,1.351,0,0,1,0-2.7h1.123a1.351,1.351,0,0,1,0,2.7m-12.353,0h-1.123a1.351,1.351,0,1,1,0-2.7h1.123a1.351,1.351,0,0,1,0,2.7m-12.354,0H1292.4a1.351,1.351,0,0,1,0-2.7h1.123a1.351,1.351,0,1,1,0,2.7m-12.342-.214a1.4,1.4,0,0,1-.174-.011c-.387-.05-.78-.109-1.167-.176a1.351,1.351,0,0,1,.459-2.663c.35.06.7.114,1.053.159a1.351,1.351,0,0,1-.171,2.692m-11.428-4.377a1.344,1.344,0,0,1-.766-.239c-.323-.223-.645-.455-.958-.69a1.351,1.351,0,1,1,1.627-2.158c.282.213.573.422.865.623a1.351,1.351,0,0,1-.768,2.464m-8.177-9.1a1.35,1.35,0,0,1-1.19-.708c-.186-.343-.367-.7-.539-1.049a1.351,1.351,0,1,1,2.43-1.183c.155.319.318.637.486.946a1.351,1.351,0,0,1-1.187,1.994" transform="translate(-1255.909 -356.657)" fill="#387db8"/><path d="M1252.535,475.665a1.351,1.351,0,0,1-1.35-1.323c0-.2-.006-.394-.006-.592a1.351,1.351,0,0,1,2.7,0q0,.268.005.534a1.351,1.351,0,0,1-1.322,1.38h-.029" transform="translate(-1249.99 -330.861)" fill="#387db8"/></g><path d="M1525.017,560.227h-.563a1.351,1.351,0,1,1,0-2.7h.563a1.351,1.351,0,0,1,0,2.7" transform="translate(-522.022 2216.095)" fill="#fe9a2a"/><g transform="translate(914.75 2605.858)"><path d="M1254.165,82.119h-2.252V37.959a27.255,27.255,0,0,1,27.224-27.224h57.833v2.252h-57.833a25.066,25.066,0,0,0-19.034,8.824,24.685,24.685,0,0,0-5.938,16.148Z" transform="translate(-1250.499 -10.735)" fill="#fe9a2a"/><path d="M1252.38,237.412a2.54,2.54,0,1,1-2.54-2.54,2.54,2.54,0,0,1,2.54,2.54" transform="translate(-1247.3 -166.155)" fill="#fe9a2a"/><rect width="2.252" height="44.16" transform="translate(1.414 98.73)" fill="#fe9a2a"/><path d="M1252.38,327.438a2.54,2.54,0,1,0-2.54,2.54,2.54,2.54,0,0,0,2.54-2.54" transform="translate(-1247.3 -228.581)" fill="#fe9a2a"/><path d="M1330.587,527h-1.123a1.351,1.351,0,0,1,0-2.7h1.123a1.351,1.351,0,1,1,0,2.7m-12.353,0h-1.123a1.351,1.351,0,0,1,0-2.7h1.123a1.351,1.351,0,0,1,0,2.7m-12.353,0h-1.123a1.351,1.351,0,1,1,0-2.7h1.123a1.351,1.351,0,0,1,0,2.7m-12.354,0H1292.4a1.351,1.351,0,0,1,0-2.7h1.123a1.351,1.351,0,1,1,0,2.7m-12.342-.214a1.4,1.4,0,0,1-.174-.011c-.387-.05-.78-.109-1.167-.176a1.351,1.351,0,0,1,.459-2.663c.35.06.7.114,1.053.159a1.351,1.351,0,0,1-.171,2.692m-11.428-4.377a1.344,1.344,0,0,1-.766-.239c-.323-.223-.645-.455-.958-.69a1.351,1.351,0,1,1,1.627-2.158c.282.213.573.422.865.623a1.351,1.351,0,0,1-.768,2.464m-8.177-9.1a1.35,1.35,0,0,1-1.19-.708c-.186-.343-.367-.7-.539-1.049a1.351,1.351,0,1,1,2.43-1.183c.155.319.318.637.486.946a1.351,1.351,0,0,1-1.187,1.994" transform="translate(-1255.909 -356.657)" fill="#fe9a2a"/><path d="M1252.535,475.665a1.351,1.351,0,0,1-1.35-1.323c0-.2-.006-.394-.006-.592a1.351,1.351,0,0,1,2.7,0q0,.268.005.534a1.351,1.351,0,0,1-1.322,1.38h-.029" transform="translate(-1249.99 -330.861)" fill="#fe9a2a"/></g><path d="M1525.017,560.227h-.563a1.351,1.351,0,1,1,0-2.7h.563a1.351,1.351,0,0,1,0,2.7" transform="translate(-312.022 2216.095)" fill="#afafaf"/><g transform="translate(1124.75 2605.858)"><path d="M1254.165,82.119h-2.252V37.959a27.255,27.255,0,0,1,27.224-27.224h57.833v2.252h-57.833a25.066,25.066,0,0,0-19.034,8.824,24.685,24.685,0,0,0-5.938,16.148Z" transform="translate(-1250.499 -10.735)" fill="#afafaf"/><path d="M1252.38,237.412a2.54,2.54,0,1,1-2.54-2.54,2.54,2.54,0,0,1,2.54,2.54" transform="translate(-1247.3 -166.155)" fill="#afafaf"/><rect width="2.252" height="44.16" transform="translate(1.414 98.73)" fill="#afafaf"/><path d="M1252.38,327.438a2.54,2.54,0,1,0-2.54,2.54,2.54,2.54,0,0,0,2.54-2.54" transform="translate(-1247.3 -228.581)" fill="#afafaf"/><path d="M1330.587,527h-1.123a1.351,1.351,0,0,1,0-2.7h1.123a1.351,1.351,0,1,1,0,2.7m-12.353,0h-1.123a1.351,1.351,0,0,1,0-2.7h1.123a1.351,1.351,0,0,1,0,2.7m-12.353,0h-1.123a1.351,1.351,0,1,1,0-2.7h1.123a1.351,1.351,0,0,1,0,2.7m-12.354,0H1292.4a1.351,1.351,0,0,1,0-2.7h1.123a1.351,1.351,0,1,1,0,2.7m-12.342-.214a1.4,1.4,0,0,1-.174-.011c-.387-.05-.78-.109-1.167-.176a1.351,1.351,0,0,1,.459-2.663c.35.06.7.114,1.053.159a1.351,1.351,0,0,1-.171,2.692m-11.428-4.377a1.344,1.344,0,0,1-.766-.239c-.323-.223-.645-.455-.958-.69a1.351,1.351,0,1,1,1.627-2.158c.282.213.573.422.865.623a1.351,1.351,0,0,1-.768,2.464m-8.177-9.1a1.35,1.35,0,0,1-1.19-.708c-.186-.343-.367-.7-.539-1.049a1.351,1.351,0,1,1,2.43-1.183c.155.319.318.637.486.946a1.351,1.351,0,0,1-1.187,1.994" transform="translate(-1255.909 -356.657)" fill="#afafaf"/><path d="M1252.535,475.665a1.351,1.351,0,0,1-1.35-1.323c0-.2-.006-.394-.006-.592a1.351,1.351,0,0,1,2.7,0q0,.268.005.534a1.351,1.351,0,0,1-1.322,1.38h-.029" transform="translate(-1249.99 -330.861)" fill="#afafaf"/></g><path d="M0,0H68A17,17,0,0,1,85,17V149a17,17,0,0,1-17,17H0a0,0,0,0,1,0,0V0A0,0,0,0,1,0,0Z" transform="translate(390.25 2608.858)" fill="#1dd1ff"/><path d="M0,0H68A17,17,0,0,1,85,17V149a17,17,0,0,1-17,17H0a0,0,0,0,1,0,0V0A0,0,0,0,1,0,0Z" transform="translate(600.75 2608.858)" fill="#cce951"/><path d="M0,0H68A17,17,0,0,1,85,17V149a17,17,0,0,1-17,17H0a0,0,0,0,1,0,0V0A0,0,0,0,1,0,0Z" transform="translate(810.75 2608.858)" fill="#387db8"/><path d="M0,0H68A17,17,0,0,1,85,17V149a17,17,0,0,1-17,17H0a0,0,0,0,1,0,0V0A0,0,0,0,1,0,0Z" transform="translate(1020.25 2608.858)" fill="#fe9a2a"/><path d="M0,0H68A17,17,0,0,1,85,17V149a17,17,0,0,1-17,17H0a0,0,0,0,1,0,0V0A0,0,0,0,1,0,0Z" transform="translate(1230.25 2608.858)" fill="#afafaf"/><rect width="163.5" height="147" rx="10" transform="translate(302 2617.858)" fill="#e8e8e8"/><rect width="163.5" height="147" rx="10" transform="translate(512 2617.858)" fill="#e8e8e8"/><rect width="163.5" height="147" rx="10" transform="translate(722 2617.858)" fill="#e8e8e8"/><rect width="163.5" height="147" rx="10" transform="translate(932 2617.858)" fill="#e8e8e8"/><rect width="163.5" height="147" rx="10" transform="translate(1142 2617.858)" fill="#e8e8e8"/><g transform="translate(318.985 2641.858)"><path d="M37.5,19H34.428V13.656H29.884V19H26.8V6.2h3.085v5.08h4.544V6.2H37.5Zm7.479-1.028a3.054,3.054,0,0,1-2.54,1.2,3,3,0,0,1-2.369-.91,3.826,3.826,0,0,1-.8-2.615V9.49h2.962v6.179a1.065,1.065,0,0,0,1.187,1.222,1.548,1.548,0,0,0,1.45-.729V9.49H47.84V19H45.063ZM52.261,9.49l.1,1.116a3.27,3.27,0,0,1,2.716-1.292,2.407,2.407,0,0,1,2.435,1.433A3.165,3.165,0,0,1,60.3,9.314q2.892,0,2.971,3.5V19H60.3V13a1.813,1.813,0,0,0-.246-1.063,1.048,1.048,0,0,0-.9-.334,1.4,1.4,0,0,0-1.31.782l.009.123V19H54.889V13.015a1.906,1.906,0,0,0-.237-1.081,1.045,1.045,0,0,0-.905-.334,1.42,1.42,0,0,0-1.3.782V19H49.484V9.49ZM70.323,19a3.344,3.344,0,0,1-.281-.853,2.754,2.754,0,0,1-2.285,1.028,3.374,3.374,0,0,1-2.285-.813,2.588,2.588,0,0,1-.94-2.043,2.66,2.66,0,0,1,1.143-2.338A5.821,5.821,0,0,1,69,13.19h.914v-.5q0-1.316-1.134-1.316a.927.927,0,0,0-1.055,1.042H64.759a2.655,2.655,0,0,1,1.173-2.239,4.931,4.931,0,0,1,2.993-.86A4.323,4.323,0,0,1,71.8,10.2a3.086,3.086,0,0,1,1.081,2.435v4.21a4.311,4.311,0,0,0,.4,2V19Zm-1.854-1.934a1.652,1.652,0,0,0,.918-.237,1.487,1.487,0,0,0,.523-.536V14.772h-.861q-1.547,0-1.547,1.389a.848.848,0,0,0,.272.655A.986.986,0,0,0,68.468,17.066ZM77.24,9.49l.1,1.116a3.225,3.225,0,0,1,2.716-1.292,2.713,2.713,0,0,1,2.219.888,4.226,4.226,0,0,1,.76,2.672V19H80.061V13a1.6,1.6,0,0,0-.29-1.059,1.342,1.342,0,0,0-1.055-.338,1.413,1.413,0,0,0-1.292.686V19H74.462V9.49ZM84.3,14.157a5.613,5.613,0,0,1,.554-2.536,3.96,3.96,0,0,1,1.591-1.709,4.791,4.791,0,0,1,2.435-.6,4.373,4.373,0,0,1,3.366,1.323,5.076,5.076,0,0,1,1.23,3.6v.105a4.925,4.925,0,0,1-1.235,3.529,4.384,4.384,0,0,1-3.344,1.305,4.434,4.434,0,0,1-3.261-1.217,4.761,4.761,0,0,1-1.327-3.3Zm2.962.185a3.538,3.538,0,0,0,.413,1.934,1.376,1.376,0,0,0,1.222.615q1.582,0,1.617-2.435v-.3q0-2.558-1.635-2.558-1.485,0-1.608,2.206Zm12.5,1.986a.684.684,0,0,0-.4-.606,6.016,6.016,0,0,0-1.5-.475,6.853,6.853,0,0,1-1.828-.646,3.062,3.062,0,0,1-1.1-.971,2.319,2.319,0,0,1-.378-1.31,2.628,2.628,0,0,1,1.081-2.158,4.453,4.453,0,0,1,2.83-.848,4.934,4.934,0,0,1,3.023.853,2.666,2.666,0,0,1,1.143,2.241H99.661q0-1.143-1.2-1.143a1.194,1.194,0,0,0-.782.259.8.8,0,0,0-.316.646.737.737,0,0,0,.387.642,3.654,3.654,0,0,0,1.235.4,10.671,10.671,0,0,1,1.49.378,2.706,2.706,0,0,1,2.145,2.646,2.491,2.491,0,0,1-1.156,2.118,5.068,5.068,0,0,1-2.993.817,5.172,5.172,0,0,1-2.18-.439,3.645,3.645,0,0,1-1.494-1.2,2.707,2.707,0,0,1-.536-1.591h2.769a1.145,1.145,0,0,0,.439.962,1.808,1.808,0,0,0,1.081.3,1.422,1.422,0,0,0,.91-.246A.787.787,0,0,0,99.757,16.328Z" transform="translate(0)" fill="#12263f"/></g><g transform="translate(529.485 2641.858)"><path d="M20.616,8.585H16.775V19H13.69V8.585H9.92V6.2h10.7Zm5.766,10.591a4.889,4.889,0,0,1-3.542-1.305,4.507,4.507,0,0,1-1.354-3.4v-.246a5.84,5.84,0,0,1,.541-2.575A3.955,3.955,0,0,1,23.6,9.925a4.763,4.763,0,0,1,2.461-.611,4.117,4.117,0,0,1,3.164,1.244,4.887,4.887,0,0,1,1.16,3.467v1.151H24.5a2.135,2.135,0,0,0,.694,1.257,2.066,2.066,0,0,0,1.389.457,2.662,2.662,0,0,0,2.2-.984l1.354,1.6a3.784,3.784,0,0,1-1.569,1.217A5.3,5.3,0,0,1,26.382,19.176ZM26.048,11.6q-1.3,0-1.547,1.723h2.988v-.229a1.467,1.467,0,0,0-.36-1.1A1.434,1.434,0,0,0,26.048,11.6ZM35.6,16.891a1.317,1.317,0,0,0,.967-.338,1.241,1.241,0,0,0,.334-.945H39.68a3.288,3.288,0,0,1-1.121,2.566,4.168,4.168,0,0,1-2.887,1,4.22,4.22,0,0,1-3.27-1.3,5.125,5.125,0,0,1-1.2-3.6v-.123a5.792,5.792,0,0,1,.532-2.544,3.872,3.872,0,0,1,1.534-1.7,4.573,4.573,0,0,1,2.373-.593,4.116,4.116,0,0,1,2.944,1.028,3.647,3.647,0,0,1,1.09,2.786H36.9A1.626,1.626,0,0,0,36.542,12a1.244,1.244,0,0,0-.967-.4q-1.151,0-1.345,1.468a10.357,10.357,0,0,0-.062,1.283,4.068,4.068,0,0,0,.343,1.986A1.187,1.187,0,0,0,35.6,16.891Zm8.051-7.4.1,1.116a3.225,3.225,0,0,1,2.716-1.292,2.713,2.713,0,0,1,2.219.888,4.226,4.226,0,0,1,.76,2.672V19H46.474V13a1.6,1.6,0,0,0-.29-1.059,1.342,1.342,0,0,0-1.055-.338,1.413,1.413,0,0,0-1.292.686V19H40.875V9.49Zm7.058,4.667a5.613,5.613,0,0,1,.554-2.536,3.96,3.96,0,0,1,1.591-1.709,4.791,4.791,0,0,1,2.435-.6,4.373,4.373,0,0,1,3.366,1.323,5.076,5.076,0,0,1,1.23,3.6v.105a4.925,4.925,0,0,1-1.235,3.529,4.384,4.384,0,0,1-3.344,1.305,4.434,4.434,0,0,1-3.261-1.217,4.761,4.761,0,0,1-1.327-3.3Zm2.962.185a3.538,3.538,0,0,0,.413,1.934,1.376,1.376,0,0,0,1.222.615q1.582,0,1.617-2.435v-.3q0-2.558-1.635-2.558-1.485,0-1.608,2.206ZM64.315,19H61.345V5.5h2.971Zm1.45-4.843a5.613,5.613,0,0,1,.554-2.536A3.96,3.96,0,0,1,67.91,9.912a4.791,4.791,0,0,1,2.435-.6,4.373,4.373,0,0,1,3.366,1.323,5.076,5.076,0,0,1,1.23,3.6v.105a4.925,4.925,0,0,1-1.235,3.529,4.384,4.384,0,0,1-3.344,1.305A4.434,4.434,0,0,1,67.1,17.958a4.761,4.761,0,0,1-1.327-3.3Zm2.962.185a3.538,3.538,0,0,0,.413,1.934,1.376,1.376,0,0,0,1.222.615q1.582,0,1.617-2.435v-.3q0-2.558-1.635-2.558-1.485,0-1.608,2.206ZM70.749,5.5h3.129L71.435,8.26l-2.417,0Zm5.15,8.675a6.421,6.421,0,0,1,.475-2.549,3.821,3.821,0,0,1,1.362-1.709,3.591,3.591,0,0,1,2.065-.6,2.855,2.855,0,0,1,2.32,1l.105-.826h2.689V18.64a4.009,4.009,0,0,1-.584,2.184,3.75,3.75,0,0,1-1.692,1.424,6.219,6.219,0,0,1-2.566.5,5.365,5.365,0,0,1-2.026-.4,3.657,3.657,0,0,1-1.5-1.028l1.239-1.74a2.716,2.716,0,0,0,2.18.976,1.764,1.764,0,0,0,1.969-2.021v-.3a2.781,2.781,0,0,1-2.153.94,3.437,3.437,0,0,1-2.812-1.332A5.517,5.517,0,0,1,75.9,14.28Zm2.971.185a3.383,3.383,0,0,0,.439,1.85,1.387,1.387,0,0,0,1.23.681,1.573,1.573,0,0,0,1.4-.642v-4a1.534,1.534,0,0,0-1.38-.65,1.4,1.4,0,0,0-1.239.708A3.858,3.858,0,0,0,78.87,14.359ZM89.725,19H86.754V9.49h2.971ZM86.578,7.038A1.322,1.322,0,0,1,87.035,6a1.943,1.943,0,0,1,2.373,0,1.322,1.322,0,0,1,.457,1.037,1.322,1.322,0,0,1-.457,1.037,1.943,1.943,0,0,1-2.373,0A1.322,1.322,0,0,1,86.578,7.038Zm8.991,9.853a1.317,1.317,0,0,0,.967-.338,1.241,1.241,0,0,0,.334-.945h2.777a3.288,3.288,0,0,1-1.121,2.566,4.168,4.168,0,0,1-2.887,1,4.22,4.22,0,0,1-3.27-1.3,5.125,5.125,0,0,1-1.2-3.6v-.123a5.792,5.792,0,0,1,.532-2.544,3.872,3.872,0,0,1,1.534-1.7,4.573,4.573,0,0,1,2.373-.593,4.116,4.116,0,0,1,2.944,1.028,3.647,3.647,0,0,1,1.09,2.786H96.87A1.626,1.626,0,0,0,96.51,12a1.244,1.244,0,0,0-.967-.4q-1.151,0-1.345,1.468a10.357,10.357,0,0,0-.062,1.283,4.068,4.068,0,0,0,.343,1.986A1.187,1.187,0,0,0,95.569,16.891Zm4.957-2.733a5.613,5.613,0,0,1,.554-2.536,3.96,3.96,0,0,1,1.591-1.709,4.791,4.791,0,0,1,2.435-.6,4.373,4.373,0,0,1,3.366,1.323,5.076,5.076,0,0,1,1.23,3.6v.105a4.925,4.925,0,0,1-1.235,3.529,4.384,4.384,0,0,1-3.344,1.305,4.434,4.434,0,0,1-3.261-1.217,4.761,4.761,0,0,1-1.327-3.3Zm2.962.185a3.538,3.538,0,0,0,.413,1.934,1.376,1.376,0,0,0,1.222.615q1.582,0,1.617-2.435v-.3q0-2.558-1.635-2.558-1.485,0-1.608,2.206Zm12.5,1.986a.684.684,0,0,0-.4-.606,6.016,6.016,0,0,0-1.5-.475,6.853,6.853,0,0,1-1.828-.646,3.062,3.062,0,0,1-1.1-.971,2.319,2.319,0,0,1-.378-1.31,2.628,2.628,0,0,1,1.081-2.158,4.453,4.453,0,0,1,2.83-.848,4.934,4.934,0,0,1,3.023.853,2.666,2.666,0,0,1,1.143,2.241H115.89q0-1.143-1.2-1.143a1.194,1.194,0,0,0-.782.259.8.8,0,0,0-.316.646.737.737,0,0,0,.387.642,3.654,3.654,0,0,0,1.235.4,10.671,10.671,0,0,1,1.49.378,2.706,2.706,0,0,1,2.145,2.646,2.491,2.491,0,0,1-1.156,2.118,5.068,5.068,0,0,1-2.993.817,5.172,5.172,0,0,1-2.18-.439,3.645,3.645,0,0,1-1.494-1.2,2.707,2.707,0,0,1-.536-1.591h2.769a1.145,1.145,0,0,0,.439.962,1.808,1.808,0,0,0,1.081.3,1.422,1.422,0,0,0,.91-.246A.787.787,0,0,0,115.986,16.328Z" transform="translate(0)" fill="#12263f"/></g><g transform="translate(739.485 2641.858)"><path d="M24.026,13.568H19.175v3.059h5.73V19H16.09V6.2h8.833V8.585H19.175v2.7h4.852Zm5.854,3.322a1.317,1.317,0,0,0,.967-.338,1.241,1.241,0,0,0,.334-.945h2.777a3.288,3.288,0,0,1-1.121,2.566,4.168,4.168,0,0,1-2.887,1,4.22,4.22,0,0,1-3.27-1.3,5.125,5.125,0,0,1-1.2-3.6v-.123a5.792,5.792,0,0,1,.532-2.544,3.872,3.872,0,0,1,1.534-1.7,4.573,4.573,0,0,1,2.373-.593,4.116,4.116,0,0,1,2.944,1.028,3.647,3.647,0,0,1,1.09,2.786H31.181A1.626,1.626,0,0,0,30.82,12a1.244,1.244,0,0,0-.967-.4q-1.151,0-1.345,1.468a10.357,10.357,0,0,0-.062,1.283,4.068,4.068,0,0,0,.343,1.986A1.187,1.187,0,0,0,29.88,16.891Zm4.957-2.733a5.613,5.613,0,0,1,.554-2.536,3.96,3.96,0,0,1,1.591-1.709,4.791,4.791,0,0,1,2.435-.6,4.373,4.373,0,0,1,3.366,1.323,5.076,5.076,0,0,1,1.23,3.6v.105a4.925,4.925,0,0,1-1.235,3.529,4.384,4.384,0,0,1-3.344,1.305,4.434,4.434,0,0,1-3.261-1.217,4.761,4.761,0,0,1-1.327-3.3Zm2.962.185a3.538,3.538,0,0,0,.413,1.934,1.376,1.376,0,0,0,1.222.615q1.582,0,1.617-2.435v-.3q0-2.558-1.635-2.558-1.485,0-1.608,2.206ZM48.038,9.49l.1,1.116a3.225,3.225,0,0,1,2.716-1.292,2.713,2.713,0,0,1,2.219.888,4.226,4.226,0,0,1,.76,2.672V19H50.859V13a1.6,1.6,0,0,0-.29-1.059,1.342,1.342,0,0,0-1.055-.338,1.413,1.413,0,0,0-1.292.686V19H45.261V9.49ZM55.1,14.157a5.613,5.613,0,0,1,.554-2.536A3.96,3.96,0,0,1,57.24,9.912a4.791,4.791,0,0,1,2.435-.6,4.373,4.373,0,0,1,3.366,1.323,5.076,5.076,0,0,1,1.23,3.6v.105a4.925,4.925,0,0,1-1.235,3.529,4.384,4.384,0,0,1-3.344,1.305,4.434,4.434,0,0,1-3.261-1.217,4.761,4.761,0,0,1-1.327-3.3Zm2.962.185a3.538,3.538,0,0,0,.413,1.934,1.376,1.376,0,0,0,1.222.615q1.582,0,1.617-2.435v-.3q0-2.558-1.635-2.558-1.485,0-1.608,2.206ZM60.079,5.5h3.129L60.765,8.26l-2.417,0Zm8.3,3.99.1,1.116a3.27,3.27,0,0,1,2.716-1.292,2.407,2.407,0,0,1,2.435,1.433,3.165,3.165,0,0,1,2.795-1.433q2.892,0,2.971,3.5V19H76.418V13a1.813,1.813,0,0,0-.246-1.063,1.048,1.048,0,0,0-.9-.334,1.4,1.4,0,0,0-1.31.782l.009.123V19H71V13.015a1.906,1.906,0,0,0-.237-1.081,1.045,1.045,0,0,0-.905-.334,1.42,1.42,0,0,0-1.3.782V19H65.6V9.49ZM84.205,19H81.234V9.49h2.971ZM81.059,7.038A1.322,1.322,0,0,1,81.516,6a1.943,1.943,0,0,1,2.373,0,1.322,1.322,0,0,1,.457,1.037,1.322,1.322,0,0,1-.457,1.037,1.943,1.943,0,0,1-2.373,0A1.322,1.322,0,0,1,81.059,7.038Zm8.991,9.853a1.317,1.317,0,0,0,.967-.338,1.241,1.241,0,0,0,.334-.945h2.777a3.288,3.288,0,0,1-1.121,2.566,4.168,4.168,0,0,1-2.887,1,4.22,4.22,0,0,1-3.27-1.3,5.125,5.125,0,0,1-1.2-3.6v-.123a5.792,5.792,0,0,1,.532-2.544,3.872,3.872,0,0,1,1.534-1.7,4.573,4.573,0,0,1,2.373-.593,4.116,4.116,0,0,1,2.944,1.028,3.647,3.647,0,0,1,1.09,2.786H91.351A1.626,1.626,0,0,0,90.99,12a1.244,1.244,0,0,0-.967-.4q-1.151,0-1.345,1.468a10.357,10.357,0,0,0-.062,1.283,4.068,4.068,0,0,0,.343,1.986A1.187,1.187,0,0,0,90.05,16.891Zm4.957-2.733a5.613,5.613,0,0,1,.554-2.536,3.96,3.96,0,0,1,1.591-1.709,4.791,4.791,0,0,1,2.435-.6,4.373,4.373,0,0,1,3.366,1.323,5.076,5.076,0,0,1,1.23,3.6v.105a4.925,4.925,0,0,1-1.235,3.529A4.384,4.384,0,0,1,99.6,19.176a4.434,4.434,0,0,1-3.261-1.217,4.761,4.761,0,0,1-1.327-3.3Zm2.962.185a3.538,3.538,0,0,0,.413,1.934,1.376,1.376,0,0,0,1.222.615q1.582,0,1.617-2.435v-.3q0-2.558-1.635-2.558-1.485,0-1.608,2.206Zm12.5,1.986a.684.684,0,0,0-.4-.606,6.016,6.016,0,0,0-1.5-.475,6.853,6.853,0,0,1-1.828-.646,3.062,3.062,0,0,1-1.1-.971,2.319,2.319,0,0,1-.378-1.31,2.628,2.628,0,0,1,1.081-2.158,4.453,4.453,0,0,1,2.83-.848,4.934,4.934,0,0,1,3.023.853,2.666,2.666,0,0,1,1.143,2.241H110.37q0-1.143-1.2-1.143a1.194,1.194,0,0,0-.782.259.8.8,0,0,0-.316.646.737.737,0,0,0,.387.642,3.654,3.654,0,0,0,1.235.4,10.671,10.671,0,0,1,1.49.378,2.706,2.706,0,0,1,2.145,2.646,2.491,2.491,0,0,1-1.156,2.118,5.068,5.068,0,0,1-2.993.817,5.172,5.172,0,0,1-2.18-.439,3.645,3.645,0,0,1-1.494-1.2,2.707,2.707,0,0,1-.536-1.591h2.769a1.145,1.145,0,0,0,.439.962,1.808,1.808,0,0,0,1.081.3,1.422,1.422,0,0,0,.91-.246A.787.787,0,0,0,110.467,16.328Z" transform="translate(0)" fill="#12263f"/></g><g transform="translate(948.985 2641.858)"><path d="M5.47,19V6.2H9.592a6.064,6.064,0,0,1,3.05.769,5.406,5.406,0,0,1,2.114,2.171,6.554,6.554,0,0,1,.769,3.142v.589a6.592,6.592,0,0,1-.743,3.151A5.429,5.429,0,0,1,12.69,18.2a5.93,5.93,0,0,1-3.01.8ZM8.555,8.585v8.042H9.627a2.4,2.4,0,0,0,2.039-.945,4.63,4.63,0,0,0,.712-2.808V12.32a4.592,4.592,0,0,0-.712-2.795,2.442,2.442,0,0,0-2.074-.94ZM16.6,14.157a5.613,5.613,0,0,1,.554-2.536,3.96,3.96,0,0,1,1.591-1.709,4.791,4.791,0,0,1,2.435-.6,4.373,4.373,0,0,1,3.366,1.323,5.076,5.076,0,0,1,1.23,3.6v.105a4.925,4.925,0,0,1-1.235,3.529,4.384,4.384,0,0,1-3.344,1.305,4.434,4.434,0,0,1-3.261-1.217,4.761,4.761,0,0,1-1.327-3.3Zm2.962.185a3.538,3.538,0,0,0,.413,1.934,1.376,1.376,0,0,0,1.222.615q1.582,0,1.617-2.435v-.3q0-2.558-1.635-2.558-1.485,0-1.608,2.206ZM31.1,16.891a1.317,1.317,0,0,0,.967-.338,1.241,1.241,0,0,0,.334-.945h2.777a3.288,3.288,0,0,1-1.121,2.566,4.168,4.168,0,0,1-2.887,1,4.22,4.22,0,0,1-3.27-1.3,5.125,5.125,0,0,1-1.2-3.6v-.123a5.792,5.792,0,0,1,.532-2.544,3.872,3.872,0,0,1,1.534-1.7,4.573,4.573,0,0,1,2.373-.593,4.116,4.116,0,0,1,2.944,1.028,3.647,3.647,0,0,1,1.09,2.786H32.4A1.626,1.626,0,0,0,32.04,12a1.244,1.244,0,0,0-.967-.4q-1.151,0-1.345,1.468a10.357,10.357,0,0,0-.062,1.283,4.068,4.068,0,0,0,.343,1.986A1.187,1.187,0,0,0,31.1,16.891Zm11,1.081a3.054,3.054,0,0,1-2.54,1.2,3,3,0,0,1-2.369-.91,3.826,3.826,0,0,1-.8-2.615V9.49h2.962v6.179a1.065,1.065,0,0,0,1.187,1.222,1.548,1.548,0,0,0,1.45-.729V9.49h2.979V19H42.182ZM49.38,9.49l.1,1.116a3.27,3.27,0,0,1,2.716-1.292,2.407,2.407,0,0,1,2.435,1.433,3.165,3.165,0,0,1,2.795-1.433q2.892,0,2.971,3.5V19H57.422V13a1.813,1.813,0,0,0-.246-1.063,1.048,1.048,0,0,0-.9-.334,1.4,1.4,0,0,0-1.31.782l.009.123V19H52.008V13.015a1.906,1.906,0,0,0-.237-1.081,1.045,1.045,0,0,0-.905-.334,1.42,1.42,0,0,0-1.3.782V19H46.6V9.49Zm17.306,9.686a4.889,4.889,0,0,1-3.542-1.305,4.507,4.507,0,0,1-1.354-3.4v-.246a5.84,5.84,0,0,1,.541-2.575,3.955,3.955,0,0,1,1.578-1.727,4.763,4.763,0,0,1,2.461-.611,4.117,4.117,0,0,1,3.164,1.244,4.887,4.887,0,0,1,1.16,3.467v1.151H64.805a2.135,2.135,0,0,0,.694,1.257,2.066,2.066,0,0,0,1.389.457,2.662,2.662,0,0,0,2.2-.984l1.354,1.6a3.784,3.784,0,0,1-1.569,1.217A5.3,5.3,0,0,1,66.686,19.176ZM66.352,11.6q-1.3,0-1.547,1.723h2.988v-.229a1.467,1.467,0,0,0-.36-1.1A1.434,1.434,0,0,0,66.352,11.6ZM74.6,9.49l.1,1.116a3.225,3.225,0,0,1,2.716-1.292,2.713,2.713,0,0,1,2.219.888,4.226,4.226,0,0,1,.76,2.672V19H77.426V13a1.6,1.6,0,0,0-.29-1.059,1.342,1.342,0,0,0-1.055-.338,1.413,1.413,0,0,0-1.292.686V19H71.828V9.49ZM85.486,7.126V9.49H87.05v2.057H85.486V15.9a1.111,1.111,0,0,0,.193.747,1.037,1.037,0,0,0,.765.211,4.345,4.345,0,0,0,.738-.053v2.118a5.466,5.466,0,0,1-1.67.255,3.1,3.1,0,0,1-2.259-.721,2.954,2.954,0,0,1-.729-2.188v-4.72H81.311V9.49h1.213V7.126ZM93.572,19a3.344,3.344,0,0,1-.281-.853,2.754,2.754,0,0,1-2.285,1.028,3.374,3.374,0,0,1-2.285-.813,2.588,2.588,0,0,1-.94-2.043,2.66,2.66,0,0,1,1.143-2.338,5.821,5.821,0,0,1,3.322-.791h.914v-.5q0-1.316-1.134-1.316a.927.927,0,0,0-1.055,1.042H88.008a2.655,2.655,0,0,1,1.173-2.239,4.931,4.931,0,0,1,2.993-.86,4.323,4.323,0,0,1,2.874.888,3.086,3.086,0,0,1,1.081,2.435v4.21a4.311,4.311,0,0,0,.4,2V19Zm-1.854-1.934a1.652,1.652,0,0,0,.918-.237,1.487,1.487,0,0,0,.523-.536V14.772H92.3q-1.547,0-1.547,1.389a.848.848,0,0,0,.272.655A.986.986,0,0,0,91.717,17.066Zm10.072-.176a1.317,1.317,0,0,0,.967-.338,1.241,1.241,0,0,0,.334-.945h2.777a3.288,3.288,0,0,1-1.121,2.566,4.168,4.168,0,0,1-2.887,1,4.22,4.22,0,0,1-3.27-1.3,5.125,5.125,0,0,1-1.2-3.6v-.123a5.792,5.792,0,0,1,.532-2.544,3.872,3.872,0,0,1,1.534-1.7,4.573,4.573,0,0,1,2.373-.593,4.116,4.116,0,0,1,2.944,1.028,3.647,3.647,0,0,1,1.09,2.786H103.09A1.626,1.626,0,0,0,102.73,12a1.244,1.244,0,0,0-.967-.4q-1.151,0-1.345,1.468a10.357,10.357,0,0,0-.062,1.283,4.068,4.068,0,0,0,.343,1.986A1.187,1.187,0,0,0,101.79,16.891ZM110.245,19h-2.971V9.49h2.971ZM107.1,7.038A1.322,1.322,0,0,1,107.555,6a1.943,1.943,0,0,1,2.373,0,1.322,1.322,0,0,1,.457,1.037,1.322,1.322,0,0,1-.457,1.037,1.943,1.943,0,0,1-2.373,0A1.322,1.322,0,0,1,107.1,7.038Zm4.6,7.119a5.613,5.613,0,0,1,.554-2.536,3.96,3.96,0,0,1,1.591-1.709,4.791,4.791,0,0,1,2.435-.6,4.373,4.373,0,0,1,3.366,1.323,5.076,5.076,0,0,1,1.23,3.6v.105a4.925,4.925,0,0,1-1.235,3.529,4.384,4.384,0,0,1-3.344,1.305,4.434,4.434,0,0,1-3.261-1.217,4.761,4.761,0,0,1-1.327-3.3Zm2.962.185a3.538,3.538,0,0,0,.413,1.934,1.376,1.376,0,0,0,1.222.615q1.582,0,1.617-2.435v-.3q0-2.558-1.635-2.558-1.485,0-1.608,2.206ZM116.678,5.5h3.129l-2.443,2.76-2.417,0ZM124.9,9.49l.1,1.116a3.225,3.225,0,0,1,2.716-1.292,2.713,2.713,0,0,1,2.219.888,4.226,4.226,0,0,1,.76,2.672V19h-2.971V13a1.6,1.6,0,0,0-.29-1.059,1.342,1.342,0,0,0-1.055-.338,1.413,1.413,0,0,0-1.292.686V19h-2.962V9.49Z" transform="translate(0)" fill="#12263f"/></g><g transform="translate(1158.985 2627.858)"><path d="M23.495,14.667a4.673,4.673,0,0,1-.721,2.36,4.35,4.35,0,0,1-1.85,1.586,6.3,6.3,0,0,1-2.72.563,5.025,5.025,0,0,1-3.973-1.644,6.786,6.786,0,0,1-1.45-4.641v-.633a7.746,7.746,0,0,1,.655-3.292,4.961,4.961,0,0,1,1.885-2.18,5.26,5.26,0,0,1,2.848-.769,5.516,5.516,0,0,1,3.744,1.226,4.844,4.844,0,0,1,1.608,3.379H20.445a2.292,2.292,0,0,0-.589-1.679,2.422,2.422,0,0,0-1.687-.51,1.843,1.843,0,0,0-1.687.861,5.536,5.536,0,0,0-.562,2.751v.905a6.126,6.126,0,0,0,.514,2.927,1.882,1.882,0,0,0,1.771.879,2.369,2.369,0,0,0,1.626-.5,2.126,2.126,0,0,0,.6-1.591Zm.949-.51A5.613,5.613,0,0,1,25,11.622a3.96,3.96,0,0,1,1.591-1.709,4.791,4.791,0,0,1,2.435-.6,4.373,4.373,0,0,1,3.366,1.323,5.076,5.076,0,0,1,1.23,3.6v.105a4.925,4.925,0,0,1-1.235,3.529,4.384,4.384,0,0,1-3.344,1.305,4.434,4.434,0,0,1-3.261-1.217,4.761,4.761,0,0,1-1.327-3.3Zm2.962.185a3.538,3.538,0,0,0,.413,1.934,1.376,1.376,0,0,0,1.222.615q1.582,0,1.617-2.435v-.3q0-2.558-1.635-2.558-1.485,0-1.608,2.206ZM37.645,9.49l.1,1.116a3.225,3.225,0,0,1,2.716-1.292,2.713,2.713,0,0,1,2.219.888,4.226,4.226,0,0,1,.76,2.672V19H40.466V13a1.6,1.6,0,0,0-.29-1.059,1.342,1.342,0,0,0-1.055-.338,1.413,1.413,0,0,0-1.292.686V19H34.868V9.49ZM48.526,7.126V9.49H50.09v2.057H48.526V15.9a1.111,1.111,0,0,0,.193.747,1.037,1.037,0,0,0,.765.211,4.345,4.345,0,0,0,.738-.053v2.118a5.466,5.466,0,0,1-1.67.255,3.1,3.1,0,0,1-2.259-.721,2.954,2.954,0,0,1-.729-2.188v-4.72H44.351V9.49h1.213V7.126Zm8.481,5.045-.976-.07a1.752,1.752,0,0,0-1.793.879V19H51.277V9.49h2.777l.1,1.222a2.294,2.294,0,0,1,2.083-1.4,2.888,2.888,0,0,1,.826.105ZM63.168,19a3.344,3.344,0,0,1-.281-.853A2.754,2.754,0,0,1,60.6,19.176a3.374,3.374,0,0,1-2.285-.813,2.588,2.588,0,0,1-.94-2.043,2.66,2.66,0,0,1,1.143-2.338,5.821,5.821,0,0,1,3.322-.791h.914v-.5q0-1.316-1.134-1.316a.927.927,0,0,0-1.055,1.042H57.6a2.655,2.655,0,0,1,1.173-2.239,4.931,4.931,0,0,1,2.993-.86,4.323,4.323,0,0,1,2.874.888,3.086,3.086,0,0,1,1.081,2.435v4.21a4.311,4.311,0,0,0,.4,2V19Zm-1.854-1.934a1.652,1.652,0,0,0,.918-.237,1.487,1.487,0,0,0,.523-.536V14.772h-.861q-1.547,0-1.547,1.389a.848.848,0,0,0,.272.655A.986.986,0,0,0,61.314,17.066Zm9.5-9.94V9.49h1.564v2.057H70.815V15.9a1.111,1.111,0,0,0,.193.747,1.037,1.037,0,0,0,.765.211,4.345,4.345,0,0,0,.738-.053v2.118a5.466,5.466,0,0,1-1.67.255,3.1,3.1,0,0,1-2.259-.721,2.954,2.954,0,0,1-.729-2.188v-4.72H66.64V9.49h1.213V7.126ZM78.9,19a3.344,3.344,0,0,1-.281-.853,2.754,2.754,0,0,1-2.285,1.028,3.374,3.374,0,0,1-2.285-.813,2.588,2.588,0,0,1-.94-2.043,2.66,2.66,0,0,1,1.143-2.338,5.821,5.821,0,0,1,3.322-.791h.914v-.5q0-1.316-1.134-1.316A.927.927,0,0,0,76.3,12.413H73.337a2.655,2.655,0,0,1,1.173-2.239,4.931,4.931,0,0,1,2.993-.86,4.323,4.323,0,0,1,2.874.888,3.086,3.086,0,0,1,1.081,2.435v4.21a4.311,4.311,0,0,0,.4,2V19Zm-1.854-1.934a1.652,1.652,0,0,0,.918-.237,1.487,1.487,0,0,0,.523-.536V14.772h-.861q-1.547,0-1.547,1.389a.848.848,0,0,0,.272.655A.986.986,0,0,0,77.046,17.066Zm10.072-.176a1.317,1.317,0,0,0,.967-.338,1.241,1.241,0,0,0,.334-.945H91.2a3.288,3.288,0,0,1-1.121,2.566,4.168,4.168,0,0,1-2.887,1,4.22,4.22,0,0,1-3.27-1.3,5.125,5.125,0,0,1-1.2-3.6v-.123a5.792,5.792,0,0,1,.532-2.544,3.872,3.872,0,0,1,1.534-1.7,4.573,4.573,0,0,1,2.373-.593,4.116,4.116,0,0,1,2.944,1.028,3.647,3.647,0,0,1,1.09,2.786H88.419A1.626,1.626,0,0,0,88.059,12a1.244,1.244,0,0,0-.967-.4q-1.151,0-1.345,1.468a10.357,10.357,0,0,0-.062,1.283,4.068,4.068,0,0,0,.343,1.986A1.187,1.187,0,0,0,87.119,16.891ZM95.574,19H92.6V9.49h2.971ZM92.427,7.038A1.322,1.322,0,0,1,92.884,6a1.943,1.943,0,0,1,2.373,0,1.322,1.322,0,0,1,.457,1.037,1.322,1.322,0,0,1-.457,1.037,1.943,1.943,0,0,1-2.373,0A1.322,1.322,0,0,1,92.427,7.038Zm4.6,7.119a5.613,5.613,0,0,1,.554-2.536,3.96,3.96,0,0,1,1.591-1.709,4.791,4.791,0,0,1,2.435-.6,4.373,4.373,0,0,1,3.366,1.323,5.076,5.076,0,0,1,1.23,3.6v.105a4.925,4.925,0,0,1-1.235,3.529,4.384,4.384,0,0,1-3.344,1.305,4.434,4.434,0,0,1-3.261-1.217,4.761,4.761,0,0,1-1.327-3.3Zm2.962.185a3.538,3.538,0,0,0,.413,1.934,1.376,1.376,0,0,0,1.222.615q1.582,0,1.617-2.435v-.3q0-2.558-1.635-2.558-1.485,0-1.608,2.206ZM102.007,5.5h3.129l-2.443,2.76-2.417,0Zm8.218,3.99.1,1.116a3.225,3.225,0,0,1,2.716-1.292,2.713,2.713,0,0,1,2.219.888,4.226,4.226,0,0,1,.76,2.672V19h-2.971V13a1.6,1.6,0,0,0-.29-1.059A1.342,1.342,0,0,0,111.7,11.6a1.413,1.413,0,0,0-1.292.686V19h-2.962V9.49Z" transform="translate(0)" fill="#12263f"/></g><g transform="translate(1158.985 2648.028)"><path d="M5.443,10.249a9.814,9.814,0,0,1,.384-2.755,8,8,0,0,1,1.146-2.4A4.874,4.874,0,0,1,8.553,3.571l.241.774a5.056,5.056,0,0,0-1.52,2.171,9.411,9.411,0,0,0-.651,3.269l-.006.54a9.46,9.46,0,0,0,.9,4.253,5.079,5.079,0,0,0,1.282,1.688l-.241.717a5.031,5.031,0,0,1-1.612-1.574A8.823,8.823,0,0,1,5.443,10.249ZM11.207,14H10.032V4.25h1.174Zm4.729.127a3,3,0,0,1-2.272-.917,3.4,3.4,0,0,1-.876-2.453v-.216a4.121,4.121,0,0,1,.39-1.825A3.045,3.045,0,0,1,14.27,7.459,2.745,2.745,0,0,1,15.79,7a2.572,2.572,0,0,1,2.082.882,3.82,3.82,0,0,1,.743,2.526V10.9H13.962a2.441,2.441,0,0,0,.594,1.641A1.866,1.866,0,0,0,16,13.168a2.045,2.045,0,0,0,1.054-.254,2.648,2.648,0,0,0,.755-.673l.717.559A2.884,2.884,0,0,1,15.936,14.127ZM15.79,7.97a1.566,1.566,0,0,0-1.193.517,2.515,2.515,0,0,0-.6,1.45h3.44V9.849a2.237,2.237,0,0,0-.482-1.387A1.475,1.475,0,0,0,15.79,7.97Zm3.9,2.539a4.037,4.037,0,0,1,.743-2.555,2.56,2.56,0,0,1,3.929-.06l.057-.762H25.5v6.7a2.794,2.794,0,0,1-.79,2.1,2.916,2.916,0,0,1-2.123.768,3.532,3.532,0,0,1-1.454-.317,2.5,2.5,0,0,1-1.085-.87l.609-.7a2.3,2.3,0,0,0,1.847.933,1.8,1.8,0,0,0,1.336-.482,1.844,1.844,0,0,0,.479-1.358v-.59a2.414,2.414,0,0,1-1.923.813,2.346,2.346,0,0,1-1.952-.971A4.244,4.244,0,0,1,19.694,10.509Zm1.181.133a3.08,3.08,0,0,0,.476,1.825,1.547,1.547,0,0,0,1.333.663,1.72,1.72,0,0,0,1.631-1.009V8.985A1.74,1.74,0,0,0,22.7,8a1.561,1.561,0,0,0-1.339.667A3.354,3.354,0,0,0,20.874,10.642ZM28.542,14H27.368V7.132h1.174Zm-1.27-8.69a.7.7,0,0,1,.175-.482.655.655,0,0,1,.517-.2.666.666,0,0,1,.521.2.694.694,0,0,1,.178.482.671.671,0,0,1-.178.476.678.678,0,0,1-.521.19.667.667,0,0,1-.517-.19A.678.678,0,0,1,27.273,5.31Zm7.147,6.868a.865.865,0,0,0-.359-.74,3.452,3.452,0,0,0-1.25-.454,5.912,5.912,0,0,1-1.416-.457,2.014,2.014,0,0,1-.774-.635,1.518,1.518,0,0,1-.251-.876,1.782,1.782,0,0,1,.714-1.428A2.789,2.789,0,0,1,32.909,7a2.87,2.87,0,0,1,1.895.6,1.915,1.915,0,0,1,.727,1.542H34.35a1.06,1.06,0,0,0-.409-.832,1.534,1.534,0,0,0-1.031-.349,1.605,1.605,0,0,0-1,.279.879.879,0,0,0-.362.73.712.712,0,0,0,.336.641,4.139,4.139,0,0,0,1.216.413,6.334,6.334,0,0,1,1.425.47,2.079,2.079,0,0,1,.809.657,1.615,1.615,0,0,1,.263.936,1.758,1.758,0,0,1-.736,1.476,3.089,3.089,0,0,1-1.911.555,3.459,3.459,0,0,1-1.46-.292,2.375,2.375,0,0,1-.993-.816,1.966,1.966,0,0,1-.359-1.133H31.31a1.216,1.216,0,0,0,.473.936,1.835,1.835,0,0,0,1.165.346,1.894,1.894,0,0,0,1.07-.27A.829.829,0,0,0,34.42,12.178ZM38.4,14H37.226V4.25H38.4Zm6.119,0a2.467,2.467,0,0,1-.165-.724,2.62,2.62,0,0,1-1.955.851,2.424,2.424,0,0,1-1.666-.574,1.859,1.859,0,0,1-.651-1.457,1.942,1.942,0,0,1,.816-1.666,3.846,3.846,0,0,1,2.295-.594h1.143V9.3a1.319,1.319,0,0,0-.368-.981,1.48,1.48,0,0,0-1.085-.365,1.712,1.712,0,0,0-1.054.317.935.935,0,0,0-.425.768H40.222a1.621,1.621,0,0,1,.365-.993,2.491,2.491,0,0,1,.99-.759A3.331,3.331,0,0,1,42.951,7a2.715,2.715,0,0,1,1.86.594,2.141,2.141,0,0,1,.7,1.635v3.161a3.865,3.865,0,0,0,.241,1.5V14Zm-1.949-.9a2.064,2.064,0,0,0,1.047-.286,1.728,1.728,0,0,0,.717-.743V10.667h-.92q-2.158,0-2.158,1.263a1.069,1.069,0,0,0,.368.863A1.415,1.415,0,0,0,42.571,13.1Zm7.535.063a1.692,1.692,0,0,0,1.1-.381,1.34,1.34,0,0,0,.521-.952h1.111a2.13,2.13,0,0,1-.406,1.124,2.676,2.676,0,0,1-1,.851,2.885,2.885,0,0,1-1.323.317,2.829,2.829,0,0,1-2.231-.936,3.729,3.729,0,0,1-.828-2.561v-.2a4.135,4.135,0,0,1,.368-1.784,2.8,2.8,0,0,1,1.057-1.212A3,3,0,0,1,50.1,7a2.755,2.755,0,0,1,1.92.692,2.473,2.473,0,0,1,.816,1.8H51.724a1.618,1.618,0,0,0-.5-1.095A1.57,1.57,0,0,0,50.1,7.97a1.644,1.644,0,0,0-1.387.644,3.026,3.026,0,0,0-.492,1.863V10.7a2.965,2.965,0,0,0,.489,1.828A1.651,1.651,0,0,0,50.105,13.168ZM55.431,14H54.257V7.132h1.174Zm-1.27-8.69a.7.7,0,0,1,.175-.482.655.655,0,0,1,.517-.2.666.666,0,0,1,.521.2.694.694,0,0,1,.178.482.671.671,0,0,1-.178.476.678.678,0,0,1-.521.19.667.667,0,0,1-.517-.19A.678.678,0,0,1,54.161,5.31ZM57,10.5a4.057,4.057,0,0,1,.4-1.815,2.96,2.96,0,0,1,1.1-1.244A3.007,3.007,0,0,1,60.115,7a2.9,2.9,0,0,1,2.269.971,3.736,3.736,0,0,1,.866,2.583v.083a4.092,4.092,0,0,1-.384,1.8,2.916,2.916,0,0,1-1.1,1.241,3.041,3.041,0,0,1-1.641.444,2.889,2.889,0,0,1-2.263-.971A3.718,3.718,0,0,1,57,10.585Zm1.181.14a2.938,2.938,0,0,0,.53,1.834,1.8,1.8,0,0,0,2.841-.01,3.213,3.213,0,0,0,.527-1.965,2.933,2.933,0,0,0-.536-1.831,1.705,1.705,0,0,0-1.425-.7,1.686,1.686,0,0,0-1.4.692A3.189,3.189,0,0,0,58.179,10.642ZM60.649,4.25h1.422l-1.7,1.866-.946,0Zm5.186,2.882L65.873,8A2.5,2.5,0,0,1,67.929,7q2.177,0,2.2,2.457V14H68.951V9.455a1.581,1.581,0,0,0-.34-1.1A1.361,1.361,0,0,0,67.574,8a1.7,1.7,0,0,0-1,.3,2.069,2.069,0,0,0-.673.8V14H64.724V7.132Zm6.024,8.709-.667-.457a3.063,3.063,0,0,0,.622-1.714V12.61h1.149v.92a2.891,2.891,0,0,1-.314,1.282A3,3,0,0,1,71.859,15.841Zm11.61-5.2a4.113,4.113,0,0,1-.717,2.526,2.3,2.3,0,0,1-1.942.958,2.519,2.519,0,0,1-1.968-.793v3.307H77.667V7.132H78.74l.057.762A2.419,2.419,0,0,1,80.79,7a2.342,2.342,0,0,1,1.958.933,4.157,4.157,0,0,1,.72,2.6Zm-1.174-.133a3.035,3.035,0,0,0-.5-1.834A1.6,1.6,0,0,0,80.441,8a1.726,1.726,0,0,0-1.6.946v3.282a1.73,1.73,0,0,0,1.612.939A1.587,1.587,0,0,0,81.8,12.5,3.313,3.313,0,0,0,82.294,10.509ZM89.2,14a2.467,2.467,0,0,1-.165-.724,2.62,2.62,0,0,1-1.955.851,2.424,2.424,0,0,1-1.666-.574,1.859,1.859,0,0,1-.651-1.457,1.942,1.942,0,0,1,.816-1.666,3.846,3.846,0,0,1,2.295-.594h1.143V9.3a1.319,1.319,0,0,0-.368-.981,1.48,1.48,0,0,0-1.085-.365,1.712,1.712,0,0,0-1.054.317.935.935,0,0,0-.425.768H84.9a1.621,1.621,0,0,1,.365-.993,2.491,2.491,0,0,1,.99-.759A3.331,3.331,0,0,1,87.633,7a2.715,2.715,0,0,1,1.86.594,2.141,2.141,0,0,1,.7,1.635v3.161a3.865,3.865,0,0,0,.241,1.5V14Zm-1.949-.9a2.064,2.064,0,0,0,1.047-.286,1.728,1.728,0,0,0,.717-.743V10.667H88.1q-2.158,0-2.158,1.263a1.069,1.069,0,0,0,.368.863A1.415,1.415,0,0,0,87.252,13.1Zm8.1-4.919a3.519,3.519,0,0,0-.578-.044,1.547,1.547,0,0,0-1.568.984V14H92.031V7.132h1.143l.019.793A1.829,1.829,0,0,1,94.831,7a1.2,1.2,0,0,1,.521.089ZM100.417,14a2.467,2.467,0,0,1-.165-.724,2.62,2.62,0,0,1-1.955.851,2.424,2.424,0,0,1-1.666-.574A1.859,1.859,0,0,1,95.98,12.1a1.942,1.942,0,0,1,.816-1.666,3.846,3.846,0,0,1,2.295-.594h1.143V9.3a1.319,1.319,0,0,0-.368-.981,1.48,1.48,0,0,0-1.085-.365,1.712,1.712,0,0,0-1.054.317.935.935,0,0,0-.425.768H96.119a1.621,1.621,0,0,1,.365-.993,2.491,2.491,0,0,1,.99-.759A3.331,3.331,0,0,1,98.849,7a2.715,2.715,0,0,1,1.86.594,2.141,2.141,0,0,1,.7,1.635v3.161a3.865,3.865,0,0,0,.241,1.5V14Zm-1.949-.9a2.064,2.064,0,0,0,1.047-.286,1.728,1.728,0,0,0,.717-.743V10.667h-.92q-2.158,0-2.158,1.263a1.069,1.069,0,0,0,.368.863A1.415,1.415,0,0,0,98.468,13.1Zm5.173.9V8.04h-1.085V7.132h1.085V6.548a2.386,2.386,0,0,1,.657-1.79,2.548,2.548,0,0,1,1.857-.641,5.591,5.591,0,0,1,1.8.387l-.2.99a4.069,4.069,0,0,0-1.511-.317,1.478,1.478,0,0,0-1.089.34,1.4,1.4,0,0,0-.333,1.019v.6h1.4V8.04h-1.4V14Zm4.894,0h-1.181V7.132h1.181Zm5.91-1.822a.864.864,0,0,0-.359-.74,3.452,3.452,0,0,0-1.25-.454,5.912,5.912,0,0,1-1.416-.457,2.014,2.014,0,0,1-.774-.635,1.518,1.518,0,0,1-.251-.876,1.782,1.782,0,0,1,.714-1.428A2.789,2.789,0,0,1,112.934,7a2.87,2.87,0,0,1,1.895.6,1.915,1.915,0,0,1,.727,1.542h-1.181a1.06,1.06,0,0,0-.409-.832,1.534,1.534,0,0,0-1.031-.349,1.606,1.606,0,0,0-1,.279.879.879,0,0,0-.362.73.712.712,0,0,0,.336.641,4.139,4.139,0,0,0,1.216.413,6.334,6.334,0,0,1,1.425.47,2.079,2.079,0,0,1,.809.657,1.615,1.615,0,0,1,.263.936,1.758,1.758,0,0,1-.736,1.476,3.089,3.089,0,0,1-1.911.555,3.459,3.459,0,0,1-1.46-.292,2.375,2.375,0,0,1-.993-.816,1.966,1.966,0,0,1-.359-1.133h1.174a1.216,1.216,0,0,0,.473.936,1.835,1.835,0,0,0,1.165.346,1.894,1.894,0,0,0,1.07-.27A.829.829,0,0,0,114.445,12.178Zm5.459.99a1.691,1.691,0,0,0,1.1-.381,1.34,1.34,0,0,0,.521-.952h1.111a2.13,2.13,0,0,1-.406,1.124,2.676,2.676,0,0,1-1,.851,2.885,2.885,0,0,1-1.323.317,2.829,2.829,0,0,1-2.231-.936,3.729,3.729,0,0,1-.828-2.561v-.2a4.135,4.135,0,0,1,.368-1.784,2.8,2.8,0,0,1,1.057-1.212A3,3,0,0,1,119.9,7a2.755,2.755,0,0,1,1.92.692,2.473,2.473,0,0,1,.816,1.8h-1.111a1.618,1.618,0,0,0-.5-1.095,1.57,1.57,0,0,0-1.12-.428,1.644,1.644,0,0,0-1.387.644,3.026,3.026,0,0,0-.492,1.863V10.7a2.966,2.966,0,0,0,.489,1.828A1.651,1.651,0,0,0,119.9,13.168Zm8.29.832a2.467,2.467,0,0,1-.165-.724,2.62,2.62,0,0,1-1.955.851,2.424,2.424,0,0,1-1.666-.574,1.859,1.859,0,0,1-.651-1.457,1.942,1.942,0,0,1,.816-1.666,3.846,3.846,0,0,1,2.295-.594h1.143V9.3a1.319,1.319,0,0,0-.368-.981,1.48,1.48,0,0,0-1.085-.365,1.712,1.712,0,0,0-1.054.317.935.935,0,0,0-.425.768H123.9a1.621,1.621,0,0,1,.365-.993,2.491,2.491,0,0,1,.99-.759A3.331,3.331,0,0,1,126.626,7a2.715,2.715,0,0,1,1.86.594,2.141,2.141,0,0,1,.7,1.635v3.161a3.865,3.865,0,0,0,.241,1.5V14Zm-1.949-.9a2.064,2.064,0,0,0,1.047-.286,1.728,1.728,0,0,0,.717-.743V10.667h-.92q-2.158,0-2.158,1.263a1.069,1.069,0,0,0,.368.863A1.415,1.415,0,0,0,126.245,13.1Zm6.056.9h-1.174V4.25H132.3Zm4.729.127a3,3,0,0,1-2.272-.917,3.4,3.4,0,0,1-.876-2.453v-.216a4.121,4.121,0,0,1,.39-1.825,3.045,3.045,0,0,1,1.092-1.257A2.745,2.745,0,0,1,136.884,7a2.572,2.572,0,0,1,2.082.882,3.82,3.82,0,0,1,.743,2.526V10.9h-4.653a2.441,2.441,0,0,0,.594,1.641,1.866,1.866,0,0,0,1.444.625,2.045,2.045,0,0,0,1.054-.254,2.647,2.647,0,0,0,.755-.673l.717.559A2.884,2.884,0,0,1,137.03,14.127Zm-.146-6.157a1.566,1.566,0,0,0-1.193.517,2.515,2.515,0,0,0-.6,1.45h3.44V9.849a2.237,2.237,0,0,0-.482-1.387A1.475,1.475,0,0,0,136.884,7.97Zm8.182,4.208a.865.865,0,0,0-.359-.74,3.452,3.452,0,0,0-1.25-.454,5.912,5.912,0,0,1-1.416-.457,2.014,2.014,0,0,1-.774-.635,1.518,1.518,0,0,1-.251-.876,1.782,1.782,0,0,1,.714-1.428A2.789,2.789,0,0,1,143.555,7a2.87,2.87,0,0,1,1.895.6,1.915,1.915,0,0,1,.727,1.542H145a1.06,1.06,0,0,0-.409-.832,1.534,1.534,0,0,0-1.031-.349,1.605,1.605,0,0,0-1,.279.879.879,0,0,0-.362.73.712.712,0,0,0,.336.641,4.139,4.139,0,0,0,1.216.413,6.334,6.334,0,0,1,1.425.47,2.079,2.079,0,0,1,.809.657,1.615,1.615,0,0,1,.263.936,1.758,1.758,0,0,1-.736,1.476,3.089,3.089,0,0,1-1.911.555,3.459,3.459,0,0,1-1.46-.292,2.375,2.375,0,0,1-.993-.816,1.966,1.966,0,0,1-.359-1.133h1.174a1.216,1.216,0,0,0,.473.936,1.835,1.835,0,0,0,1.165.346,1.894,1.894,0,0,0,1.07-.27A.829.829,0,0,0,145.066,12.178Zm5.415-1.866a9.819,9.819,0,0,1-.371,2.714,8.024,8.024,0,0,1-1.136,2.4,4.978,4.978,0,0,1-1.6,1.562l-.248-.717a5.1,5.1,0,0,0,1.571-2.326,10.065,10.065,0,0,0,.606-3.5v-.2a10.449,10.449,0,0,0-.279-2.479,8.366,8.366,0,0,0-.778-2.053,4.743,4.743,0,0,0-1.12-1.416l.248-.717a4.959,4.959,0,0,1,1.6,1.549A8.041,8.041,0,0,1,150.1,7.513,10.045,10.045,0,0,1,150.481,10.312Z" transform="translate(-13)" fill="#12263f"/></g><g transform="translate(355.938 2679)"><g transform="translate(0 0)" clip-path="url(#a)"><path d="M42.876,51.1H12.741a.466.466,0,0,1-.259-.079,27.816,27.816,0,1,1,30.653,0,.469.469,0,0,1-.259.079m-29.993-.939H42.735a26.871,26.871,0,1,0-29.852,0" transform="translate(0 0)"/><path d="M48.7,57.595H15.039a.469.469,0,0,1-.469-.47V44.755a.469.469,0,0,1,.3-.437l11.57-4.548a.466.466,0,0,1,.5.1l4.753,4.575,5.122-4.586a.474.474,0,0,1,.485-.087L48.87,44.317a.47.47,0,0,1,.3.437v12.37a.469.469,0,0,1-.469.47m-33.191-.939H48.23V45.074L37.22,40.748l-5.231,4.684a.47.47,0,0,1-.638-.011L26.5,40.753,15.508,45.074Z" transform="translate(-4.057 -11.065)"/><path d="M45.213,61.1h-22.3a.469.469,0,0,1-.469-.469V52.867a.469.469,0,1,1,.938,0v7.295H44.744V52.867a.469.469,0,1,1,.938,0v7.765a.469.469,0,0,1-.469.469" transform="translate(-6.248 -14.59)"/><path d="M41.778,46.615H30.647a.469.469,0,0,1-.469-.469v-5.94a.469.469,0,0,1,.938,0v5.47H41.309v-5.47a.469.469,0,1,1,.938,0v5.94a.469.469,0,0,1-.469.469" transform="translate(-8.403 -11.065)"/><path d="M39.387,52.785H36.04a.469.469,0,0,1-.469-.469V48.437a.469.469,0,0,1,.469-.47h3.347a.469.469,0,0,1,.469.47v3.879a.469.469,0,0,1-.469.469m-2.878-.939h2.409v-2.94H36.509Z" transform="translate(-9.905 -13.357)"/><path d="M40.094,61.384H33.676a.469.469,0,0,1-.455-.579l1.705-7.1a.469.469,0,0,1,.456-.36h3.347a.47.47,0,0,1,.46.38l1.365,7.1a.471.471,0,0,1-.461.558m-5.822-.939h5.255l-1.185-6.162h-2.59Z" transform="translate(-9.247 -14.854)"/><path d="M35.35,30.236a8.811,8.811,0,1,1,8.81-8.818,8.824,8.824,0,0,1-8.81,8.818m0-16.682a7.872,7.872,0,1,0,7.872,7.864,7.877,7.877,0,0,0-7.872-7.864" transform="translate(-7.39 -3.513)"/><path d="M45.227,21.8A9.583,9.583,0,0,1,39.475,20a.469.469,0,1,1,.571-.744,9.1,9.1,0,0,0,6.86,1.465.474.474,0,0,1,.542.382.469.469,0,0,1-.382.543,10.787,10.787,0,0,1-1.839.158" transform="translate(-10.941 -5.334)"/><path d="M31.125,20.183a10.348,10.348,0,0,1-3.663-.653.469.469,0,0,1,.331-.878,9.4,9.4,0,0,0,3.332.592c3.852,0,6.986-2.178,6.986-4.857a.469.469,0,1,1,.937,0c0,3.2-3.554,5.8-7.923,5.8" transform="translate(-7.562 -3.875)"/><path d="M53.662,74.928H3.825a.469.469,0,0,1,0-.939H53.662a.469.469,0,0,1,0,.939" transform="translate(-0.934 -20.602)"/><path d="M53.662,78.748H3.825a.469.469,0,0,1,0-.939H53.662a.469.469,0,0,1,0,.939" transform="translate(-0.934 -21.666)"/></g></g><g transform="translate(776.572 2679)"><g transform="translate(0 0)" clip-path="url(#b)"><path d="M44.32,49.6a39.258,39.258,0,0,1,8.838,2.084,3.01,3.01,0,0,1,1.909,1.566c.272.722-.211,2.293-1.7,6.344-.395,1.072-.768,2.085-.9,2.57a3.542,3.542,0,0,1-.252.751.992.992,0,0,1-.9.578,1.5,1.5,0,0,1-.658-.176,16.522,16.522,0,0,1-3.882-3.19,20.394,20.394,0,0,0-3.508-3.013c-.159-.1-.323-.187-.481-.276a3.2,3.2,0,0,1-1.675-1.52,1.533,1.533,0,0,1-.087-.541,11.138,11.138,0,0,1,.815-3.119c.063-.177.118-.33.16-.453a2.153,2.153,0,0,1,2.255-1.6Zm9.521,4.083c-.065-.154-.306-.447-1.168-.794A38.123,38.123,0,0,0,44.32,50.9h-.039c-.817.023-.922.332-1.056.723-.045.131-.1.289-.166.472a11.709,11.709,0,0,0-.739,2.682.421.421,0,0,0,.007.091l0,.009c.1.271.578.541,1.087.826.167.093.339.19.515.3a21.29,21.29,0,0,1,3.755,3.205,16.412,16.412,0,0,0,3.449,2.9c.027-.092.053-.194.073-.27.146-.548.511-1.541.934-2.69.407-1.1.868-2.357,1.208-3.417A6.989,6.989,0,0,0,53.841,53.687Zm-3.561.092h0a1.558,1.558,0,0,1,.965.332,1.563,1.563,0,1,1-2.193.258l0,0A1.571,1.571,0,0,1,50.28,53.778Zm0,1.824a.253.253,0,0,0,.2-.1l.005-.007a.262.262,0,0,0,.057-.2.249.249,0,0,0-.093-.169.268.268,0,0,0-.166-.057.276.276,0,0,0-.213.1.254.254,0,0,0-.05.185.263.263,0,0,0,.1.177l.006,0A.246.246,0,0,0,50.276,55.6Z" transform="translate(-12.791 -15.426)"/><path d="M29.1,49.6h.069a2.145,2.145,0,0,1,2.252,1.6l0,.013c.044.133.1.3.174.5a11.132,11.132,0,0,1,.792,3.072,1.577,1.577,0,0,1-.077.525,3.175,3.175,0,0,1-1.662,1.519c-.164.092-.333.186-.5.285a20.319,20.319,0,0,0-3.514,3.015,16.477,16.477,0,0,1-3.882,3.189,1.481,1.481,0,0,1-.655.176.987.987,0,0,1-.9-.577,3.686,3.686,0,0,1-.254-.746l0-.009c-.129-.493-.511-1.532-.917-2.632-1.479-4.014-1.956-5.566-1.688-6.28l0-.011a3.079,3.079,0,0,1,1.913-1.555A39.237,39.237,0,0,1,29.1,49.6Zm.037,1.3H29.1a38.1,38.1,0,0,0-8.353,1.99c-.8.322-1.084.605-1.175.8A7.133,7.133,0,0,0,20.06,55.7c.336,1.046.794,2.289,1.2,3.385.435,1.18.81,2.2.955,2.753.023.087.049.184.074.269a16.407,16.407,0,0,0,3.444-2.9A21.218,21.218,0,0,1,29.49,56c.18-.109.358-.209.531-.305.479-.268.974-.546,1.067-.807a.6.6,0,0,0,.007-.1,11.493,11.493,0,0,0-.718-2.64c-.071-.2-.132-.376-.18-.52C30.054,51.22,29.946,50.926,29.141,50.9Zm-6,2.875h0A1.567,1.567,0,0,1,24.7,55.532a1.528,1.528,0,0,1-.579,1.029,1.563,1.563,0,0,1-2.192-.242l-.005-.006a1.562,1.562,0,0,1,1.221-2.535Zm0,1.824a.26.26,0,0,0,.164-.059l.007-.005a.235.235,0,0,0,.09-.161.269.269,0,0,0-.058-.2.262.262,0,0,0-.207-.1.257.257,0,0,0-.16.055.263.263,0,0,0,.165.469Z" transform="translate(-5.809 -15.426)"/><path d="M54.066,42.352a.648.648,0,0,1-.242-.047,38.179,38.179,0,0,0-8.353-1.99h-.051a.65.65,0,0,1-.628-.819c1.077-4.006,2.064-6.647,3.017-8.074a24.516,24.516,0,0,1,8.926-6.87,6.674,6.674,0,0,1,2.366-.52,2.984,2.984,0,0,1,1.583.408,22.671,22.671,0,0,1,3.306-7.523,3.963,3.963,0,0,1,2.8-1.807,2.087,2.087,0,0,1,1.4.546c.621.536.862,1.618.758,3.405a29.283,29.283,0,0,1-.842,5.044c-.777,3.171-2.192,7.254-3.464,8.724a13.313,13.313,0,0,1-4.5,3.327c-2.032,1.044-3.787,1.946-5.481,5.806A.65.65,0,0,1,54.066,42.352Zm-7.812-3.281a46.074,46.074,0,0,1,7.471,1.812A11.036,11.036,0,0,1,59.548,35a12.054,12.054,0,0,0,4.106-3.019c.955-1.1,2.294-4.546,3.186-8.185a28,28,0,0,0,.807-4.81c.112-1.924-.268-2.31-.311-2.347a.807.807,0,0,0-.544-.229A2.751,2.751,0,0,0,65.027,17.7a20.684,20.684,0,0,0-3.278,8.2.65.65,0,0,1-.647.583H61.1a.65.65,0,0,1-.6-.409,1.127,1.127,0,0,0-.406-.466c-.565-.412-1.572-.35-2.881.16a23.262,23.262,0,0,0-8.316,6.381A29.314,29.314,0,0,0,46.254,39.072Z" transform="translate(-13.942 -4.838)"/><path d="M14.9,42.352a.65.65,0,0,1-.6-.388C12.6,38.1,10.85,37.2,8.818,36.156a13.357,13.357,0,0,1-4.5-3.327C3.05,31.359,1.638,27.277.863,24.106a29.377,29.377,0,0,1-.841-5.044c-.1-1.787.136-2.869.756-3.406a2.087,2.087,0,0,1,1.395-.546,3.969,3.969,0,0,1,2.806,1.811,22.819,22.819,0,0,1,3.305,7.516,2.992,2.992,0,0,1,1.573-.4A9.462,9.462,0,0,1,14.3,25.577a24.914,24.914,0,0,1,6.845,5.846c1.231,1.833,2.263,5.277,3.024,8.073a.65.65,0,0,1-.638.821h-.042a38.122,38.122,0,0,0-8.352,1.99A.648.648,0,0,1,14.9,42.352ZM2.173,16.41a.8.8,0,0,0-.543.228c-.044.038-.422.424-.31,2.349A28.093,28.093,0,0,0,2.126,23.8c.89,3.639,2.225,7.081,3.176,8.184A12.1,12.1,0,0,0,9.412,35a11.05,11.05,0,0,1,5.827,5.883,46,46,0,0,1,7.47-1.812c-.531-1.906-1.539-5.286-2.639-6.925A23.824,23.824,0,0,0,13.651,26.7a8.4,8.4,0,0,0-3.794-1.365,1.647,1.647,0,0,0-.984.269,1.078,1.078,0,0,0-.4.451.65.65,0,0,1-1.252-.164A20.887,20.887,0,0,0,3.94,17.7,2.758,2.758,0,0,0,2.173,16.41Z" transform="translate(-0.2 -4.838)"/><path d="M57.577,16.5a.65.65,0,0,1,.65.65v4.006a.65.65,0,0,1-.65.65H53.572a.65.65,0,0,1-.65-.65A4.661,4.661,0,0,1,57.577,16.5Zm-.65,4.006V17.86A3.365,3.365,0,0,0,54.285,20.5Z" transform="translate(-16.444 -5.263)"/><path d="M53.572,0h4.005a.65.65,0,0,1,.65.65v4a.65.65,0,0,1-.65.65A4.66,4.66,0,0,1,52.922.65.65.65,0,0,1,53.572,0Zm3.355,1.3H54.285a3.365,3.365,0,0,0,2.642,2.641Z" transform="translate(-16.444 -0.199)"/><path d="M39.934,14.247a.65.65,0,0,1-.65-.65v-1.34a.65.65,0,0,1,.829-.625,1.444,1.444,0,0,1,.777.479,1.26,1.26,0,0,1,.275.8,1.281,1.281,0,0,1-.32.866,1.408,1.408,0,0,1-.761.458A.65.65,0,0,1,39.934,14.247Z" transform="translate(-12.258 -3.762)"/><path d="M39.029,8.289a.65.65,0,0,1,.65.65v1.183a.65.65,0,0,1-.9.6,1.309,1.309,0,0,1-.619-.488,1.213,1.213,0,0,1-.219-.7,1.3,1.3,0,0,1,.226-.73l.019-.026a1.3,1.3,0,0,1,.63-.461A.65.65,0,0,1,39.029,8.289Z" transform="translate(-11.847 -2.744)"/><path d="M37.543,15a5.233,5.233,0,1,1,5.237-5.237A5.239,5.239,0,0,1,37.543,15Zm0-9.167a3.933,3.933,0,1,0,3.937,3.93A3.935,3.935,0,0,0,37.543,5.829Zm.251,7.639H37.3a.65.65,0,0,1-.65-.65v-.124a2.158,2.158,0,0,1-.764-.479l-.005-.005a2.432,2.432,0,0,1-.65-1.4.65.65,0,0,1,.569-.743l.277-.031a1.885,1.885,0,0,1-.264-.276,2.118,2.118,0,0,1-.454-1.34,2,2,0,0,1,1.319-1.9.65.65,0,0,1,.623-.463h.494a.65.65,0,0,1,.624.468,1.981,1.981,0,0,1,.689.415,2.02,2.02,0,0,1,.605,1.187.65.65,0,0,1-.561.755l-.19.024a1.81,1.81,0,0,1,.455.385,2.033,2.033,0,0,1,.447,1.321,2.19,2.19,0,0,1-.533,1.471l-.013.014a2.256,2.256,0,0,1-.875.584v.138A.65.65,0,0,1,37.794,13.468Zm.151-3.608a.652.652,0,0,1,.005.081V11.37a.65.65,0,0,1-.009.109,1,1,0,0,0,.42-.261.889.889,0,0,0,.2-.606.738.738,0,0,0-.148-.491A1.08,1.08,0,0,0,37.945,9.861Zm-.8-2.127a.689.689,0,0,0-.3.193l0,0a.669.669,0,0,0-.181.488.826.826,0,0,0,.177.538l0,0a.865.865,0,0,0,.308.229q0-.027,0-.054V7.8A.651.651,0,0,1,37.148,7.734Z" transform="translate(-10.118 -1.59)"/><path d="M19.792,0H23.8a.65.65,0,0,1,.65.65A4.661,4.661,0,0,1,19.792,5.3a.65.65,0,0,1-.65-.65v-4A.65.65,0,0,1,19.792,0Zm3.294,1.3H20.442V3.941A3.366,3.366,0,0,0,23.086,1.3Z" transform="translate(-6.075 -0.199)"/><path d="M43.2,16.739H23.8a.65.65,0,0,1-.65-.65,3.36,3.36,0,0,0-3.357-3.356.65.65,0,0,1-.65-.65V4.654a.65.65,0,0,1,.65-.65A3.36,3.36,0,0,0,23.149.65.65.65,0,0,1,23.8,0H43.2a.65.65,0,0,1,.65.65A3.359,3.359,0,0,0,47.208,4a.65.65,0,0,1,.65.65v7.429a.65.65,0,0,1-.65.65,3.359,3.359,0,0,0-3.355,3.356A.65.65,0,0,1,43.2,16.739Zm-18.8-1.3H42.6a4.666,4.666,0,0,1,3.96-3.961V5.259A4.666,4.666,0,0,1,42.6,1.3H24.4a4.666,4.666,0,0,1-3.962,3.959v6.219A4.667,4.667,0,0,1,24.4,15.439Zm9.1-1.833a5.234,5.234,0,1,1,5.237-5.237A5.24,5.24,0,0,1,33.5,13.606Zm0-9.168a3.934,3.934,0,1,0,3.937,3.93A3.935,3.935,0,0,0,33.5,4.439Z" transform="translate(-6.075 -0.199)"/><path d="M19.792,16.5a4.662,4.662,0,0,1,4.657,4.656.65.65,0,0,1-.65.65H19.792a.65.65,0,0,1-.65-.65V17.147A.65.65,0,0,1,19.792,16.5ZM23.086,20.5a3.366,3.366,0,0,0-2.644-2.643V20.5Z" transform="translate(-6.075 -5.263)"/><path d="M45.419,44.268a.651.651,0,0,1-.628-.819c1.079-4.008,2.065-6.649,3.017-8.074a24.514,24.514,0,0,1,8.926-6.87c1.78-.693,3.165-.693,4.117,0A2.205,2.205,0,0,1,61.32,31.8a8.578,8.578,0,0,1-1.778,1.852,30.105,30.105,0,0,1-3.862,2.55l-.264.153a.65.65,0,1,1-.657-1.122l.273-.158a28.953,28.953,0,0,0,3.69-2.432c1.354-1.1,2-2.053,1.771-2.612l0-.005a1.12,1.12,0,0,0-.405-.464c-.712-.519-1.96-.2-2.881.16A23.26,23.26,0,0,0,48.889,36.1c-1.295,1.94-2.459,6.267-2.842,7.689A.65.65,0,0,1,45.419,44.268Z" transform="translate(-13.942 -8.79)"/><path d="M57.9,42.352a.65.65,0,0,1-.595-.911A11.223,11.223,0,0,1,63.378,35a12.054,12.054,0,0,0,4.106-3.019c.955-1.1,2.294-4.546,3.186-8.185a28,28,0,0,0,.807-4.81c.112-1.924-.268-2.31-.312-2.348a.791.791,0,0,0-.63-.224A2.973,2.973,0,0,0,68.857,17.7a20.684,20.684,0,0,0-3.278,8.2.65.65,0,0,1-1.293-.134,21.936,21.936,0,0,1,3.532-8.845,4.207,4.207,0,0,1,2.578-1.8,2.087,2.087,0,0,1,1.62.534c.621.536.862,1.619.758,3.406a29.282,29.282,0,0,1-.842,5.044c-.777,3.171-2.192,7.254-3.464,8.725a13.313,13.313,0,0,1-4.5,3.327c-2.032,1.044-3.787,1.946-5.481,5.806A.65.65,0,0,1,57.9,42.352Z" transform="translate(-17.772 -4.838)"/><path d="M44.321,49.6a39.257,39.257,0,0,1,8.837,2.084,3.008,3.008,0,0,1,1.91,1.567c.27.722-.213,2.293-1.7,6.341-.4,1.073-.768,2.087-.9,2.572a3.542,3.542,0,0,1-.252.751.992.992,0,0,1-.9.578,1.5,1.5,0,0,1-.658-.176,16.517,16.517,0,0,1-3.881-3.19,20.384,20.384,0,0,0-3.509-3.014c-.159-.1-.323-.187-.481-.276a3.2,3.2,0,0,1-1.675-1.52,1.533,1.533,0,0,1-.087-.541,11.117,11.117,0,0,1,.812-3.111c.064-.18.12-.336.162-.46a2.153,2.153,0,0,1,2.256-1.6Zm9.521,4.083c-.065-.154-.306-.447-1.168-.793a38.122,38.122,0,0,0-8.352-1.99h-.039c-.817.023-.923.332-1.056.723-.045.133-.1.294-.169.48a11.687,11.687,0,0,0-.736,2.674.421.421,0,0,0,.007.091l0,.009c.1.271.578.541,1.087.826.167.093.339.19.515.3a21.28,21.28,0,0,1,3.756,3.206,16.406,16.406,0,0,0,3.448,2.9c.027-.092.053-.194.073-.27.146-.548.511-1.541.935-2.691.407-1.1.868-2.357,1.208-3.416A7,7,0,0,0,53.842,53.686Z" transform="translate(-12.791 -15.426)"/><path d="M53.687,55.628a1.558,1.558,0,0,1,.965.332,1.562,1.562,0,1,1-2.193.258l0,0A1.571,1.571,0,0,1,53.687,55.628Zm0,1.824a.253.253,0,0,0,.2-.1l.005-.007a.262.262,0,0,0,.057-.2.249.249,0,0,0-.093-.169.268.268,0,0,0-.166-.057.276.276,0,0,0-.213.1.254.254,0,0,0-.051.185.263.263,0,0,0,.1.177l.006,0A.246.246,0,0,0,53.684,57.452Z" transform="translate(-16.199 -17.275)"/><path d="M17.025,36.948a.647.647,0,0,1-.328-.089l-.263-.152a30,30,0,0,1-3.853-2.548A8.585,8.585,0,0,1,10.8,32.306a2.393,2.393,0,0,1-.383-2.259.65.65,0,1,1,1.207.484c-.226.564.42,1.518,1.772,2.619a28.854,28.854,0,0,0,3.682,2.43l.272.158a.65.65,0,0,1-.33,1.211Z" transform="translate(-3.356 -9.297)"/><path d="M26.742,44.269a.65.65,0,0,1-.627-.479c-.432-1.586-1.579-5.8-2.85-7.69a23.841,23.841,0,0,0-6.418-5.445c-2.221-1.287-3.963-1.687-4.778-1.1a1.08,1.08,0,0,0-.4.452.65.65,0,0,1-1.212-.47,2.333,2.333,0,0,1,.849-1.035c1.3-.945,3.387-.6,6.192,1.026a24.932,24.932,0,0,1,6.845,5.846c1.231,1.834,2.263,5.277,3.024,8.073a.651.651,0,0,1-.628.821Z" transform="translate(-3.396 -8.791)"/><path d="M14.9,42.352a.65.65,0,0,1-.6-.388C12.6,38.1,10.85,37.2,8.818,36.156a13.356,13.356,0,0,1-4.5-3.327C3.05,31.359,1.638,27.277.863,24.106a29.377,29.377,0,0,1-.841-5.044c-.1-1.787.136-2.869.756-3.406A2.087,2.087,0,0,1,2.4,15.122a4.214,4.214,0,0,1,2.581,1.8,22.135,22.135,0,0,1,3.535,8.83.649.649,0,0,1,0,.07v.008a.65.65,0,0,1-1.3.038A20.921,20.921,0,0,0,3.94,17.7a2.981,2.981,0,0,0-1.681-1.288.789.789,0,0,0-.629.223c-.044.038-.422.424-.31,2.349A28.092,28.092,0,0,0,2.126,23.8c.89,3.639,2.225,7.081,3.176,8.184A12.1,12.1,0,0,0,9.412,35a11.236,11.236,0,0,1,6.082,6.44.65.65,0,0,1-.595.912Z" transform="translate(-0.2 -4.838)"/><path d="M29.1,49.6h.07a2.145,2.145,0,0,1,2.254,1.6l0,.013c.044.134.1.307.175.507a11.123,11.123,0,0,1,.789,3.066,1.582,1.582,0,0,1-.076.524,3.175,3.175,0,0,1-1.663,1.52c-.164.092-.333.186-.5.285a20.312,20.312,0,0,0-3.513,3.015,16.471,16.471,0,0,1-3.883,3.189,1.478,1.478,0,0,1-.655.176.988.988,0,0,1-.9-.578,3.7,3.7,0,0,1-.254-.747l0-.007c-.129-.493-.512-1.533-.917-2.634-1.478-4.012-1.955-5.564-1.688-6.278l0-.01a3.077,3.077,0,0,1,1.913-1.555A39.254,39.254,0,0,1,29.1,49.6Zm.039,1.3H29.1a38.121,38.121,0,0,0-8.352,1.99c-.8.322-1.084.606-1.175.8A7.127,7.127,0,0,0,20.06,55.7c.336,1.046.793,2.288,1.2,3.384.435,1.18.81,2.2.955,2.755.023.087.049.183.074.269a16.4,16.4,0,0,0,3.445-2.9A21.212,21.212,0,0,1,29.49,56c.18-.109.359-.209.532-.306.478-.268.972-.544,1.067-.806a.635.635,0,0,0,.006-.1,11.483,11.483,0,0,0-.716-2.634c-.072-.2-.134-.38-.182-.526C30.054,51.219,29.947,50.926,29.142,50.9Z" transform="translate(-5.809 -15.426)"/><path d="M24.606,55.628h0a1.567,1.567,0,0,1,1.556,1.752,1.53,1.53,0,0,1-.579,1.031,1.562,1.562,0,0,1-2.192-.242l0-.006a1.561,1.561,0,0,1,1.22-2.535Zm0,1.824a.258.258,0,0,0,.163-.058l.007-.006a.236.236,0,0,0,.091-.162.267.267,0,0,0-.057-.2.263.263,0,0,0-.208-.1.258.258,0,0,0-.161.056.263.263,0,0,0,.165.469Z" transform="translate(-7.275 -17.275)"/><path d="M0,8.079a.65.65,0,0,1-.65-.65V0A.65.65,0,0,1,0-.65.65.65,0,0,1,.65,0V7.429A.65.65,0,0,1,0,8.079Z" transform="translate(13.717 4.455)"/><path d="M19.4.65H0A.65.65,0,0,1-.65,0,.65.65,0,0,1,0-.65H19.4a.65.65,0,0,1,.65.65A.65.65,0,0,1,19.4.65Z" transform="translate(17.724 15.89)"/><path d="M0,8.079a.65.65,0,0,1-.65-.65V0A.65.65,0,0,1,0-.65.65.65,0,0,1,.65,0V7.429A.65.65,0,0,1,0,8.079Z" transform="translate(41.133 4.455)"/><path d="M19.4.65H0A.65.65,0,0,1-.65,0,.65.65,0,0,1,0-.65H19.4a.65.65,0,0,1,.65.65A.65.65,0,0,1,19.4.65Z" transform="translate(17.724 0.451)"/><path d="M53.572,0h4.005a.65.65,0,0,1,.65.65v4a.65.65,0,0,1-.65.65A4.66,4.66,0,0,1,52.922.65.65.65,0,0,1,53.572,0Zm3.355,1.3H54.285a3.365,3.365,0,0,0,2.642,2.641Z" transform="translate(-16.444 -0.199)"/><path d="M19.792,0H23.8a.65.65,0,0,1,.65.65A4.661,4.661,0,0,1,19.792,5.3a.65.65,0,0,1-.65-.65v-4A.65.65,0,0,1,19.792,0Zm3.294,1.3H20.442V3.941A3.366,3.366,0,0,0,23.086,1.3Z" transform="translate(-6.075 -0.199)"/><path d="M23.8,21.8H19.792a.65.65,0,0,1-.65-.65V17.147a.65.65,0,0,1,.65-.65,4.662,4.662,0,0,1,4.657,4.656A.65.65,0,0,1,23.8,21.8Zm-3.357-1.3h2.644a3.366,3.366,0,0,0-2.644-2.643Z" transform="translate(-6.075 -5.263)"/><path d="M57.577,21.8H53.572a.65.65,0,0,1-.65-.65A4.661,4.661,0,0,1,57.577,16.5a.65.65,0,0,1,.65.65v4.006A.65.65,0,0,1,57.577,21.8Zm-3.292-1.3h2.642V17.86A3.365,3.365,0,0,0,54.285,20.5Z" transform="translate(-16.444 -5.263)"/><path d="M37.543,4.529a5.233,5.233,0,1,1-5.23,5.23A5.24,5.24,0,0,1,37.543,4.529Zm0,9.167a3.933,3.933,0,1,0-3.93-3.937A3.941,3.941,0,0,0,37.543,13.7Z" transform="translate(-10.118 -1.59)"/></g></g><g transform="translate(569.31 2679)"><g transform="translate(0 0)" clip-path="url(#c)"><path d="M24.439,49.187A24.44,24.44,0,1,1,48.88,24.747a24.467,24.467,0,0,1-24.441,24.44m0-48.072A23.633,23.633,0,1,0,48.072,24.747,23.658,23.658,0,0,0,24.439,1.115" transform="translate(0 -0.117)"/><path d="M31.606,49.188c-4.2,0-8.123-3.962-10.486-10.6a.4.4,0,0,1,.26-.52,2.092,2.092,0,0,0,.962-3.359,2.089,2.089,0,0,0-1.593-.735,2.04,2.04,0,0,0-.483.054.41.41,0,0,1-.312-.052.4.4,0,0,1-.179-.26,45.093,45.093,0,0,1-.877-8.97,44.2,44.2,0,0,1,.983-9.463.4.4,0,0,1,.179-.255.4.4,0,0,1,.307-.052,2.106,2.106,0,0,0,2.582-1.692,2.223,2.223,0,0,0,.027-.336,2.093,2.093,0,0,0-1.433-1.993.4.4,0,0,1-.251-.525C23.7,4,27.461.308,31.606.308c4.345,0,8.338,4.167,10.68,11.146.143.43.276.86.407,1.306a.407.407,0,0,1,.055.189,43.542,43.542,0,0,1,1.567,11.8,45.046,45.046,0,0,1-.875,8.957.4.4,0,0,1-.494.31,1.935,1.935,0,0,0-.476-.053,2.1,2.1,0,0,0-.626,4.095.4.4,0,0,1,.258.52c-2.367,6.644-6.29,10.612-10.495,10.612m-9.594-10.5c2.253,6.081,5.822,9.7,9.594,9.7s7.346-3.621,9.6-9.71a2.9,2.9,0,0,1,1.261-5.516c.088,0,.173,0,.255.011a44.441,44.441,0,0,0,.783-8.417,42.894,42.894,0,0,0-1.464-11.322,59.2,59.2,0,0,1-10.26.927h-.116a59.149,59.149,0,0,1-8.008-.55,2.892,2.892,0,0,1-3.068,2.03,43.653,43.653,0,0,0-.884,8.915,44.489,44.489,0,0,0,.785,8.43c.084-.007.169-.011.258-.011a2.906,2.906,0,0,1,2.867,3.37,2.946,2.946,0,0,1-1.6,2.146m9.654-25.137a58.289,58.289,0,0,0,10.151-.9c-.1-.317-.193-.627-.3-.937C39.294,5.076,35.588,1.116,31.606,1.116c-3.657,0-7.161,3.444-9.418,9.237a2.9,2.9,0,0,1,1.6,2.6c0,.018,0,.037,0,.055a58.377,58.377,0,0,0,7.881.54" transform="translate(-7.167 -0.117)"/><path d="M48.476,39.834H.4a.4.4,0,1,1,0-.808H48.476a.4.4,0,0,1,0,.808" transform="translate(0 -14.799)"/><path d="M39.122,49.188a.4.4,0,0,1-.4-.4V.712a.4.4,0,0,1,.807,0V48.784a.4.4,0,0,1-.4.4" transform="translate(-14.682 -0.117)"/><path d="M16.5,21.8a2.9,2.9,0,0,1-2.9-2.9c0-.066,0-.131.007-.2-1.989-.466-4-1.039-6-1.7a.4.4,0,1,1,.256-.765c1.961.655,3.945,1.22,5.9,1.68a2.9,2.9,0,0,1,5.63.987c0,.018,0,.036,0,.055a58.981,58.981,0,0,0,27.175-2.721.4.4,0,1,1,.259.764,59.766,59.766,0,0,1-27.562,2.754A2.887,2.887,0,0,1,16.5,21.8m-2.047-3.319a2.063,2.063,0,0,0-.044.422,2.094,2.094,0,0,0,4.16.337h0a2.21,2.21,0,0,0,.027-.336,2.093,2.093,0,0,0-4.142-.429v.007" transform="translate(-2.781 -6.066)"/><path d="M46.7,59.7a.415.415,0,0,1-.13-.022,63.811,63.811,0,0,0-6.139-1.752.4.4,0,1,1,.181-.787c2.024.466,4.116,1.062,6.218,1.774a.4.4,0,0,1-.13.786m-38.967,0a.4.4,0,0,1-.129-.787c2.085-.7,4.176-1.291,6.217-1.761a.4.4,0,1,1,.181.787c-2.014.463-4.08,1.048-6.14,1.739a.409.409,0,0,1-.129.021m11.086-2.671a.4.4,0,0,1-.058-.8,58.619,58.619,0,0,1,16.91-.012.4.4,0,0,1-.117.8,57.758,57.758,0,0,0-16.676.012.49.49,0,0,1-.059,0" transform="translate(-2.781 -21.088)"/><path d="M55.093,59.021a2.9,2.9,0,1,1,2.861-2.43,2.908,2.908,0,0,1-2.861,2.43m0-4.994a2.1,2.1,0,1,0,1.592.738,2.1,2.1,0,0,0-1.592-.738" transform="translate(-19.791 -20.182)"/><path d="M20.105,59.041a2.9,2.9,0,1,1,2.867-2.432,2.908,2.908,0,0,1-2.867,2.432m0-4.994a2.1,2.1,0,1,0,1.592.735,2.1,2.1,0,0,0-1.592-.735" transform="translate(-6.523 -20.19)"/><path d="M47.283.808H5.342a.4.4,0,0,1,0-.808H47.283a.4.4,0,0,1,0,.808" transform="translate(-1.873 0)"/><path d="M47.283,78.617H5.342a.4.4,0,0,1,0-.808H47.283a.4.4,0,0,1,0,.808" transform="translate(-1.873 -29.507)"/></g></g><g transform="translate(992 2679)"><g transform="translate(0 0)" clip-path="url(#d)"><path d="M32.426,49.156H.393A.393.393,0,0,1,0,48.763V3.651a.393.393,0,0,1,.393-.393H32.426a.393.393,0,0,1,.393.393V48.763a.393.393,0,0,1-.393.393M.787,48.37H32.033V4.045H.787Z" transform="translate(0 -1.287)"/><path d="M61.577,56.055a.392.392,0,0,1-.353-.222l-3.583-7.378a.391.391,0,0,1-.04-.172V22.817a.394.394,0,0,1,.394-.393h7.163a.394.394,0,0,1,.394.393V48.283a.391.391,0,0,1-.04.172l-3.581,7.378a.392.392,0,0,1-.354.222m-3.189-7.862,3.189,6.568,3.188-6.568V23.211H58.388Z" transform="translate(-22.746 -8.855)"/><path d="M63.25,76.048a.394.394,0,0,1-.354-.221l-1.021-2.1a.393.393,0,0,1,.267-.555,5.289,5.289,0,0,1,2.213,0,.393.393,0,0,1,.266.555l-1.018,2.1a.394.394,0,0,1-.354.221m-.435-2.189.434.895.434-.895a4.837,4.837,0,0,0-.868,0" transform="translate(-24.418 -28.848)"/><path d="M65.243,64.636a.387.387,0,0,1-.2-.055L63.89,63.9l-.732.632a.4.4,0,0,1-.487.021l-1.153-.83-.795.795a.394.394,0,0,1-.278.115h0a.391.391,0,0,1-.278-.116l-.788-.793-1.153.83a.393.393,0,1,1-.46-.638l1.425-1.026a.392.392,0,0,1,.509.042l.746.751.752-.752a.393.393,0,0,1,.508-.041l1.173.844.712-.614a.393.393,0,0,1,.457-.041l1.4.828a.393.393,0,0,1-.2.732" transform="translate(-22.746 -24.804)"/><path d="M60.647,47.758a.393.393,0,0,1-.393-.393V22.818a.393.393,0,1,1,.787,0V47.365a.393.393,0,0,1-.393.393" transform="translate(-23.794 -8.856)"/><path d="M63.627,47.876a.393.393,0,0,1-.393-.392l-.113-24.665a.394.394,0,0,1,.392-.4h0a.394.394,0,0,1,.394.392L64.02,47.48a.394.394,0,0,1-.392.4Z" transform="translate(-24.926 -8.855)"/><path d="M66.792,48.165a.393.393,0,0,1-.393-.393V22.818a.393.393,0,1,1,.787,0V47.771a.393.393,0,0,1-.393.393" transform="translate(-26.22 -8.856)"/><path d="M65.158,20.786H57.995a.393.393,0,0,1-.394-.393V18.535a2.255,2.255,0,0,1,2.253-2.253H63.3a2.255,2.255,0,0,1,2.253,2.253v1.858a.393.393,0,0,1-.394.393M58.388,20h6.377V18.535A1.467,1.467,0,0,0,63.3,17.069H59.854a1.467,1.467,0,0,0-1.466,1.466Z" transform="translate(-22.746 -6.43)"/><path d="M30.557,20.421H9.293a.394.394,0,0,1-.394-.393V14.9a.394.394,0,0,1,.394-.393H30.557a.393.393,0,0,1,.393.393v5.131a.393.393,0,0,1-.393.393M9.686,19.634H30.163V15.289H9.686Z" transform="translate(-3.514 -5.727)"/><path d="M30.42,29.354H9.945a.393.393,0,1,1,0-.787H30.42a.393.393,0,1,1,0,.787" transform="translate(-3.772 -11.281)"/><path d="M30.42,34.671H9.945a.393.393,0,1,1,0-.787H30.42a.393.393,0,1,1,0,.787" transform="translate(-3.772 -13.381)"/><path d="M34.584,39.985H20.49a.393.393,0,1,1,0-.787H34.584a.393.393,0,1,1,0,.787" transform="translate(-7.936 -15.479)"/><path d="M25.294,45.292H9.945a.393.393,0,1,1,0-.787H25.294a.393.393,0,1,1,0,.787" transform="translate(-3.772 -17.575)"/><path d="M30.42,50.606H9.945a.393.393,0,1,1,0-.787H30.42a.393.393,0,1,1,0,.787" transform="translate(-3.772 -19.673)"/><path d="M33.224,55.922H17.047a.393.393,0,1,1,0-.787H33.224a.393.393,0,0,1,0,.787" transform="translate(-6.576 -21.772)"/><path d="M30.42,61.226H9.945a.393.393,0,1,1,0-.787H30.42a.393.393,0,1,1,0,.787" transform="translate(-3.772 -23.867)"/><path d="M31.268,4.73a.393.393,0,0,1-.393-.393V.393a.394.394,0,0,1,.787,0V4.336a.393.393,0,0,1-.394.393m-4.232,0a.393.393,0,0,1-.393-.393V.393a.394.394,0,0,1,.787,0V4.336a.393.393,0,0,1-.394.393m-4.229,0a.393.393,0,0,1-.393-.393V.393a.393.393,0,0,1,.787,0V4.336a.393.393,0,0,1-.393.393m-4.23,0a.393.393,0,0,1-.394-.393V.393a.394.394,0,0,1,.787,0V4.336a.393.393,0,0,1-.393.393m-4.23,0a.393.393,0,0,1-.393-.393V.393a.394.394,0,0,1,.787,0V4.336a.393.393,0,0,1-.394.393m-4.23,0a.393.393,0,0,1-.393-.393V.393a.394.394,0,0,1,.787,0V4.336a.393.393,0,0,1-.394.393m-4.231,0a.393.393,0,0,1-.393-.393V.393a.393.393,0,0,1,.787,0V4.336a.393.393,0,0,1-.393.393" transform="translate(-2.169 0)"/></g></g><g transform="translate(1199 2673)"><g transform="translate(0 0)" clip-path="url(#e)"><path d="M9.214,9.307a4.653,4.653,0,1,1,4.658-4.65,4.659,4.659,0,0,1-4.658,4.65m0-8.345a3.691,3.691,0,1,0,3.7,3.694A3.7,3.7,0,0,0,9.214.962" transform="translate(-1.187 0)"/><path d="M14.411,27.291a1.872,1.872,0,0,1-1.873-1.867v-1.68a.481.481,0,0,1,.962,0v1.68a.919.919,0,0,0,.91.9.968.968,0,0,0,.912-.944l0-6.53a3.972,3.972,0,0,0-3.969-3.966H4.932a3.973,3.973,0,0,0-3.97,3.966V25.43a.906.906,0,0,0,.91.9.919.919,0,0,0,.91-.9v-1.68a.481.481,0,0,1,.962,0v1.68A1.872,1.872,0,0,1,0,25.43V18.855a4.935,4.935,0,0,1,4.932-4.927h6.42a4.935,4.935,0,0,1,4.932,4.927V25.43a1.918,1.918,0,0,1-1.872,1.862" transform="translate(0 -3.627)"/><path d="M14,32.572H4.244a.481.481,0,0,1-.481-.481V24.623a.481.481,0,0,1,.962,0V31.61h8.793V24.623a.481.481,0,1,1,.961,0v7.469a.481.481,0,0,1-.48.481" transform="translate(-0.98 -6.287)"/><path d="M10.28,23.963a.481.481,0,0,1-.481-.481V17.753H8.7a.481.481,0,1,1,0-.961h3.168a.481.481,0,1,1,0,.961h-1.1v5.729a.481.481,0,0,1-.481.481" transform="translate(-2.14 -4.373)"/><path d="M46.083,52.876a4.653,4.653,0,1,1,4.658-4.65,4.658,4.658,0,0,1-4.658,4.65m0-8.345a3.691,3.691,0,1,0,3.7,3.694,3.7,3.7,0,0,0-3.7-3.694" transform="translate(-10.788 -11.346)"/><path d="M43.283,49.279a4.633,4.633,0,0,1-1.5-.248.481.481,0,1,1,.311-.91,3.685,3.685,0,0,0,1.189.2,3.644,3.644,0,0,0,2.957-1.479.481.481,0,0,1,.686-.089,3.789,3.789,0,0,0,3.106.739.481.481,0,0,1,.2.942,4.761,4.761,0,0,1-3.518-.653,4.67,4.67,0,0,1-3.426,1.5" transform="translate(-10.796 -12.147)"/><path d="M51.273,70.859a1.872,1.872,0,0,1-1.867-1.872V67.313a.481.481,0,0,1,.962,0v1.674a.909.909,0,0,0,.905.91.962.962,0,0,0,.914-.944l0-6.528a3.97,3.97,0,0,0-3.966-3.966H41.794a3.971,3.971,0,0,0-3.965,3.966V69a.907.907,0,0,0,1.815-.011V67.313a.481.481,0,0,1,.962,0v1.674A1.87,1.87,0,0,1,36.867,69V62.424A4.934,4.934,0,0,1,41.794,57.5h6.425a4.933,4.933,0,0,1,4.928,4.927V69a1.923,1.923,0,0,1-1.874,1.861" transform="translate(-9.601 -14.974)"/><path d="M50.864,76.141H41.1a.481.481,0,0,1-.481-.481V68.19a.481.481,0,0,1,.962,0v6.989h8.8V68.19a.481.481,0,1,1,.961,0v7.47a.481.481,0,0,1-.481.481" transform="translate(-10.579 -17.633)"/><path d="M47.144,67.533a.481.481,0,0,1-.481-.481V61.324h-1.1a.481.481,0,0,1,0-.962h3.161a.481.481,0,0,1,0,.962h-1.1v5.728a.481.481,0,0,1-.481.481" transform="translate(-11.741 -15.72)"/><path d="M33.061,32.494a.482.482,0,0,1-.476-.55l.971-6.632H29.269a.481.481,0,0,1-.481-.481V7.247a.481.481,0,0,1,.481-.481H56.537a.481.481,0,0,1,.481.481V24.83a.481.481,0,0,1-.481.481H41.785l-8.416,7.069a.479.479,0,0,1-.308.113M29.75,24.35h4.361a.481.481,0,0,1,.476.55l-.869,5.931L41.3,24.462a.486.486,0,0,1,.309-.112H56.056V7.727H29.75Z" transform="translate(-7.497 -1.762)"/><path d="M47.889,11.726H35.873a.481.481,0,0,1,0-.962H47.889a.481.481,0,0,1,0,.962" transform="translate(-9.217 -2.803)"/><path d="M58.477,11.726H55.454a.481.481,0,0,1,0-.962h3.023a.481.481,0,0,1,0,.962" transform="translate(-14.316 -2.803)"/><path d="M6.5,5.711A4.6,4.6,0,0,1,5,5.462a.481.481,0,1,1,.312-.91,3.648,3.648,0,0,0,1.186.2A3.661,3.661,0,0,0,9.453,3.268a.487.487,0,0,1,.324-.189.472.472,0,0,1,.361.1A3.688,3.688,0,0,0,12.46,4a3.631,3.631,0,0,0,.773-.078.481.481,0,0,1,.2.939,4.576,4.576,0,0,1-.977.1,4.7,4.7,0,0,1-2.537-.751A4.61,4.61,0,0,1,6.5,5.711" transform="translate(-1.217 -0.801)"/><path d="M25.334,61.889H10.012a.481.481,0,0,1-.481-.481V37.4a.481.481,0,1,1,.963,0V60.927h14.84a.481.481,0,0,1,0,.962" transform="translate(-2.482 -9.614)"/><path d="M55.309,15.45H43.287a.481.481,0,0,1,0-.962H55.309a.481.481,0,0,1,0,.962" transform="translate(-11.148 -3.773)"/><path d="M38.9,15.45H35.873a.481.481,0,0,1,0-.962H38.9a.481.481,0,0,1,0,.962" transform="translate(-9.217 -3.773)"/><path d="M47.889,19.181H35.873a.481.481,0,0,1,0-.962H47.889a.481.481,0,0,1,0,.962" transform="translate(-9.217 -4.745)"/><path d="M58.477,19.181H55.454a.481.481,0,0,1,0-.962h3.023a.481.481,0,0,1,0,.962" transform="translate(-14.316 -4.745)"/><path d="M55.309,22.9H43.287a.481.481,0,0,1,0-.962H55.309a.481.481,0,0,1,0,.962" transform="translate(-11.148 -5.714)"/><path d="M38.9,22.9H35.873a.481.481,0,0,1,0-.962H38.9a.481.481,0,0,1,0,.962" transform="translate(-9.217 -5.714)"/><path d="M47.889,26.628H35.873a.481.481,0,0,1,0-.962H47.889a.481.481,0,0,1,0,.962" transform="translate(-9.217 -6.684)"/><path d="M58.477,26.628H55.454a.481.481,0,0,1,0-.962h3.023a.481.481,0,0,1,0,.962" transform="translate(-14.316 -6.684)"/></g></g></g></svg>