<svg xmlns="http://www.w3.org/2000/svg" xmlns:xlink="http://www.w3.org/1999/xlink" width="357.125" height="371.937" viewBox="0 0 357.125 371.937">
  <defs>
    <linearGradient id="linear-gradient" x1="0.346" y1="0.052" x2="1.348" y2="2.712" gradientUnits="objectBoundingBox">
      <stop offset="0" stop-color="#ffc444"/>
      <stop offset="0.996" stop-color="#f36f56"/>
    </linearGradient>
    <linearGradient id="linear-gradient-2" x1="-0.38" y1="-2.518" x2="1.868" y2="5.432" xlink:href="#linear-gradient"/>
    <linearGradient id="linear-gradient-3" x1="0.774" y1="2.112" x2="-0.092" y2="-2.625" gradientUnits="objectBoundingBox">
      <stop offset="0" stop-color="#aa80f9"/>
      <stop offset="0.996" stop-color="#6165d7"/>
    </linearGradient>
    <linearGradient id="linear-gradient-4" x1="0.352" y1="1.04" x2="1.17" y2="-4.704" xlink:href="#linear-gradient"/>
    <linearGradient id="linear-gradient-5" x1="0.661" y1="2.068" x2="-0.033" y2="-4.206" xlink:href="#linear-gradient-3"/>
    <linearGradient id="linear-gradient-6" x1="0.174" y1="2.289" x2="0.992" y2="-3.454" xlink:href="#linear-gradient"/>
    <linearGradient id="linear-gradient-7" x1="0.232" y1="1.002" x2="0.939" y2="-0.193" gradientUnits="objectBoundingBox">
      <stop offset="0" stop-color="#444b8c"/>
      <stop offset="0.996" stop-color="#26264f"/>
    </linearGradient>
    <linearGradient id="linear-gradient-8" x1="-0.001" y1="0.974" x2="0.755" y2="-0.221" xlink:href="#linear-gradient-7"/>
    <linearGradient id="linear-gradient-9" x1="-9.072" y1="5.19" x2="-9.072" y2="3.791" gradientUnits="objectBoundingBox">
      <stop offset="0" stop-color="#ffc444"/>
      <stop offset="0.996" stop-color="#fff3cc"/>
      <stop offset="1" stop-color="#f36f56"/>
    </linearGradient>
    <linearGradient id="linear-gradient-10" x1="-49.469" y1="-4.909" x2="-50.171" y2="-6.501" gradientUnits="objectBoundingBox">
      <stop offset="0" stop-color="#444b8c"/>
      <stop offset="0.996" stop-color="#3e4177"/>
    </linearGradient>
    <linearGradient id="linear-gradient-11" x1="-35.811" y1="18.494" x2="-34.701" y2="16.112" xlink:href="#linear-gradient"/>
    <linearGradient id="linear-gradient-12" x1="53.872" y1="20.281" x2="53.099" y2="18.415" xlink:href="#linear-gradient-10"/>
    <linearGradient id="linear-gradient-13" x1="-0.161" y1="-0.863" x2="1.817" y2="4.003" gradientUnits="objectBoundingBox">
      <stop offset="0" stop-color="#ff9085"/>
      <stop offset="1" stop-color="#fb6fbb"/>
    </linearGradient>
    <linearGradient id="linear-gradient-14" x1="0.778" y1="0.372" x2="-1.786" y2="3.193" xlink:href="#linear-gradient"/>
    <linearGradient id="linear-gradient-15" x1="-0.076" y1="1.101" x2="-4.962" y2="6.916" xlink:href="#linear-gradient"/>
    <linearGradient id="linear-gradient-16" x1="15.134" y1="4.03" x2="10.942" y2="13.461" xlink:href="#linear-gradient"/>
    <linearGradient id="linear-gradient-17" x1="6.011" y1="-2.57" x2="6.178" y2="2.836" gradientUnits="objectBoundingBox">
      <stop offset="0.004" stop-color="#26264f"/>
      <stop offset="1" stop-color="#444b8c"/>
    </linearGradient>
    <linearGradient id="linear-gradient-18" x1="-10.198" y1="-5.198" x2="-10.314" y2="-11.697" xlink:href="#linear-gradient"/>
    <linearGradient id="linear-gradient-19" x1="6.011" y1="-2.57" x2="6.177" y2="2.836" xlink:href="#linear-gradient-17"/>
    <linearGradient id="linear-gradient-20" x1="-10.177" y1="-4.28" x2="-10.292" y2="-10.779" xlink:href="#linear-gradient"/>
    <linearGradient id="linear-gradient-21" x1="0" y1="0.5" x2="1" y2="0.5" xlink:href="#linear-gradient-7"/>
    <linearGradient id="linear-gradient-23" x1="18.032" y1="-3.208" x2="19.213" y2="-1.66" xlink:href="#linear-gradient"/>
    <linearGradient id="linear-gradient-24" x1="192.624" y1="-28.575" x2="206.943" y2="-14.786" xlink:href="#linear-gradient"/>
    <linearGradient id="linear-gradient-25" x1="-0.124" y1="0.253" x2="0.63" y2="0.79" gradientUnits="objectBoundingBox">
      <stop offset="0.004" stop-color="#e38ddd"/>
      <stop offset="1" stop-color="#9571f6"/>
    </linearGradient>
    <linearGradient id="linear-gradient-26" x1="-44.785" y1="-8.934" x2="-43.734" y2="-7.484" xlink:href="#linear-gradient-7"/>
    <linearGradient id="linear-gradient-27" x1="-86.1" y1="10.888" x2="-86.1" y2="9.473" xlink:href="#linear-gradient"/>
    <linearGradient id="linear-gradient-28" x1="-57.228" y1="-11.488" x2="-55.896" y2="-9.7" xlink:href="#linear-gradient-7"/>
    <linearGradient id="linear-gradient-29" x1="-40.249" y1="-0.515" x2="-39.154" y2="0.793" xlink:href="#linear-gradient-7"/>
    <linearGradient id="linear-gradient-30" x1="-55.33" y1="13.421" x2="-55.33" y2="12.057" xlink:href="#linear-gradient"/>
    <linearGradient id="linear-gradient-31" x1="-50.521" y1="-1.298" x2="-49.161" y2="0.479" xlink:href="#linear-gradient-7"/>
    <linearGradient id="linear-gradient-32" x1="-5.667" y1="0.132" x2="-6.071" y2="0.499" xlink:href="#linear-gradient-7"/>
    <linearGradient id="linear-gradient-33" x1="-6.337" y1="0.5" x2="-5.337" y2="0.5" xlink:href="#linear-gradient-7"/>
    <linearGradient id="linear-gradient-34" x1="8.178" y1="0.052" x2="9.179" y2="2.712" xlink:href="#linear-gradient"/>
    <linearGradient id="linear-gradient-35" x1="17.874" y1="-2.518" x2="20.122" y2="5.432" xlink:href="#linear-gradient"/>
    <linearGradient id="linear-gradient-36" x1="-7.683" y1="0.278" x2="-7.07" y2="0.68" xlink:href="#linear-gradient"/>
    <linearGradient id="linear-gradient-37" x1="-5.215" y1="4.445" x2="-4.034" y2="5.993" xlink:href="#linear-gradient"/>
    <linearGradient id="linear-gradient-38" x1="-59.886" y1="32.481" x2="-45.567" y2="46.27" xlink:href="#linear-gradient"/>
    <linearGradient id="linear-gradient-39" x1="-9.819" y1="0.253" x2="-9.066" y2="0.79" xlink:href="#linear-gradient"/>
    <linearGradient id="linear-gradient-40" x1="0.605" y1="0.091" x2="0.2" y2="1.494" xlink:href="#linear-gradient"/>
    <linearGradient id="linear-gradient-41" x1="-6.204" y1="1.084" x2="-6.358" y2="0.837" gradientUnits="objectBoundingBox">
      <stop offset="0" stop-color="#e0f4ff"/>
      <stop offset="1" stop-color="#0d47a1"/>
    </linearGradient>
    <linearGradient id="linear-gradient-42" x1="1.005" y1="1.084" x2="0.85" y2="0.837" gradientUnits="objectBoundingBox">
      <stop offset="0" stop-color="#311944"/>
      <stop offset="1" stop-color="#e0f4ff"/>
    </linearGradient>
    <linearGradient id="linear-gradient-43" x1="0.497" y1="0.504" x2="0.14" y2="1.011" xlink:href="#linear-gradient-7"/>
  </defs>
  <g id="Grupo_45961" data-name="Grupo 45961" transform="translate(-1141.042 -3.117)">
    <g id="Elipse_1103" data-name="Elipse 1103" transform="translate(1449.083 156.631)" fill="none" stroke="#474f84" stroke-width="2">
      <circle cx="7" cy="7" r="7" stroke="none"/>
      <circle cx="7" cy="7" r="6" fill="none"/>
    </g>
    <g id="Grupo_45968" data-name="Grupo 45968">
      <g id="Grupo_45959" data-name="Grupo 45959" transform="translate(1141.042 3.117)">
        <path id="Trazado_65121" data-name="Trazado 65121" d="M778.833,756.493c-72.2,92.355-241.293,93.838-288.1,42.538-18.682-20.472-23.615-55.632-30.866-107.278a475.592,475.592,0,0,1-4.287-58.651c-1.022-46.771-1.531-70.158,6-86.069,21.567-45.544,96.486-63.27,144.91-64.093q5.07-.088,10.228.067c56.7,1.689,120.684,25.293,160.146,75.73a169.183,169.183,0,0,1,11.4,16.477C824.285,634.446,818.224,706.114,778.833,756.493Z" transform="translate(-455 -460.978)" fill="#0d3c86"/>
        <g id="Grupo_45938" data-name="Grupo 45938" transform="translate(15.178 82.643)">
          <path id="Trazado_65122" data-name="Trazado 65122" d="M1210.213,1211.348c-14.436-.749-28.126-20.913-28.126-20.913l-.022-.219-7.339-29.957s14.577.2,33.816,33.134c0,0,7.191,8.353,7.654,13.67C1216.429,1209.7,1215,1211.595,1210.213,1211.348Z" transform="translate(-1098.107 -1134.579)" fill="#ffd54f"/>
          <g id="Grupo_45933" data-name="Grupo 45933" transform="translate(104.1 16.845)">
            <path id="Trazado_65123" data-name="Trazado 65123" d="M1400.927,1093.935c-1.184-.754-2.906,5.866-2.906,5.866s.628-7.749-.377-7.713-1,6.314-1,6.314-1.794-5.991-1.866-7.032-1.4.179-1.04,2.117.754,5.059.754,5.059-1.579-1.4-2.583-.18c-.873,1.059-1.447,2.74-.924,2.976a.628.628,0,0,0-.4.253c-.825.9-.431,3.157,2.116,4.054s1.83,2.224,3.372,2.26a5.7,5.7,0,0,0,2.924-.9S1402.11,1094.689,1400.927,1093.935Zm-8.987,9.094c-.367-.445-.485-1.482-.843-1.661a.6.6,0,0,0,.2-.025c1-.287,2.081-1.866,2.224-.574S1392.442,1103.64,1391.94,1103.03Z" transform="translate(-1390.188 -1090.99)" fill="url(#linear-gradient)"/>
            <path id="Trazado_65124" data-name="Trazado 65124" d="M1431.464,1211.446l.665,5.663-4.725-.919-.181-3.786Z" transform="translate(-1422.5 -1196.082)" fill="url(#linear-gradient-2)"/>
          </g>
          <path id="Trazado_65125" data-name="Trazado 65125" d="M1412.589,1239.773s-6.217,38.765,2.58,40.475c0,0,8.665,4.692,8.315-11.127a107.033,107.033,0,0,0-5.068-29.348Z" transform="translate(-1303.772 -1203.951)" fill="#ffd54f"/>
          <g id="Grupo_45934" data-name="Grupo 45934" transform="translate(28.675 108.166)">
            <path id="Trazado_65126" data-name="Trazado 65126" d="M819.67,2669.352a2.61,2.61,0,0,1,.583-2.382,2.953,2.953,0,0,1,3.224-.4c.53.24.942.624,2.4,3.661,1.539,3.21,1.533,3.727,1.285,4.02-.5.6-1.916.156-2.22.062-1.012-.314-1.259-.794-3.344-2.747C820.184,2670.239,819.833,2670.024,819.67,2669.352Z" transform="translate(-816.946 -2556.673)" fill="url(#linear-gradient-3)"/>
            <path id="Trazado_65127" data-name="Trazado 65127" d="M827.9,2651.085l.353,3.721c.847.44,1.373.4,1.65,0l.711-3.721Z" transform="translate(-824.193 -2543.424)" fill="url(#linear-gradient-4)"/>
            <path id="Trazado_65128" data-name="Trazado 65128" d="M1102.234,2657.843a2.61,2.61,0,0,1-.58-2.383,2.953,2.953,0,0,1,2.675-1.844c.581-.031,1.124.119,3.816,2.143,2.846,2.139,3.078,2.6,2.994,2.976-.172.76-1.628,1.021-1.942,1.077-1.043.188-1.484-.125-4.234-.9C1103.1,2658.393,1102.689,2658.364,1102.234,2657.843Z" transform="translate(-1062.95 -2545.628)" fill="url(#linear-gradient-5)"/>
            <path id="Trazado_65129" data-name="Trazado 65129" d="M1108.766,2638.065l.353,3.72c.848.441,1.374.405,1.651,0l.711-3.72Z" transform="translate(-1069.235 -2532.064)" fill="url(#linear-gradient-6)"/>
            <path id="Trazado_65130" data-name="Trazado 65130" d="M801.583,1915.365l4.016.242q4.251-20.738,9.364-42.427,5.619-23.758,11.694-46.049c1.278,5.655,2.544,12.269,3.541,19.7a217.854,217.854,0,0,1,1.85,21.834c.365,11.971-.678,13.385-.185,20.859a79.815,79.815,0,0,0,5.921,25l3.828-.232a293.248,293.248,0,0,0,2.093-107.318l-34.786,1.081a82.564,82.564,0,0,0-6.1,19.851c-1.68,9.766-.65,14.584-1.914,31.222-.653,8.6-1.13,9.962-1.6,15.673A152.734,152.734,0,0,0,801.583,1915.365Z" transform="translate(-798.827 -1806.975)" fill="url(#linear-gradient-7)"/>
            <path id="Trazado_65131" data-name="Trazado 65131" d="M809.289,1882.362c1.058-11.243-3-11.011-1.11-20.724,1.738-8.936,5.423-10.425,8.141-21.834,2.182-9.157.515-11.165,2.22-15.172,2.107-4.951,8.26-10.356,25.947-12.652-.253-1.709-.514-3.384-.783-5l-34.786,1.081a82.564,82.564,0,0,0-6.1,19.851c-1.68,9.766-.65,14.584-1.914,31.222-.653,8.6-1.13,9.962-1.6,15.673a152.734,152.734,0,0,0,2.286,40.563l4.016.242c.082-.4.17-.81.253-1.213a17.232,17.232,0,0,1-1.745-3.722C801.172,1901.651,807.967,1896.413,809.289,1882.362Z" transform="translate(-798.827 -1806.975)" opacity="0.3" fill="url(#linear-gradient-8)" style="mix-blend-mode: multiply;isolation: isolate"/>
          </g>
          <path id="Trazado_65132" data-name="Trazado 65132" d="M846.448,1185.819c-1.146,3.882-.222,15.241-.373,26.362-.2,13.711-2.03,27.059-11.394,25.579-16.952-2.676-45.813,11.763-43.794-13.564,1.4-17.548-.03-44.828.248-63.234.055-3.711.182-7.057.414-9.895a10.518,10.518,0,0,1,8.279-9.43c10.652-2.282,31.218-5.275,44.571,1.7C863.077,1153.1,849,1177.146,846.448,1185.819Z" transform="translate(-763.137 -1116.03)" fill="#ffd54f"/>
          <path id="Trazado_65133" data-name="Trazado 65133" d="M942.795,1030.083a33.29,33.29,0,0,1-2.688,9.329c-1.815,3.548-10,5.214-11.689,5.9s2.781,3.457,7.423,4.3,18.093.854,20.644-.728-1.8-1.8-5.047-3.29-4.65-8.182-3.823-11.1S942.795,1030.083,942.795,1030.083Z" transform="translate(-882.897 -1021.006)" fill="url(#linear-gradient-9)"/>
          <g id="Grupo_45935" data-name="Grupo 45935" transform="translate(56.859)">
            <path id="Trazado_65134" data-name="Trazado 65134" d="M1031.669,967.73c1.6-1.453,1.932-4.887.3-6.914-1.21-1.5-3.071-1.7-4.427-1.842-.628-.066-5.051-.478-6.956,2.307a5.232,5.232,0,0,0-.749,3.357,13.172,13.172,0,0,0,.857,2.846c.5,1.325.455,1.274.612,1.662a18.306,18.306,0,0,0,2.8,4.592,12.734,12.734,0,0,1,1.116-1.915,11.291,11.291,0,0,1,1.941-2.12C1029.172,968.085,1030.415,968.867,1031.669,967.73Z" transform="translate(-1019.805 -958.916)" fill="url(#linear-gradient-10)"/>
            <path id="Trazado_65135" data-name="Trazado 65135" d="M1022.871,1013.948a6.921,6.921,0,0,0,5.339,4.248c3.6.505,5.775-7.356,3.855-9.518a4.581,4.581,0,0,0-3.413-1.18c-.771.053-1.08.3-2.341.367-1.163.057-1.45-.13-1.841.082-.49.264-.973,1.061-.76,3.535a1.973,1.973,0,0,0-1.928-1.107,1.237,1.237,0,0,0-.569.363C1020.527,1011.546,1021.118,1012.88,1022.871,1013.948Z" transform="translate(-1020.791 -1001.293)" fill="url(#linear-gradient-11)"/>
            <path id="Trazado_65136" data-name="Trazado 65136" d="M1038.834,1021.725a17.689,17.689,0,0,0,1.238,4.052,4.44,4.44,0,0,0,4.408,1.429,15.809,15.809,0,0,0,3.349-1.024s-.434,3.978-1.021,4.3-4.49,1.319-5.389.885a8.33,8.33,0,0,1-2.8-4.321,30.976,30.976,0,0,1,.106-4.5Z" transform="translate(-1036.168 -1013.714)" fill="url(#linear-gradient-12)"/>
          </g>
          <path id="Trazado_65137" data-name="Trazado 65137" d="M846.075,1361.234c-.2,13.711-2.03,27.058-11.394,25.579-16.952-2.676-45.813,11.762-43.794-13.565,1.4-17.548-.03-44.828.248-63.234.429-1.908,3.327,12.666,3.327,12.666s19.31-9.592,18.552,8.582-1.328,28.018,18.643,27.008A26.41,26.41,0,0,1,846.075,1361.234Z" transform="translate(-763.137 -1265.083)" opacity="0.4" fill="url(#linear-gradient-13)" style="mix-blend-mode: multiply;isolation: isolate"/>
          <g id="Grupo_45937" data-name="Grupo 45937" transform="translate(54.219 76.439)">
            <path id="Trazado_65138" data-name="Trazado 65138" d="M1000.681,1569.551s2.56-.839,3.354-1.192,2.074-1.236,3.31-.574,2.78,5.869,1.5,6.134a72.123,72.123,0,0,1-8.164.309C999.4,1574.184,997.883,1570.519,1000.681,1569.551Z" transform="translate(-999.102 -1566.357)" fill="url(#linear-gradient-14)"/>
            <g id="Grupo_45936" data-name="Grupo 45936" transform="translate(8.287)">
              <path id="Trazado_65139" data-name="Trazado 65139" d="M1064.073,1560.417s5.229-2.913,5.362-2.019-4.9,3.078-4.9,3.078Z" transform="translate(-1064.073 -1558.227)" fill="url(#linear-gradient-15)"/>
              <path id="Trazado_65140" data-name="Trazado 65140" d="M1070.251,1578.332s6.12-1.308,6.251-.547-6.2,1.765-6.2,1.765Z" transform="translate(-1069.463 -1575.083)" fill="url(#linear-gradient-16)"/>
            </g>
          </g>
          <path id="Trazado_65141" data-name="Trazado 65141" d="M596.116,1213.473c3.281-2.485,21.707-17.164,21.96-25.746s-.216-20.861-10.331-19.77c0,0-36.366,18.255-33.589,52.2,1.84,22.5,56.036,6.31,56.036,6.31l-1.01-6.563S592.835,1215.958,596.116,1213.473Z" transform="translate(-574.005 -1141.236)" fill="#ffd54f"/>
        </g>
        <g id="Grupo_45940" data-name="Grupo 45940" transform="translate(4.112 221.2)">
          <g id="Grupo_45939" data-name="Grupo 45939" transform="translate(0 0)">
            <path id="Trazado_65143" data-name="Trazado 65143" d="M782.151,2056.32l-100.956-11.061-193.955,8.816,101.581,12.164Z" transform="translate(-487.24 -2045.259)" fill="#fff"/>
            <path id="Trazado_65144" data-name="Trazado 65144" d="M588.821,2126.542l193.33-9.919v4.792l-193.33,9.918L487.24,2119.168v-4.791Z" transform="translate(-487.24 -2105.562)" fill="#b7c0ce"/>
          </g>
          <path id="Trazado_65145" data-name="Trazado 65145" d="M1285.581,2347.125h-.02a.508.508,0,0,1-.488-.508V2234.7a.508.508,0,1,1,1.015,0v98.911l7.737-98.951a.508.508,0,0,1,1.013.079l-8.751,111.917A.508.508,0,0,1,1285.581,2347.125Z" transform="translate(-1183.313 -2210.095)" fill="#b7c0ce"/>
          <path id="Trazado_65146" data-name="Trazado 65146" d="M492.465,2250.2h-.02a.507.507,0,0,1-.488-.507v-103.3a.508.508,0,0,1,1.015,0v90.346l7.1-90.386a.508.508,0,0,1,1.012.08l-8.111,103.3A.508.508,0,0,1,492.465,2250.2Z" transform="translate(-491.355 -2133.052)" fill="#b7c0ce"/>
        </g>
        <g id="Grupo_45944" data-name="Grupo 45944" transform="translate(207.368 161.879)">
          <path id="Trazado_65148" data-name="Trazado 65148" d="M2324.273,2804.776s-10.611.738-10.767,1.43,7.2,3.371,9.773,3.471,4.686-.66,4.453-1.749-1.133-3.828-1.133-3.828Z" transform="translate(-2283.829 -2647.993)" fill="url(#linear-gradient-17)"/>
          <path id="Trazado_65149" data-name="Trazado 65149" d="M2392.718,2772.436l-.188,5.008a3.891,3.891,0,0,0,2.9.388l1.425-5.281Z" transform="translate(-2352.776 -2620.367)" fill="url(#linear-gradient-18)"/>
          <path id="Trazado_65150" data-name="Trazado 65150" d="M2091.615,2788.944s-10.611.738-10.766,1.43,7.2,3.371,9.773,3.471,4.686-.66,4.453-1.749-1.133-3.828-1.133-3.828Z" transform="translate(-2080.846 -2634.18)" fill="url(#linear-gradient-19)"/>
          <path id="Trazado_65151" data-name="Trazado 65151" d="M2160.061,2756.6l-.188,5.008a3.9,3.9,0,0,0,2.9.387l1.425-5.281Z" transform="translate(-2149.793 -2606.555)" fill="url(#linear-gradient-20)"/>
          <path id="Trazado_65152" data-name="Trazado 65152" d="M2363.406,2312.242l5.948.661a39.967,39.967,0,0,0,8.812-15.42c4.119-14.03-1.846-24.14,1.983-26.656,5.419-3.561,17.165,16.942,36.019,16.415,7.735-.217,17.832-4,21.712-12.255.586-1.246,3.464-7.766.661-13.879-2.893-6.311-17.246-9.057-45.836-14.293-12.272-2.247-18.468-3.368-20.958-2.18C2354.1,2253.06,2361.46,2300.69,2363.406,2312.242Z" transform="translate(-2324.592 -2159.466)" fill="url(#linear-gradient-21)"/>
          <path id="Trazado_65153" data-name="Trazado 65153" d="M2147.806,2349.36l6.153,1.071c2.491-3.669,6.261-9.417,10.476-16.711,8.788-15.205,8.627-18.294,12.689-20.251,8.6-4.142,15.09,7.048,36.348,10.134,6.954,1.009,22.392,3.25,28.638-5.067,2.532-3.372,3.986-9.056,1.983-13.878-3.593-8.646-15.427-7.608-54.412-15.2-15.2-2.961-17.276-3.489-20.958-2.18C2148.155,2294.591,2147.754,2339.373,2147.806,2349.36Z" transform="translate(-2139.263 -2196.5)" fill="url(#linear-gradient-21)"/>
          <path id="Trazado_65154" data-name="Trazado 65154" d="M2475.354,1749.06c2.024-4.95,6.368-7.8,8.621-9.272a18.786,18.786,0,0,1,3.227-1.724,43.705,43.705,0,0,1,17.756-2.993c3.523.264,12.226.915,18.673,6.5,3.121,2.7,5.615,6.479,9.252,27.757,5.073,29.675.956,26.633,4.957,38.661,2.117,6.365,5.416,13.667,1.927,18.331-1.127,1.506-2.737,1.939-6.019,3.415-12.259,5.516-23.25,4.566-29.929,3.9-7.35-.728-11.063-1.145-13.013-3.741-3.112-4.148.092-9.42.651-18.543.4-6.55-1.088-11.741-4.066-22.121C2480.466,1765.1,2471.476,1758.541,2475.354,1749.06Z" transform="translate(-2424.22 -1715.269)" fill="#0d47a1"/>
          <g id="Grupo_45942" data-name="Grupo 45942" transform="translate(63.526)">
            <g id="Grupo_45941" data-name="Grupo 45941">
              <path id="Trazado_65155" data-name="Trazado 65155" d="M2583.848,1615.768c-1.317-1.99.655-5.819,1.435-7.334.027-.052.062-.121.135-.256,1.2-2.211,1.505-2.513,2.077-2.9l.795-.491.094-.035a9.181,9.181,0,0,1,2.6-.159c1.125.24,2.322,4.822,1.981,11.3q.07.371.135.747.266,1.534.427,3.006c.1.938,1.434.916,2.375.857,3.822-.244,5.693.081,5.855.651.3,1.067-4.229,4.555-9.827,5.339-7.514.056-13.625-.744-12.969-1.927.292-.525,6.113-2.047,7.75-3.554a5.01,5.01,0,0,0,1.5-3.826C2587.437,1617.232,2584.853,1617.286,2583.848,1615.768Z" transform="translate(-2578.913 -1601.452)" fill="url(#linear-gradient-23)"/>
              <path id="Trazado_65156" data-name="Trazado 65156" d="M2624.9,1581.659c-.618,1.363.881,4.1,1.434,4.5a3.341,3.341,0,0,1,.727.794,1.007,1.007,0,0,1,.115.237c.44,1.265-1.571,2.753-1.183,3.319.282.411,1.649-.138,1.811.216.153.334-.983,1.025-.809,1.425.131.3.83.026,1.271.489a1.684,1.684,0,0,1,.388,1.117c.055,1.8-4.023,8.292-4.872,11.222-.9,3.107.71,6.065,6.564,14.239,8.327,11.626,12.49,17.439,14.8,19.1,11.313,8.121,24.615,7.125,30.07,6.278,6.553-1.018,20.092-3.121,24.452-13.548,5.012-11.986-4.855-28.387-14.98-31.171-4.629-1.273-7.094.661-13.107-1.432-6.641-2.311-5.836-6.4-11.984-8.81-8.2-3.219-13.49,2.535-19.077-1.654-3.04-2.28-2.539-4.783-6.279-6.609C2630.554,1579.566,2625.707,1579.874,2624.9,1581.659Z" transform="translate(-2617.853 -1580.159)" fill="#082e69"/>
              <path id="Trazado_65157" data-name="Trazado 65157" d="M2643.283,1655.64c.492-.676,1.357-.041,1.361.834s-.842,1.784-1.664,1.611S2642.621,1656.55,2643.283,1655.64Z" transform="translate(-2634.425 -1645.766)" fill="url(#linear-gradient-24)"/>
            </g>
          </g>
          <path id="Trazado_65158" data-name="Trazado 65158" d="M2548.37,1977.382c-2.163-4.3,3.135-10.028-.326-16.591-2.939-5.574-8.279-4.325-10.734-9.434-2.966-6.17,3.484-10.782,3.253-20.169-.276-11.222-9.932-22.456-15.614-21.471-3.677.638-4.149,6.123-6.736,12.128a136.371,136.371,0,0,1,7.386,19.753c2.979,10.38,4.468,15.571,4.066,22.121-.559,9.123-3.763,14.395-.651,18.543,1.949,2.6,5.663,3.013,13.012,3.741,6.679.661,17.67,1.612,29.929-3.9,1.552-.7,2.714-1.221,3.661-1.737C2556.464,1983.239,2550.085,1980.8,2548.37,1977.382Z" transform="translate(-2462.428 -1867.631)" opacity="0.4" fill="url(#linear-gradient-25)" style="mix-blend-mode: multiply;isolation: isolate"/>
          <g id="Grupo_45943" data-name="Grupo 45943" transform="translate(31.049 21.435)">
            <path id="Trazado_65159" data-name="Trazado 65159" d="M2326.165,1761.911a4.871,4.871,0,0,0,2.5.766c1.319-.031.705-1.165,2.882-1.932s2.514-2.7,1.809-3.465a.538.538,0,0,0-.344-.216c.446-.2-.045-1.638-.79-2.544-.859-1.042-2.208.153-2.208.153s.337-2.668.644-4.324-.828-2.7-.889-1.809-1.594,6.01-1.594,6.01,0-5.366-.859-5.4-.781,6.123-.781,6.123-1.013-5.188-2.025-4.544S2326.165,1761.911,2326.165,1761.911Zm4.676-5.336c.123-1.1,1.043.245,1.9.49a.5.5,0,0,0,.169.022c-.306.153-.407,1.039-.721,1.42C2331.762,1759.029,2330.719,1757.679,2330.842,1756.576Z" transform="translate(-2324.28 -1748.216)" fill="#fec444"/>
            <path id="Trazado_65160" data-name="Trazado 65160" d="M2334.078,1851.177l-.569,4.84,4.039-.785.155-3.236Z" transform="translate(-2332.332 -1838.045)" fill="#fec444"/>
          </g>
          <path id="Trazado_65161" data-name="Trazado 65161" d="M2338.541,1776.74c-1.178-.288-2.159.119-3.579.732-2.542,1.1-7.589,4.132-12.037,15.94a67.858,67.858,0,0,0-2.3,7.4l-.031-.086s-3.179,12.536-5.03,6.815-2.356-18.405-2.356-18.405l-5.661-.883a75.038,75.038,0,0,0-1.685,9.533,80.485,80.485,0,0,0-.762,8.742,58.427,58.427,0,0,0,.775,8.754c.65,4.324,4.1,8.471,7.56,10.953a15.524,15.524,0,0,0,13.912,1.831,23.694,23.694,0,0,0,2.8-1.092c.954-.444,1.642-.841,1.97-1.031,9.58-5.544,11.26-17.222,12.118-23.178C2345.754,1792.193,2343.962,1778.065,2338.541,1776.74Z" transform="translate(-2276.495 -1751.585)" fill="#0d47a1"/>
        </g>
        <g id="Grupo_45948" data-name="Grupo 45948" transform="translate(119.306 168.322)">
          <path id="Trazado_65162" data-name="Trazado 65162" d="M1543.962,2930.131c.174-.96,3.273-1.828,4.807-.543.762.638,1.286,1.932.846,2.516-.16.212.5.587-.133.594C1547.394,2932.723,1543.788,2931.085,1543.962,2930.131Z" transform="translate(-1524.371 -2763.355)" fill="url(#linear-gradient-26)"/>
          <path id="Trazado_65163" data-name="Trazado 65163" d="M1570.354,2887.888l3.214.16c-1.114-2.025.225-7.531.225-7.531l-3.471.1s.085,1.6.3,3.973A15.043,15.043,0,0,1,1570.354,2887.888Z" transform="translate(-1547.375 -2721.106)" fill="url(#linear-gradient-27)"/>
          <path id="Trazado_65164" data-name="Trazado 65164" d="M1566.874,2934.974s3.837-.884,4.251-.123.737,2.8-1.7,2.733S1566.658,2935.619,1566.874,2934.974Z" transform="translate(-1544.319 -2768.241)" fill="url(#linear-gradient-28)"/>
          <path id="Trazado_65165" data-name="Trazado 65165" d="M1390.427,2963.161c.307-.926,3.5-1.352,4.836.135.665.739,1,2.093.485,2.609-.189.188.409.65-.215.569C1393.464,2966.207,1390.122,2964.081,1390.427,2963.161Z" transform="translate(-1390.408 -2792.477)" fill="url(#linear-gradient-29)"/>
          <path id="Trazado_65166" data-name="Trazado 65166" d="M1420.114,2926.659l3.158.62c-.812-2.163,1.3-7.421,1.3-7.421l-3.45-.4s-.145,1.595-.276,3.975A15.055,15.055,0,0,1,1420.114,2926.659Z" transform="translate(-1416.325 -2755.083)" fill="url(#linear-gradient-30)"/>
          <path id="Trazado_65167" data-name="Trazado 65167" d="M1412.753,2971.348s3.922-.338,4.227.473.338,2.875-2.063,2.469S1412.448,2971.957,1412.753,2971.348Z" transform="translate(-1409.791 -2800.292)" fill="url(#linear-gradient-31)"/>
          <path id="Trazado_65168" data-name="Trazado 65168" d="M1532.337,2415.759l5.948.661A39.961,39.961,0,0,0,1547.1,2401c4.093-13.94-2.315-23.089,1.983-26.655,4.955-4.112,14.742,7,36.348,10.133,6.954,1.01,22.392,3.251,28.638-5.066,2.532-3.372,3.987-9.055,1.983-13.878-3.593-8.646-15.427-7.608-54.412-15.2-15.018-2.925-17.39-3.883-20.958-2.179C1523.032,2356.576,1530.391,2404.207,1532.337,2415.759Z" transform="translate(-1511.459 -2255.908)" fill="url(#linear-gradient-32)"/>
          <path id="Trazado_65169" data-name="Trazado 65169" d="M1393.589,2459.724l5.948.661a39.968,39.968,0,0,0,8.812-15.42c4.093-13.94-2.315-23.089,1.982-26.656,4.955-4.112,14.742,7,36.348,10.134,6.954,1.01,22.391,3.25,28.638-5.067,2.532-3.372,3.987-9.055,1.983-13.878-3.593-8.646-15.427-7.608-54.412-15.2-15.018-2.925-17.391-3.883-20.958-2.18C1384.285,2400.542,1391.643,2448.172,1393.589,2459.724Z" transform="translate(-1390.408 -2294.266)" fill="url(#linear-gradient-33)"/>
          <g id="Grupo_45945" data-name="Grupo 45945" transform="translate(13.097 28.117)">
            <path id="Trazado_65170" data-name="Trazado 65170" d="M1494.981,1864.82a4.871,4.871,0,0,0,2.5.767c1.319-.031.706-1.165,2.882-1.932s2.515-2.7,1.809-3.465a.538.538,0,0,0-.344-.216c.446-.2-.044-1.638-.79-2.544-.859-1.043-2.208.153-2.208.153s.337-2.668.644-4.324-.828-2.7-.889-1.81-1.595,6.011-1.595,6.011,0-5.366-.859-5.4-.781,6.123-.781,6.123-1.013-5.188-2.025-4.544S1494.981,1864.82,1494.981,1864.82Zm4.677-5.336c.123-1.1,1.043.245,1.9.491a.5.5,0,0,0,.169.021c-.306.153-.407,1.04-.721,1.42C1500.578,1861.937,1499.535,1860.588,1499.658,1859.484Z" transform="translate(-1493.096 -1851.124)" fill="url(#linear-gradient-34)"/>
            <path id="Trazado_65171" data-name="Trazado 65171" d="M1502.895,1954.085l-.568,4.84,4.039-.785.154-3.236Z" transform="translate(-1501.149 -1940.953)" fill="url(#linear-gradient-35)"/>
          </g>
          <path id="Trazado_65172" data-name="Trazado 65172" d="M1644.284,1830.6c2.024-4.949,6.368-7.8,8.621-9.271,5.33-3.492,8.742-2.854,20.983-4.717,16.313-2.482,18.265-4.834,23.748-2.928,7.2,2.5,10.964,9.041,12.687,12.036,8.69,15.1-1.47,22.779,1.138,52.863,1.065,12.286,3.8,22.964-2.765,29.278-1.382,1.329-2.927,2.025-6.018,3.416-12.259,5.516-23.25,4.565-29.928,3.9-7.35-.728-11.064-1.144-13.013-3.741-3.113-4.148.091-9.419.651-18.543.4-6.55-1.088-11.74-4.066-22.121C1649.4,1846.642,1640.406,1840.081,1644.284,1830.6Z" transform="translate(-1611.087 -1789.734)" fill="url(#linear-gradient-36)"/>
          <g id="Grupo_45947" data-name="Grupo 45947" transform="translate(54.839 0)">
            <g id="Grupo_45946" data-name="Grupo 45946">
              <path id="Trazado_65173" data-name="Trazado 65173" d="M1826.029,1708.414a7.848,7.848,0,0,1,.842-5.624c1.2-2.211,1.505-2.513,2.077-2.9l.795-.49.095-.036a9.2,9.2,0,0,1,2.6-.159c1.125.24,2.323,4.823,1.981,11.3q.069.371.135.747.266,1.535.427,3.007c.1.938,1.434.916,2.376.856,3.823-.244,5.693.081,5.856.651.3,1.067-4.229,4.555-9.828,5.339-7.513.056-13.625-.744-12.968-1.927.292-.525,6.113-2.046,7.75-3.554a5.01,5.01,0,0,0,1.5-3.826C1829.211,1711.566,1826.576,1710.363,1826.029,1708.414Z" transform="translate(-1820.367 -1690.44)" fill="url(#linear-gradient-37)"/>
              <path id="Trazado_65174" data-name="Trazado 65174" d="M1875.6,1637.8a7.539,7.539,0,0,0,1.435,4.5,3.347,3.347,0,0,1,.727.794,1.006,1.006,0,0,1,.114.237c.44,1.265-1.571,2.753-1.183,3.319.282.411,1.648-.139,1.811.216.153.334-.983,1.025-.809,1.425.131.3.83.026,1.271.488.219.23.155.413.388,1.117a6.4,6.4,0,0,0,.458,1.076c.694,1.178,2.658,1.609,3.036,1.137.105-.131.015-.242.122-.683a3.52,3.52,0,0,1,.384-.881,9.143,9.143,0,0,1,2.377-1.871,6.5,6.5,0,0,0,2.481-2.825c.053-.136.086-.238.11-.311a7.46,7.46,0,0,0-.186-4.989c-1.114-2.239-3.628-1.176-5.685-3.394-2.374-2.559-.959-6.057-2.247-6.443C1878.783,1630.285,1875.586,1634.091,1875.6,1637.8Z" transform="translate(-1868.554 -1630.678)" fill="#082e69"/>
              <path id="Trazado_65175" data-name="Trazado 65175" d="M1884.736,1750.253c.492-.676,1.356-.041,1.361.834s-.842,1.784-1.664,1.611S1884.074,1751.163,1884.736,1750.253Z" transform="translate(-1875.878 -1734.754)" fill="url(#linear-gradient-38)"/>
            </g>
          </g>
          <path id="Trazado_65176" data-name="Trazado 65176" d="M1717.3,2083.365c-2.162-4.305,3.136-10.028-.325-16.591-2.94-5.574-8.28-4.325-10.735-9.434-2.966-6.171,3.484-10.782,3.253-20.17-.276-11.222-9.932-22.456-15.615-21.47-3.677.637-4.149,6.123-6.736,12.128a136.369,136.369,0,0,1,7.386,19.753c2.979,10.381,4.468,15.571,4.066,22.121-.559,9.123-3.763,14.395-.651,18.543,1.949,2.6,5.663,3.013,13.013,3.741,6.679.661,17.67,1.612,29.928-3.9,1.552-.7,2.713-1.221,3.661-1.737C1725.393,2089.22,1719.014,2086.78,1717.3,2083.365Z" transform="translate(-1649.294 -1966.54)" opacity="0.4" fill="url(#linear-gradient-39)" style="mix-blend-mode: multiply;isolation: isolate"/>
          <path id="Trazado_65177" data-name="Trazado 65177" d="M1507.357,1879.649c-1.178-.288-2.159.119-3.578.732-2.542,1.1-7.589,4.133-12.036,15.94a67.889,67.889,0,0,0-2.3,7.4l-.031-.086s-3.179,12.536-5.03,6.815-2.356-18.405-2.356-18.405l-5.661-.883a75.134,75.134,0,0,0-1.684,9.533,80.675,80.675,0,0,0-.763,8.742,58.418,58.418,0,0,0,.776,8.754c.65,4.323,4.1,8.47,7.56,10.953a15.522,15.522,0,0,0,13.911,1.831,23.6,23.6,0,0,0,2.8-1.092c.954-.444,1.642-.841,1.97-1.031,9.58-5.544,11.261-17.222,12.118-23.178C1514.571,1895.1,1512.779,1880.974,1507.357,1879.649Z" transform="translate(-1463.262 -1847.812)" fill="url(#linear-gradient-40)"/>
        </g>
        <g id="Grupo_45950" data-name="Grupo 45950" transform="translate(151.31 238.188)">
          <ellipse id="Elipse_1107" data-name="Elipse 1107" cx="32.88" cy="13.419" rx="32.88" ry="13.419" transform="translate(8.501 104.193)" fill="#7baeff"/>
          <path id="Trazado_65178" data-name="Trazado 65178" d="M1773.739,2962.08c0,7-14.721,12.667-32.881,12.667s-32.88-5.671-32.88-12.667,14.721-18.443,32.88-18.443S1773.739,2955.084,1773.739,2962.08Z" transform="translate(-1699.477 -2846.042)" fill="#ffd54f"/>
          <path id="Trazado_65181" data-name="Trazado 65181" d="M1942.567,2724.171a7.447,7.447,0,0,1-3.693.021,2.377,2.377,0,0,1-1.764-2.313V2684.8h7.311v37.032A2.42,2.42,0,0,1,1942.567,2724.171Z" transform="translate(-1901.056 -2620.222)" fill="#0d47a1" style="mix-blend-mode: multiply;isolation: isolate"/>
          <g id="Grupo_45949" data-name="Grupo 45949" transform="translate(0 0)">
            <path id="Trazado_65182" data-name="Trazado 65182" d="M1644.078,2227.43l11.169-7.061c.465-2.637,5.73-30.23,27.1-38.9,8.692-3.523,18.047-3.106,23.18-2.876,10.248.458,17.558.784,21.073,5.672,4.515,6.277-3.057,11.969-1.489,29.924.64,7.322,2.265,10.574.24,15.424-2.426,5.811-8.052,9.031-12.426,10.844a63.658,63.658,0,0,1-26.359,8.417c-20.255,1.775-35.377-6.914-40.577-10.238a6.693,6.693,0,0,1-4.541-5.026A5.9,5.9,0,0,1,1644.078,2227.43Z" transform="translate(-1641.329 -2178.451)" fill="url(#linear-gradient-41)"/>
          </g>
          <path id="Trazado_65183" data-name="Trazado 65183" d="M1703.015,2257.976c.413-2.482,7.333-.425,13.878-5.287,9.784-7.269,4.706-19.58,13.217-31.392,7.811-10.839,23.536-16.356,28.418-12.226,6.5,5.5-9.405,26.056,0,39.321,4.569,6.445,11.529,6.134,11.566,9.913.057,5.973-17.267,12.858-33.7,12.557C1718.717,2270.539,1702.359,2261.917,1703.015,2257.976Z" transform="translate(-1695.13 -2203.969)" fill="#115e88" style="mix-blend-mode: soft-light;isolation: isolate"/>
        </g>
        <g id="Grupo_45952" data-name="Grupo 45952" transform="translate(247.839 222.155)">
          <ellipse id="Elipse_1108" data-name="Elipse 1108" cx="32.88" cy="13.419" rx="32.88" ry="13.419" transform="translate(8.501 104.193)" fill="#e0f4ff"/>
          <path id="Trazado_65184" data-name="Trazado 65184" d="M2530.558,2836.37c0,7-14.721,12.667-32.88,12.667s-32.881-5.671-32.881-12.667,14.721-18.443,32.881-18.443S2530.558,2829.374,2530.558,2836.37Z" transform="translate(-2456.297 -2720.332)" fill="#ffd54f"/>
          <path id="Trazado_65187" data-name="Trazado 65187" d="M2699.387,2598.461a7.451,7.451,0,0,1-3.692.021,2.376,2.376,0,0,1-1.764-2.312v-37.076h7.311v37.032A2.421,2.421,0,0,1,2699.387,2598.461Z" transform="translate(-2657.876 -2488.779)" fill="#0d47a1" style="mix-blend-mode: multiply;isolation: isolate"/>
          <g id="Grupo_45951" data-name="Grupo 45951">
            <path id="Trazado_65188" data-name="Trazado 65188" d="M2400.9,2101.721l11.17-7.061c.465-2.637,5.729-30.231,27.1-38.9,8.692-3.523,18.046-3.105,23.18-2.876,10.247.458,17.558.785,21.073,5.673,4.514,6.277-3.057,11.969-1.49,29.924.639,7.322,2.265,10.574.24,15.424-2.426,5.811-8.052,9.031-12.426,10.844a63.664,63.664,0,0,1-26.359,8.417c-20.255,1.775-35.377-6.914-40.577-10.238a6.694,6.694,0,0,1-4.541-5.026A5.9,5.9,0,0,1,2400.9,2101.721Z" transform="translate(-2398.149 -2052.742)" fill="url(#linear-gradient-42)"/>
          </g>
          <path id="Trazado_65189" data-name="Trazado 65189" d="M2459.834,2132.267c.413-2.483,7.332-.424,13.878-5.287,9.785-7.269,4.706-19.58,13.218-31.392,7.811-10.839,23.536-16.356,28.417-12.226,6.5,5.5-9.4,26.056,0,39.322,4.568,6.444,11.529,6.133,11.565,9.913.057,5.972-17.267,12.858-33.7,12.557C2475.536,2144.83,2459.178,2136.207,2459.834,2132.267Z" transform="translate(-2451.95 -2078.26)" fill="#0d47a1" style="mix-blend-mode: soft-light;isolation: isolate"/>
        </g>
        <g id="Grupo_45955" data-name="Grupo 45955" transform="translate(138.395 0)">
          <g id="Grupo_45953" data-name="Grupo 45953" transform="translate(0 0)">
            <circle id="Elipse_1109" data-name="Elipse 1109" cx="65.195" cy="65.195" r="65.195" transform="translate(0 92.2) rotate(-45)" fill="url(#linear-gradient-43)"/>
            <circle id="Elipse_1110" data-name="Elipse 1110" cx="65.195" cy="65.195" r="65.195" transform="translate(21.717 27.005)" fill="#ffd54f"/>
          </g>
        </g>
        <g id="Grupo_45958" data-name="Grupo 45958" transform="translate(52.947 286.046)">
          <g id="Grupo_45957" data-name="Grupo 45957" transform="translate(0)">
            <path id="Trazado_65194" data-name="Trazado 65194" d="M907.974,2631.972c-13.024-1.673-29.537-6.07-36.169-18.467-1.578-2.949-3.161-8.679.821-10.836,3.64-1.972,8.347.111,11.053,2.677,1.989,1.887,3.542,6.1,5.776,7.43,3.271,1.95,5.033-3.369,4.964-5.564-.154-4.908-6.191-6.917-10.2-7.982-6.659-1.769-14.413-3.285-14-10.789s7.734-12.006,13.363-8.723c4.638,2.706,3.985,8.479,7.154,11.944,2.815,3.077,3.8-1.918,3.607-4.367-.408-5.32-5.086-9.167-8.527-12.733-3.891-4.031-8.19-12.14-4.043-17.469,2.387-3.067,8.45-3.785,12.034-3.268,17.542,2.533,5.91,25.234,9.1,27.767s6.207-1.9,6.2-8.643,1.024-11.714,8.06-9.556,8.375,19.767.341,26.534.5,14.151,2.661,9.3c1.557-3.5,2.926-12.673,7.426-13.678,7.5-1.673,7.387,13.637,5.229,17.2-3.025,5-9.865,6.08-13.685,10.39-1.11,1.251-3.615,4.352-2.642,6.182,1.357,2.552,5.144-.178,6.535-1.361,3.128-2.659,7.457-11.7,11.864-5.695C940.338,2619.678,931.239,2630.665,907.974,2631.972Z" transform="translate(-870.122 -2553.672)" fill="#ffd54f"/>
            <g id="Grupo_45956" data-name="Grupo 45956" transform="translate(24.156 17.358)" opacity="0.8" style="mix-blend-mode: soft-light;isolation: isolate">
              <path id="Trazado_65195" data-name="Trazado 65195" d="M1071.338,2749.439a.582.582,0,0,0,.562-.575c.005-.266.367-26.975-11.291-58.726a.566.566,0,0,0-.722-.34.559.559,0,0,0-.334.719c11.587,31.556,11.227,58.063,11.222,58.327a.578.578,0,0,0,.552.594Z" transform="translate(-1059.518 -2689.764)" fill="#fff"/>
            </g>
          </g>
          <path id="Trazado_65196" data-name="Trazado 65196" d="M1109.7,2803.19c2.111-1.8,6.6,1.013,8.458,2.081,1.08.62,2.557,1.571,3.857,1.019,1.365-.58,1.268-2.012.443-3.027-1.477-1.817-4.312-2.317-6.372-3.2a9.823,9.823,0,0,1-5.336-4.48,7.205,7.205,0,0,1-.089-6.167c2.711-4.854,6.657-1.066,8.863,1.829,1.071,1.405,3.469,3.825,5.286,2.168,1.933-1.762.274-4.9-1.226-6.29-1.96-1.81-4.334-3.069-6.469-4.643-1.925-1.419-3.9-3.452-2.621-5.968a5.962,5.962,0,0,1,5.61-2.855c4.92.381,5.687,7.564,8.927,10.323,1.145.975,3.75,1.75,5.116.793,1.39-.976.487-3.208-.014-4.426-1.483-3.61-12.126-15.711-3.306-17.231a9.749,9.749,0,0,1,7.024,1.728c3.291,2.663,5.037,7.937,5.9,11.939a44.694,44.694,0,0,1-.236,19.549c-3.364,13.837-11.27,18.281-11.27,18.281a22.906,22.906,0,0,1-11.24.93c-4.167-.882-9.15-3.967-11.211-7.815C1109.133,2806.481,1108.392,2804.3,1109.7,2803.19Z" transform="translate(-1078.513 -2736.311)" fill="#fdf3d3"/>
        </g>
      </g>
      <circle id="Elipse_1111" data-name="Elipse 1111" cx="63.14" cy="63.14" r="63.14" transform="translate(1303.394 32.221)" fill="#0d47a1"/>
      <g id="Grupo_45960" data-name="Grupo 45960" transform="translate(1325.9 59.199)">
        <path id="Trazado_65192" data-name="Trazado 65192" d="M1867.961,741.542c-3.285-2.44-7.789-1.5-9.009-1.314s-6.945,2.252-6.945,2.252l8.54-5.912s5.161-.938,7.32-3-1.22-2.721-5.068-2.346-13.89,8.165-13.89,8.165l1.6-2.346s5.818-6.476,4.88-8.634-8.54,6.945-10.886,10.886-7.6,8.634-7.461,14.124c.1,4.051-3.318,7.336-5.119,8.779a3.009,3.009,0,0,0-1.127,2.29,50.56,50.56,0,0,0,.968,11.314c1.337,5.912,6.335,2.675,7.672.845s7.672-.211,9.5.985,12.317-3.942,14.218-4.153a6.071,6.071,0,0,0,4.786-4.012c.844-2.323,2.041-5.349,1.056-6.616s-3.59.915-4.927,2.721-4.739.375-8.4,0-3.754-4.317-3.285-6.1,7.32-5.349,8.071-4.786a40.564,40.564,0,0,0,4.786,2.065s1.783,4.129,3.66,4.786,1.783-4.5.751-7.132-5.631-5.631-7.977-6.006-9.1,1.783-9.1,1.783,3.848-3.566,5.819-5.068,6.851.423,6.851.423,3.848,1.829,5.362,1.829S1871.246,743.982,1867.961,741.542Z" transform="translate(-1830.781 -728.077)" fill="#ffd54f"/>
        <path id="Trazado_65193" data-name="Trazado 65193" d="M2205.981,946.617c3.285,2.44,7.79,1.5,9.009,1.314s6.945-2.252,6.945-2.252l-8.54,5.912s-5.162.938-7.32,3,1.22,2.722,5.068,2.346,13.889-8.165,13.889-8.165l-1.6,2.346s-5.818,6.475-4.88,8.634,8.54-6.945,10.886-10.886,7.6-8.634,7.461-14.124c-.1-4.051,3.318-7.336,5.119-8.779a3.01,3.01,0,0,0,1.127-2.289,50.523,50.523,0,0,0-.968-11.314c-1.337-5.912-6.334-2.675-7.672-.844s-7.672.211-9.5-.986-12.318,3.942-14.218,4.153a6.071,6.071,0,0,0-4.786,4.012c-.844,2.323-2.041,5.349-1.056,6.616s3.59-.915,4.927-2.721,4.739-.375,8.4,0,3.754,4.317,3.284,6.1-7.32,5.349-8.071,4.786a40.57,40.57,0,0,0-4.786-2.065s-1.784-4.129-3.66-4.786-1.783,4.5-.751,7.132,5.631,5.631,7.977,6.006,9.1-1.783,9.1-1.783-3.848,3.566-5.818,5.068-6.851-.423-6.851-.423-3.848-1.829-5.363-1.829S2202.7,944.177,2205.981,946.617Z" transform="translate(-2160.952 -888.701)" fill="#ffd54f"/>
      </g>
    </g>
  </g>
</svg>
