<svg xmlns="http://www.w3.org/2000/svg" xmlns:xlink="http://www.w3.org/1999/xlink" width="71.182" height="63" viewBox="0 0 71.182 63">
  <defs>
    <clipPath id="clip-path">
      <rect id="Rectángulo_34520" data-name="Rectángulo 34520" width="71.182" height="63" fill="none"/>
    </clipPath>
  </defs>
  <g id="Grupo_717735" data-name="Grupo 717735" clip-path="url(#clip-path)">
    <path id="Trazado_468761" data-name="Trazado 468761" d="M55.119,61.077H4.845a3.76,3.76,0,0,1-3.76-3.76V4.674A3.76,3.76,0,0,1,4.845.914H55.119a3.761,3.761,0,0,1,3.76,3.76V57.316a3.761,3.761,0,0,1-3.76,3.76" transform="translate(0.69 0.582)" fill="#6da7bf"/>
    <path id="Trazado_468762" data-name="Trazado 468762" d="M46.2,31.169v.213a1.223,1.223,0,0,1-.376.9l-4.467,4.271A1.227,1.227,0,0,1,39.6,36.5a1.258,1.258,0,0,1-.344-.851,1.278,1.278,0,0,1,.376-.9l3.633-3.469-3.633-3.469a1.265,1.265,0,0,1-.033-1.767,1.24,1.24,0,0,1,1.751-.033l4.467,4.255a1.223,1.223,0,0,1,.376.9" transform="translate(24.984 16.335)"/>
    <path id="Trazado_468763" data-name="Trazado 468763" d="M58.058,37.634,54.425,41.1a1.278,1.278,0,0,0-.376.9H50.613v-.1a1.243,1.243,0,0,0-1.244-1.244H39.682A1.243,1.243,0,0,0,38.438,41.9v2.569H17.264V39.761h7.478a1.243,1.243,0,0,0,1.244-1.244V22.612a1.244,1.244,0,1,0-2.487,0V37.274H17.264V33.232a1.243,1.243,0,0,0-1.244-1.244v-4.68a1.243,1.243,0,0,0,1.244-1.244V15.69H30.829V33.265a1.243,1.243,0,0,0,1.244,1.244h17.3a1.243,1.243,0,0,0,1.244-1.244h3.436a1.278,1.278,0,0,0,.376.9Z" transform="translate(10.195 9.985)" fill="#d4eafd"/>
    <path id="Trazado_468764" data-name="Trazado 468764" d="M60.807,43.244v4.795a6.215,6.215,0,0,1-6.218,6.218H6.218A6.226,6.226,0,0,1,0,48.038V15a1.247,1.247,0,0,1,1.244-1.26H9.753A1.247,1.247,0,0,1,11,15V43.08h5.809V22.429a1.243,1.243,0,0,1,1.244-1.244,1.257,1.257,0,0,1,1.26,1.244V44.324a1.257,1.257,0,0,1-1.26,1.244h-8.3a1.243,1.243,0,0,1-1.244-1.244V16.244H2.487V48.038a3.74,3.74,0,0,0,3.731,3.731H54.589a3.729,3.729,0,0,0,3.731-3.731V44.389h-7.2v2.569A1.243,1.243,0,0,1,49.876,48.2H26.215a1.243,1.243,0,0,1-1.244-1.244V34.473a1.244,1.244,0,0,1,2.487,0v4.042h6.235V23.853a1.244,1.244,0,1,1,2.487,0V39.758A1.243,1.243,0,0,1,34.936,41H27.458v4.713H48.633V43.145A1.243,1.243,0,0,1,49.876,41.9h9.687a1.243,1.243,0,0,1,1.244,1.244Z" transform="translate(0 8.744)"/>
    <path id="Trazado_468765" data-name="Trazado 468765" d="M51.1,6.218V43.249a1.243,1.243,0,0,1-1.244,1.244h-17.3a1.243,1.243,0,0,1-1.244-1.244V25.675H17.747V36.049a1.244,1.244,0,1,1-2.487,0V24.431A1.243,1.243,0,0,1,16.5,23.187H32.556A1.243,1.243,0,0,1,33.8,24.431V42.005H48.609V6.218a3.74,3.74,0,0,0-3.731-3.731H33.26V6.578H41a1.244,1.244,0,1,1,0,2.487H32a1.243,1.243,0,0,1-1.244-1.244V1.244A1.243,1.243,0,0,1,32,0H44.878A6.226,6.226,0,0,1,51.1,6.218" transform="translate(9.711)"/>
    <path id="Trazado_468766" data-name="Trazado 468766" d="M51.955,15.856V32.6a1.244,1.244,0,1,1-2.487,0V17.1H1.244A1.243,1.243,0,0,1,0,15.856V6.218A6.236,6.236,0,0,1,6.218,0h21.8a1.243,1.243,0,0,1,1.244,1.244V7.822a1.243,1.243,0,0,1-1.244,1.244H12.224L12.158,14.6H50.711a1.257,1.257,0,0,1,1.244,1.26M26.771,6.578V2.487H6.218A3.75,3.75,0,0,0,2.487,6.218V14.6H9.671l.082-6.791A1.261,1.261,0,0,1,11,6.578Z"/>
    <path id="Trazado_468767" data-name="Trazado 468767" d="M25.8,1.52V5.611H10.029A1.261,1.261,0,0,0,8.785,6.838L8.7,13.629H1.52V5.251A3.75,3.75,0,0,1,5.251,1.52Z" transform="translate(0.967 0.967)" fill="#d4eafd"/>
  </g>
</svg>
