<svg xmlns="http://www.w3.org/2000/svg" xmlns:xlink="http://www.w3.org/1999/xlink" width="67.887" height="67.42" viewBox="0 0 67.887 67.42"><defs><clipPath id="a"><rect width="67.887" height="67.42" fill="none"/></clipPath></defs><g transform="translate(0 0)" clip-path="url(#a)"><path d="M67.887,43.527V45.44a8,8,0,0,1-7.975,7.975H44.282l1.27,11.561H57.1a1.222,1.222,0,1,1,0,2.444H10.789a1.222,1.222,0,0,1,0-2.444H22.334L23.6,53.415H7.975A7.984,7.984,0,0,1,0,45.44V7.975A7.974,7.974,0,0,1,7.975,0H59.911a7.984,7.984,0,0,1,7.975,7.975V43.527ZM65.443,45.44v-.691h-63v.691a5.528,5.528,0,0,0,5.531,5.515H59.911a5.538,5.538,0,0,0,5.531-5.515m0-35.1h-63V42.3h63Zm-63-2.444H65.427a5.532,5.532,0,0,0-5.515-5.451H7.975A5.546,5.546,0,0,0,2.444,7.895M43.092,64.976l-1.27-11.561H26.065l-1.27,11.561Z" transform="translate(0 0)"/><path d="M64.519,27.83v.691a5.538,5.538,0,0,1-5.531,5.515H7.051A5.528,5.528,0,0,1,1.52,28.521V27.83Z" transform="translate(0.924 16.919)" fill="#6da7bf"/><path d="M64.519,38.4h-63V6.43h63ZM59.5,29.2V11.045A1.221,1.221,0,0,0,58.28,9.823H12.261a1.221,1.221,0,0,0-1.222,1.222V29.2a1.221,1.221,0,0,0,1.222,1.222H58.28A1.221,1.221,0,0,0,59.5,29.2m-4.92,5.226a1.235,1.235,0,0,0-1.222-1.238H8.563V16.254a1.222,1.222,0,1,0-2.444,0v18.17a1.221,1.221,0,0,0,1.222,1.222H53.36a1.221,1.221,0,0,0,1.222-1.222" transform="translate(0.924 3.909)" fill="#d4eafd"/><path d="M64.5,6.971H1.52A5.546,5.546,0,0,1,7.051,1.52H58.987A5.532,5.532,0,0,1,64.5,6.971" transform="translate(0.924 0.924)" fill="#6da7bf"/><path d="M55.9,9.762V27.916a1.221,1.221,0,0,1-1.222,1.222H8.662A1.221,1.221,0,0,1,7.44,27.916V9.762A1.221,1.221,0,0,1,8.662,8.54H54.681A1.221,1.221,0,0,1,55.9,9.762m-2.444,1.222H9.884V26.694H53.459Z" transform="translate(4.523 5.192)"/><path d="M52.535,25.769H8.96V10.06H52.535ZM50.943,21.4V14.434a1.221,1.221,0,0,0-1.222-1.222.827.827,0,0,1-.82-.836,1.221,1.221,0,0,0-1.222-1.222H39.012a1.222,1.222,0,0,0,0,2.444h7.67A3.3,3.3,0,0,0,48.5,15.414v5a3.354,3.354,0,0,0-1.817,1.817h-7.67a1.222,1.222,0,0,0,0,2.444h8.667A1.221,1.221,0,0,0,48.9,23.454a.823.823,0,0,1,.82-.82A1.235,1.235,0,0,0,50.943,21.4m-4.084-3.473a1.235,1.235,0,0,0-1.222-1.238H42.244a1.235,1.235,0,0,0-1.222,1.238,1.221,1.221,0,0,0,1.222,1.222h3.393a1.221,1.221,0,0,0,1.222-1.222m-12.333,4.84v-4.84A1.235,1.235,0,0,0,33.3,16.685H28.689v-2.4h3.505a1.2,1.2,0,0,0,1.109.724,1.221,1.221,0,0,0,1.222-1.222v-.724A1.221,1.221,0,0,0,33.3,11.845H27.467a1.221,1.221,0,0,0-1.222,1.222v4.856a1.221,1.221,0,0,0,1.222,1.222h4.615v2.4H28.577a1.2,1.2,0,0,0-1.109-.724,1.221,1.221,0,0,0-1.222,1.222v.724a1.221,1.221,0,0,0,1.222,1.222H33.3a1.221,1.221,0,0,0,1.222-1.222M23.7,12.375a1.221,1.221,0,0,0-1.222-1.222H13.816a1.221,1.221,0,0,0-1.222,1.222.827.827,0,0,1-.82.836,1.235,1.235,0,0,0-1.238,1.222V21.4a1.249,1.249,0,0,0,1.238,1.238.823.823,0,0,1,.82.82,1.221,1.221,0,0,0,1.222,1.222h8.667a1.222,1.222,0,0,0,0-2.444H14.8A3.275,3.275,0,0,0,13,20.415v-5A3.227,3.227,0,0,0,14.8,13.6h7.686A1.221,1.221,0,0,0,23.7,12.375m-3.248,5.547a1.235,1.235,0,0,0-1.222-1.238H15.858a1.235,1.235,0,0,0-1.222,1.238,1.221,1.221,0,0,0,1.222,1.222h3.377a1.221,1.221,0,0,0,1.222-1.222" transform="translate(5.447 6.116)" fill="#b8e151"/><path d="M40.043,14.02v6.962a1.235,1.235,0,0,1-1.222,1.238.823.823,0,0,0-.82.82,1.221,1.221,0,0,1-1.222,1.222H28.112a1.222,1.222,0,0,1,0-2.444h7.67A3.354,3.354,0,0,1,37.6,20V15a3.3,3.3,0,0,1-1.817-1.817h-7.67a1.222,1.222,0,0,1,0-2.444h8.667A1.221,1.221,0,0,1,38,11.962a.827.827,0,0,0,.82.836,1.221,1.221,0,0,1,1.222,1.222" transform="translate(16.347 6.529)"/><path d="M51.621,29.934a1.235,1.235,0,0,1,1.222,1.238,1.221,1.221,0,0,1-1.222,1.222H5.6A1.221,1.221,0,0,1,4.38,31.172V13a1.222,1.222,0,1,1,2.444,0V29.934Z" transform="translate(2.663 7.161)"/><path d="M33.515,14.18a1.235,1.235,0,0,1,1.222,1.238,1.221,1.221,0,0,1-1.222,1.222H30.122A1.221,1.221,0,0,1,28.9,15.418a1.235,1.235,0,0,1,1.222-1.238Z" transform="translate(17.569 8.62)"/><path d="M32.448,33.22l1.27,11.561H15.42L16.69,33.22Z" transform="translate(9.374 20.195)" fill="#ebb830"/><path d="M27.991,17.248v4.84a1.221,1.221,0,0,1-1.222,1.222H20.932a1.221,1.221,0,0,1-1.222-1.222v-.724a1.221,1.221,0,0,1,1.222-1.222,1.2,1.2,0,0,1,1.109.724h3.505v-2.4H20.932a1.221,1.221,0,0,1-1.222-1.222V12.392a1.221,1.221,0,0,1,1.222-1.222h5.837a1.221,1.221,0,0,1,1.222,1.222v.724a1.221,1.221,0,0,1-1.222,1.222,1.2,1.2,0,0,1-1.109-.724H22.154v2.4h4.615a1.235,1.235,0,0,1,1.222,1.238" transform="translate(11.982 6.791)"/><path d="M21.887,10.74a1.222,1.222,0,0,1,0,2.444H14.2A3.227,3.227,0,0,1,12.4,15v5a3.275,3.275,0,0,1,1.8,1.817h7.686a1.222,1.222,0,0,1,0,2.444H13.22A1.221,1.221,0,0,1,12,23.041a.823.823,0,0,0-.82-.82A1.249,1.249,0,0,1,9.94,20.983V14.02A1.235,1.235,0,0,1,11.178,12.8a.827.827,0,0,0,.82-.836A1.221,1.221,0,0,1,13.22,10.74Z" transform="translate(6.043 6.529)"/><path d="M17.089,14.18a1.235,1.235,0,0,1,1.222,1.238,1.221,1.221,0,0,1-1.222,1.222H13.712a1.221,1.221,0,0,1-1.222-1.222,1.235,1.235,0,0,1,1.222-1.238Z" transform="translate(7.593 8.62)"/></g></svg>