<svg id="Grupo_717727" data-name="Grupo 717727" xmlns="http://www.w3.org/2000/svg" xmlns:xlink="http://www.w3.org/1999/xlink" width="50.888" height="66" viewBox="0 0 50.888 66">
  <defs>
    <clipPath id="clip-path">
      <rect id="Rectángulo_34515" data-name="Rectángulo 34515" width="50.888" height="66" fill="none"/>
    </clipPath>
  </defs>
  <g id="Grupo_717726" data-name="Grupo 717726" clip-path="url(#clip-path)">
    <path id="Trazado_468725" data-name="Trazado 468725" d="M24.223,1.554S6.013-.251,1.763,18.107c0,0-1.293,9.629,2.821,17.486a31.475,31.475,0,0,1,3.39,15.79l-2.615,12.5H29.692V54.288l8.407-.871s4.166-2.228,4.747-6.1.678-11.528.678-11.528l5.327-.646-1.839-5.327L44.59,25l.1-4.879S40.956,3.258,24.223,1.554" transform="translate(0.813 0.779)" fill="#f8e794"/>
    <path id="Trazado_468726" data-name="Trazado 468726" d="M19.891,7.963,17.337,9.142s-3.1-3.231-6.469-1.756-2.349,6.853-1.627,7.3l-2.408,5.53L4.15,17.007,5.378,14.83l-2.906-1.22v-5l3.164-.387L4.216,5.39,6.938,2.478l1.985,1.1L10.8.962,14.1.669,15.9,2.8l2.712.193,3.035,1.68Z" transform="translate(1.279 0.346)" fill="#6da7bf"/>
    <path id="Trazado_468727" data-name="Trazado 468727" d="M50.46,33.243a2.82,2.82,0,0,1-2.383,4.31h-3.02v7.831a10.411,10.411,0,0,1-10.4,10.4H31.353v7.467H44.04a1.153,1.153,0,1,1,0,2.307H1.153a1.153,1.153,0,1,1,0-2.307H5.114a29.155,29.155,0,0,0,2.2-6.753A32,32,0,0,0,3.657,34.624,22.927,22.927,0,0,1,.865,22.331a24.488,24.488,0,0,1,.364-2.974,1.157,1.157,0,0,1,1.351-.926,1.173,1.173,0,0,1,.911,1.351,19.67,19.67,0,0,0-.319,2.686A20.489,20.489,0,0,0,5.676,33.5a34.324,34.324,0,0,1,3.9,23.462,33.426,33.426,0,0,1-1.9,6.283H29.047V55.779H24.205a1.161,1.161,0,0,1,0-2.322H34.662a8.093,8.093,0,0,0,8.089-8.074V36.4A1.153,1.153,0,0,1,43.9,35.246h4.173a.468.468,0,0,0,.44-.273.479.479,0,0,0-.015-.516.318.318,0,0,1-.061-.091l-2.853-5.418a11.381,11.381,0,0,1-1.29-5.3A20.552,20.552,0,0,0,26.057,3.164a1.161,1.161,0,0,1-.744-.395,1.124,1.124,0,0,1-.273-.88A1.138,1.138,0,0,1,26.315.873a22.853,22.853,0,0,1,20.29,22.733,8.991,8.991,0,0,0,1.032,4.264Z" transform="translate(0 0.447)"/>
    <path id="Trazado_468728" data-name="Trazado 468728" d="M33.748,17.327v5.934a1.153,1.153,0,0,1-1.153,1.153H30.182l1.7,1.7a1.15,1.15,0,0,1,.349.819,1.125,1.125,0,0,1-.349.819l-4.189,4.189a1.154,1.154,0,0,1-1.639,0l-1.7-1.7v2.413A1.153,1.153,0,0,1,23.2,33.808H17.267a1.153,1.153,0,0,1-1.153-1.153V30.242l-1.7,1.7a1.154,1.154,0,0,1-1.639,0L8.587,27.753a1.154,1.154,0,0,1,0-1.639l1.7-1.7H7.873A1.153,1.153,0,0,1,6.72,23.261V17.327a1.153,1.153,0,0,1,1.153-1.153h2.413l-1.7-1.7a1.154,1.154,0,0,1,0-1.639l4.189-4.189a1.154,1.154,0,0,1,1.639,0l1.7,1.7V7.933A1.153,1.153,0,0,1,17.267,6.78H23.2a1.153,1.153,0,0,1,1.153,1.153v2.413l1.7-1.7a1.154,1.154,0,0,1,1.639,0l4.189,4.189a1.125,1.125,0,0,1,.349.819,1.15,1.15,0,0,1-.349.819l-1.7,1.7h2.413a1.153,1.153,0,0,1,1.153,1.153m-2.307,4.78V18.481H29.969a2.016,2.016,0,0,1-1.9-1.275c-.046-.091-.076-.167-.106-.243a2.077,2.077,0,0,1,.425-2.276l1.047-1.032L26.874,11.09l-1.032,1.047a2.05,2.05,0,0,1-2.276.425c-.076-.03-.152-.061-.243-.091a2.052,2.052,0,0,1-1.275-1.912V9.087H18.421v1.472a2.052,2.052,0,0,1-1.275,1.912l-.243.091a2.021,2.021,0,0,1-2.261-.425L13.595,11.09,11.03,13.655l1.047,1.032a2.05,2.05,0,0,1,.425,2.276c-.03.076-.061.152-.091.243A2.052,2.052,0,0,1,10.5,18.481H9.027v3.627H10.5a2.052,2.052,0,0,1,1.912,1.275c.03.091.061.167.091.243a2.05,2.05,0,0,1-.425,2.276L11.03,26.934,13.595,29.5l1.047-1.047a2.021,2.021,0,0,1,2.261-.425c.076.03.152.061.243.091a2.052,2.052,0,0,1,1.275,1.912V31.5h3.627V30.029a2.052,2.052,0,0,1,1.275-1.912l.258-.091a2.031,2.031,0,0,1,2.261.425L26.874,29.5l2.565-2.565L28.391,25.9a2.077,2.077,0,0,1-.425-2.276c.03-.076.061-.152.106-.243a2.016,2.016,0,0,1,1.9-1.275Z" transform="translate(3.478 3.509)"/>
    <path id="Trazado_468729" data-name="Trazado 468729" d="M30.655,17.694v3.627H29.183a2.016,2.016,0,0,0-1.9,1.275c-.046.091-.076.167-.106.243a2.077,2.077,0,0,0,.425,2.276l1.047,1.032-2.565,2.565-1.032-1.047a2.031,2.031,0,0,0-2.261-.425l-.258.091a2.052,2.052,0,0,0-1.275,1.912v1.472H17.634V29.243a2.052,2.052,0,0,0-1.275-1.912c-.091-.03-.167-.061-.243-.091a2.021,2.021,0,0,0-2.261.425l-1.047,1.047-2.565-2.565,1.047-1.032a2.05,2.05,0,0,0,.425-2.276c-.03-.076-.061-.152-.091-.243a2.052,2.052,0,0,0-1.912-1.275H8.24V17.694H9.712a2.052,2.052,0,0,0,1.912-1.275c.03-.091.061-.167.091-.243A2.05,2.05,0,0,0,11.29,13.9l-1.047-1.032L12.808,10.3l1.047,1.047a2.021,2.021,0,0,0,2.261.425l.243-.091a2.052,2.052,0,0,0,1.275-1.912V8.3h3.627V9.772a2.052,2.052,0,0,0,1.275,1.912c.091.03.167.061.243.091a2.05,2.05,0,0,0,2.276-.425L26.087,10.3l2.565,2.565L27.6,13.9a2.077,2.077,0,0,0-.425,2.276c.03.076.061.152.106.243a2.016,2.016,0,0,0,1.9,1.275ZM26.239,19.5a6.791,6.791,0,1,0-6.784,6.8,6.8,6.8,0,0,0,6.784-6.8" transform="translate(4.265 4.296)" fill="#6da7bf"/>
    <path id="Trazado_468730" data-name="Trazado 468730" d="M17.949,11.21a6.791,6.791,0,1,1-6.8,6.784,6.8,6.8,0,0,1,6.8-6.784m4.477,6.784a4.484,4.484,0,1,0-4.477,4.492,4.495,4.495,0,0,0,4.477-4.492" transform="translate(5.771 5.802)"/>
    <path id="Trazado_468731" data-name="Trazado 468731" d="M23.423,5.22a1.136,1.136,0,0,1,0,1.624L21.966,8.316a1.182,1.182,0,0,1-1.639,0,1.154,1.154,0,0,1,0-1.639l.637-.637L19.022,4.082l-.713.713a2.066,2.066,0,0,1-2.276.425,2.08,2.08,0,0,1-1.305-1.912v-1H11.965v1a2.067,2.067,0,0,1-1.305,1.9A2.036,2.036,0,0,1,8.383,4.8L7.67,4.082,5.712,6.04l.713.7a2.131,2.131,0,0,1-1.487,3.6h-1v2.747h1a2.127,2.127,0,0,1,1.487,3.6l-.713.7L7.26,18.924a1.154,1.154,0,0,1,0,1.639,1.1,1.1,0,0,1-.8.334,1.135,1.135,0,0,1-.819-.334L3.39,18.317,3.269,18.2a1.154,1.154,0,0,1,0-1.624L4.438,15.4H2.783A1.166,1.166,0,0,1,1.63,14.235V9.166A1.153,1.153,0,0,1,2.783,8.013H4.438L3.269,6.844a1.154,1.154,0,0,1,0-1.624L6.85,1.639A1.125,1.125,0,0,1,7.67,1.29a1.15,1.15,0,0,1,.819.349L9.658,2.808V1.153A1.153,1.153,0,0,1,10.811,0H15.88a1.153,1.153,0,0,1,1.153,1.153V2.808L18.2,1.639a1.154,1.154,0,0,1,1.639,0L22.952,4.75Z" transform="translate(0.844 0)"/>
    <path id="Trazado_468732" data-name="Trazado 468732" d="M15.957,5.9a1.154,1.154,0,0,1-.137,1.624,1.173,1.173,0,0,1-1.639-.137A3.661,3.661,0,0,0,8.172,11.5a1.155,1.155,0,0,1-2.018,1.123,5.973,5.973,0,0,1,9.8-6.723" transform="translate(2.8 1.956)"/>
  </g>
</svg>
