<svg xmlns="http://www.w3.org/2000/svg" xmlns:xlink="http://www.w3.org/1999/xlink" width="101" height="101" viewBox="0 0 101 101"><defs><clipPath id="a"><rect width="49.579" height="42.581" fill="#12263f"/></clipPath></defs><g transform="translate(-330 -2303)"><circle cx="50.5" cy="50.5" r="50.5" transform="translate(330 2303)" fill="#cce951"/><g transform="translate(355.421 2332.22)"><g transform="translate(0 0.001)" clip-path="url(#a)"><path d="M25.342,44.636H16.1a3.378,3.378,0,0,1,0-6.757h.926a.716.716,0,0,1,0,1.432H16.1a1.946,1.946,0,0,0,0,3.893h9.24a1.946,1.946,0,0,0,0-3.893H19.308a.716.716,0,1,1,0-1.432h6.034a3.378,3.378,0,0,1,0,6.757" transform="translate(-0.69 -2.054)" fill="#12263f"/><path d="M15.138,38.679a.716.716,0,0,1-.716-.716V26.941a.716.716,0,1,1,1.432,0V37.963a.716.716,0,0,1-.716.716" transform="translate(-0.782 -1.422)" fill="#12263f"/><path d="M24.214,24.377a.716.716,0,0,1-.716-.716v-.1a.843.843,0,1,0-1.685,0v.1a.716.716,0,1,1-1.432,0v-.1a2.275,2.275,0,0,1,4.549,0v.1a.716.716,0,0,1-.716.716" transform="translate(-1.105 -1.155)" fill="#12263f"/><path d="M26.909,38.106a.716.716,0,0,1-.716-.716,10.625,10.625,0,0,1,1.974-6.169l4.056-5.691A1.107,1.107,0,0,0,30.538,24.1l-2.721,2.721a.716.716,0,0,1-1.222-.506V17.826a.743.743,0,0,0-1.486,0v6.4a.716.716,0,0,1-1.432,0v-6.4a2.175,2.175,0,0,1,4.35,0v6.765l1.5-1.5a2.539,2.539,0,0,1,3.864,3.27l-4.056,5.691a9.192,9.192,0,0,0-1.708,5.338.716.716,0,0,1-.716.716" transform="translate(-1.284 -0.849)" fill="#12263f"/><path d="M15.138,27.472a.716.716,0,0,1-.716-.716V24.9a2.062,2.062,0,0,1,4.125,0v.965a.716.716,0,1,1-1.432,0V24.9a.63.63,0,1,0-1.261,0v1.857a.716.716,0,0,1-.716.716" transform="translate(-0.782 -1.239)" fill="#12263f"/><path d="M24.393,27.888a.716.716,0,0,1-.716-.716V24.679a.716.716,0,1,1,1.432,0v2.493a.716.716,0,0,1-.716.716" transform="translate(-1.284 -1.3)" fill="#12263f"/><path d="M18.457,35.394a.716.716,0,0,1-.716-.716V30.742a.716.716,0,1,1,1.432,0v3.936a.716.716,0,0,1-.716.716" transform="translate(-0.962 -1.628)" fill="#12263f"/><path d="M39.51,44.941H6.817a.716.716,0,1,1,0-1.432H39.51a.716.716,0,1,1,0,1.432" transform="translate(-0.331 -2.359)" fill="#12263f"/><path d="M17.985,27.938a.716.716,0,0,1-.716-.716V24.185a2.188,2.188,0,0,1,4.375,0v2.526a.716.716,0,0,1-1.432,0V24.185a.756.756,0,1,0-1.511,0v3.038a.716.716,0,0,1-.716.716" transform="translate(-0.936 -1.193)" fill="#12263f"/><path d="M31.163,18.673a.714.714,0,0,1-.333-.082L28.763,17.5a.716.716,0,0,1,.667-1.267l.783.412-.82-4.781a.714.714,0,0,1,.205-.634l3.474-3.386-4.8-.7a.716.716,0,0,1-.539-.392L25.586,2.41,23.439,6.76a.716.716,0,0,1-.539.392l-4.8.7,3.474,3.386a.714.714,0,0,1,.205.634l-.82,4.781.445-.235a.716.716,0,0,1,.667,1.267l-1.73.909a.716.716,0,0,1-1.038-.755L20.3,12,16.062,7.862a.716.716,0,0,1,.4-1.221l5.863-.852L24.944.476a.716.716,0,0,1,1.284,0L28.85,5.789l5.863.852a.716.716,0,0,1,.4,1.221L30.867,12l1,5.839a.716.716,0,0,1-.706.837" transform="translate(-0.859 -0.005)" fill="#12263f"/><path d="M15.317,18.6a.714.714,0,0,1-.333-.082L9.74,15.757,4.5,18.514a.716.716,0,0,1-1.038-.755l1-5.839L.217,7.785a.716.716,0,0,1,.4-1.221l5.863-.852L9.1.4a.716.716,0,0,1,1.283,0L13,5.712l.49.071A.716.716,0,1,1,13.288,7.2l-.863-.125a.718.718,0,0,1-.539-.392L9.74,2.333,7.594,6.683a.719.719,0,0,1-.539.392l-4.8.7,3.474,3.386a.717.717,0,0,1,.206.634l-.82,4.78,4.293-2.257a.717.717,0,0,1,.667,0l4.293,2.257-.82-4.78a.715.715,0,0,1,.206-.634l1.271-1.239a.716.716,0,1,1,1,1.024l-1,.977,1,5.839a.716.716,0,0,1-.706.837" transform="translate(0 0)" fill="#12263f"/><path d="M47.327,18.673a.716.716,0,0,1-.333-.082L41.75,15.834l-5.244,2.757a.716.716,0,0,1-1.038-.755l1-5.839-1-.979a.716.716,0,1,1,1-1.025l1.273,1.242a.717.717,0,0,1,.206.634l-.82,4.781,4.293-2.258a.717.717,0,0,1,.667,0l4.293,2.258-.82-4.781a.715.715,0,0,1,.206-.634l3.473-3.386-4.8-.7A.716.716,0,0,1,43.9,6.76L41.75,2.41,39.6,6.76a.718.718,0,0,1-.539.392l-1.041.15a.715.715,0,1,1-.205-1.416l.668-.1L41.108.476a.715.715,0,0,1,1.283,0l2.622,5.312,5.863.852a.716.716,0,0,1,.4,1.221L47.031,12l1,5.839a.716.716,0,0,1-.706.837" transform="translate(-1.911 -0.005)" fill="#12263f"/></g></g></g></svg>