<svg xmlns="http://www.w3.org/2000/svg" xmlns:xlink="http://www.w3.org/1999/xlink" width="190.5" height="170.463" viewBox="0 0 190.5 170.463">
  <defs>
    <clipPath id="clip-path">
      <rect id="Rectángulo_34099" data-name="Rectángulo 34099" width="55.624" height="57.082" fill="none"/>
    </clipPath>
  </defs>
  <g id="Grupo_717818" data-name="Grupo 717818" transform="translate(-284.75 -2605.858)">
    <path id="Trazado_115749" data-name="Trazado 115749" d="M1525.017,560.227h-.563a1.351,1.351,0,1,1,0-2.7h.563a1.351,1.351,0,0,1,0,2.7" transform="translate(-1152.022 2216.095)" fill="#1dd1ff"/>
    <path id="Trazado_115746" data-name="Trazado 115746" d="M1254.165,82.119h-2.252V37.959a27.255,27.255,0,0,1,27.224-27.224h57.833v2.252h-57.833a25.066,25.066,0,0,0-19.034,8.824,24.685,24.685,0,0,0-5.938,16.148Z" transform="translate(-965.749 2595.123)" fill="#1dd1ff"/>
    <path id="Trazado_115747" data-name="Trazado 115747" d="M1252.38,237.412a2.54,2.54,0,1,1-2.54-2.54,2.54,2.54,0,0,1,2.54,2.54" transform="translate(-962.55 2439.703)" fill="#1dd1ff"/>
    <rect id="Rectángulo_34007" data-name="Rectángulo 34007" width="2.252" height="44.16" transform="translate(286.164 2704.588)" fill="#1dd1ff"/>
    <path id="Trazado_115748" data-name="Trazado 115748" d="M1252.38,327.438a2.54,2.54,0,1,0-2.54,2.54,2.54,2.54,0,0,0,2.54-2.54" transform="translate(-962.55 2377.277)" fill="#1dd1ff"/>
    <path id="Trazado_115750" data-name="Trazado 115750" d="M1330.587,527h-1.123a1.351,1.351,0,0,1,0-2.7h1.123a1.351,1.351,0,1,1,0,2.7m-12.353,0h-1.123a1.351,1.351,0,0,1,0-2.7h1.123a1.351,1.351,0,0,1,0,2.7m-12.353,0h-1.123a1.351,1.351,0,1,1,0-2.7h1.123a1.351,1.351,0,0,1,0,2.7m-12.354,0H1292.4a1.351,1.351,0,0,1,0-2.7h1.123a1.351,1.351,0,1,1,0,2.7m-12.342-.214a1.4,1.4,0,0,1-.174-.011c-.387-.05-.78-.109-1.167-.176a1.351,1.351,0,0,1,.459-2.663c.35.06.7.114,1.053.159a1.351,1.351,0,0,1-.171,2.692m-11.428-4.377a1.344,1.344,0,0,1-.766-.239c-.323-.223-.645-.455-.958-.69a1.351,1.351,0,1,1,1.627-2.158c.282.213.573.422.865.623a1.351,1.351,0,0,1-.768,2.464m-8.177-9.1a1.35,1.35,0,0,1-1.19-.708c-.186-.343-.367-.7-.539-1.049a1.351,1.351,0,1,1,2.43-1.183c.155.319.318.637.486.946a1.351,1.351,0,0,1-1.187,1.994" transform="translate(-971.159 2249.201)" fill="#1dd1ff"/>
    <path id="Trazado_115751" data-name="Trazado 115751" d="M1252.535,475.665a1.351,1.351,0,0,1-1.35-1.323c0-.2-.006-.394-.006-.592a1.351,1.351,0,0,1,2.7,0q0,.268.005.534a1.351,1.351,0,0,1-1.322,1.38h-.029" transform="translate(-965.24 2274.997)" fill="#1dd1ff"/>
    <path id="Rectángulo_34019" data-name="Rectángulo 34019" d="M0,0H68A17,17,0,0,1,85,17V149a17,17,0,0,1-17,17H0a0,0,0,0,1,0,0V0A0,0,0,0,1,0,0Z" transform="translate(390.25 2608.858)" fill="#1dd1ff"/>
    <rect id="Rectángulo_34018" data-name="Rectángulo 34018" width="163.5" height="147" rx="10" transform="translate(302 2617.858)" fill="#e8e8e8"/>
    <path id="Trazado_469008" data-name="Trazado 469008" d="M37.5,19H34.428V13.656H29.884V19H26.8V6.2h3.085v5.08h4.544V6.2H37.5Zm7.479-1.028a3.054,3.054,0,0,1-2.54,1.2,3,3,0,0,1-2.369-.91,3.826,3.826,0,0,1-.8-2.615V9.49h2.962v6.179a1.065,1.065,0,0,0,1.187,1.222,1.548,1.548,0,0,0,1.45-.729V9.49H47.84V19H45.063ZM52.261,9.49l.1,1.116a3.27,3.27,0,0,1,2.716-1.292,2.407,2.407,0,0,1,2.435,1.433A3.165,3.165,0,0,1,60.3,9.314q2.892,0,2.971,3.5V19H60.3V13a1.813,1.813,0,0,0-.246-1.063,1.048,1.048,0,0,0-.9-.334,1.4,1.4,0,0,0-1.31.782l.009.123V19H54.889V13.015a1.906,1.906,0,0,0-.237-1.081,1.045,1.045,0,0,0-.905-.334,1.42,1.42,0,0,0-1.3.782V19H49.484V9.49ZM70.323,19a3.344,3.344,0,0,1-.281-.853,2.754,2.754,0,0,1-2.285,1.028,3.374,3.374,0,0,1-2.285-.813,2.588,2.588,0,0,1-.94-2.043,2.66,2.66,0,0,1,1.143-2.338A5.821,5.821,0,0,1,69,13.19h.914v-.5q0-1.316-1.134-1.316a.927.927,0,0,0-1.055,1.042H64.759a2.655,2.655,0,0,1,1.173-2.239,4.931,4.931,0,0,1,2.993-.86A4.323,4.323,0,0,1,71.8,10.2a3.086,3.086,0,0,1,1.081,2.435v4.21a4.311,4.311,0,0,0,.4,2V19Zm-1.854-1.934a1.652,1.652,0,0,0,.918-.237,1.487,1.487,0,0,0,.523-.536V14.772h-.861q-1.547,0-1.547,1.389a.848.848,0,0,0,.272.655A.986.986,0,0,0,68.468,17.066ZM77.24,9.49l.1,1.116a3.225,3.225,0,0,1,2.716-1.292,2.713,2.713,0,0,1,2.219.888,4.226,4.226,0,0,1,.76,2.672V19H80.061V13a1.6,1.6,0,0,0-.29-1.059,1.342,1.342,0,0,0-1.055-.338,1.413,1.413,0,0,0-1.292.686V19H74.462V9.49ZM84.3,14.157a5.613,5.613,0,0,1,.554-2.536,3.96,3.96,0,0,1,1.591-1.709,4.791,4.791,0,0,1,2.435-.6,4.373,4.373,0,0,1,3.366,1.323,5.076,5.076,0,0,1,1.23,3.6v.105a4.925,4.925,0,0,1-1.235,3.529,4.384,4.384,0,0,1-3.344,1.305,4.434,4.434,0,0,1-3.261-1.217,4.761,4.761,0,0,1-1.327-3.3Zm2.962.185a3.538,3.538,0,0,0,.413,1.934,1.376,1.376,0,0,0,1.222.615q1.582,0,1.617-2.435v-.3q0-2.558-1.635-2.558-1.485,0-1.608,2.206Zm12.5,1.986a.684.684,0,0,0-.4-.606,6.016,6.016,0,0,0-1.5-.475,6.853,6.853,0,0,1-1.828-.646,3.062,3.062,0,0,1-1.1-.971,2.319,2.319,0,0,1-.378-1.31,2.628,2.628,0,0,1,1.081-2.158,4.453,4.453,0,0,1,2.83-.848,4.934,4.934,0,0,1,3.023.853,2.666,2.666,0,0,1,1.143,2.241H99.661q0-1.143-1.2-1.143a1.194,1.194,0,0,0-.782.259.8.8,0,0,0-.316.646.737.737,0,0,0,.387.642,3.654,3.654,0,0,0,1.235.4,10.671,10.671,0,0,1,1.49.378,2.706,2.706,0,0,1,2.145,2.646,2.491,2.491,0,0,1-1.156,2.118,5.068,5.068,0,0,1-2.993.817,5.172,5.172,0,0,1-2.18-.439,3.645,3.645,0,0,1-1.494-1.2,2.707,2.707,0,0,1-.536-1.591h2.769a1.145,1.145,0,0,0,.439.962,1.808,1.808,0,0,0,1.081.3,1.422,1.422,0,0,0,.91-.246A.787.787,0,0,0,99.757,16.328Z" transform="translate(318.985 2641.858)" fill="#12263f"/>
    <g id="Grupo_80995" data-name="Grupo 80995" transform="translate(355.938 2679)" clip-path="url(#clip-path)">
      <path id="Trazado_115756" data-name="Trazado 115756" d="M42.876,51.1H12.741a.466.466,0,0,1-.259-.079,27.816,27.816,0,1,1,30.653,0,.469.469,0,0,1-.259.079m-29.993-.939H42.735a26.871,26.871,0,1,0-29.852,0" transform="translate(0 0)"/>
      <path id="Trazado_115757" data-name="Trazado 115757" d="M48.7,57.595H15.039a.469.469,0,0,1-.469-.47V44.755a.469.469,0,0,1,.3-.437l11.57-4.548a.466.466,0,0,1,.5.1l4.753,4.575,5.122-4.586a.474.474,0,0,1,.485-.087L48.87,44.317a.47.47,0,0,1,.3.437v12.37a.469.469,0,0,1-.469.47m-33.191-.939H48.23V45.074L37.22,40.748l-5.231,4.684a.47.47,0,0,1-.638-.011L26.5,40.753,15.508,45.074Z" transform="translate(-4.057 -11.065)"/>
      <path id="Trazado_115758" data-name="Trazado 115758" d="M45.213,61.1h-22.3a.469.469,0,0,1-.469-.469V52.867a.469.469,0,1,1,.938,0v7.295H44.744V52.867a.469.469,0,1,1,.938,0v7.765a.469.469,0,0,1-.469.469" transform="translate(-6.248 -14.59)"/>
      <path id="Trazado_115759" data-name="Trazado 115759" d="M41.778,46.615H30.647a.469.469,0,0,1-.469-.469v-5.94a.469.469,0,0,1,.938,0v5.47H41.309v-5.47a.469.469,0,1,1,.938,0v5.94a.469.469,0,0,1-.469.469" transform="translate(-8.403 -11.065)"/>
      <path id="Trazado_115760" data-name="Trazado 115760" d="M39.387,52.785H36.04a.469.469,0,0,1-.469-.469V48.437a.469.469,0,0,1,.469-.47h3.347a.469.469,0,0,1,.469.47v3.879a.469.469,0,0,1-.469.469m-2.878-.939h2.409v-2.94H36.509Z" transform="translate(-9.905 -13.357)"/>
      <path id="Trazado_115761" data-name="Trazado 115761" d="M40.094,61.384H33.676a.469.469,0,0,1-.455-.579l1.705-7.1a.469.469,0,0,1,.456-.36h3.347a.47.47,0,0,1,.46.38l1.365,7.1a.471.471,0,0,1-.461.558m-5.822-.939h5.255l-1.185-6.162h-2.59Z" transform="translate(-9.247 -14.854)"/>
      <path id="Trazado_115762" data-name="Trazado 115762" d="M35.35,30.236a8.811,8.811,0,1,1,8.81-8.818,8.824,8.824,0,0,1-8.81,8.818m0-16.682a7.872,7.872,0,1,0,7.872,7.864,7.877,7.877,0,0,0-7.872-7.864" transform="translate(-7.39 -3.513)"/>
      <path id="Trazado_115763" data-name="Trazado 115763" d="M45.227,21.8A9.583,9.583,0,0,1,39.475,20a.469.469,0,1,1,.571-.744,9.1,9.1,0,0,0,6.86,1.465.474.474,0,0,1,.542.382.469.469,0,0,1-.382.543,10.787,10.787,0,0,1-1.839.158" transform="translate(-10.941 -5.334)"/>
      <path id="Trazado_115764" data-name="Trazado 115764" d="M31.125,20.183a10.348,10.348,0,0,1-3.663-.653.469.469,0,0,1,.331-.878,9.4,9.4,0,0,0,3.332.592c3.852,0,6.986-2.178,6.986-4.857a.469.469,0,1,1,.937,0c0,3.2-3.554,5.8-7.923,5.8" transform="translate(-7.562 -3.875)"/>
      <path id="Trazado_115765" data-name="Trazado 115765" d="M53.662,74.928H3.825a.469.469,0,0,1,0-.939H53.662a.469.469,0,0,1,0,.939" transform="translate(-0.934 -20.602)"/>
      <path id="Trazado_115766" data-name="Trazado 115766" d="M53.662,78.748H3.825a.469.469,0,0,1,0-.939H53.662a.469.469,0,0,1,0,.939" transform="translate(-0.934 -21.666)"/>
    </g>
  </g>
</svg>
