<svg xmlns="http://www.w3.org/2000/svg" xmlns:xlink="http://www.w3.org/1999/xlink" width="53.608" height="66" viewBox="0 0 53.608 66">
  <defs>
    <clipPath id="clip-path">
      <rect id="Rectángulo_34519" data-name="Rectángulo 34519" width="53.608" height="66" fill="none"/>
    </clipPath>
  </defs>
  <g id="Grupo_717734" data-name="Grupo 717734" transform="translate(0 0)">
    <g id="Grupo_717733" data-name="Grupo 717733" transform="translate(0 0)" clip-path="url(#clip-path)">
      <path id="Trazado_468754" data-name="Trazado 468754" d="M52.419,63.62a1.189,1.189,0,0,1,0,2.378H1.189a1.189,1.189,0,0,1,0-2.378h9.639a4.346,4.346,0,0,1-.438-1.862,4.244,4.244,0,0,1,4.24-4.24H15.4V52.729H14.63a4.233,4.233,0,0,1-.376-8.45A18.245,18.245,0,0,0,10.28,33.718,20.912,20.912,0,1,1,47.725,20.9a20.673,20.673,0,0,1-4.553,13.019,17.6,17.6,0,0,0-3.8,10.359,4.233,4.233,0,0,1-.376,8.45h-.767v4.788h.767a4.254,4.254,0,0,1,4.24,4.24,4.142,4.142,0,0,1-.454,1.862ZM41.31,32.435A18.518,18.518,0,0,0,25.6,2.424,18.5,18.5,0,0,0,12.174,32.247a20.634,20.634,0,0,1,4.475,12H36.975A19.931,19.931,0,0,1,41.31,32.435m-.454,16.054a1.867,1.867,0,0,0-1.862-1.862H14.63a1.854,1.854,0,1,0,0,3.708H29.824a1.2,1.2,0,0,1,1.189,1.2,1.189,1.189,0,0,1-1.189,1.189H17.776v5.977A1.189,1.189,0,0,1,16.586,59.9H14.63a1.862,1.862,0,1,0,0,3.724H38.994a1.862,1.862,0,0,0,0-3.724h-16.3a1.189,1.189,0,1,1,0-2.378H35.833V51.54a1.2,1.2,0,0,1,1.189-1.2h1.972a1.863,1.863,0,0,0,1.862-1.846" transform="translate(0 0)"/>
      <path id="Trazado_468755" data-name="Trazado 468755" d="M42.359,20.041a18.351,18.351,0,0,1-4.037,11.532,19.931,19.931,0,0,0-4.334,11.814H13.661a20.634,20.634,0,0,0-4.475-12A18.523,18.523,0,0,1,36.506,6.539a18.343,18.343,0,0,1,5.852,13.5m-5.852,8.09a1.189,1.189,0,0,0-1.189-1.189h-.078v-2.3a11.489,11.489,0,0,0-.125-1.659c-.031-.188-.078-.36-.11-.532a8.092,8.092,0,0,0-.25-1.064,4.451,4.451,0,0,0-.2-.595,9.122,9.122,0,0,0-.36-.908c-.094-.2-.188-.407-.3-.595a8.428,8.428,0,0,0-.469-.814c-.125-.188-.25-.376-.376-.548-.188-.266-.391-.5-.595-.751-.156-.156-.3-.329-.438-.485-.235-.235-.485-.454-.735-.673-.156-.125-.313-.266-.469-.407-.3-.219-.61-.422-.939-.626-.141-.078-.282-.188-.422-.266-.031-.016-.047-.031-.078-.045a5.742,5.742,0,0,0,.454-.878.222.222,0,0,0,.031-.094,5.669,5.669,0,0,0,.313-1,1.78,1.78,0,0,0,.063-.282,5.846,5.846,0,0,0,.125-1.174,6.558,6.558,0,0,0-6.541-6.541,5.758,5.758,0,0,0-1.283.141l-.188.047a6.413,6.413,0,0,0-1.048.33L21.2,5.27a7.16,7.16,0,0,0-1.017.548c-.016.016-.047.031-.063.049a7.766,7.766,0,0,0-.892.734c-.031.031-.063.08-.094.11a6.632,6.632,0,0,0-.673.814c-.063.08-.094.172-.156.25a7.542,7.542,0,0,0-.422.782c-.063.141-.125.3-.172.44-.078.233-.156.454-.219.687-.047.2-.078.408-.11.61-.016.125-.047.235-.063.36,0,.063.016.094.016.141a4.554,4.554,0,0,0-.047.454,6.466,6.466,0,0,0,1,3.428,11.3,11.3,0,0,0-5.883,9.966v2.3h-.078a1.189,1.189,0,1,0,0,2.378H35.317a1.189,1.189,0,0,0,1.189-1.189m-5.758,5.492a1.189,1.189,0,0,0-1.189-1.189H18.089a1.189,1.189,0,1,0,0,2.378h11.47a1.189,1.189,0,0,0,1.189-1.189" transform="translate(2.988 0.861)" fill="#d4eafd"/>
      <path id="Trazado_468756" data-name="Trazado 468756" d="M34.385,29.8a1.854,1.854,0,1,1,0,3.708H32.414a1.2,1.2,0,0,0-1.189,1.2v5.977H18.081a1.189,1.189,0,1,0,0,2.378h16.3a1.862,1.862,0,0,1,0,3.724H10.022a1.862,1.862,0,0,1,0-3.724h1.956a1.189,1.189,0,0,0,1.189-1.189V35.9H25.216a1.189,1.189,0,0,0,1.189-1.189,1.2,1.2,0,0,0-1.189-1.2H10.022a1.854,1.854,0,1,1,0-3.708H34.385Z" transform="translate(4.608 16.829)" fill="#6da7bf"/>
      <path id="Trazado_468757" data-name="Trazado 468757" d="M33.205,25.793a1.189,1.189,0,1,1,0,2.378H10.219a1.189,1.189,0,0,1,0-2.378H10.3v-2.3a11.3,11.3,0,0,1,5.883-9.967,6.456,6.456,0,0,1-1-3.427,4.554,4.554,0,0,1,.047-.454c0-.047-.016-.078-.016-.141.016-.125.047-.235.063-.36.031-.2.063-.407.11-.61.063-.235.141-.454.219-.687.047-.142.11-.3.172-.44a7.542,7.542,0,0,1,.422-.782c.063-.078.094-.172.156-.25a6.632,6.632,0,0,1,.673-.814c.031-.031.063-.078.094-.11a7.766,7.766,0,0,1,.892-.734c.016-.017.047-.033.063-.049a7.006,7.006,0,0,1,1.017-.548l.094-.047a6.407,6.407,0,0,1,1.048-.329l.188-.047A5.758,5.758,0,0,1,21.7,3.558,6.558,6.558,0,0,1,28.245,10.1a5.858,5.858,0,0,1-.125,1.174,1.78,1.78,0,0,1-.063.282,5.668,5.668,0,0,1-.313,1,.222.222,0,0,1-.031.094,5.8,5.8,0,0,1-.454.876c.031.016.047.031.078.047.141.078.282.188.422.266.329.2.642.407.939.626.156.141.313.282.469.407.25.219.5.438.735.673.141.156.282.329.438.485.2.25.407.485.595.751.125.172.25.36.376.548a8.428,8.428,0,0,1,.469.814c.11.188.2.391.3.595a9.122,9.122,0,0,1,.36.908,4.451,4.451,0,0,1,.2.595,8.092,8.092,0,0,1,.25,1.064c.031.172.078.344.11.532a11.489,11.489,0,0,1,.125,1.659v2.3Zm-2.457,0v-2.3a9.558,9.558,0,0,0-.11-1.346,4.091,4.091,0,0,0-.094-.422,7.908,7.908,0,0,0-.188-.876l-.188-.469c-.094-.25-.172-.5-.282-.735a4.807,4.807,0,0,0-.266-.485c-.125-.219-.235-.438-.376-.642-.11-.156-.219-.313-.329-.454-.156-.2-.3-.391-.469-.579-.125-.141-.266-.266-.391-.407-.172-.172-.36-.329-.548-.485a5.09,5.09,0,0,0-.454-.36c-.2-.141-.407-.282-.61-.407a5.818,5.818,0,0,0-.532-.3c-.11-.063-.235-.11-.36-.172-.016.016-.031.016-.063.031a4.532,4.532,0,0,1-.454.3,4.89,4.89,0,0,1-.563.3c-.156.078-.3.141-.454.2a5.477,5.477,0,0,1-.72.219,3.1,3.1,0,0,1-.407.094,6.014,6.014,0,0,1-1.189.125,6.14,6.14,0,0,1-1.189-.125,3.548,3.548,0,0,1-.391-.094,5.477,5.477,0,0,1-.72-.219,3.99,3.99,0,0,1-.454-.2,4.89,4.89,0,0,1-.563-.3c-.156-.094-.313-.188-.469-.3-.016-.016-.063-.031-.078-.047A8.927,8.927,0,0,0,13.083,20.8a9.2,9.2,0,0,0-.25,1.1,1.247,1.247,0,0,0-.047.235,7.987,7.987,0,0,0-.11,1.361v2.3h7.839V21.474a1.189,1.189,0,1,1,2.378,0v4.319ZM25.663,11.257a3.591,3.591,0,0,0,.188-1.158A4.144,4.144,0,0,0,21.7,5.952a3.42,3.42,0,0,0-.814.08.365.365,0,0,0-.125.03,5.282,5.282,0,0,0-.657.2c-.031.017-.047.031-.078.047a3.5,3.5,0,0,0-.626.344c-.016,0-.031.017-.047.031a3.972,3.972,0,0,0-.563.454c-.016.031-.047.047-.063.078a3.378,3.378,0,0,0-.422.516.888.888,0,0,1-.11.156c-.094.156-.188.329-.266.487-.031.108-.078.2-.11.3A4.317,4.317,0,0,0,17.7,9.1a3.726,3.726,0,0,0-.078.407,3.834,3.834,0,0,0-.063.595,4.1,4.1,0,0,0,1.3,2.989,6.266,6.266,0,0,0,.626.5c.016,0,.031.016.063.031a2.855,2.855,0,0,0,.626.313,1.173,1.173,0,0,0,.25.078,4.4,4.4,0,0,0,.485.156,4.189,4.189,0,0,0,1.612,0c.156-.047.329-.094.485-.156a1.538,1.538,0,0,0,.25-.078,3.249,3.249,0,0,0,.626-.313c.016-.016.047-.031.063-.047a4.484,4.484,0,0,0,.626-.485l.016-.014a6.124,6.124,0,0,0,.422-.487,1.1,1.1,0,0,0,.125-.156,5.166,5.166,0,0,0,.282-.5c.031-.078.078-.141.11-.219a2.186,2.186,0,0,0,.141-.454" transform="translate(5.1 2.01)"/>
      <path id="Trazado_468758" data-name="Trazado 468758" d="M29.433,19.24v2.3H21.578V17.222a1.189,1.189,0,1,0-2.378,0v4.319H11.36v-2.3a7.987,7.987,0,0,1,.11-1.361,1.247,1.247,0,0,1,.047-.235,9.2,9.2,0,0,1,.25-1.1,8.927,8.927,0,0,1,4.757-5.461c.016.016.063.031.078.047.156.11.313.2.469.3a4.89,4.89,0,0,0,.563.3,3.989,3.989,0,0,0,.454.2,5.477,5.477,0,0,0,.72.219,3.548,3.548,0,0,0,.391.094,6.14,6.14,0,0,0,1.189.125,6.014,6.014,0,0,0,1.189-.125,3.1,3.1,0,0,0,.407-.094,5.477,5.477,0,0,0,.72-.219c.156-.063.3-.125.454-.2a4.89,4.89,0,0,0,.563-.3,4.532,4.532,0,0,0,.454-.3c.031-.016.047-.016.063-.031.125.063.25.11.36.172a5.818,5.818,0,0,1,.532.3c.2.125.407.266.61.407a5.09,5.09,0,0,1,.454.36c.188.156.376.313.548.485.125.141.266.266.391.407.172.188.313.376.469.579.11.141.219.3.329.454.141.2.25.422.376.642a4.807,4.807,0,0,1,.266.485c.11.235.188.485.282.735l.188.469a7.908,7.908,0,0,1,.188.876,4.091,4.091,0,0,1,.094.422,9.558,9.558,0,0,1,.11,1.346" transform="translate(6.416 6.263)" fill="#e69787"/>
      <path id="Trazado_468759" data-name="Trazado 468759" d="M25.369,21.278a1.189,1.189,0,1,1,0,2.378H13.9a1.189,1.189,0,1,1,0-2.378Z" transform="translate(7.178 12.018)"/>
      <path id="Trazado_468760" data-name="Trazado 468760" d="M22.773,9.234a3.6,3.6,0,0,1-.188,1.159,2.215,2.215,0,0,1-.141.454c-.031.078-.078.141-.11.219a5.166,5.166,0,0,1-.282.5,1.007,1.007,0,0,1-.125.155,5.616,5.616,0,0,1-.422.487l-.016.016a4.471,4.471,0,0,1-.626.484c-.016.017-.047.033-.063.047a3.162,3.162,0,0,1-.626.313,1.4,1.4,0,0,1-.25.078c-.156.063-.329.111-.485.156a4.108,4.108,0,0,1-1.612,0,4.09,4.09,0,0,1-.485-.156,1.09,1.09,0,0,1-.25-.078,2.788,2.788,0,0,1-.626-.313c-.031-.014-.047-.03-.063-.03a6.5,6.5,0,0,1-.626-.5,4.106,4.106,0,0,1-1.3-2.99,3.815,3.815,0,0,1,.063-.593,3.753,3.753,0,0,1,.078-.408,4.317,4.317,0,0,1,.125-.422c.031-.092.078-.188.11-.3.078-.156.172-.329.266-.487a.94.94,0,0,0,.11-.155,3.377,3.377,0,0,1,.422-.516c.016-.031.047-.049.063-.08a3.962,3.962,0,0,1,.563-.452c.016-.016.031-.031.047-.031a3.5,3.5,0,0,1,.626-.344c.031-.016.047-.031.078-.047a4.8,4.8,0,0,1,.657-.2.368.368,0,0,1,.125-.031,3.42,3.42,0,0,1,.814-.078,4.142,4.142,0,0,1,4.147,4.145" transform="translate(8.178 2.875)" fill="#f8e794"/>
    </g>
  </g>
</svg>
