<svg id="Grupo_717725" data-name="Grupo 717725" xmlns="http://www.w3.org/2000/svg" xmlns:xlink="http://www.w3.org/1999/xlink" width="65.187" height="66" viewBox="0 0 65.187 66">
  <defs>
    <clipPath id="clip-path">
      <rect id="Rectángulo_34514" data-name="Rectángulo 34514" width="65.187" height="66" fill="none"/>
    </clipPath>
  </defs>
  <g id="Grupo_717724" data-name="Grupo 717724" clip-path="url(#clip-path)">
    <path id="Trazado_468715" data-name="Trazado 468715" d="M14.365,22.6h36S60.738,27.07,62.719,36.515s.666,15.434.666,15.434H.855V38.511S2.464,26.637,14.365,22.6" transform="translate(0.482 12.727)" fill="#6da7bf"/>
    <path id="Trazado_468716" data-name="Trazado 468716" d="M41.981,21.3A15.495,15.495,0,1,1,26.486,5.8,15.5,15.5,0,0,1,41.981,21.3" transform="translate(6.191 3.269)" fill="#f8e794"/>
    <path id="Trazado_468717" data-name="Trazado 468717" d="M65.187,41.421V52.364A1.188,1.188,0,0,1,64,53.552H1.188A1.188,1.188,0,0,1,0,52.364V41.421A20.647,20.647,0,0,1,13.319,22.177,1.186,1.186,0,0,1,14.4,22.3a1.2,1.2,0,0,1-.25,2.11A18.25,18.25,0,0,0,2.376,41.421v9.755H12.24V43.344a1.188,1.188,0,0,1,2.376,0v7.832H50.571V43.344a1.188,1.188,0,0,1,2.376,0v7.832h9.864V41.421A18.1,18.1,0,0,0,51.493,24.585a1.186,1.186,0,0,1-.657-1.548,1.2,1.2,0,0,1,1.11-.75,1.1,1.1,0,0,1,.438.094,20.478,20.478,0,0,1,12.8,19.04" transform="translate(0 12.449)"/>
    <path id="Trazado_468718" data-name="Trazado 468718" d="M38.086,19.01a24.85,24.85,0,0,1-.938,6.784,1.185,1.185,0,0,1-1.469.813,1.222,1.222,0,0,1-.5-.281,1.188,1.188,0,0,1-.313-1.172,23.281,23.281,0,0,0,.829-6.144,22.764,22.764,0,0,0-1.063-6.894,1.207,1.207,0,0,1,.156-1.063,1.305,1.305,0,0,1,.61-.422,1.192,1.192,0,0,1,1.5.766,25.074,25.074,0,0,1,1.188,7.613" transform="translate(19.472 5.955)"/>
    <path id="Trazado_468719" data-name="Trazado 468719" d="M45.822,5.353a2.179,2.179,0,0,1,.234,2.892L43.32,11.778l-5.94,7.66L27.2,32.538a1.155,1.155,0,0,1-.938.469,1.2,1.2,0,0,1-.938-.469l-11.4-14.507A1.813,1.813,0,0,1,13.65,16.4a1.721,1.721,0,0,1,.266-.5,1.773,1.773,0,0,1,2-.641l10.114,3.424L42.945,5.212a2.173,2.173,0,0,1,2.876.141M26.265,29.88l16.9-21.807L27,20.938a1.147,1.147,0,0,1-1.11.2l-8.832-2.97Z" transform="translate(7.641 2.667)"/>
    <path id="Trazado_468720" data-name="Trazado 468720" d="M41.906,6.87l-16.9,21.807L15.8,16.969l8.832,2.97a1.147,1.147,0,0,0,1.11-.2Z" transform="translate(8.899 3.87)" fill="#b8e151"/>
    <path id="Trazado_468721" data-name="Trazado 468721" d="M43.381,21.174c.016.25.016.516.016.766a16.532,16.532,0,1,1-9-14.757A1.2,1.2,0,1,1,33.3,9.309a13.878,13.878,0,0,0-6.472-1.563A14.172,14.172,0,0,0,14.039,15.8a13.961,13.961,0,0,0-1.407,6.144,14.194,14.194,0,0,0,28.389,0c0-.219,0-.438-.016-.657a1.189,1.189,0,0,1,2.376-.109" transform="translate(5.768 3.025)"/>
    <path id="Trazado_468722" data-name="Trazado 468722" d="M38.815,3.564a1.2,1.2,0,0,1,.406,1.641,1.22,1.22,0,0,1-1.016.578,1.3,1.3,0,0,1-.625-.172A22.6,22.6,0,0,0,16.257,4.549a25.52,25.52,0,0,0-2.626,1.469,1.11,1.11,0,0,1-.641.2,1.194,1.194,0,0,1-.657-2.189,24.156,24.156,0,0,1,2.908-1.626A25.01,25.01,0,0,1,38.815,3.564" transform="translate(6.644 0)"/>
    <path id="Trazado_468723" data-name="Trazado 468723" d="M12.784,4.443a1.2,1.2,0,0,1-.063,1.688,21.686,21.686,0,0,0-2.611,2.876,1.184,1.184,0,0,1-.954.469,1.234,1.234,0,0,1-.719-.234A1.192,1.192,0,0,1,8.219,7.57,24.076,24.076,0,0,1,11.1,4.4a1.2,1.2,0,0,1,1.688.047" transform="translate(4.49 2.294)"/>
    <path id="Trazado_468724" data-name="Trazado 468724" d="M9.257,8.356a1.2,1.2,0,0,1,.516,1.61,22.6,22.6,0,0,0-1.829,15.9A1.188,1.188,0,0,1,7.069,27.3a.866.866,0,0,1-.281.031,1.2,1.2,0,0,1-1.157-.891,25.075,25.075,0,0,1-.75-6.112,24.721,24.721,0,0,1,1.454-8.41A22.777,22.777,0,0,1,7.663,8.872a1.191,1.191,0,0,1,1.595-.516" transform="translate(2.749 4.634)"/>
  </g>
</svg>
