<svg xmlns="http://www.w3.org/2000/svg" xmlns:xlink="http://www.w3.org/1999/xlink" width="101" height="101" viewBox="0 0 101 101"><defs><clipPath id="a"><rect width="45.225" height="49.719" fill="#12263f"/></clipPath></defs><g transform="translate(-750 -2303)"><circle cx="50.5" cy="50.5" r="50.5" transform="translate(750 2303)" fill="#cce951"/><g transform="translate(778 2329)"><g transform="translate(0 0)" clip-path="url(#a)"><path d="M37.3,9.011A2.009,2.009,0,1,1,35.289,7,2.009,2.009,0,0,1,37.3,9.011" transform="translate(-2.43 -0.511)" fill="#12263f"/><path d="M28.22,9.011A2.009,2.009,0,1,1,26.211,7,2.009,2.009,0,0,1,28.22,9.011" transform="translate(-1.767 -0.511)" fill="#12263f"/><path d="M25.494,22.442a.7.7,0,0,1-.286-.061,11.7,11.7,0,1,1,9.954-.187.7.7,0,0,1-.622-1.258,10.3,10.3,0,1,0-8.758.164.7.7,0,0,1-.287,1.342" transform="translate(-1.335 0)" fill="#12263f"/><path d="M25.6,18.37a.7.7,0,0,1-.4-1.281,9.42,9.42,0,0,1,5.262-1.466,9.423,9.423,0,0,1,5.26,1.465.7.7,0,0,1-.79,1.16,8.133,8.133,0,0,0-4.47-1.222A8.133,8.133,0,0,0,26,18.248a.7.7,0,0,1-.394.121" transform="translate(-1.818 -1.141)" fill="#12263f"/><path d="M29.743,53.064H19.6a3.624,3.624,0,1,1,0-7.248h1.017a.7.7,0,1,1,0,1.4H19.6a2.221,2.221,0,1,0,0,4.441H29.743a2.221,2.221,0,1,0,0-4.441H23.119a.7.7,0,0,1,0-1.4h6.623a3.624,3.624,0,0,1,0,7.248" transform="translate(-1.166 -3.345)" fill="#12263f"/><path d="M18.581,46.267a.7.7,0,0,1-.7-.7v-12.1a.7.7,0,1,1,1.4,0v12.1a.7.7,0,0,1-.7.7" transform="translate(-1.305 -2.392)" fill="#12263f"/><path d="M28.676,30.458a.7.7,0,0,1-.7-.7v-.108a1.009,1.009,0,1,0-2.018,0v.108a.7.7,0,1,1-1.4,0v-.108a2.413,2.413,0,1,1,4.825,0v.108a.7.7,0,0,1-.7.7" transform="translate(-1.792 -1.988)" fill="#12263f"/><path d="M31.707,45.4a.7.7,0,0,1-.7-.7,11.57,11.57,0,0,1,2.152-6.723l4.453-6.247a1.3,1.3,0,0,0-.14-1.674,1.331,1.331,0,0,0-1.838,0l-2.988,2.988a.7.7,0,0,1-1.2-.5V23.226a.9.9,0,1,0-1.8,0v7.028a.7.7,0,1,1-1.4,0V23.226a2.3,2.3,0,0,1,4.606,0v7.628l1.789-1.789a2.7,2.7,0,0,1,4.113,3.481L34.3,38.792A10.178,10.178,0,0,0,32.409,44.7a.7.7,0,0,1-.7.7" transform="translate(-2.062 -1.528)" fill="#12263f"/><path d="M18.581,33.89a.7.7,0,0,1-.7-.7V31.15a2.18,2.18,0,1,1,4.36,0v1.059a.7.7,0,1,1-1.4,0V31.15a.776.776,0,1,0-1.553,0v2.038a.7.7,0,0,1-.7.7" transform="translate(-1.305 -2.115)" fill="#12263f"/><path d="M28.946,34.371a.7.7,0,0,1-.7-.7V30.933a.7.7,0,1,1,1.4,0v2.736a.7.7,0,0,1-.7.7" transform="translate(-2.062 -2.207)" fill="#12263f"/><path d="M22.3,42.746a.7.7,0,0,1-.7-.7V37.724a.7.7,0,1,1,1.4,0v4.321a.7.7,0,0,1-.7.7" transform="translate(-1.577 -2.703)" fill="#12263f"/><path d="M44.524,53.524H.7a.7.7,0,0,1,0-1.4H44.524a.7.7,0,0,1,0,1.4" transform="translate(0 -3.805)" fill="#12263f"/><path d="M21.77,34.383a.7.7,0,0,1-.7-.7V30.346a2.317,2.317,0,0,1,4.634,0v2.774a.7.7,0,1,1-1.4,0V30.346a.914.914,0,0,0-1.828,0v3.335a.7.7,0,0,1-.7.7" transform="translate(-1.538 -2.046)" fill="#12263f"/></g></g></g></svg>