<svg id="Grupo_717781" data-name="Grupo 717781" xmlns="http://www.w3.org/2000/svg" xmlns:xlink="http://www.w3.org/1999/xlink" width="117.139" height="96.666" viewBox="0 0 117.139 96.666">
  <defs>
    <clipPath id="clip-path">
      <rect id="Rectángulo_34555" data-name="Rectángulo 34555" width="117.139" height="96.666" fill="none"/>
    </clipPath>
  </defs>
  <g id="Grupo_717780" data-name="Grupo 717780" clip-path="url(#clip-path)">
    <path id="Trazado_468872" data-name="Trazado 468872" d="M43.214,2.4h29.91S77.23,4.63,76.7,11.584s-.712,34.767-.712,34.767l-23,1.424L35.547,58.443,36.4,48.8H26.065s-4.455-4.05-4.634-9.22.891-32.8.891-32.8.358-4.29,7.843-4.374,13.049,0,13.049,0" transform="translate(38.39 4.238)" fill="#6da7bf"/>
    <path id="Trazado_468873" data-name="Trazado 468873" d="M79.988,9.412V43.739A7.8,7.8,0,0,1,72.2,51.531H53.677L37.534,62.284a2.13,2.13,0,0,1-1.173.335,2.087,2.087,0,0,1-2.123-2.29l.81-8.8H28.512a7.8,7.8,0,0,1-7.792-7.792V9.412A7.8,7.8,0,0,1,28.512,1.62H42.338a2.123,2.123,0,1,1,0,4.245H28.512a3.552,3.552,0,0,0-3.547,3.547V43.739a3.552,3.552,0,0,0,3.547,3.547h8.854a2.1,2.1,0,0,1,1.564.7,2.038,2.038,0,0,1,.559,1.62l-.614,6.675,12.987-8.63a1.947,1.947,0,0,1,1.173-.363H72.2a3.552,3.552,0,0,0,3.547-3.547V9.412a3.536,3.536,0,0,0-1.2-2.653,2.152,2.152,0,0,1-.168-3.016,2.116,2.116,0,0,1,2.989-.168,7.776,7.776,0,0,1,2.625,5.837" transform="translate(37.151 2.905)"/>
    <path id="Trazado_468874" data-name="Trazado 468874" d="M47.071,2.123V43.459a2.122,2.122,0,0,1-2.123,2.123H36.793a2.122,2.122,0,0,1-2.123-2.123V2.123A2.122,2.122,0,0,1,36.793,0h8.156a2.122,2.122,0,0,1,2.123,2.123M42.826,4.245h-3.91V41.336h3.91Z" transform="translate(62.163)"/>
    <rect id="Rectángulo_34552" data-name="Rectángulo 34552" width="3.91" height="37.091" transform="translate(101.079 4.245)" fill="#e69787"/>
    <path id="Trazado_468875" data-name="Trazado 468875" d="M41.511,5.673V37.094a2.122,2.122,0,0,1-2.123,2.123H31.233a2.122,2.122,0,0,1-2.123-2.123V5.673A2.122,2.122,0,0,1,31.233,3.55h8.156a2.122,2.122,0,0,1,2.123,2.123M37.266,7.8h-3.91V34.971h3.91Z" transform="translate(52.194 6.365)"/>
    <path id="Trazado_468876" data-name="Trazado 468876" d="M93.286,74.473a2.123,2.123,0,0,1,0,4.245H2.123a2.123,2.123,0,0,1,0-4.245H3.715V66.457a31.956,31.956,0,0,1,17.624-28.4,17.435,17.435,0,0,1-3.463-10.446A17.61,17.61,0,1,1,49.632,38.052a32.007,32.007,0,0,1,17.624,28.4v8.016Zm-30.276,0V66.457A27.3,27.3,0,0,0,46.559,41.292a17.792,17.792,0,0,1-5.083,2.849l-.251.084a16.173,16.173,0,0,1-2.6.7c-.14.028-.279.028-.391.056a18.172,18.172,0,0,1-2.765.251,17.809,17.809,0,0,1-2.737-.251c-.14-.028-.251-.028-.391-.056a17.335,17.335,0,0,1-2.625-.7l-.251-.084a18.023,18.023,0,0,1-5.055-2.849A27.257,27.257,0,0,0,7.96,66.457v8.016h7.15V61.513a2.137,2.137,0,0,1,4.273,0v12.96h8.435l1.62-19.579a6.072,6.072,0,0,1,12.094-.028s1.173,14.3,1.62,19.607h8.435V61.513a2.123,2.123,0,1,1,4.245,0v12.96ZM48.822,27.606a13.351,13.351,0,0,0-26.7,0,13.179,13.179,0,0,0,4.273,9.72,13.823,13.823,0,0,0,1.871,1.508c.14.084.279.14.419.223a15.464,15.464,0,0,0,1.788.922c.335.14.67.2,1.005.307a11.967,11.967,0,0,0,1.424.419,13.4,13.4,0,0,0,5.167,0,13.724,13.724,0,0,0,1.424-.419,10,10,0,0,0,.978-.307,13.836,13.836,0,0,0,1.815-.922c.112-.084.279-.14.391-.223a14.071,14.071,0,0,0,1.9-1.508,13.258,13.258,0,0,0,4.245-9.72M38.879,74.473,37.287,55.257a1.8,1.8,0,0,0-1.815-1.648,1.842,1.842,0,0,0-1.815,1.648L32.064,74.473Z" transform="translate(0 17.948)"/>
    <rect id="Rectángulo_34553" data-name="Rectángulo 34553" width="3.91" height="27.176" transform="translate(85.55 14.161)" fill="#e69787"/>
    <path id="Trazado_468877" data-name="Trazado 468877" d="M35.951,7.793v25.5a2.122,2.122,0,0,1-2.123,2.123H25.673a2.122,2.122,0,0,1-2.123-2.123V7.793A2.122,2.122,0,0,1,25.673,5.67h8.156a2.122,2.122,0,0,1,2.123,2.123M31.706,9.915H27.8V31.17h3.91Z" transform="translate(42.225 10.166)"/>
    <rect id="Rectángulo_34554" data-name="Rectángulo 34554" width="3.91" height="21.255" transform="translate(70.021 20.082)" fill="#e69787"/>
    <path id="Trazado_468878" data-name="Trazado 468878" d="M57.9,46.375v8.016H50.722V41.431a2.123,2.123,0,1,0-4.245,0v12.96H38.042c-.447-5.307-1.62-19.607-1.62-19.607a6.072,6.072,0,0,0-12.094.028l-1.62,19.579H14.273V41.431a2.137,2.137,0,0,0-4.273,0v12.96H2.85V46.375A27.257,27.257,0,0,1,19.3,21.21a18.023,18.023,0,0,0,5.055,2.849l.251.084a17.335,17.335,0,0,0,2.625.7c.14.028.251.028.391.056a17.809,17.809,0,0,0,2.737.251,18.172,18.172,0,0,0,2.765-.251c.112-.028.251-.028.391-.056a16.173,16.173,0,0,0,2.6-.7l.251-.084a17.792,17.792,0,0,0,5.083-2.849A27.3,27.3,0,0,1,57.9,46.375" transform="translate(5.11 38.03)" fill="#d4eafd"/>
    <path id="Trazado_468879" data-name="Trazado 468879" d="M21.271,11.53A13.32,13.32,0,0,1,30.376,34.6a14.071,14.071,0,0,1-1.9,1.508c-.112.084-.279.14-.391.223a13.835,13.835,0,0,1-1.815.922,10,10,0,0,1-.978.307,13.724,13.724,0,0,1-1.424.419,13.4,13.4,0,0,1-5.167,0,11.967,11.967,0,0,1-1.424-.419c-.335-.112-.67-.168-1.005-.307a15.463,15.463,0,0,1-1.788-.922c-.14-.084-.279-.14-.419-.223A13.823,13.823,0,0,1,12.193,34.6a13.179,13.179,0,0,1-4.273-9.72A13.368,13.368,0,0,1,21.271,11.53" transform="translate(14.201 20.673)" fill="#f8e794"/>
    <path id="Trazado_468880" data-name="Trazado 468880" d="M16.7,27.268l1.592,19.216H11.48l1.592-19.216a1.842,1.842,0,0,1,1.815-1.648A1.8,1.8,0,0,1,16.7,27.268" transform="translate(20.584 45.937)" fill="#6da7bf"/>
  </g>
</svg>
