<svg xmlns="http://www.w3.org/2000/svg" xmlns:xlink="http://www.w3.org/1999/xlink" width="66.882" height="48.813" viewBox="0 0 66.882 48.813">
  <defs>
    <clipPath id="clip-path">
      <rect id="Rect치ngulo_34045" data-name="Rect치ngulo 34045" width="66.882" height="48.812" fill="#12263f"/>
    </clipPath>
  </defs>
  <g id="Grupo_717817" data-name="Grupo 717817" transform="translate(-417.11 -4350)">
    <g id="Grupo_81027" data-name="Grupo 81027" transform="translate(417.11 4350)">
      <g id="Grupo_80917" data-name="Grupo 80917" transform="translate(0 0)" clip-path="url(#clip-path)">
        <path id="Trazado_115247" data-name="Trazado 115247" d="M68.115,44.346c-3.76,0-6.705-4.436-6.705-10.1s2.945-10.1,6.705-10.1,6.706,4.436,6.706,10.1-2.945,10.1-6.706,10.1m0-17.869c-2.373,0-4.377,3.558-4.377,7.771s2,7.77,4.377,7.77,4.377-3.558,4.377-7.77-2-7.771-4.377-7.771" transform="translate(-25.663 -10.092)" fill="#12263f"/>
        <path id="Trazado_115248" data-name="Trazado 115248" d="M93.238,44.346c-3.76,0-6.706-4.436-6.706-10.1s2.945-10.1,6.706-10.1,6.705,4.436,6.705,10.1-2.945,10.1-6.705,10.1m0-17.869c-2.373,0-4.377,3.558-4.377,7.771s2,7.77,4.377,7.77,4.377-3.558,4.377-7.77-2-7.771-4.377-7.771" transform="translate(-36.161 -10.092)" fill="#12263f"/>
        <path id="Trazado_115249" data-name="Trazado 115249" d="M18.9,44.346H7.822a1.164,1.164,0,0,1-.933-1.86l9.755-13.068a3.3,3.3,0,0,0-6.587.36H7.73a5.632,5.632,0,1,1,11.263,0,1.159,1.159,0,0,1-.232.7L10.144,42.018H18.9Z" transform="translate(-2.782 -10.091)" fill="#12263f"/>
        <path id="Trazado_115250" data-name="Trazado 115250" d="M38.569,43.346H36.241V36.555H29.858a1.164,1.164,0,0,1-.962-1.82l7.547-11.082a1.164,1.164,0,0,1,2.126.655v9.917h2.371v2.328H38.569Zm-6.51-9.12h4.181V28.087Z" transform="translate(-11.991 -9.672)" fill="#12263f"/>
        <path id="Trazado_115251" data-name="Trazado 115251" d="M60,47.182H6.881A6.847,6.847,0,0,1,0,40.385V14.079a6.847,6.847,0,0,1,6.881-6.8H60a6.847,6.847,0,0,1,6.881,6.8V40.385A6.847,6.847,0,0,1,60,47.182M6.881,9.611a4.516,4.516,0,0,0-4.553,4.468V40.385a4.516,4.516,0,0,0,4.553,4.468H60a4.516,4.516,0,0,0,4.553-4.468V14.079A4.516,4.516,0,0,0,60,9.611Z" transform="translate(0 -3.044)" fill="#12263f"/>
        <path id="Trazado_115252" data-name="Trazado 115252" d="M55.323,32.489a1.164,1.164,0,0,1-1.164-1.164V29.276a1.164,1.164,0,1,1,2.328,0v2.049a1.164,1.164,0,0,1-1.164,1.164" transform="translate(-22.633 -11.748)" fill="#12263f"/>
        <path id="Trazado_115253" data-name="Trazado 115253" d="M55.323,51.739a1.164,1.164,0,0,1-1.164-1.164V48.526a1.164,1.164,0,1,1,2.328,0v2.049a1.164,1.164,0,0,1-1.164,1.164" transform="translate(-22.633 -19.793)" fill="#12263f"/>
        <path id="Trazado_115254" data-name="Trazado 115254" d="M29.117,78.827H19.027a1.164,1.164,0,0,1-1.164-1.164V72.988a1.164,1.164,0,0,1,1.164-1.164h10.09a1.164,1.164,0,0,1,1.164,1.164v4.675a1.164,1.164,0,0,1-1.164,1.164M20.191,76.5h7.761V74.152H20.191Z" transform="translate(-7.465 -30.015)" fill="#12263f"/>
        <path id="Trazado_115255" data-name="Trazado 115255" d="M86.955,78.827H76.865A1.164,1.164,0,0,1,75.7,77.663V72.988a1.164,1.164,0,0,1,1.164-1.164h10.09a1.164,1.164,0,0,1,1.164,1.164v4.675a1.164,1.164,0,0,1-1.164,1.164M78.029,76.5h7.762V74.152H78.029Z" transform="translate(-31.635 -30.015)" fill="#12263f"/>
        <rect id="Rect치ngulo_34044" data-name="Rect치ngulo 34044" width="43.657" height="2.328" transform="translate(11.614)" fill="#12263f"/>
      </g>
    </g>
  </g>
</svg>
