<svg xmlns="http://www.w3.org/2000/svg" xmlns:xlink="http://www.w3.org/1999/xlink" width="175.023" height="175.02" viewBox="0 0 175.023 175.02">
  <defs>
    <filter id="Trazado_465583" x="0" y="0" width="175.023" height="175.02" filterUnits="userSpaceOnUse">
      <feOffset dy="3" input="SourceAlpha"/>
      <feGaussianBlur stdDeviation="3" result="blur"/>
      <feFlood flood-opacity="0.161"/>
      <feComposite operator="in" in2="blur"/>
      <feComposite in="SourceGraphic"/>
    </filter>
    <clipPath id="clip-path">
      <rect id="Rectángulo_34551" data-name="Rectángulo 34551" width="64.27" height="64.27" fill="none"/>
    </clipPath>
  </defs>
  <g id="Grupo_717813" data-name="Grupo 717813" transform="translate(-171 -3233.023)">
    <g transform="matrix(1, 0, 0, 1, 171, 3233.02)" filter="url(#Trazado_465583)">
      <path id="Trazado_465583-2" data-name="Trazado 465583" d="M157.023,6.274V150.745c0,3.466-3.97,6.275-8.869,6.275H8.869c-4.9,0-8.869-2.809-8.869-6.275V6.274c0-.1,0-.2.01-.3C.231,2.648,4.113,0,8.869,0H148.154C153.053,0,157.023,2.809,157.023,6.274Z" transform="translate(9 6)" fill="#cce951" opacity="0.25"/>
    </g>
    <path id="Trazado_469003" data-name="Trazado 469003" d="M52.723,13.211A4.025,4.025,0,0,1,51.367,16.1a4.76,4.76,0,0,1-3.223,1.055A4.28,4.28,0,0,1,44.7,15.684a6.038,6.038,0,0,1-1.254-4.043v-.7a6.819,6.819,0,0,1,.578-2.891A4.332,4.332,0,0,1,45.68,6.137a5.164,5.164,0,0,1,5.668.387,4.326,4.326,0,0,1,1.391,2.961H50.395a2.376,2.376,0,0,0-.613-1.6,2.271,2.271,0,0,0-1.605-.5,1.991,1.991,0,0,0-1.754.84,4.707,4.707,0,0,0-.6,2.605V11.7a5.038,5.038,0,0,0,.559,2.7,1.954,1.954,0,0,0,1.762.852,2.314,2.314,0,0,0,1.621-.5,2.241,2.241,0,0,0,.613-1.535Zm6.453,2.93a2.831,2.831,0,0,1-2.312,1.016,2.67,2.67,0,0,1-2.074-.781,3.335,3.335,0,0,1-.73-2.289V8.547h2.258v5.467q0,1.322,1.2,1.322a1.63,1.63,0,0,0,1.578-.8V8.547h2.266V17H59.238ZM65.449,17H63.184V5h2.266ZM70.012,6.469V8.547h1.445V10.2H70.012v4.219a1.007,1.007,0,0,0,.18.672.9.9,0,0,0,.688.2,3.6,3.6,0,0,0,.664-.055v1.711a4.648,4.648,0,0,1-1.367.2,2.156,2.156,0,0,1-2.422-2.4V10.2H66.52V8.547h1.234V6.469Zm7.766,9.672a2.831,2.831,0,0,1-2.312,1.016,2.67,2.67,0,0,1-2.074-.781,3.335,3.335,0,0,1-.73-2.289V8.547h2.258v5.467q0,1.322,1.2,1.322a1.63,1.63,0,0,0,1.578-.8V8.547h2.266V17H77.84Zm8.641-5.477a6.134,6.134,0,0,0-.812-.062,1.654,1.654,0,0,0-1.68.867V17H81.668V8.547H83.8l.063,1.008a2.092,2.092,0,0,1,1.883-1.164,2.366,2.366,0,0,1,.7.1ZM92.168,17a2.507,2.507,0,0,1-.227-.758,2.732,2.732,0,0,1-2.133.914,3,3,0,0,1-2.059-.719,2.312,2.312,0,0,1-.816-1.812,2.389,2.389,0,0,1,1-2.062,4.915,4.915,0,0,1,2.879-.727h1.039v-.484a1.393,1.393,0,0,0-.3-.937,1.183,1.183,0,0,0-.949-.352,1.345,1.345,0,0,0-.895.273.929.929,0,0,0-.324.75H87.121a2.268,2.268,0,0,1,.453-1.359,3,3,0,0,1,1.281-.98,4.669,4.669,0,0,1,1.859-.355,3.689,3.689,0,0,1,2.48.785,2.747,2.747,0,0,1,.918,2.207v3.664a4.041,4.041,0,0,0,.336,1.82V17ZM90.3,15.43a1.945,1.945,0,0,0,.922-.223,1.462,1.462,0,0,0,.625-.6V13.156H91q-1.7,0-1.8,1.172l-.008.133a.9.9,0,0,0,.3.7A1.153,1.153,0,0,0,90.3,15.43ZM98.23,17H95.965V5H98.23Z" transform="translate(188 3352.316)" fill="#12263f"/>
    <g id="Grupo_717779" data-name="Grupo 717779" transform="translate(226 3269.047)">
      <g id="Grupo_717778" data-name="Grupo 717778" transform="translate(0 0)" clip-path="url(#clip-path)">
        <path id="Trazado_468852" data-name="Trazado 468852" d="M42.765,17.61a5.173,5.173,0,1,1-5.02,6.337h-5.8a1.163,1.163,0,0,1,0-2.327h5.8a5.166,5.166,0,0,1,5.02-4.01m2.847,5.173a2.839,2.839,0,1,0-2.847,2.847,2.851,2.851,0,0,0,2.847-2.847" transform="translate(16.332 9.344)"/>
        <path id="Trazado_468853" data-name="Trazado 468853" d="M39.592,19.13a2.847,2.847,0,1,1-2.832,2.847,2.851,2.851,0,0,1,2.832-2.847" transform="translate(19.505 10.15)" fill="#b8e151"/>
        <path id="Trazado_468854" data-name="Trazado 468854" d="M40.178,32.851a5.173,5.173,0,0,1-3.658,8.832,5.118,5.118,0,0,1-3.658-1.515,5.175,5.175,0,0,1-.735-6.4l-4.1-4.1a1.163,1.163,0,0,1,1.653-1.638l4.1,4.1a5.177,5.177,0,0,1,6.4.719m-1.653,5.663a2.839,2.839,0,1,0-4.025,0,2.845,2.845,0,0,0,4.025,0" transform="translate(14.694 14.69)"/>
        <path id="Trazado_468855" data-name="Trazado 468855" d="M40.178,6.675a5.152,5.152,0,0,1,1.515,3.658,5.148,5.148,0,0,1-5.173,5.158,5.127,5.127,0,0,1-2.74-.781l-4.1,4.1a1.145,1.145,0,0,1-.827.337,1.17,1.17,0,0,1-.827-.337,1.192,1.192,0,0,1,0-1.653l4.1-4.1a5.171,5.171,0,0,1,8.051-6.383m-.827,3.658A2.839,2.839,0,1,0,34.5,12.339a2.864,2.864,0,0,0,4.025,0,2.826,2.826,0,0,0,.827-2.005" transform="translate(14.694 2.738)"/>
        <path id="Trazado_468856" data-name="Trazado 468856" d="M36.452,32.431a2.839,2.839,0,1,1-4.025,0,2.845,2.845,0,0,1,4.025,0" transform="translate(16.767 16.763)" fill="#6da7bf"/>
        <path id="Trazado_468857" data-name="Trazado 468857" d="M36.452,7.507a2.864,2.864,0,0,1,0,4.025,2.864,2.864,0,0,1-4.025,0,2.846,2.846,0,0,1,4.025-4.025" transform="translate(16.767 3.544)" fill="#6da7bf"/>
        <path id="Trazado_468858" data-name="Trazado 468858" d="M38.6,25.521a13.01,13.01,0,0,1-4.163,9.536,1.443,1.443,0,0,1-.153.153,13.415,13.415,0,0,1-4.255,2.571.746.746,0,0,1-.168.061,12.928,12.928,0,0,1-8.679,0,.64.64,0,0,1-.153-.061,13.086,13.086,0,0,1-4.255-2.571.725.725,0,0,1-.153-.153A13.062,13.062,0,1,1,38.6,25.521m-3.98,5.694a10.745,10.745,0,1,0-18.184,0,9.285,9.285,0,0,1,5.189-6.964,4.712,4.712,0,0,1-.857-2.709,4.76,4.76,0,1,1,9.52,0,4.712,4.712,0,0,1-.857,2.709,9.285,9.285,0,0,1,5.189,6.964M32.4,33.771V32.562a6.9,6.9,0,0,0-5.051-6.628,4.776,4.776,0,0,1-1.821.367,4.854,4.854,0,0,1-1.837-.367,6.92,6.92,0,0,0-5.051,6.628v1.209a11.117,11.117,0,0,0,1.73,1.179V31.965a1.163,1.163,0,1,1,2.327,0v3.918a10.806,10.806,0,0,0,2.832.383,10.69,10.69,0,0,0,2.816-.383V31.965a1.171,1.171,0,0,1,2.342,0V34.95A10.982,10.982,0,0,0,32.4,33.771m-5.709-10.1a2.434,2.434,0,1,0-2.327,0H24.4a2.3,2.3,0,0,0,2.265,0Z" transform="translate(6.611 6.606)"/>
        <path id="Trazado_468859" data-name="Trazado 468859" d="M35.47,24.71A10.639,10.639,0,0,1,33.817,30.4a9.285,9.285,0,0,0-5.189-6.964,4.712,4.712,0,0,0,.857-2.709,4.76,4.76,0,1,0-9.52,0,4.712,4.712,0,0,0,.857,2.709A9.285,9.285,0,0,0,15.633,30.4,10.734,10.734,0,1,1,35.47,24.71" transform="translate(7.418 7.418)" fill="#d4eafd"/>
        <path id="Trazado_468860" data-name="Trazado 468860" d="M30.26,27.888V29.1a10.983,10.983,0,0,1-1.714,1.179V27.291a1.171,1.171,0,0,0-2.342,0v3.918a10.69,10.69,0,0,1-2.816.383,10.806,10.806,0,0,1-2.832-.383V27.291a1.163,1.163,0,0,0-2.327,0v2.985A11.117,11.117,0,0,1,16.5,29.1V27.888a6.92,6.92,0,0,1,5.051-6.628,4.854,4.854,0,0,0,1.837.367,4.776,4.776,0,0,0,1.821-.367,6.9,6.9,0,0,1,5.051,6.628" transform="translate(8.755 11.281)" fill="#e69787"/>
        <path id="Trazado_468861" data-name="Trazado 468861" d="M27.967,5.173a5.166,5.166,0,0,1-4.01,5.02v5.8a1.163,1.163,0,0,1-2.327,0v-5.8a5.164,5.164,0,1,1,6.337-5.02m-2.327,0a2.847,2.847,0,1,0-2.847,2.832A2.851,2.851,0,0,0,25.64,5.173" transform="translate(9.349 0)"/>
        <path id="Trazado_468862" data-name="Trazado 468862" d="M23.957,37.734a5.173,5.173,0,1,1-2.327,0v-5.8a1.163,1.163,0,0,1,2.327,0ZM25.64,42.77a2.847,2.847,0,1,0-2.847,2.847A2.851,2.851,0,0,0,25.64,42.77" transform="translate(9.349 16.327)"/>
        <path id="Trazado_468863" data-name="Trazado 468863" d="M24.277,19.234a2.454,2.454,0,0,1-1.27,2.128h-.031a2.3,2.3,0,0,1-2.265,0H20.68a2.43,2.43,0,1,1,3.6-2.128" transform="translate(10.299 8.914)" fill="#f8e794"/>
        <path id="Trazado_468864" data-name="Trazado 468864" d="M21.987,1.52A2.839,2.839,0,1,1,19.14,4.367,2.851,2.851,0,0,1,21.987,1.52" transform="translate(10.156 0.807)" fill="#b8e151"/>
        <path id="Trazado_468865" data-name="Trazado 468865" d="M21.987,36.75A2.847,2.847,0,1,1,19.14,39.6a2.851,2.851,0,0,1,2.847-2.847" transform="translate(10.156 19.5)" fill="#b8e151"/>
        <path id="Trazado_468866" data-name="Trazado 468866" d="M18.813,17.16a1.164,1.164,0,0,1,0,1.653A1.11,1.11,0,0,1,18,19.15a1.145,1.145,0,0,1-.827-.337l-4.1-4.1a5.169,5.169,0,1,1,.918-8.036,5.089,5.089,0,0,1,1.515,3.658,5.014,5.014,0,0,1-.8,2.724ZM13.18,10.333a2.848,2.848,0,0,0-2.847-2.847,2.84,2.84,0,1,0,2.005,4.852,2.778,2.778,0,0,0,.842-2.005" transform="translate(2.738 2.738)"/>
        <path id="Trazado_468867" data-name="Trazado 468867" d="M18.813,28.029a1.146,1.146,0,0,1,0,1.638l-4.1,4.1a5.173,5.173,0,1,1-1.638-1.638l4.1-4.1a1.146,1.146,0,0,1,1.638,0M12.339,38.514a2.836,2.836,0,1,0-4.01,0,2.818,2.818,0,0,0,4.01,0" transform="translate(2.738 14.69)"/>
        <path id="Trazado_468868" data-name="Trazado 468868" d="M16.01,21.62a1.163,1.163,0,1,1,0,2.327h-5.8a5.173,5.173,0,1,1,0-2.327ZM8.02,22.783A2.847,2.847,0,1,0,5.173,25.63,2.851,2.851,0,0,0,8.02,22.783" transform="translate(0 9.344)"/>
        <path id="Trazado_468869" data-name="Trazado 468869" d="M11.531,7.507a2.827,2.827,0,0,1,0,4.025A2.841,2.841,0,1,1,9.526,6.68a2.814,2.814,0,0,1,2.005.827" transform="translate(3.546 3.544)" fill="#6da7bf"/>
        <path id="Trazado_468870" data-name="Trazado 468870" d="M11.531,32.431a2.836,2.836,0,1,1-4.01,0,2.818,2.818,0,0,1,4.01,0" transform="translate(3.546 16.763)" fill="#6da7bf"/>
        <path id="Trazado_468871" data-name="Trazado 468871" d="M4.367,19.13A2.847,2.847,0,1,1,1.52,21.977,2.851,2.851,0,0,1,4.367,19.13" transform="translate(0.807 10.15)" fill="#b8e151"/>
      </g>
    </g>
  </g>
</svg>
