<svg id="Grupo_81028" data-name="Grupo 81028" xmlns="http://www.w3.org/2000/svg" xmlns:xlink="http://www.w3.org/1999/xlink" width="48.542" height="48.458" viewBox="0 0 48.542 48.458">
  <defs>
    <clipPath id="clip-path">
      <rect id="Rectángulo_34046" data-name="Rectángulo 34046" width="48.542" height="48.458" fill="#12263f"/>
    </clipPath>
  </defs>
  <g id="Grupo_80919" data-name="Grupo 80919" transform="translate(0 0)" clip-path="url(#clip-path)">
    <path id="Trazado_115256" data-name="Trazado 115256" d="M19.916,13.435a.848.848,0,0,1-.848-.848v-1.9a.848.848,0,1,1,1.7,0v1.9a.848.848,0,0,1-.848.848" transform="translate(4.39 2.266)" fill="#12263f"/>
    <path id="Trazado_115257" data-name="Trazado 115257" d="M5.387,24.052a.848.848,0,0,1-.848-.848A18.724,18.724,0,0,1,39.2,13.375a.848.848,0,0,1-1.443.892A17.028,17.028,0,0,0,6.234,23.2a.848.848,0,0,1-.848.848" transform="translate(1.045 1.032)" fill="#12263f"/>
    <path id="Trazado_115258" data-name="Trazado 115258" d="M22.763,38.581A18.618,18.618,0,0,1,6.826,29.688.848.848,0,0,1,8.269,28.8a17.028,17.028,0,0,0,31.521-8.939.848.848,0,0,1,1.7,0A18.744,18.744,0,0,1,22.763,38.581" transform="translate(1.542 4.377)" fill="#12263f"/>
    <path id="Trazado_115259" data-name="Trazado 115259" d="M39.962,13.028a.9.9,0,0,1-.189-.021l-3.718-.851a.848.848,0,1,1,.378-1.653l1.646.376A22.356,22.356,0,0,0,19.917,1.7a.848.848,0,1,1,0-1.7A24.067,24.067,0,0,1,40.688,11.742a.848.848,0,0,1-.726,1.286" transform="translate(4.39 0)" fill="#12263f"/>
    <path id="Trazado_115260" data-name="Trazado 115260" d="M20.857,31.846a5.722,5.722,0,0,1-5.877-5.54.848.848,0,0,1,1.7,0,4.028,4.028,0,0,0,4.182,3.844,4.028,4.028,0,0,0,4.182-3.844,4.028,4.028,0,0,0-4.182-3.843,5.722,5.722,0,0,1-5.877-5.54,5.722,5.722,0,0,1,5.877-5.54,5.722,5.722,0,0,1,5.877,5.54.848.848,0,1,1-1.7,0,4.028,4.028,0,0,0-4.182-3.843,4.028,4.028,0,0,0-4.182,3.843,4.028,4.028,0,0,0,4.182,3.844,5.721,5.721,0,0,1,5.877,5.538,5.722,5.722,0,0,1-5.877,5.54" transform="translate(3.449 2.621)" fill="#12263f"/>
    <path id="Trazado_115261" data-name="Trazado 115261" d="M19.916,34a.848.848,0,0,1-.848-.848V12.232a.848.848,0,1,1,1.7,0V33.15a.848.848,0,0,1-.848.848" transform="translate(4.39 2.621)" fill="#12263f"/>
    <path id="Trazado_115262" data-name="Trazado 115262" d="M36.212,11.649a.786.786,0,0,1-.118-.009.848.848,0,0,1-.723-.957l.552-3.96a.848.848,0,1,1,1.68.234l-.552,3.961a.848.848,0,0,1-.839.731" transform="translate(8.141 1.379)" fill="#12263f"/>
    <path id="Trazado_115263" data-name="Trazado 115263" d="M29.716,40.877a.848.848,0,0,1-.827-1.037l.851-3.719a.848.848,0,1,1,1.653.379l-.376,1.645A22.354,22.354,0,0,0,40.2,19.983a.848.848,0,0,1,1.7,0A24.068,24.068,0,0,1,30.154,40.755a.85.85,0,0,1-.438.122" transform="translate(6.646 4.405)" fill="#12263f"/>
    <path id="Trazado_115264" data-name="Trazado 115264" d="M33.678,37.677a.774.774,0,0,1-.118-.009L29.6,37.117a.848.848,0,0,1,.234-1.68l3.961.552a.848.848,0,0,1-.116,1.688" transform="translate(6.646 8.157)" fill="#12263f"/>
    <path id="Trazado_115265" data-name="Trazado 115265" d="M23.611,41.828A24.074,24.074,0,0,1,2.839,30.086a.848.848,0,0,1,.917-1.265l3.718.851a.848.848,0,0,1-.379,1.653l-1.645-.376a22.359,22.359,0,0,0,18.162,9.182.848.848,0,0,1,0,1.7" transform="translate(0.626 6.63)" fill="#12263f"/>
    <path id="Trazado_115266" data-name="Trazado 115266" d="M3.118,34.457A.763.763,0,0,1,3,34.448a.848.848,0,0,1-.723-.957l.552-3.961a.848.848,0,0,1,1.679.235l-.551,3.961a.848.848,0,0,1-.839.731" transform="translate(0.522 6.63)" fill="#12263f"/>
    <path id="Trazado_115267" data-name="Trazado 115267" d="M.848,24.324A.848.848,0,0,1,0,23.476,24.068,24.068,0,0,1,11.742,2.7a.847.847,0,0,1,1.263.915l-.851,3.719A.848.848,0,1,1,10.5,6.959l.376-1.645A22.355,22.355,0,0,0,1.7,23.476a.848.848,0,0,1-.848.848" transform="translate(0 0.595)" fill="#12263f"/>
    <path id="Trazado_115268" data-name="Trazado 115268" d="M10.8,4.382a.966.966,0,0,1-.118-.007l-3.96-.552a.848.848,0,0,1,.234-1.68l3.96.552A.848.848,0,0,1,10.8,4.382" transform="translate(1.38 0.491)" fill="#12263f"/>
  </g>
</svg>
