<svg id="Grupo_81030" data-name="Grupo 81030" xmlns="http://www.w3.org/2000/svg" xmlns:xlink="http://www.w3.org/1999/xlink" width="65" height="44.704" viewBox="0 0 65 44.704">
  <defs>
    <clipPath id="clip-path">
      <rect id="Rectángulo_34047" data-name="Rectángulo 34047" width="65" height="44.704" fill="#12263f"/>
    </clipPath>
  </defs>
  <g id="Grupo_80921" data-name="Grupo 80921" transform="translate(0 0)" clip-path="url(#clip-path)">
    <path id="Trazado_115269" data-name="Trazado 115269" d="M22.9,23.08a4.106,4.106,0,0,1-2.764-1.068,4.927,4.927,0,0,1-1.168-1.576L14.9,11.725a4.946,4.946,0,0,1,2.383-6.568c5.063-2.214,13.051-.679,18.337.336l.2.038A10.108,10.108,0,0,0,42.028,4.7L43,4.249a1.046,1.046,0,0,1,.887,1.9l-.97.454a12.2,12.2,0,0,1-7.493.989l-.2-.038c-5.033-.967-12.636-2.428-17.08-.486a2.846,2.846,0,0,0-1.349,3.775l4.073,8.709a2.807,2.807,0,0,0,.671.91,2.043,2.043,0,0,0,2.223.349,2.392,2.392,0,0,0,1.467-2.14,12.353,12.353,0,0,0-1.537-5.61,1.047,1.047,0,0,1,1.877-.926,14.312,14.312,0,0,1,1.751,6.6,4.518,4.518,0,0,1-2.736,4,4.281,4.281,0,0,1-1.681.348" transform="translate(7.484 2.087)" fill="#12263f"/>
    <path id="Trazado_115270" data-name="Trazado 115270" d="M33.612,21.69a1.047,1.047,0,0,1-.914-1.555,15.652,15.652,0,0,1,6.416-5.622,1.046,1.046,0,0,1,.887,1.9,13.584,13.584,0,0,0-5.473,4.743,1.046,1.046,0,0,1-.916.539" transform="translate(16.888 7.476)" fill="#12263f"/>
    <path id="Trazado_115271" data-name="Trazado 115271" d="M43.3,26.76a4.883,4.883,0,0,1-4.6-3.251L32.738,6.59A4.877,4.877,0,0,1,35.711.376l.27-.1a4.872,4.872,0,0,1,6.24,3.048l5.695,17.014a4.891,4.891,0,0,1-3,6.14,4.84,4.84,0,0,1-1.614.278M37.6,2.1a2.79,2.79,0,0,0-.926.159l-.27.1a2.78,2.78,0,0,0-1.7,3.543l5.965,16.92a2.778,2.778,0,0,0,5.254-1.806L40.237,3.992A2.781,2.781,0,0,0,37.6,2.1" transform="translate(16.833 0.001)" fill="#12263f"/>
    <path id="Trazado_115272" data-name="Trazado 115272" d="M5.324,29.065a4.862,4.862,0,0,1-1.932-.4l-.454-.2A4.883,4.883,0,0,1,.276,22.379l5.572-15.8a4.87,4.87,0,0,1,6.525-2.852l.456.2a4.887,4.887,0,0,1,2.662,6.091l-5.573,15.8a4.863,4.863,0,0,1-4.594,3.25m5.118-23.65a2.8,2.8,0,0,0-1.112.234A2.756,2.756,0,0,0,7.822,7.272l-5.573,15.8a2.786,2.786,0,0,0,1.519,3.473l.456.2a2.775,2.775,0,0,0,3.721-1.626l5.573-15.8A2.786,2.786,0,0,0,12,5.841l-.454-.2a2.777,2.777,0,0,0-1.1-.231" transform="translate(0 1.724)" fill="#12263f"/>
    <path id="Trazado_115273" data-name="Trazado 115273" d="M29.774,37.089a4.4,4.4,0,0,1-1.906-.434l-3.959-1.9a1.047,1.047,0,0,1,.905-1.888l3.957,1.9a2.329,2.329,0,0,0,2.172-4.117,1.046,1.046,0,0,1,.383-1.942l.1-.014a1.039,1.039,0,0,1,.594.093A2.333,2.333,0,0,0,34.4,24.8a1.047,1.047,0,0,1-.282-1.388l.053-.087a1.048,1.048,0,0,1,1.32-.416,2.244,2.244,0,0,0,2.894-1.194,2.316,2.316,0,0,0-.545-2.788,2.079,2.079,0,0,0-.387-.251L27.2,13.761a3.216,3.216,0,0,0-3.673,1.27,1.047,1.047,0,1,1-1.888-.905,5.246,5.246,0,0,1,6.466-2.252l10.249,4.913a3.971,3.971,0,0,1,.765.483.927.927,0,0,1,.074.061,4.367,4.367,0,0,1,1.077,5.286,4.463,4.463,0,0,1-3.113,2.475A4.42,4.42,0,0,1,34.5,30.858a4.259,4.259,0,0,1-.62.17,4.409,4.409,0,0,1-4.108,6.061" transform="translate(11.17 5.955)" fill="#12263f"/>
    <path id="Trazado_115274" data-name="Trazado 115274" d="M25.831,28.737a1.033,1.033,0,0,1-.506-.131l-6.077-3.353a1.047,1.047,0,0,1,1.011-1.833l6.079,3.353a1.047,1.047,0,0,1-.507,1.964" transform="translate(9.701 12.078)" fill="#12263f"/>
    <path id="Trazado_115275" data-name="Trazado 115275" d="M31.752,26.634a1.039,1.039,0,0,1-.481-.118l-9.716-5.04a1.046,1.046,0,0,1,.964-1.857l9.716,5.04a1.047,1.047,0,0,1-.483,1.976" transform="translate(10.885 10.113)" fill="#12263f"/>
    <path id="Trazado_115276" data-name="Trazado 115276" d="M33.7,22.546a1.045,1.045,0,0,1-.483-.118l-8.46-4.415a1.047,1.047,0,0,1,.967-1.857l8.46,4.416a1.046,1.046,0,0,1-.484,1.974" transform="translate(12.544 8.318)" fill="#12263f"/>
    <path id="Trazado_115277" data-name="Trazado 115277" d="M31.755,35.776a3.76,3.76,0,0,1-.952-.128c-3.116-.806-14.232-6.115-20.7-12.3a20.3,20.3,0,0,1-1.584-1.74,8.069,8.069,0,0,0-2.732-2.405,1.047,1.047,0,0,1,.905-1.888,9.984,9.984,0,0,1,3.432,2.948,18.839,18.839,0,0,0,1.424,1.573c6.276,6,17.155,11.1,19.781,11.783a1.056,1.056,0,0,0,1.061-.176,1.009,1.009,0,0,0,.334-.9,1.342,1.342,0,0,0-.688-1.028l-4.3-2.295a1.047,1.047,0,0,1,.987-1.847l4.3,2.295a3.418,3.418,0,0,1,1.784,2.648,3.08,3.08,0,0,1-1.055,2.72,3.013,3.013,0,0,1-2,.738" transform="translate(2.692 8.928)" fill="#12263f"/>
    <path id="Trazado_115278" data-name="Trazado 115278" d="M16.236,10.466a13.7,13.7,0,0,1-5.68-1.145l-1.087-.5a1.047,1.047,0,0,1,.878-1.9l1.1.509a12.379,12.379,0,0,0,6.878.768,1.047,1.047,0,1,1,.375,2.059,13.886,13.886,0,0,1-2.465.211" transform="translate(4.595 3.538)" fill="#12263f"/>
    <path id="Trazado_115279" data-name="Trazado 115279" d="M8.714,25.623a1.065,1.065,0,0,1-.36-.064,1.046,1.046,0,0,1-.623-1.342l4.313-11.8a1.046,1.046,0,1,1,1.965.718L9.7,24.935a1.045,1.045,0,0,1-.983.688" transform="translate(3.976 6.083)" fill="#12263f"/>
    <path id="Trazado_115280" data-name="Trazado 115280" d="M33.66,16.105a1.045,1.045,0,0,1-.984-.691L29.458,6.52a1.047,1.047,0,0,1,1.97-.711L34.644,14.7a1.048,1.048,0,0,1-.629,1.341,1.037,1.037,0,0,1-.355.062" transform="translate(15.244 2.654)" fill="#12263f"/>
  </g>
</svg>
