<svg xmlns="http://www.w3.org/2000/svg" xmlns:xlink="http://www.w3.org/1999/xlink" width="175.023" height="175.02" viewBox="0 0 175.023 175.02">
  <defs>
    <filter id="Trazado_465588" x="0" y="0" width="175.023" height="175.02" filterUnits="userSpaceOnUse">
      <feOffset dy="3" input="SourceAlpha"/>
      <feGaussianBlur stdDeviation="3" result="blur"/>
      <feFlood flood-opacity="0.161"/>
      <feComposite operator="in" in2="blur"/>
      <feComposite in="SourceGraphic"/>
    </filter>
    <clipPath id="clip-path">
      <rect id="Rect치ngulo_34548" data-name="Rect치ngulo 34548" width="64.951" height="66.001" fill="none"/>
    </clipPath>
  </defs>
  <g id="Grupo_717814" data-name="Grupo 717814" transform="translate(-351 -3233.023)">
    <g transform="matrix(1, 0, 0, 1, 351, 3233.02)" filter="url(#Trazado_465588)">
      <path id="Trazado_465588-2" data-name="Trazado 465588" d="M1435.863,6.274V150.745c0,3.466-3.97,6.275-8.869,6.275H1287.709c-4.9,0-8.869-2.809-8.869-6.275V6.274c0-.1,0-.2.01-.3.221-3.326,4.1-5.973,8.859-5.973h139.285C1431.892,0,1435.863,2.809,1435.863,6.274Z" transform="translate(-1269.84 6)" fill="#cce951" opacity="0.25"/>
    </g>
    <path id="Trazado_469004" data-name="Trazado 469004" d="M43.582,12.07h-4.5v3.047h5.281V17H36.738V5.625h7.609v1.9H39.082v2.711h4.5Zm1.656.641a5.094,5.094,0,0,1,.887-3.148,2.877,2.877,0,0,1,2.426-1.172,2.589,2.589,0,0,1,2.039.922V5h2.266V17H50.816l-.109-.9a2.657,2.657,0,0,1-2.172,1.055,2.869,2.869,0,0,1-2.395-1.176A5.258,5.258,0,0,1,45.238,12.711Zm2.258.168A3.337,3.337,0,0,0,47.91,14.7a1.349,1.349,0,0,0,1.2.634,1.511,1.511,0,0,0,1.477-.884V11.111a1.489,1.489,0,0,0-1.461-.884Q47.5,10.227,47.5,12.879Zm12.172,3.262a2.831,2.831,0,0,1-2.312,1.016,2.67,2.67,0,0,1-2.074-.781,3.335,3.335,0,0,1-.73-2.289V8.547h2.258v5.467q0,1.322,1.2,1.322a1.63,1.63,0,0,0,1.578-.8V8.547h2.266V17H59.73Zm7.406-.8a1.481,1.481,0,0,0,1.016-.344,1.2,1.2,0,0,0,.406-.914h2.117a2.9,2.9,0,0,1-.469,1.574,3.093,3.093,0,0,1-1.262,1.109,3.949,3.949,0,0,1-1.77.395A3.67,3.67,0,0,1,64.254,16a4.56,4.56,0,0,1-1.047-3.184v-.148a4.508,4.508,0,0,1,1.039-3.117A3.627,3.627,0,0,1,67.1,8.391a3.555,3.555,0,0,1,2.543.9,3.2,3.2,0,0,1,.973,2.4H68.5a1.551,1.551,0,0,0-.406-1.072,1.51,1.51,0,0,0-2.223.163,3.333,3.333,0,0,0-.4,1.866v.235a3.375,3.375,0,0,0,.4,1.878A1.377,1.377,0,0,0,67.074,15.336ZM76.8,17a2.507,2.507,0,0,1-.227-.758,2.732,2.732,0,0,1-2.133.914,3,3,0,0,1-2.059-.719,2.312,2.312,0,0,1-.816-1.812,2.389,2.389,0,0,1,1-2.062,4.915,4.915,0,0,1,2.879-.727H76.48v-.484a1.393,1.393,0,0,0-.3-.937,1.183,1.183,0,0,0-.949-.352,1.345,1.345,0,0,0-.895.273.929.929,0,0,0-.324.75H71.754a2.268,2.268,0,0,1,.453-1.359,3,3,0,0,1,1.281-.98,4.669,4.669,0,0,1,1.859-.355,3.689,3.689,0,0,1,2.48.785,2.747,2.747,0,0,1,.918,2.207v3.664a4.041,4.041,0,0,0,.336,1.82V17Zm-1.867-1.57a1.945,1.945,0,0,0,.922-.223,1.462,1.462,0,0,0,.625-.6V13.156h-.844q-1.7,0-1.8,1.172l-.008.133a.9.9,0,0,0,.3.7A1.153,1.153,0,0,0,74.934,15.43Zm8.25-8.961V8.547h1.445V10.2H83.184v4.219a1.007,1.007,0,0,0,.18.672.9.9,0,0,0,.688.2,3.6,3.6,0,0,0,.664-.055v1.711a4.648,4.648,0,0,1-1.367.2,2.156,2.156,0,0,1-2.422-2.4V10.2H79.691V8.547h1.234V6.469ZM88.27,17H86V8.547H88.27Zm-2.4-10.641a1.112,1.112,0,0,1,.34-.836,1.465,1.465,0,0,1,1.848,0,1.105,1.105,0,0,1,.344.836,1.108,1.108,0,0,1-.348.844,1.448,1.448,0,0,1-1.836,0A1.108,1.108,0,0,1,85.871,6.359Zm7.422,7.883,1.57-5.7h2.359L94.371,17H92.215L89.363,8.547h2.359ZM97.746,12.7a5.013,5.013,0,0,1,.484-2.242A3.546,3.546,0,0,1,99.625,8.93a4.069,4.069,0,0,1,2.113-.539,3.849,3.849,0,0,1,2.793,1.047,4.2,4.2,0,0,1,1.207,2.844l.016.578a4.418,4.418,0,0,1-1.086,3.121,4.209,4.209,0,0,1-5.832,0,4.5,4.5,0,0,1-1.09-3.187Zm2.258.16a3.16,3.16,0,0,0,.453,1.843,1.628,1.628,0,0,0,2.578.008,3.457,3.457,0,0,0,.461-2.015,3.128,3.128,0,0,0-.461-1.831,1.5,1.5,0,0,0-1.3-.649,1.474,1.474,0,0,0-1.281.646A3.516,3.516,0,0,0,100,12.856Z" transform="translate(368 3349.805)" fill="#12263f"/>
    <g id="Grupo_717771" data-name="Grupo 717771" transform="translate(406 3274.804)">
      <g id="Grupo_717770" data-name="Grupo 717770" transform="translate(0 0)" clip-path="url(#clip-path)">
        <path id="Trazado_468825" data-name="Trazado 468825" d="M63.7,63.506A1.247,1.247,0,0,1,63.7,66H7.879a3.005,3.005,0,0,1-3-3V57.449H1.247A1.261,1.261,0,0,1,0,56.185a1.247,1.247,0,0,1,1.247-1.247H4.875V45.845H1.313a1.247,1.247,0,0,1,0-2.495H4.875V34.256h-3.5A1.247,1.247,0,0,1,.131,33.009a1.261,1.261,0,0,1,1.247-1.264h3.5V22.651H1.444a1.247,1.247,0,0,1,0-2.495H4.875V11.063H1.51a1.247,1.247,0,0,1,0-2.495H4.875V3a3.005,3.005,0,0,1,3-3H50.506a3.005,3.005,0,0,1,3,3,1.248,1.248,0,1,1-2.495,0,.511.511,0,0,0-.509-.509H7.879A.511.511,0,0,0,7.37,3V8.568H9.635V8.125a1.247,1.247,0,0,1,2.495,0v3.381a1.247,1.247,0,0,1-2.495,0v-.443H7.37v9.093h2.2v-.443a1.247,1.247,0,0,1,2.495,0v3.381a1.247,1.247,0,1,1-2.495,0v-.443H7.37v9.093H9.5v-.427a1.247,1.247,0,0,1,2.495,0v3.365a1.248,1.248,0,1,1-2.495,0v-.427H7.37V43.35H9.438v-.443a1.247,1.247,0,1,1,2.495,0v3.381a1.247,1.247,0,0,1-2.495,0v-.443H7.37v9.093h2v-.427a1.248,1.248,0,1,1,2.495,0v3.365a1.247,1.247,0,1,1-2.495,0v-.427h-2V63a.511.511,0,0,0,.509.509H48.208l-4.777-9.093V54.38a1.2,1.2,0,0,1-.131-.542V9.52a3.846,3.846,0,0,1,3.841-3.841H55.4A3.849,3.849,0,0,1,59.255,9.52V53.838a1.2,1.2,0,0,1-.131.542c-.016,0,0,.016-.016.033l-4.76,9.093ZM56.76,52.591V20.518H52.525V47.305a1.247,1.247,0,0,1-2.495,0V20.518H45.8V52.591Zm0-36.226H45.8v1.658H56.76Zm0-2.511V9.52A1.356,1.356,0,0,0,55.4,8.174H47.141A1.352,1.352,0,0,0,45.8,9.52v4.333Zm-2.544,44.5,1.723-3.266H46.6l1.723,3.266Zm-2.577,4.924,1.28-2.413H49.636L50.9,63.276a.409.409,0,0,0,.378.23.4.4,0,0,0,.361-.23" transform="translate(0 0)"/>
        <path id="Trazado_468826" data-name="Trazado 468826" d="M38.865,12.5V44.573H27.9V12.5h4.235V39.288a1.247,1.247,0,1,0,2.495,0V12.5Z" transform="translate(17.895 8.018)" fill="#d4eafd"/>
        <rect id="Rect치ngulo_34547" data-name="Rect치ngulo 34547" width="10.965" height="1.658" transform="translate(45.795 16.365)" fill="#6da7bf"/>
        <path id="Trazado_468827" data-name="Trazado 468827" d="M38.865,6.326v4.333H27.9V6.326A1.352,1.352,0,0,1,29.246,4.98H37.5a1.356,1.356,0,0,1,1.362,1.346" transform="translate(17.895 3.194)" fill="#d4eafd"/>
        <path id="Trazado_468828" data-name="Trazado 468828" d="M37.73,33.56l-1.723,3.266H30.113L28.39,33.56Z" transform="translate(18.21 21.526)" fill="#ceb8ef"/>
        <path id="Trazado_468829" data-name="Trazado 468829" d="M33.523,37.08l-1.28,2.413a.4.4,0,0,1-.361.23.409.409,0,0,1-.378-.23L30.24,37.08Z" transform="translate(19.396 23.783)" fill="#ceb8ef"/>
        <path id="Trazado_468830" data-name="Trazado 468830" d="M49.383,3.293V4.7H44.261A3.846,3.846,0,0,0,40.42,8.545V52.863a1.2,1.2,0,0,0,.131.542v.033l4.777,9.093H5a.511.511,0,0,1-.509-.509V56.474h2V56.9a1.247,1.247,0,1,0,2.495,0V53.536a1.248,1.248,0,1,0-2.495,0v.427h-2V44.87H6.558v.443a1.247,1.247,0,0,0,2.495,0V41.931a1.247,1.247,0,1,0-2.495,0v.443H4.49V33.281H6.624v.427a1.248,1.248,0,1,0,2.495,0V30.343a1.247,1.247,0,0,0-2.495,0v.427H4.49V21.676h2.2v.443a1.247,1.247,0,1,0,2.495,0V18.738a1.247,1.247,0,0,0-2.495,0v.443H4.49V10.088H6.755v.443a1.247,1.247,0,0,0,2.495,0V7.15a1.247,1.247,0,0,0-2.495,0v.443H4.49V2.029A.511.511,0,0,1,5,1.52H47.626a.511.511,0,0,1,.509.509,1.261,1.261,0,0,0,1.247,1.264m-13.9,15a1.247,1.247,0,0,0-1.247-1.247H18.261a1.247,1.247,0,0,0,0,2.495H34.232A1.247,1.247,0,0,0,35.48,18.3m0,6.582a1.261,1.261,0,0,0-1.247-1.264H18.261a1.261,1.261,0,0,0-1.247,1.264,1.247,1.247,0,0,0,1.247,1.247H34.232a1.247,1.247,0,0,0,1.247-1.247M33.674,11.73a1.247,1.247,0,0,0-1.247-1.247H18.261a1.247,1.247,0,1,0,0,2.495H32.427a1.247,1.247,0,0,0,1.247-1.247" transform="translate(2.88 0.975)" fill="#f8e794"/>
        <path id="Trazado_468831" data-name="Trazado 468831" d="M29.338,10.98a1.247,1.247,0,0,1,0,2.495H13.367a1.247,1.247,0,0,1,0-2.495Z" transform="translate(7.774 7.043)"/>
        <path id="Trazado_468832" data-name="Trazado 468832" d="M29.338,14.98a1.261,1.261,0,0,1,1.247,1.264,1.247,1.247,0,0,1-1.247,1.247H13.367a1.247,1.247,0,0,1-1.247-1.247,1.261,1.261,0,0,1,1.247-1.264Z" transform="translate(7.774 9.608)"/>
        <path id="Trazado_468833" data-name="Trazado 468833" d="M27.533,6.98a1.247,1.247,0,1,1,0,2.495H13.367a1.247,1.247,0,1,1,0-2.495Z" transform="translate(7.774 4.477)"/>
      </g>
    </g>
  </g>
</svg>
