<svg xmlns="http://www.w3.org/2000/svg" xmlns:xlink="http://www.w3.org/1999/xlink" width="175.023" height="175.02" viewBox="0 0 175.023 175.02">
  <defs>
    <filter id="Trazado_468705" x="0" y="0" width="175.023" height="175.02" filterUnits="userSpaceOnUse">
      <feOffset dy="3" input="SourceAlpha"/>
      <feGaussianBlur stdDeviation="3" result="blur"/>
      <feFlood flood-opacity="0.161"/>
      <feComposite operator="in" in2="blur"/>
      <feComposite in="SourceGraphic"/>
    </filter>
    <clipPath id="clip-path">
      <rect id="Rectángulo_34549" data-name="Rectángulo 34549" width="54.541" height="64.647" fill="none"/>
    </clipPath>
  </defs>
  <g id="Grupo_717819" data-name="Grupo 717819" transform="translate(-1254 -3233)">
    <g transform="matrix(1, 0, 0, 1, 1254, 3233)" filter="url(#Trazado_468705)">
      <path id="Trazado_468705-2" data-name="Trazado 468705" d="M6551.223,6.274V150.745c0,3.466-3.971,6.275-8.87,6.275H6403.068c-4.9,0-8.869-2.809-8.869-6.275V6.274c0-.1,0-.2.01-.3.221-3.326,4.1-5.973,8.857-5.973h139.284c4.9,0,8.87,2.809,8.87,6.274Z" transform="translate(-6385.2 6)" fill="#cce951" opacity="0.25"/>
    </g>
    <g id="Grupo_717777" data-name="Grupo 717777" transform="translate(-0.817 -18.209)">
      <path id="Trazado_469009" data-name="Trazado 469009" d="M52.664,14.18l2.578-8.555h2.609L53.891,17H51.445L47.5,5.625h2.6ZM61.156,17H58.891V8.547h2.266Zm-2.4-10.641a1.112,1.112,0,0,1,.34-.836,1.465,1.465,0,0,1,1.848,0,1.105,1.105,0,0,1,.344.836,1.108,1.108,0,0,1-.348.844,1.448,1.448,0,0,1-1.836,0A1.108,1.108,0,0,1,58.758,6.359Zm9.008,4.3a6.134,6.134,0,0,0-.812-.062,1.654,1.654,0,0,0-1.68.867V17H63.016V8.547h2.133l.063,1.008a2.092,2.092,0,0,1,1.883-1.164,2.366,2.366,0,0,1,.7.1Zm4.18-4.2V8.547h1.445V10.2H71.945v4.219a1.007,1.007,0,0,0,.18.672.9.9,0,0,0,.688.2,3.6,3.6,0,0,0,.664-.055v1.711a4.648,4.648,0,0,1-1.367.2,2.156,2.156,0,0,1-2.422-2.4V10.2H68.453V8.547h1.234V6.469Zm7.766,9.672A2.831,2.831,0,0,1,77.4,17.156a2.67,2.67,0,0,1-2.074-.781,3.335,3.335,0,0,1-.73-2.289V8.547h2.258v5.467q0,1.322,1.2,1.322a1.63,1.63,0,0,0,1.578-.8V8.547H81.9V17H79.773ZM88.5,17a2.507,2.507,0,0,1-.227-.758,2.732,2.732,0,0,1-2.133.914,3,3,0,0,1-2.059-.719,2.312,2.312,0,0,1-.816-1.812,2.389,2.389,0,0,1,1-2.062,4.915,4.915,0,0,1,2.879-.727H88.18v-.484a1.393,1.393,0,0,0-.3-.937,1.183,1.183,0,0,0-.949-.352,1.345,1.345,0,0,0-.895.273.929.929,0,0,0-.324.75H83.453a2.268,2.268,0,0,1,.453-1.359,3,3,0,0,1,1.281-.98,4.669,4.669,0,0,1,1.859-.355,3.689,3.689,0,0,1,2.48.785,2.747,2.747,0,0,1,.918,2.207v3.664a4.041,4.041,0,0,0,.336,1.82V17Zm-1.867-1.57a1.945,1.945,0,0,0,.922-.223,1.462,1.462,0,0,0,.625-.6V13.156h-.844q-1.7,0-1.8,1.172l-.008.133a.9.9,0,0,0,.3.7A1.153,1.153,0,0,0,86.633,15.43ZM94.563,17H92.3V5h2.266Z" transform="translate(1269.771 3368.523)" fill="#12263f"/>
      <g id="Grupo_717773" data-name="Grupo 717773" transform="translate(1315.817 3295.209)">
        <g id="Grupo_717772" data-name="Grupo 717772" transform="translate(0 0)" clip-path="url(#clip-path)">
          <path id="Trazado_468834" data-name="Trazado 468834" d="M18.292,14.614V44.2H31.2V9.171S29.016,4.369,18.292,3.9Z" transform="translate(8.694 1.853)" fill="#d4eafd"/>
          <path id="Trazado_468835" data-name="Trazado 468835" d="M10.711,11.417h5.613s9.1-.724,9.855,6.15,0,17.194,0,17.194l-4.6.19V58.058H5.461V34.727H1.13v-18.1s1.475-5.289,9.581-5.206" transform="translate(0.537 5.416)" fill="#e69787"/>
          <path id="Trazado_468836" data-name="Trazado 468836" d="M47.283,27.806q.133,1.394.133,2.833t-.133,2.833a2.185,2.185,0,0,0-.044.28c-.1.841-.221,1.667-.384,2.478a.089.089,0,0,0-.015.059c0,.015-.015.03-.015.044A27.638,27.638,0,0,1,25.537,57.607c-.015,0-.015.015-.03.015a.089.089,0,0,0-.059.015c-.9.177-1.815.325-2.744.428H22.69c-.929.089-1.874.148-2.833.148-.487,0-.974-.015-1.446-.044a1.116,1.116,0,0,1-1.062-1.106v-.074a1.122,1.122,0,0,1,1.18-1.062h.207V43.208a1.121,1.121,0,0,1,1.121-1.121,60.082,60.082,0,0,0,10.534-.915,59.4,59.4,0,0,0,.9-9.412H23.516a1.121,1.121,0,0,1,0-2.242h7.775a59.927,59.927,0,0,0-.9-9.427,62.364,62.364,0,0,0-8.409-.856,1.134,1.134,0,0,1-.9-.487,1.143,1.143,0,0,1,.974-1.756,63.683,63.683,0,0,1,7.878.752c-1.151-5.075-2.965-9.309-5.237-11.95-.708-.133-1.431-.251-2.169-.325-.192-.015-.369-.015-.561-.044l-.988-.044v8.5a1.121,1.121,0,1,1-2.242,0V5.367c-.162,0-.325,0-.487.015-.664.044-1.328.1-1.977.192a1.13,1.13,0,0,1-.826-.207A1.469,1.469,0,0,1,15.3,5.2a1.469,1.469,0,0,1-.148-.162.089.089,0,0,1-.015-.059A1.031,1.031,0,0,1,15,4.629a1.118,1.118,0,0,1,.959-1.269q1.084-.155,2.213-.221c.207-.015.413-.015.62-.015.354-.015.708-.044,1.062-.044.148,0,.28.015.413.015.561.015,1.106.044,1.652.089.325.03.664.044.988.074.708.074,1.416.192,2.124.325.133.03.28.044.413.074h.059a.054.054,0,0,0,.044.015A27.658,27.658,0,0,1,46.826,24.959c0,.015.015.03.015.044a.054.054,0,0,0,.015.044c.162.826.3,1.667.384,2.508.015.089.03.162.044.251m-13.75,1.711H45.114c-.015-.457-.015-.915-.059-1.372-.03-.325-.1-.634-.133-.944-.074-.472-.133-.929-.221-1.4-2.626-2.257-6.845-4.072-11.935-5.223a63.634,63.634,0,0,1,.767,8.94M45.114,31.76H33.533a63.634,63.634,0,0,1-.767,8.94c5.075-1.136,9.309-2.951,11.935-5.223.089-.457.148-.929.207-1.387.044-.325.118-.634.148-.944.044-.457.044-.915.059-1.387m-1.343-9.368A25.431,25.431,0,0,0,28.119,6.739,36.269,36.269,0,0,1,32.338,18.2a36.587,36.587,0,0,1,11.433,4.19M28.119,54.553A25.431,25.431,0,0,0,43.772,38.9a35.958,35.958,0,0,1-11.448,4.2,35.958,35.958,0,0,1-4.2,11.448m-3.423.929c2.272-2.626,4.087-6.86,5.223-11.935a61.5,61.5,0,0,1-8.94.767V55.9c.4-.015.8-.015,1.195-.059l.516-.044c.679-.074,1.343-.177,2.006-.31" transform="translate(7.126 1.464)"/>
          <path id="Trazado_468837" data-name="Trazado 468837" d="M39.388,23.88H27.807a63.634,63.634,0,0,0-.767-8.94c5.09,1.151,9.309,2.965,11.935,5.223.089.472.148.929.221,1.4.03.31.1.62.133.944.044.457.044.915.059,1.372" transform="translate(12.852 7.101)" fill="#6da7bf"/>
          <path id="Trazado_468838" data-name="Trazado 468838" d="M27.807,22.52H39.388c-.015.472-.015.929-.059,1.387-.03.31-.1.62-.148.944-.059.457-.118.929-.207,1.387-2.626,2.272-6.86,4.087-11.935,5.223a63.634,63.634,0,0,0,.767-8.94" transform="translate(12.852 10.703)" fill="#6da7bf"/>
          <path id="Trazado_468839" data-name="Trazado 468839" d="M47.386,57.343a1.121,1.121,0,1,1,0,2.242H2.287a1.121,1.121,0,0,1,0-2.242H5.444V36.305H2.788A2.8,2.8,0,0,1,0,33.517V18.779A8.135,8.135,0,0,1,8.129,10.65H10.12a1.121,1.121,0,0,1,0,2.242H8.129a5.893,5.893,0,0,0-5.886,5.886V33.517a.554.554,0,0,0,.546.546H5.444V22.821a1.121,1.121,0,1,1,2.242,0V57.343h5.252V38.858a1.121,1.121,0,1,1,2.242,0V57.343h5.237V22.821a1.121,1.121,0,1,1,2.242,0V34.063h2.656a.545.545,0,0,0,.546-.546V18.779a5.893,5.893,0,0,0-5.886-5.886H17.984a1.121,1.121,0,0,1,0-2.242h1.992a8.122,8.122,0,0,1,7.45,4.883,7.943,7.943,0,0,1,.679,3.246V33.517a2.8,2.8,0,0,1-2.788,2.788H22.66V57.343Z" transform="translate(0 5.062)"/>
          <path id="Trazado_468840" data-name="Trazado 468840" d="M23.89,5.56A25.431,25.431,0,0,1,39.543,21.213a36.587,36.587,0,0,0-11.433-4.19A36.269,36.269,0,0,0,23.89,5.56" transform="translate(11.355 2.643)" fill="#6da7bf"/>
          <path id="Trazado_468841" data-name="Trazado 468841" d="M39.543,27.36A25.431,25.431,0,0,1,23.89,43.013a35.958,35.958,0,0,0,4.2-11.448,35.958,35.958,0,0,0,11.448-4.2" transform="translate(11.355 13.004)" fill="#6da7bf"/>
          <path id="Trazado_468842" data-name="Trazado 468842" d="M27.99,30.51c-1.136,5.075-2.951,9.309-5.223,11.935-.664.133-1.328.236-2.006.31l-.516.044c-.4.044-.8.044-1.195.059V31.277a61.5,61.5,0,0,0,8.94-.767" transform="translate(9.054 14.501)" fill="#d4eafd"/>
          <path id="Trazado_468843" data-name="Trazado 468843" d="M18.824,6.329c.015.236.03.487.03.723A7.061,7.061,0,0,1,11.8,14.1a6.409,6.409,0,0,1-1.416-.148,7.051,7.051,0,1,1,8.439-7.627M16.6,7.052A4.8,4.8,0,1,0,11.8,11.861,4.8,4.8,0,0,0,16.6,7.052" transform="translate(2.258 0)"/>
          <path id="Trazado_468844" data-name="Trazado 468844" d="M11.079,1.53A4.8,4.8,0,1,1,6.27,6.325,4.8,4.8,0,0,1,11.079,1.53" transform="translate(2.98 0.727)" fill="#f8e794"/>
          <path id="Trazado_468845" data-name="Trazado 468845" d="M11.012,15.676V27.154a1.121,1.121,0,0,1-2.242,0V15.676a1.121,1.121,0,1,1,2.242,0" transform="translate(4.168 6.911)"/>
        </g>
      </g>
    </g>
  </g>
</svg>
